<svg width="481" height="586" viewBox="0 0 481 586" fill="none" xmlns="http://www.w3.org/2000/svg">
<g clip-path="url(#clip0_1_3121)">
<path d="M79.941 51.871C149.763 1.62152 268.958 -11.3539 331.101 9.62543C443.28 47.4966 461.295 121.104 460.046 186.902C458.798 252.699 374.583 309.202 352.158 366.723C329.734 424.243 288.594 501.551 209.172 477.869C129.75 454.186 133.146 368.58 109.082 310.767C85.0187 252.954 22.0796 193.686 25.4891 140.618C27.8649 103.567 49.0804 74.0798 79.941 51.871Z" fill="#DEF7E5"/>
<path opacity="0.2" d="M270.328 101.152H462.396C469.298 101.152 474.893 106.753 474.893 113.662V252.405C474.893 259.314 469.298 264.915 462.396 264.915H270.328C263.426 264.915 257.831 259.314 257.831 252.405V113.662C257.831 106.753 263.426 101.152 270.328 101.152Z" fill="black"/>
<path d="M275.704 92.5404H467.772C474.674 92.5404 480.269 98.1414 480.269 105.05V243.794C480.269 250.703 474.674 256.304 467.772 256.304H275.704C268.802 256.304 263.207 250.703 263.207 243.794V105.05C263.207 98.1414 268.802 92.5404 275.704 92.5404Z" fill="white" stroke="#263238" stroke-linecap="round" stroke-linejoin="round"/>
<path d="M410.068 167.405L456.502 182.511C458.484 176.407 459.245 169.971 458.742 163.572C458.239 157.173 456.482 150.936 453.57 145.217C450.659 139.498 446.651 134.409 441.774 130.241C436.898 126.072 431.249 122.906 425.15 120.924C420.288 119.297 415.19 118.489 410.064 118.531L410.068 167.405Z" fill="#DEF7E5" stroke="#263238" stroke-linecap="round" stroke-linejoin="round"/>
<path d="M410.068 167.405L381.37 206.944C391.846 214.561 404.916 217.7 417.705 215.673C430.493 213.645 441.954 206.616 449.566 196.132C452.614 192.005 454.957 187.401 456.501 182.507L410.068 167.405Z" fill="white" stroke="#263238" stroke-linecap="round" stroke-linejoin="round"/>
<path d="M410.068 167.405L363.634 152.301C360.324 162.107 360.262 172.72 363.457 182.564C366.652 192.408 372.934 200.958 381.37 206.944L410.068 167.405Z" fill="#263238" stroke="#263238" stroke-linecap="round" stroke-linejoin="round"/>
<path d="M410.068 167.405V118.524C399.729 118.403 389.627 121.624 381.261 127.708C372.896 133.791 366.714 142.414 363.634 152.294L410.068 167.405Z" fill="white" stroke="#263238" stroke-linecap="round" stroke-linejoin="round"/>
<path d="M410.021 197.876C393.21 197.876 379.582 184.234 379.582 167.406C379.582 150.578 393.21 136.936 410.021 136.936C426.833 136.936 440.461 150.578 440.461 167.406C440.461 184.234 426.833 197.876 410.021 197.876Z" fill="white" stroke="#263238" stroke-linecap="round" stroke-linejoin="round"/>
<path d="M280.624 115.567H347.511V121.107H280.624V115.567Z" fill="#DEF7E5" stroke="#263238" stroke-linecap="round" stroke-linejoin="round"/>
<path d="M295.007 127.438H347.511V132.977H295.007V127.438Z" fill="#263238" stroke="#263238" stroke-linecap="round" stroke-linejoin="round"/>
<path d="M308.926 139.31H347.511V144.849H308.926V139.31Z" fill="white" stroke="#263238" stroke-linecap="round" stroke-linejoin="round"/>
<path d="M292.687 151.182H347.511V156.721H292.687V151.182Z" fill="#DEF7E5" stroke="#263238" stroke-linecap="round" stroke-linejoin="round"/>
<path d="M321.453 163.052H347.511V168.592H321.453V163.052Z" fill="#263238" stroke="#263238" stroke-linecap="round" stroke-linejoin="round"/>
<path d="M280.624 174.924H347.511V180.465H280.624V174.924Z" fill="white" stroke="#263238" stroke-linecap="round" stroke-linejoin="round"/>
<path d="M298.255 186.795H347.511V192.336H298.255V186.795Z" fill="#DEF7E5" stroke="#263238" stroke-linecap="round" stroke-linejoin="round"/>
<path d="M304.468 198.667H347.511V204.206H304.468V198.667Z" fill="#263238" stroke="#263238" stroke-linecap="round" stroke-linejoin="round"/>
<path d="M280.624 210.539H347.511V216.078H280.624V210.539Z" fill="white" stroke="#263238" stroke-linecap="round" stroke-linejoin="round"/>
<path d="M434.923 226.709H383.066" stroke="#263238" stroke-linecap="round" stroke-linejoin="round"/>
<path d="M442.256 234.026H375.734" stroke="#263238" stroke-linecap="round" stroke-linejoin="round"/>
<path d="M345.739 226.709H293.882" stroke="#263238" stroke-linecap="round" stroke-linejoin="round"/>
<path d="M353.072 234.026H286.55" stroke="#263238" stroke-linecap="round" stroke-linejoin="round"/>
<path opacity="0.2" d="M269.252 333.229H434.209C441.111 333.229 446.707 338.83 446.707 345.739V464.03C446.707 470.939 441.111 476.54 434.209 476.54H269.252C262.35 476.54 256.755 470.939 256.755 464.03V345.739C256.755 338.83 262.35 333.229 269.252 333.229Z" fill="black"/>
<path d="M275.704 325.695H440.661C447.563 325.695 453.159 331.296 453.159 338.205V456.496C453.159 463.405 447.563 469.006 440.661 469.006H275.704C268.802 469.006 263.207 463.405 263.207 456.496V338.205C263.207 331.296 268.802 325.695 275.704 325.695Z" fill="white" stroke="#263238" stroke-linecap="round" stroke-linejoin="round"/>
<path d="M440.145 393.83H414.808" stroke="#263238" stroke-linecap="round" stroke-linejoin="round"/>
<path d="M440.145 399.556H400.078" stroke="#263238" stroke-linecap="round" stroke-linejoin="round"/>
<path d="M440.145 405.285H414.808" stroke="#263238" stroke-linecap="round" stroke-linejoin="round"/>
<path d="M440.145 411.011H403.603" stroke="#263238" stroke-linecap="round" stroke-linejoin="round"/>
<path d="M440.145 416.738H414.808" stroke="#263238" stroke-linecap="round" stroke-linejoin="round"/>
<path d="M440.145 422.466H395.378" stroke="#263238" stroke-linecap="round" stroke-linejoin="round"/>
<path d="M376.697 393.83H351.36" stroke="#263238" stroke-linecap="round" stroke-linejoin="round"/>
<path d="M376.697 399.556H336.63" stroke="#263238" stroke-linecap="round" stroke-linejoin="round"/>
<path d="M376.697 405.285H351.36" stroke="#263238" stroke-linecap="round" stroke-linejoin="round"/>
<path d="M376.697 411.011H340.155" stroke="#263238" stroke-linecap="round" stroke-linejoin="round"/>
<path d="M376.697 416.738H351.36" stroke="#263238" stroke-linecap="round" stroke-linejoin="round"/>
<path d="M376.697 422.466H331.93" stroke="#263238" stroke-linecap="round" stroke-linejoin="round"/>
<path d="M313.248 393.83H287.911" stroke="#263238" stroke-linecap="round" stroke-linejoin="round"/>
<path d="M313.248 399.556H273.181" stroke="#263238" stroke-linecap="round" stroke-linejoin="round"/>
<path d="M313.248 405.285H287.911" stroke="#263238" stroke-linecap="round" stroke-linejoin="round"/>
<path d="M313.248 411.011H276.706" stroke="#263238" stroke-linecap="round" stroke-linejoin="round"/>
<path d="M313.248 416.738H287.911" stroke="#263238" stroke-linecap="round" stroke-linejoin="round"/>
<path d="M313.248 422.466H268.48" stroke="#263238" stroke-linecap="round" stroke-linejoin="round"/>
<path d="M392.74 375.013H441.78V384.831H392.74V375.013Z" fill="#263238"/>
<path d="M328.172 375.013H377.212V384.831H328.172V375.013Z" fill="#263238"/>
<path d="M263.603 375.013H312.643V384.831H263.603V375.013Z" fill="#263238"/>
<path d="M385.098 374.432V424.126" stroke="#263238" stroke-linecap="round" stroke-linejoin="round"/>
<path d="M321.061 374.432V424.126" stroke="#263238" stroke-linecap="round" stroke-linejoin="round"/>
<path d="M421.755 351.736L411.141 348.284C410.459 350.385 410.414 352.642 411.013 354.769C411.612 356.896 412.827 358.798 414.506 360.233C416.184 361.668 418.25 362.573 420.442 362.833C422.634 363.093 424.855 362.697 426.822 361.694C428.789 360.69 430.414 359.126 431.493 357.198C432.572 355.27 433.055 353.065 432.882 350.862C432.709 348.659 431.887 346.557 430.521 344.822C429.154 343.086 427.304 341.796 425.204 341.113C424.093 340.741 422.927 340.556 421.755 340.565V351.736Z" fill="#DEF7E5" stroke="#263238" stroke-width="0.5" stroke-miterlimit="10"/>
<path d="M421.756 351.736V340.57C419.392 340.542 417.083 341.278 415.17 342.669C413.258 344.06 411.845 346.031 411.141 348.29L421.756 351.736Z" fill="#263238" stroke="#263238" stroke-width="0.5" stroke-miterlimit="10"/>
<path d="M314.321 351.736L303.707 348.284C303.024 350.386 302.979 352.642 303.578 354.769C304.177 356.896 305.393 358.798 307.071 360.233C308.75 361.668 310.816 362.573 313.008 362.833C315.2 363.093 317.42 362.697 319.387 361.694C321.354 360.69 322.98 359.126 324.059 357.198C325.137 355.27 325.621 353.065 325.448 350.862C325.275 348.659 324.453 346.557 323.086 344.822C321.719 343.086 319.869 341.796 317.77 341.113C316.658 340.741 315.493 340.556 314.321 340.565V351.736Z" fill="#DEF7E5" stroke="#263238" stroke-width="0.5" stroke-miterlimit="10"/>
<path d="M314.321 351.736V340.57C311.958 340.543 309.648 341.279 307.736 342.67C305.824 344.06 304.411 346.031 303.707 348.29L314.321 351.736Z" fill="#263238" stroke="#263238" stroke-width="0.5" stroke-miterlimit="10"/>
<path d="M385.944 351.736V362.907C388.904 362.907 391.743 361.73 393.836 359.635C395.929 357.54 397.105 354.699 397.105 351.736C397.105 348.773 395.929 345.931 393.836 343.836C391.743 341.741 388.904 340.564 385.944 340.564V351.736Z" fill="#DEF7E5" stroke="#263238" stroke-width="0.5" stroke-miterlimit="10"/>
<path d="M385.944 351.736V340.57C382.985 340.57 380.146 341.747 378.053 343.842C375.96 345.937 374.784 348.779 374.784 351.742C374.784 354.704 375.96 357.546 378.053 359.641C380.146 361.736 382.985 362.913 385.944 362.913V351.736Z" fill="#263238" stroke="#263238" stroke-width="0.5" stroke-miterlimit="10"/>
<path d="M350.132 351.736L339.518 355.189C340.454 357.98 342.453 360.289 345.08 361.613C347.707 362.937 350.75 363.169 353.548 362.259C356.345 361.349 358.671 359.371 360.019 356.754C361.367 354.137 361.628 351.093 360.746 348.284C360.042 346.026 358.629 344.055 356.717 342.664C354.805 341.273 352.495 340.537 350.132 340.564V351.736Z" fill="#DEF7E5" stroke="#263238" stroke-width="0.5" stroke-miterlimit="10"/>
<path d="M350.132 351.736V340.57C347.172 340.57 344.333 341.747 342.24 343.842C340.147 345.937 338.971 348.779 338.971 351.742C338.961 352.915 339.146 354.082 339.518 355.195L350.132 351.736Z" fill="#263238" stroke="#263238" stroke-width="0.5" stroke-miterlimit="10"/>
<path d="M278.508 351.736L267.894 355.189C268.336 356.597 269.053 357.904 270.002 359.033C270.952 360.163 272.116 361.093 273.427 361.769C274.738 362.446 276.169 362.856 277.639 362.975C279.109 363.095 280.588 362.921 281.991 362.465C283.394 362.009 284.692 361.279 285.811 360.317C286.93 359.356 287.848 358.182 288.511 356.863C289.174 355.545 289.57 354.107 289.675 352.635C289.78 351.162 289.592 349.684 289.123 348.284C288.418 346.026 287.004 344.057 285.092 342.667C283.18 341.277 280.871 340.542 278.508 340.57V351.736Z" fill="#DEF7E5" stroke="#263238" stroke-width="0.5" stroke-miterlimit="10"/>
<path d="M278.508 351.736V340.57C275.548 340.57 272.709 341.747 270.616 343.842C268.523 345.937 267.347 348.779 267.347 351.742C267.338 352.915 267.523 354.082 267.894 355.195L278.508 351.736Z" fill="#263238" stroke="#263238" stroke-width="0.5" stroke-miterlimit="10"/>
<path d="M276.315 453.121H286.077V456.427H276.315V453.121Z" fill="#DEF7E5" stroke="#263238" stroke-width="0.75" stroke-linecap="round" stroke-linejoin="round"/>
<path d="M287.162 436.592H296.924V456.425H287.162V436.592Z" fill="#263238" stroke="#263238" stroke-width="0.75" stroke-linecap="round" stroke-linejoin="round"/>
<path d="M298.008 443.712H307.77V456.427H298.008V443.712Z" fill="white" stroke="#263238" stroke-width="0.75" stroke-linecap="round" stroke-linejoin="round"/>
<path d="M308.854 433.795H318.616V456.427H308.854V433.795Z" fill="#DEF7E5" stroke="#263238" stroke-width="0.75" stroke-linecap="round" stroke-linejoin="round"/>
<path d="M319.701 450.577H329.463V456.426H319.701V450.577Z" fill="#263238" stroke="#263238" stroke-width="0.75" stroke-linecap="round" stroke-linejoin="round"/>
<path d="M330.547 448.798H340.309V456.427H330.547V448.798Z" fill="white" stroke="#263238" stroke-width="0.75" stroke-linecap="round" stroke-linejoin="round"/>
<path d="M341.393 441.17H351.155V456.427H341.393V441.17Z" fill="#DEF7E5" stroke="#263238" stroke-width="0.75" stroke-linecap="round" stroke-linejoin="round"/>
<path d="M352.24 453.883H362.002V456.426H352.24V453.883Z" fill="#263238" stroke="#263238" stroke-width="0.75" stroke-linecap="round" stroke-linejoin="round"/>
<path d="M363.087 436.592H372.849V456.425H363.087V436.592Z" fill="white" stroke="#263238" stroke-width="0.75" stroke-linecap="round" stroke-linejoin="round"/>
<path d="M373.932 440.406H383.694V456.426H373.932V440.406Z" fill="#DEF7E5" stroke="#263238" stroke-width="0.75" stroke-linecap="round" stroke-linejoin="round"/>
<path d="M384.779 455.664H394.541V456.427H384.779V455.664Z" fill="#263238" stroke="#263238" stroke-width="0.75" stroke-linecap="round" stroke-linejoin="round"/>
<path d="M395.626 455.41H405.388V456.427H395.626V455.41Z" fill="white" stroke="#263238" stroke-width="0.75" stroke-linecap="round" stroke-linejoin="round"/>
<path d="M406.471 443.712H416.233V456.427H406.471V443.712Z" fill="#DEF7E5" stroke="#263238" stroke-width="0.75" stroke-linecap="round" stroke-linejoin="round"/>
<path d="M417.318 453.883H427.08V456.426H417.318V453.883Z" fill="#263238" stroke="#263238" stroke-width="0.75" stroke-linecap="round" stroke-linejoin="round"/>
<path d="M428.165 451.341H437.927V456.427H428.165V451.341Z" fill="white" stroke="#263238" stroke-width="0.75" stroke-linecap="round" stroke-linejoin="round"/>
<path opacity="0.2" d="M12.4974 209.148H204.565C211.467 209.148 217.062 214.749 217.062 221.658V360.402C217.062 367.311 211.467 372.912 204.565 372.912H12.4974C5.59526 372.912 -4.57764e-05 367.311 -4.57764e-05 360.402V221.658C-4.57764e-05 214.749 5.59526 209.148 12.4974 209.148Z" fill="black"/>
<path d="M20.0255 200.537H212.093C218.995 200.537 224.59 206.138 224.59 213.047V351.79C224.59 358.7 218.995 364.301 212.093 364.301H20.0255C13.1233 364.301 7.52798 358.7 7.52798 351.79V213.047C7.52798 206.138 13.1233 200.537 20.0255 200.537Z" fill="white" stroke="#263238" stroke-linecap="round" stroke-linejoin="round"/>
<path d="M21.1907 328.667H32.4498V341.162H21.1907V328.667Z" fill="#DEF7E5" stroke="#263238" stroke-width="0.75" stroke-linecap="round" stroke-linejoin="round"/>
<path d="M33.7013 266.187H44.9604V341.164H33.7013V266.187Z" fill="#263238" stroke="#263238" stroke-width="0.75" stroke-linecap="round" stroke-linejoin="round"/>
<path d="M46.2119 293.101H57.471V341.163H46.2119V293.101Z" fill="white" stroke="#263238" stroke-width="0.75" stroke-linecap="round" stroke-linejoin="round"/>
<path d="M58.7225 255.613H69.9817V341.162H58.7225V255.613Z" fill="#DEF7E5" stroke="#263238" stroke-width="0.75" stroke-linecap="round" stroke-linejoin="round"/>
<path d="M71.2346 319.055H82.4937V341.162H71.2346V319.055Z" fill="#263238" stroke="#263238" stroke-width="0.75" stroke-linecap="round" stroke-linejoin="round"/>
<path d="M83.7452 312.326H95.0043V341.163H83.7452V312.326Z" fill="white" stroke="#263238" stroke-width="0.75" stroke-linecap="round" stroke-linejoin="round"/>
<path d="M96.2558 283.489H107.515V341.162H96.2558V283.489Z" fill="#DEF7E5" stroke="#263238" stroke-width="0.75" stroke-linecap="round" stroke-linejoin="round"/>
<path d="M108.766 331.55H120.026V341.162H108.766V331.55Z" fill="#263238" stroke="#263238" stroke-width="0.75" stroke-linecap="round" stroke-linejoin="round"/>
<path d="M121.277 266.187H132.536V341.164H121.277V266.187Z" fill="white" stroke="#263238" stroke-width="0.75" stroke-linecap="round" stroke-linejoin="round"/>
<path d="M133.788 280.605H145.047V341.164H133.788V280.605Z" fill="#DEF7E5" stroke="#263238" stroke-width="0.75" stroke-linecap="round" stroke-linejoin="round"/>
<path d="M146.298 338.279H157.557V341.162H146.298V338.279Z" fill="#263238" stroke="#263238" stroke-width="0.75" stroke-linecap="round" stroke-linejoin="round"/>
<path d="M158.809 337.318H170.068V341.163H158.809V337.318Z" fill="white" stroke="#263238" stroke-width="0.75" stroke-linecap="round" stroke-linejoin="round"/>
<path d="M171.319 293.101H182.579V341.163H171.319V293.101Z" fill="#DEF7E5" stroke="#263238" stroke-width="0.75" stroke-linecap="round" stroke-linejoin="round"/>
<path d="M183.83 331.55H195.089V341.162H183.83V331.55Z" fill="#263238" stroke="#263238" stroke-width="0.75" stroke-linecap="round" stroke-linejoin="round"/>
<path d="M196.341 321.938H207.6V341.162H196.341V321.938Z" fill="white" stroke="#263238" stroke-width="0.75" stroke-linecap="round" stroke-linejoin="round"/>
<path d="M20.4597 234.754H206.138V244.267H20.4597V234.754Z" fill="#DEF7E5" stroke="#263238" stroke-miterlimit="10"/>
<path d="M127.111 235.45H157.221V243.57H127.111V235.45Z" fill="#263238" stroke="#263238" stroke-miterlimit="10"/>
<path d="M69.3281 235.45H125.888V243.57H69.3281V235.45Z" fill="white" stroke="#263238" stroke-miterlimit="10"/>
<path opacity="0.2" d="M36.175 32.222H186.833C193.735 32.222 199.331 37.823 199.331 44.7321V152.234C199.331 159.143 193.735 164.744 186.833 164.744H36.175C29.2729 164.744 23.6776 159.143 23.6776 152.234V44.7321C23.6776 37.823 29.2729 32.222 36.175 32.222Z" fill="black"/>
<path d="M42.6255 23.6107H193.284C200.186 23.6107 205.781 29.2117 205.781 36.1208V143.623C205.781 150.532 200.186 156.133 193.284 156.133H42.6255C35.7234 156.133 30.1281 150.532 30.1281 143.623V36.1208C30.1281 29.2117 35.7234 23.6107 42.6255 23.6107Z" fill="white" stroke="#263238" stroke-linecap="round" stroke-linejoin="round"/>
<path d="M197.633 143.727H32.7159" stroke="#263238" stroke-width="0.5" stroke-miterlimit="10"/>
<path d="M197.633 143.727V146.169" stroke="#263238" stroke-width="0.5" stroke-miterlimit="10"/>
<path d="M186.639 143.727V146.169" stroke="#263238" stroke-width="0.5" stroke-miterlimit="10"/>
<path d="M175.644 143.727V146.169" stroke="#263238" stroke-width="0.5" stroke-miterlimit="10"/>
<path d="M164.65 143.727V146.169" stroke="#263238" stroke-width="0.5" stroke-miterlimit="10"/>
<path d="M153.655 143.727V146.169" stroke="#263238" stroke-width="0.5" stroke-miterlimit="10"/>
<path d="M142.661 143.727V146.169" stroke="#263238" stroke-width="0.5" stroke-miterlimit="10"/>
<path d="M131.666 143.727V146.169" stroke="#263238" stroke-width="0.5" stroke-miterlimit="10"/>
<path d="M120.672 143.727V146.169" stroke="#263238" stroke-width="0.5" stroke-miterlimit="10"/>
<path d="M109.677 143.727V146.169" stroke="#263238" stroke-width="0.5" stroke-miterlimit="10"/>
<path d="M98.6828 143.727V146.169" stroke="#263238" stroke-width="0.5" stroke-miterlimit="10"/>
<path d="M87.6883 143.727V146.169" stroke="#263238" stroke-width="0.5" stroke-miterlimit="10"/>
<path d="M76.6938 143.727V146.169" stroke="#263238" stroke-width="0.5" stroke-miterlimit="10"/>
<path d="M65.6993 143.727V146.169" stroke="#263238" stroke-width="0.5" stroke-miterlimit="10"/>
<path d="M54.7049 143.727V146.169" stroke="#263238" stroke-width="0.5" stroke-miterlimit="10"/>
<path d="M43.7104 143.727V146.169" stroke="#263238" stroke-width="0.5" stroke-miterlimit="10"/>
<path d="M32.7159 143.727V146.169" stroke="#263238" stroke-width="0.5" stroke-miterlimit="10"/>
<path d="M192.136 141.744H38.2132V120.445L49.095 99.3634C49.1684 99.2166 49.2178 99.0589 49.2413 98.8965L58.9199 36.3916C58.9251 36.0811 59.0534 35.7853 59.2764 35.5695C59.4995 35.3536 59.7991 35.2353 60.1093 35.2405C60.4195 35.2458 60.7149 35.3741 60.9306 35.5974C61.1462 35.8207 61.2644 36.1206 61.2592 36.4311L71.1074 112.74C71.149 113.11 71.3343 113.45 71.6235 113.685L81.1136 121.039C81.2491 121.143 81.4067 121.214 81.5741 121.246C81.7415 121.278 81.9142 121.271 82.0784 121.225C82.2426 121.179 82.3939 121.096 82.5205 120.982C82.6471 120.868 82.7456 120.725 82.808 120.567L92.3624 100.822C92.4341 100.638 92.5541 100.476 92.71 100.354C92.8659 100.231 93.0518 100.154 93.2481 100.128C93.4444 100.103 93.644 100.131 93.8257 100.21C94.0074 100.288 94.1646 100.415 94.2806 100.575L104.168 113.346L115.163 127.542L126.157 113.346L135.843 100.836C135.972 100.662 136.148 100.529 136.35 100.454C136.552 100.378 136.772 100.362 136.983 100.409C137.194 100.455 137.387 100.562 137.539 100.715C137.691 100.869 137.795 101.063 137.839 101.275L148.146 133.222L159.141 76.2795L170.135 138.901L181.13 130.382L189.836 105.649C190.33 104.246 192.124 104.657 192.124 106.173L192.136 141.744Z" fill="#DEF7E5"/>
<path d="M38.2132 141.779H192.136V123.463L181.254 105.334C181.181 105.21 181.131 105.074 181.108 104.932L171.428 51.1803C171.374 50.9065 171.227 50.6603 171.01 50.4845C170.794 50.3087 170.523 50.2146 170.244 50.2186C169.965 50.2226 169.697 50.3245 169.486 50.5064C169.275 50.6883 169.134 50.9388 169.088 51.2139L159.242 116.836C159.217 117 159.158 117.158 159.069 117.298C158.98 117.438 158.862 117.558 158.724 117.65L149.234 123.974C149.098 124.064 148.945 124.126 148.784 124.155C148.623 124.184 148.458 124.179 148.299 124.141C148.14 124.103 147.991 124.032 147.86 123.934C147.73 123.835 147.621 123.711 147.541 123.568L137.985 106.592C137.893 106.427 137.762 106.287 137.605 106.183C137.448 106.079 137.268 106.014 137.08 105.993C136.893 105.973 136.703 105.997 136.527 106.064C136.351 106.131 136.193 106.239 136.067 106.379L126.179 117.356L115.185 129.567L104.19 117.356L94.5043 106.599C94.3677 106.447 94.1945 106.333 94.0012 106.268C93.8078 106.203 93.601 106.188 93.4005 106.226C93.2 106.264 93.0126 106.353 92.8564 106.484C92.7002 106.616 92.5805 106.785 92.5086 106.976L82.2013 134.451H71.2068L60.2123 139.335L49.2179 132.008L40.5114 110.735C40.4069 110.48 40.2172 110.269 39.9749 110.139C39.7325 110.009 39.4525 109.966 39.1825 110.02C38.9125 110.073 38.6693 110.218 38.4944 110.431C38.3195 110.643 38.2237 110.91 38.2234 111.186L38.2132 141.779Z" fill="#263238"/>
<path d="M108.781 41.2855H74.7172" stroke="#263238" stroke-linecap="round" stroke-linejoin="round"/>
<path d="M108.781 49.2704H74.7172" stroke="#263238" stroke-linecap="round" stroke-linejoin="round"/>
<path d="M108.781 57.2538H74.7172" stroke="#263238" stroke-linecap="round" stroke-linejoin="round"/>
<path d="M108.781 65.2388H74.7172" stroke="#263238" stroke-linecap="round" stroke-linejoin="round"/>
<path d="M108.781 73.2222H74.7172" stroke="#263238" stroke-linecap="round" stroke-linejoin="round"/>
<path d="M108.781 81.2056H74.7172" stroke="#263238" stroke-linecap="round" stroke-linejoin="round"/>
<path d="M116.524 41.2855H112.267" stroke="#263238" stroke-linecap="round" stroke-linejoin="round"/>
<path d="M116.524 49.2704H112.267" stroke="#263238" stroke-linecap="round" stroke-linejoin="round"/>
<path d="M116.524 57.2538H112.267" stroke="#263238" stroke-linecap="round" stroke-linejoin="round"/>
<path d="M116.524 65.2388H112.267" stroke="#263238" stroke-linecap="round" stroke-linejoin="round"/>
<path d="M116.524 73.2222H112.267" stroke="#263238" stroke-linecap="round" stroke-linejoin="round"/>
<path d="M116.524 81.2056H112.267" stroke="#263238" stroke-linecap="round" stroke-linejoin="round"/>
<path d="M242.689 586C194.693 586 155.785 566.671 155.785 542.827C155.785 518.982 194.693 499.653 242.689 499.653C290.684 499.653 329.592 518.982 329.592 542.827C329.592 566.671 290.684 586 242.689 586Z" fill="#DEF7E5"/>
<path d="M271.888 217.365C271.888 217.365 294.192 297.025 294.192 303.164C294.192 308.381 286.896 318.824 278.817 314.642C270.738 310.461 268.915 297.426 268.915 297.426L271.888 217.365Z" fill="white" stroke="#263238" stroke-linecap="round" stroke-linejoin="round"/>
<path d="M212.205 543.68C212.205 543.68 223.619 559.114 224.486 565.593C225.353 572.072 216.524 572.618 212.644 569.594C208.764 566.571 200.644 546.81 200.644 546.81L212.205 543.68Z" fill="white" stroke="#263238" stroke-linecap="round" stroke-linejoin="round"/>
<path d="M274.517 506.507C274.517 506.507 294.062 514.724 294.062 519.419C294.062 524.114 283.899 522.942 276.472 520.202C269.045 517.462 257.319 512.768 257.319 512.768C257.319 512.768 268.653 505.333 274.517 506.507Z" fill="white" stroke="#263238" stroke-linecap="round" stroke-linejoin="round"/>
<path d="M268.393 320.643L269.045 346.077C269.045 346.077 274.127 392.64 276.472 417.683C278.817 442.727 271.39 500.247 271.39 500.247L274.907 503.768V507.29L257.318 512.768C256.536 509.158 256.013 505.496 255.753 501.812V495.942L237.381 385.988C237.381 385.988 222.918 497.115 220.568 510.029C218.219 522.943 214.705 536.637 214.705 536.637L215.875 540.549L214.311 547.593L202.193 550.724C200.143 547.558 198.932 543.922 198.676 540.159C197.893 533.115 197.506 516.681 197.506 516.681C197.506 516.681 198.288 459.552 195.553 420.814C193.926 396.961 194.19 373.016 196.342 349.205L198.297 323.378C221.171 331.348 246.208 330.371 268.393 320.643Z" fill="#263238" stroke="#263238" stroke-linecap="round" stroke-linejoin="round"/>
<path d="M237.381 385.988L239.336 371.51L247.154 363.292" stroke="white" stroke-linecap="round" stroke-linejoin="round"/>
<path d="M210.018 334.729C210.018 334.729 215.49 344.903 200.636 349.598" stroke="white" stroke-linecap="round" stroke-linejoin="round"/>
<path d="M200.636 354.293V535.071" stroke="white" stroke-linecap="round" stroke-linejoin="round"/>
<path d="M249.891 337.076L248.326 346.468C248.326 346.468 252.236 353.512 250.665 356.642" stroke="white" stroke-linecap="round" stroke-linejoin="round"/>
<path d="M242.06 207.212C242.06 207.212 271.368 215.8 271.885 217.365C272.403 218.929 268.39 320.643 268.39 320.643C268.39 320.643 260.572 332.644 239.203 334.469C217.834 336.294 197.506 325.077 197.506 325.077L183.434 232.471C183.434 232.471 217.052 209.514 219.4 208.993C221.748 208.472 235.545 205.386 242.06 207.212Z" fill="white" stroke="#263238" stroke-linecap="round" stroke-linejoin="round"/>
<path d="M244.081 226.773L237.118 243.86L225.214 230.368C225.214 230.368 226.112 221.824 233.973 220.924C236.074 220.583 238.227 220.98 240.068 222.046C241.91 223.112 243.327 224.782 244.081 226.773Z" fill="#263238" stroke="#263238" stroke-linecap="round" stroke-linejoin="round"/>
<path d="M242.06 207.212L254.413 226.773C254.413 226.773 247.225 224.975 243.857 227.897C240.488 230.82 236.669 233.968 236.669 233.968C236.669 233.968 230.829 229.247 226.112 230.82C222.887 232.009 219.858 233.677 217.128 235.767C217.128 235.767 214.204 216.431 218.026 207.667C221.847 198.904 233.973 195.746 242.06 207.212Z" fill="white" stroke="#263238" stroke-linecap="round" stroke-linejoin="round"/>
<path d="M238.915 209.46C239.292 215.148 239.367 220.852 239.139 226.548C238.69 233.743 236.444 235.317 233.748 230.595C231.052 225.872 224.989 211.484 224.989 207.437C224.98 204.883 224.83 202.33 224.54 199.792C224.54 199.792 233.973 209.909 238.915 209.46Z" fill="white" stroke="#263238" stroke-linecap="round" stroke-linejoin="round"/>
<path d="M237.118 243.86L248.798 303.442L240.934 323.227L231.276 307.039L237.118 243.86Z" fill="#263238" stroke="#263238" stroke-linecap="round" stroke-linejoin="round"/>
<path d="M214.188 298.209C214.188 298.209 240.504 282.296 242.854 280.207C245.203 278.119 245.193 279.685 247.024 280.728C248.854 281.772 255.623 289.859 256.926 292.467C258.229 295.075 260.315 298.728 257.708 299.251C255.101 299.773 253.018 294.816 253.018 294.033C253.018 293.25 249.108 288.816 249.108 288.816C249.108 288.816 253.018 298.207 251.714 298.989C250.41 299.77 241.551 303.425 239.725 303.425C237.899 303.425 236.598 300.032 236.598 300.032C236.598 300.032 233.992 303.425 231.386 303.163C229.806 302.999 228.288 302.463 226.956 301.598L218.096 308.642L214.188 298.209Z" fill="white" stroke="#263238" stroke-linecap="round" stroke-linejoin="round"/>
<path d="M214.188 298.209C214.188 298.209 217.464 296.227 221.802 293.575L225.66 302.63L218.097 308.642L214.188 298.209Z" fill="white" stroke="#263238" stroke-linecap="round" stroke-linejoin="round"/>
<path d="M248.326 300.817C248.326 300.817 247.546 292.475 244.157 287.774" stroke="#263238" stroke-linecap="round" stroke-linejoin="round"/>
<path d="M243.896 301.86C243.896 301.86 242.072 294.556 238.424 290.382" stroke="#263238" stroke-linecap="round" stroke-linejoin="round"/>
<path d="M194.383 237.166C200.635 242.703 204.931 250.115 206.631 258.296L190.213 304.99C190.213 304.99 209.758 296.903 212.103 296.648C214.448 296.394 222.787 307.866 220.436 310.474C218.086 313.082 172.226 338.909 169.359 335.518C166.492 332.127 181.086 239.781 182.649 236.39C184.212 232.999 183.171 231.173 188.643 230.39" fill="white"/>
<path d="M194.383 237.166C200.635 242.703 204.931 250.115 206.631 258.296L190.213 304.99C190.213 304.99 209.758 296.903 212.103 296.648C214.448 296.394 222.787 307.866 220.436 310.474C218.086 313.082 172.226 338.909 169.359 335.518C166.492 332.127 181.086 239.781 182.649 236.39C184.212 232.999 183.171 231.173 188.643 230.39" stroke="#263238" stroke-linecap="round" stroke-linejoin="round"/>
<path d="M190.213 304.99C190.213 304.99 180.831 307.077 178.225 312.034L190.213 304.99Z" fill="white"/>
<path d="M190.213 304.99C190.213 304.99 180.831 307.077 178.225 312.034" stroke="#263238" stroke-linecap="round" stroke-linejoin="round"/>
<path d="M295.13 266.527L274.193 313.388C273.982 313.858 273.6 314.23 273.124 314.426L243.173 326.731C242.812 326.879 242.417 326.919 242.034 326.846C241.652 326.773 241.299 326.59 241.018 326.319C240.738 326.048 240.543 325.701 240.456 325.321C240.37 324.941 240.395 324.544 240.531 324.179L257.289 278.843C257.583 278.045 258.048 277.321 258.651 276.721C259.254 276.122 259.981 275.661 260.78 275.371L292.617 263.821C292.987 263.686 293.389 263.664 293.771 263.756C294.154 263.849 294.501 264.052 294.769 264.34C295.037 264.629 295.214 264.99 295.278 265.379C295.343 265.768 295.291 266.167 295.13 266.527Z" fill="#DEF7E5" stroke="#263238" stroke-linecap="round" stroke-linejoin="round"/>
<path d="M287.248 291.491C287.541 291.431 287.844 291.44 288.133 291.518C288.422 291.596 288.688 291.74 288.912 291.939C289.135 292.137 289.309 292.386 289.42 292.664C289.531 292.942 289.575 293.242 289.55 293.54C289.555 293.876 289.494 294.209 289.368 294.52C289.242 294.831 289.056 295.114 288.819 295.352C287.674 296.17 279.007 296.826 279.333 295.188C279.595 293.91 284.064 292.128 287.248 291.491Z" fill="white" stroke="#263238" stroke-linecap="round" stroke-linejoin="round"/>
<path d="M289.984 288.331C290.332 288.26 290.691 288.271 291.034 288.363C291.377 288.455 291.694 288.626 291.959 288.863C292.224 289.099 292.43 289.394 292.561 289.725C292.691 290.055 292.743 290.411 292.712 290.765C292.719 291.163 292.646 291.558 292.499 291.927C292.351 292.296 292.13 292.631 291.851 292.914C290.494 293.884 280.218 294.66 280.605 292.719C280.909 291.198 286.21 289.084 289.984 288.331Z" fill="white" stroke="#263238" stroke-linecap="round" stroke-linejoin="round"/>
<path d="M290.798 283.689C291.177 283.613 291.567 283.626 291.94 283.727C292.312 283.828 292.656 284.014 292.944 284.271C293.232 284.528 293.456 284.849 293.599 285.207C293.741 285.566 293.799 285.953 293.766 286.338C293.774 286.771 293.696 287.202 293.535 287.604C293.374 288.006 293.134 288.372 292.829 288.68C291.352 289.735 280.172 290.582 280.595 288.468C280.925 286.809 286.696 284.507 290.798 283.689Z" fill="white" stroke="#263238" stroke-linecap="round" stroke-linejoin="round"/>
<path d="M292.485 279.249C292.864 279.173 293.254 279.185 293.627 279.286C293.999 279.387 294.343 279.574 294.631 279.831C294.919 280.088 295.143 280.408 295.286 280.767C295.429 281.126 295.486 281.513 295.453 281.898C295.462 282.331 295.383 282.762 295.222 283.164C295.061 283.566 294.821 283.932 294.516 284.239C293.04 285.295 281.861 286.142 282.282 284.029C282.612 282.375 288.38 280.073 292.485 279.249Z" fill="white" stroke="#263238" stroke-linecap="round" stroke-linejoin="round"/>
<path d="M253.166 175.633C253.166 175.633 251.421 193.537 247.494 201.829C243.567 210.122 242.26 214.057 238.333 214.057C234.406 214.057 226.991 208.38 223.501 203.139C221.759 200.609 220.157 197.985 218.703 195.279L217.825 193.095C217.825 193.095 211.718 188.729 210.408 185.672C209.098 182.615 211.724 180.431 216.517 183.052C216.517 183.052 214.771 169.515 218.261 161.217C221.751 152.919 248.367 160.791 253.166 175.633Z" fill="white" stroke="#263238" stroke-miterlimit="10"/>
<path d="M257.929 182.432L228.45 188.459C228.45 188.459 228.242 193.031 231.355 194.485C232.892 195.144 234.583 195.357 236.235 195.099C237.886 194.842 239.433 194.125 240.697 193.031C242.981 190.953 242.981 187.004 242.981 187.004C242.981 187.004 244.85 185.549 245.057 187.004C245.268 188.367 245.97 189.605 247.031 190.485C248.092 191.365 249.438 191.825 250.815 191.778C252.189 191.712 253.513 191.237 254.616 190.414C255.72 189.591 256.553 188.457 257.009 187.158C257.532 185.632 257.841 184.042 257.929 182.432Z" fill="white" stroke="#263238" stroke-linecap="round" stroke-linejoin="round"/>
<path d="M228.448 188.459L216.2 182.016" stroke="#263238" stroke-linecap="round" stroke-linejoin="round"/>
<path d="M257.929 182.432L253.154 180.562" stroke="#263238" stroke-linecap="round" stroke-linejoin="round"/>
<path d="M244.85 188.251L246.926 195.94L244.44 196.564L243.817 202.59L239.87 201.551" fill="white"/>
<path d="M244.85 188.251L246.926 195.94L244.44 196.564L243.817 202.59L239.87 201.551" stroke="#263238" stroke-linecap="round" stroke-linejoin="round"/>
<path d="M240.515 146.818C240.515 146.818 257.964 160.355 259.71 168.652C261.455 176.948 250.111 180.442 242.696 179.132C235.281 177.822 224.374 170.835 224.374 170.835C224.374 170.835 230.481 180.442 225.69 180.879C223.519 181.191 221.316 181.191 219.146 180.879C219.146 180.879 221.763 186.119 219.584 186.119C217.406 186.119 216.53 183.063 216.53 183.063C216.53 183.063 210.422 168.652 212.167 155.549C213.913 142.446 230.045 138.519 240.515 146.818Z" fill="#263238" stroke="#263238" stroke-miterlimit="10"/>
</g>
<defs>
<clipPath id="clip0_1_3121">
<rect width="481" height="586" fill="white" transform="matrix(-1 0 0 1 481 0)"/>
</clipPath>
</defs>
</svg>
