<svg width="100" height="116" viewBox="0 0 100 116" fill="none" xmlns="http://www.w3.org/2000/svg">
<path d="M98.5012 49.4037C99.329 49.4037 100.002 48.7322 99.9769 47.9049C99.61 36.0098 94.8858 24.6323 86.6577 15.9145C78.4227 7.18946 67.2689 1.75449 55.3016 0.599385C54.4861 0.52067 53.7784 1.14091 53.7229 1.95832C53.6672 2.7772 54.2872 3.48346 55.104 3.56395C66.3113 4.66825 76.7532 9.7685 84.4681 17.9425C92.177 26.1103 96.6119 36.763 96.9778 47.9049C97.005 48.7322 97.6734 49.4037 98.5012 49.4037Z" fill="#368B85"/>
<path d="M3.90221 60.7906C3.09605 60.9876 2.6014 61.8033 2.82673 62.602C4.57983 68.8161 7.55523 74.6314 11.5871 79.7113C15.6269 84.8013 20.6412 89.0445 26.3372 92.2003C27.052 92.5964 27.9457 92.3131 28.3259 91.5898C28.7103 90.8585 28.4239 89.9562 27.7022 89.5541C22.3917 86.5951 17.7155 82.6284 13.9436 77.876C10.1721 73.1241 7.38462 67.6873 5.73495 61.8778C5.50966 61.0844 4.70339 60.5949 3.90221 60.7906Z" fill="#368B85"/>
<path d="M39.7247 66.6846H53.4234M39.7247 73.2599H58.9028M39.7247 79.8353H47.9439M67.122 83.1229V60.1093L53.4234 43.6709H39.7247C38.2715 43.6709 36.8778 44.3637 35.8502 45.5968C34.8226 46.8299 34.2453 48.5024 34.2453 50.2462V83.1229C34.2453 84.8668 34.8226 86.5393 35.8502 87.7724C36.8778 89.0055 38.2715 89.6983 39.7247 89.6983H61.6425C63.0958 89.6983 64.4895 89.0055 65.5171 87.7724C66.5447 86.5393 67.122 84.8668 67.122 83.1229Z" stroke="#368B85" stroke-width="2" stroke-linecap="round" stroke-linejoin="round"/>
<path d="M53.6973 43.6709V53.5339C53.6973 55.2778 54.2515 56.9503 55.238 58.1834C56.2245 59.4165 57.5625 60.1093 58.9576 60.1093H66.848" stroke="#368B85" stroke-width="2" stroke-linecap="round" stroke-linejoin="round"/>
<path d="M14 43.9552H13C13 44.5075 13.4477 44.9552 14 44.9552V43.9552ZM15 22.1616C15 21.6093 14.5523 21.1616 14 21.1616C13.4477 21.1616 13 21.6093 13 22.1616H15ZM34 42.9552H14V44.9552H34V42.9552ZM15 43.9552V22.1616H13V43.9552H15Z" fill="#368B85"/>
<path d="M49.3141 27.5083V19.3662H34.2456" stroke="#368B85" stroke-width="2" stroke-linejoin="round"/>
<path d="M13.6986 20.5659C14.9097 20.5659 16.0711 21.047 16.9274 21.9033C17.7838 22.7597 18.2648 23.9211 18.2648 25.1321C18.2648 26.3432 17.7838 27.5046 16.9274 28.3609C16.0711 29.2173 14.9097 29.6983 13.6986 29.6983C12.4876 29.6983 11.3262 29.2173 10.4698 28.3609C9.6135 27.5046 9.13242 26.3432 9.13242 25.1321C9.13242 23.9211 9.6135 22.7597 10.4698 21.9033C11.3262 21.047 12.4876 20.5659 13.6986 20.5659ZM13.6986 38.8308C13.6986 38.8308 22.831 38.8308 22.831 36.5477C22.831 33.8079 18.379 30.8399 13.6986 30.8399C9.01826 30.8399 4.56621 33.8079 4.56621 36.5477C4.56621 38.8308 13.6986 38.8308 13.6986 38.8308Z" fill="#368B85"/>
<path d="M37.8559 19.366C37.8559 21.3337 36.2443 22.937 34.2463 22.937C32.2483 22.937 30.6367 21.3337 30.6367 19.366C30.6367 17.3982 32.2483 15.7949 34.2463 15.7949C36.2443 15.7949 37.8559 17.3982 37.8559 19.366Z" fill="white" stroke="#368B85"/>
<path d="M86.3013 56.0056H87.3013C87.3013 55.4533 86.8536 55.0056 86.3013 55.0056V56.0056ZM85.3013 77.7178C85.3013 78.2701 85.749 78.7178 86.3013 78.7178C86.8536 78.7178 87.3013 78.2701 87.3013 77.7178H85.3013ZM67.1232 57.0056H86.3013V55.0056H67.1232V57.0056ZM85.3013 56.0056V77.7178H87.3013V56.0056H85.3013Z" fill="#368B85"/>
<path d="M50.6859 72.2896V80.4316H65.7544" stroke="#368B85" stroke-width="2" stroke-linejoin="round"/>
<path d="M86.3014 93.1694C85.0903 93.1694 83.9289 93.6505 83.0726 94.5068C82.2162 95.3632 81.7352 96.5246 81.7352 97.7356C81.7352 98.9467 82.2162 100.108 83.0726 100.964C83.9289 101.821 85.0903 102.302 86.3014 102.302C87.5124 102.302 88.6738 101.821 89.5302 100.964C90.3865 100.108 90.8676 98.9467 90.8676 97.7356C90.8676 96.5246 90.3865 95.3632 89.5302 94.5068C88.6738 93.6505 87.5124 93.1694 86.3014 93.1694ZM86.3014 111.434C86.3014 111.434 77.169 111.434 77.169 109.151C77.169 106.411 81.621 103.443 86.3014 103.443C90.9817 103.443 95.4338 106.411 95.4338 109.151C95.4338 111.434 86.3014 111.434 86.3014 111.434Z" fill="#368B85"/>
<path d="M62.1441 80.4319C62.1441 78.4641 63.7557 76.8609 65.7537 76.8609C67.7517 76.8609 69.3633 78.4641 69.3633 80.4319C69.3633 82.3997 67.7517 84.0029 65.7537 84.0029C63.7557 84.0029 62.1441 82.3997 62.1441 80.4319Z" fill="white" stroke="#368B85"/>
</svg>
