<svg width="907" height="544" viewBox="0 0 907 544" fill="none" xmlns="http://www.w3.org/2000/svg">
<g clip-path="url(#clip0_1_3444)">
<path d="M736.779 518.33C803.489 514.669 861.577 471.668 886.199 409.537C897.503 381.011 907 346.804 907 312.388C907 227.367 876.092 90.8179 783.368 41.8664C690.644 -7.08504 581.178 -0.644063 518.074 26.4081C454.97 53.4602 438.228 92.1061 375.124 99.8352C312.02 107.564 265.658 31.5608 153.617 28.9844C41.5751 26.4081 -13.8017 184.856 2.94011 266.013C19.682 347.169 106.459 404.794 107.827 438.328C109.194 471.862 145.89 526.228 237.326 541.687C328.762 557.145 458.834 490.159 520.65 487.582C582.466 485.006 664.887 521.075 733.142 518.499C734.361 518.453 735.573 518.396 736.779 518.33Z" fill="#92E3A9"/>
<path opacity="0.7" d="M736.779 518.33C803.489 514.669 861.577 471.668 886.199 409.537C897.503 381.011 907 346.804 907 312.388C907 227.367 876.092 90.8179 783.368 41.8664C690.644 -7.08504 581.178 -0.644063 518.074 26.4081C454.97 53.4602 438.228 92.1061 375.124 99.8352C312.02 107.564 265.658 31.5608 153.617 28.9844C41.5751 26.4081 -13.8017 184.856 2.94011 266.013C19.682 347.169 106.459 404.794 107.827 438.328C109.194 471.862 145.89 526.228 237.326 541.687C328.762 557.145 458.834 490.159 520.65 487.582C582.466 485.006 664.887 521.075 733.142 518.499C734.361 518.453 735.573 518.396 736.779 518.33Z" fill="white"/>
<path opacity="0.2" d="M568.554 0.644043H578.079" stroke="black" stroke-linecap="round" stroke-linejoin="round"/>
<path opacity="0.2" d="M585.098 0.644043H603.071V103.7H519.362V0.644043H559.531" stroke="black" stroke-linecap="round" stroke-linejoin="round"/>
<path opacity="0.2" d="M691.932 0.644043H608.222V103.7H691.932V0.644043Z" stroke="black" stroke-linecap="round" stroke-linejoin="round"/>
<path opacity="0.2" d="M760.058 0.644043H780.792V103.7H697.083V0.644043H750.528" stroke="black" stroke-linecap="round" stroke-linejoin="round"/>
<path opacity="0.2" d="M869.653 78.2991V103.7H785.944V0.644043H869.653V72.8165" stroke="black" stroke-linecap="round" stroke-linejoin="round"/>
<path opacity="0.2" d="M603.071 110.141H519.362V213.196H603.071V110.141Z" stroke="black" stroke-linecap="round" stroke-linejoin="round"/>
<path opacity="0.2" d="M608.222 142.446V110.141H691.932V213.196H608.222V151.766" stroke="black" stroke-linecap="round" stroke-linejoin="round"/>
<path opacity="0.2" d="M780.792 110.141H697.083V213.196H780.792V110.141Z" stroke="black" stroke-linecap="round" stroke-linejoin="round"/>
<path opacity="0.2" d="M806.898 110.141H869.653V213.196H785.944V110.141H800.32" stroke="black" stroke-linecap="round" stroke-linejoin="round"/>
<path opacity="0.2" d="M603.071 219.637H519.362V322.693H603.071V219.637Z" stroke="black" stroke-linecap="round" stroke-linejoin="round"/>
<path opacity="0.2" d="M691.932 219.637H608.222V322.693H691.932V219.637Z" stroke="black" stroke-linecap="round" stroke-linejoin="round"/>
<path opacity="0.2" d="M780.792 219.637H697.083V322.693H780.792V219.637Z" stroke="black" stroke-linecap="round" stroke-linejoin="round"/>
<path opacity="0.2" d="M869.653 306.377V322.693H785.944V255.936" stroke="black" stroke-linecap="round" stroke-linejoin="round"/>
<path opacity="0.2" d="M869.653 291.025V300.345" stroke="black" stroke-linecap="round" stroke-linejoin="round"/>
<path opacity="0.2" d="M785.944 247.164V219.637H869.653V284.994" stroke="black" stroke-linecap="round" stroke-linejoin="round"/>
<path opacity="0.2" d="M603.071 329.134H519.362V432.19H603.071V329.134Z" stroke="black" stroke-linecap="round" stroke-linejoin="round"/>
<path opacity="0.2" d="M691.932 329.134H608.222V432.19H691.932V329.134Z" stroke="black" stroke-linecap="round" stroke-linejoin="round"/>
<path opacity="0.2" d="M780.792 329.134H697.083V432.19H780.792V329.134Z" stroke="black" stroke-linecap="round" stroke-linejoin="round"/>
<path opacity="0.2" d="M805.801 432.19H785.944V329.134H869.653V432.19H814.018" stroke="black" stroke-linecap="round" stroke-linejoin="round"/>
<g opacity="0.2">
<path d="M83.5586 178.415H181.949V3.22046H44.1508V178.415H74.2462" stroke="black" stroke-linecap="round" stroke-linejoin="round"/>
<path d="M152.625 10.9497H97.2663" stroke="black" stroke-linecap="round" stroke-linejoin="round"/>
<path d="M50.2307 82.1367V170.686H175.871V10.9497H159.751" stroke="black" stroke-linecap="round" stroke-linejoin="round"/>
<path d="M88.4974 10.9497H50.2307V73.3654" stroke="black" stroke-linecap="round" stroke-linejoin="round"/>
<path d="M132.346 53.9753H84.0737V127.66H120.835" stroke="black" stroke-linecap="round" stroke-linejoin="round"/>
<path d="M126.865 127.66H142.026V53.9753H138.375" stroke="black" stroke-linecap="round" stroke-linejoin="round"/>
</g>
<g opacity="0.2">
<path d="M250.204 109.925C278.536 109.925 301.503 86.952 301.503 58.6128C301.503 30.2735 278.536 7.30005 250.204 7.30005C221.873 7.30005 198.906 30.2735 198.906 58.6128C198.906 86.952 221.873 109.925 250.204 109.925Z" stroke="black" stroke-linecap="round" stroke-linejoin="round"/>
<path d="M250.204 102.724C274.56 102.724 294.304 82.9749 294.304 58.6127C294.304 34.2505 274.56 14.501 250.204 14.501C225.849 14.501 206.105 34.2505 206.105 58.6127C206.105 82.9749 225.849 102.724 250.204 102.724Z" stroke="black" stroke-linecap="round" stroke-linejoin="round"/>
<path d="M238.007 71.9817L250.204 58.6128H286.041" stroke="black" stroke-linecap="round" stroke-linejoin="round"/>
</g>
<path d="M114.246 265.239C114.246 265.239 97.2006 255.767 95.9385 277.238C94.6764 298.708 91.5187 476.817 91.5187 476.817" stroke="#263238" stroke-width="2" stroke-linecap="round" stroke-linejoin="round"/>
<path d="M87.0859 279.128C87.0859 279.128 100.995 348.619 94.6752 474.919" stroke="#263238" stroke-width="2" stroke-linecap="round" stroke-linejoin="round"/>
<path d="M100.745 269.559C100.745 269.559 94.2244 273.742 90.5129 268.955C86.8013 264.168 93.0229 255.411 87.5405 251.665C82.0582 247.919 72.5952 253.636 72.5952 253.636C72.5952 253.636 79.8831 255.777 79.6487 259.757C79.4143 263.738 75.9037 265.241 75.4349 263.502C74.9661 261.763 71.4928 252.999 65.574 256.644C63.8671 257.651 62.3823 258.995 61.2091 260.593C60.036 262.191 59.1989 264.01 58.7484 265.94C58.7484 265.94 72.5283 264.471 73.3576 269.654C74.187 274.838 67.7079 268.753 62.0247 268.415C56.3415 268.078 51.1579 268.915 51.525 272.36C51.6558 275.402 51.4763 278.45 50.9892 281.456C54.0935 278.873 58.0185 277.486 62.0556 277.545C68.308 277.914 68.0736 281.893 62.3891 281.559C56.7046 281.224 51.8289 286.639 51.8289 286.639C51.8289 286.639 57.0099 295.503 63.5958 299.884C70.1818 304.266 72.5553 302.695 73.3241 299.318C74.093 295.94 72.3235 287.278 76.3016 287.514C80.2797 287.75 69.713 302.528 74.7948 303.399C79.8766 304.269 83.9552 302.798 85.2933 299.454L86.6313 296.105C86.6313 296.105 84.8606 287.443 85.6307 284.065C86.4008 280.688 87.3358 284.166 88.2373 288.212C89.1387 292.258 89.7067 301.996 91.4453 301.523C93.1838 301.05 98.7344 293.966 100.039 291.19C101.344 288.414 92.7189 279.92 92.8194 278.214C92.9198 276.509 99.5728 279.76 100.609 281.526C101.359 282.861 102.04 284.234 102.648 285.64C102.648 285.64 106.794 283.032 106.695 275.039C106.595 267.046 100.745 269.559 100.745 269.559Z" fill="#92E3A9"/>
<path opacity="0.3" d="M100.745 269.559C100.745 269.559 94.2244 273.742 90.5129 268.955C86.8013 264.168 93.0229 255.411 87.5405 251.665C82.0582 247.919 72.5952 253.636 72.5952 253.636C72.5952 253.636 79.8831 255.777 79.6487 259.757C79.4143 263.738 75.9037 265.241 75.4349 263.502C74.9661 261.763 71.4928 252.999 65.574 256.644C63.8671 257.651 62.3823 258.995 61.2091 260.593C60.036 262.191 59.1989 264.01 58.7484 265.94C58.7484 265.94 72.5283 264.471 73.3576 269.654C74.187 274.838 67.7079 268.753 62.0247 268.415C56.3415 268.078 51.1579 268.915 51.525 272.36C51.6558 275.402 51.4763 278.45 50.9892 281.456C54.0935 278.873 58.0185 277.486 62.0556 277.545C68.308 277.914 68.0736 281.893 62.3891 281.559C56.7046 281.224 51.8289 286.639 51.8289 286.639C51.8289 286.639 57.0099 295.503 63.5958 299.884C70.1818 304.266 72.5553 302.695 73.3241 299.318C74.093 295.94 72.3235 287.278 76.3016 287.514C80.2797 287.75 69.713 302.528 74.7948 303.399C79.8766 304.269 83.9552 302.798 85.2933 299.454L86.6313 296.105C86.6313 296.105 84.8606 287.443 85.6307 284.065C86.4008 280.688 87.3358 284.166 88.2373 288.212C89.1387 292.258 89.7067 301.996 91.4453 301.523C93.1838 301.05 98.7344 293.966 100.039 291.19C101.344 288.414 92.7189 279.92 92.8194 278.214C92.9198 276.509 99.5728 279.76 100.609 281.526C101.359 282.861 102.04 284.234 102.648 285.64C102.648 285.64 106.794 283.032 106.695 275.039C106.595 267.046 100.745 269.559 100.745 269.559Z" fill="#263238"/>
<path d="M67.6899 288.298C71.9397 283.041 78.2076 275.932 83.4594 272.531" stroke="#263238" stroke-linecap="round" stroke-linejoin="round"/>
<path d="M62.76 294.701C62.76 294.701 63.8521 293.183 65.6216 290.908" stroke="#263238" stroke-linecap="round" stroke-linejoin="round"/>
<path d="M86.2334 273.837C86.2334 273.837 92.5515 282.767 93.7196 291.965" stroke="#263238" stroke-linecap="round" stroke-linejoin="round"/>
<path d="M79.0782 279.12C79.0782 279.12 80.8502 278.083 80.1793 289.454" stroke="#263238" stroke-linecap="round" stroke-linejoin="round"/>
<path d="M83.6938 268.553C83.6938 268.553 87.2997 265.343 85.4002 258.955" stroke="#263238" stroke-linecap="round" stroke-linejoin="round"/>
<path d="M78.8116 273.97L76.2385 269.254" stroke="#263238" stroke-linecap="round" stroke-linejoin="round"/>
<path d="M73.395 278.784C73.395 278.784 65.2043 272.601 60.0891 272.294" stroke="#263238" stroke-linecap="round" stroke-linejoin="round"/>
<path d="M123.985 252.709C123.985 252.709 123.727 262.087 116.407 262.543C109.087 262.999 104.559 250.798 97.0744 253.735C89.5895 256.672 88.8606 270.045 88.8606 270.045C88.8606 270.045 95.972 264.205 99.7943 267.154C103.617 270.103 102.731 274.642 100.671 273.926C98.6121 273.21 87.4723 270.717 87.0859 279.128C86.9323 281.523 87.2655 283.924 88.0655 286.186C88.8654 288.449 90.1155 290.526 91.7402 292.292C91.7402 292.292 99.6591 277.495 105.417 280.193C111.175 282.89 100.661 285.235 96.4511 290.698C92.2411 296.161 89.5444 301.921 93.2431 303.901C96.3765 305.845 99.3042 308.103 101.981 310.639C101.981 310.639 100.98 302.9 105.61 296.889C110.24 290.879 114.065 293.827 109.86 299.29C105.655 304.754 107.744 313.332 107.744 313.332C107.744 313.332 120.147 314.185 129.022 310.576C137.896 306.968 137.943 303.52 135.086 300.447C132.23 297.375 122.353 293.242 125.299 289.418C128.244 285.593 135.836 306.252 140.17 301.755C144.505 297.258 145.815 292.172 143.38 288.552L140.944 284.934C140.944 284.934 131.067 280.802 128.212 277.729C125.357 274.655 129.474 276.09 134.136 277.945C138.798 279.8 148.928 285.866 149.645 283.806C150.362 281.747 147.05 271.355 145.161 268.156C143.272 264.957 128.889 267.804 127.251 266.541C125.613 265.277 133.395 260.828 135.879 261.001C137.727 261.16 139.565 261.415 141.386 261.764C141.386 261.764 141.603 255.838 133.53 250.485C125.458 245.131 123.985 252.709 123.985 252.709Z" fill="#92E3A9"/>
<path opacity="0.2" d="M123.985 252.709C123.985 252.709 123.727 262.087 116.407 262.543C109.087 262.999 104.559 250.798 97.0744 253.735C89.5895 256.672 88.8606 270.045 88.8606 270.045C88.8606 270.045 95.972 264.205 99.7943 267.154C103.617 270.103 102.731 274.642 100.671 273.926C98.6121 273.21 87.4723 270.717 87.0859 279.128C86.9323 281.523 87.2655 283.924 88.0655 286.186C88.8654 288.449 90.1155 290.526 91.7402 292.292C91.7402 292.292 99.6591 277.495 105.417 280.193C111.175 282.89 100.661 285.235 96.4511 290.698C92.2411 296.161 89.5444 301.921 93.2431 303.901C96.3765 305.845 99.3042 308.103 101.981 310.639C101.981 310.639 100.98 302.9 105.61 296.889C110.24 290.879 114.065 293.827 109.86 299.29C105.655 304.754 107.744 313.332 107.744 313.332C107.744 313.332 120.147 314.185 129.022 310.576C137.896 306.968 137.943 303.52 135.086 300.447C132.23 297.375 122.353 293.242 125.299 289.418C128.244 285.593 135.836 306.252 140.17 301.755C144.505 297.258 145.815 292.172 143.38 288.552L140.944 284.934C140.944 284.934 131.067 280.802 128.212 277.729C125.357 274.655 129.474 276.09 134.136 277.945C138.798 279.8 148.928 285.866 149.645 283.806C150.362 281.747 147.05 271.355 145.161 268.156C143.272 264.957 128.889 267.804 127.251 266.541C125.613 265.277 133.395 260.828 135.879 261.001C137.727 261.16 139.565 261.415 141.386 261.764C141.386 261.764 141.603 255.838 133.53 250.485C125.458 245.131 123.985 252.709 123.985 252.709Z" fill="#263238"/>
<path d="M120.212 298.588C117.847 290.746 114.997 279.621 115.179 272.052" stroke="#263238" stroke-linecap="round" stroke-linejoin="round"/>
<path d="M123.259 307.888C123.259 307.888 122.486 305.759 121.412 302.436" stroke="#263238" stroke-linecap="round" stroke-linejoin="round"/>
<path d="M118.376 270.157C118.376 270.157 131.621 269.917 141.622 275.016" stroke="#263238" stroke-linecap="round" stroke-linejoin="round"/>
<path d="M118.786 280.925C118.786 280.925 118.957 278.444 129.881 286.864" stroke="#263238" stroke-linecap="round" stroke-linejoin="round"/>
<path d="M111.355 269.104C111.355 269.104 110.604 263.299 102.912 260.86" stroke="#263238" stroke-linecap="round" stroke-linejoin="round"/>
<path d="M113.449 277.681L106.975 277.043" stroke="#263238" stroke-linecap="round" stroke-linejoin="round"/>
<path d="M114.576 286.388C114.576 286.388 102.8 290.372 99.0113 295.289" stroke="#263238" stroke-linecap="round" stroke-linejoin="round"/>
<path d="M45.4322 315.125C45.4322 315.125 82.6803 378.299 82.0492 473.657" stroke="#263238" stroke-width="2" stroke-linecap="round" stroke-linejoin="round"/>
<path d="M91.3577 308.62C91.3577 308.62 90.1716 319.417 81.6861 319.252C73.2005 319.088 69.1258 304.58 60.2088 307.262C51.2919 309.944 49.1914 325.308 49.1914 325.308C49.1914 325.308 57.9487 319.241 62.0813 323.004C66.214 326.766 64.7626 331.923 62.4535 330.9C60.1444 329.877 47.5262 325.952 46.2861 335.62C45.8821 338.37 46.0398 341.173 46.7494 343.861C47.459 346.548 48.706 349.063 50.4149 351.255C50.4149 351.255 60.9481 334.931 67.3318 338.584C73.7156 342.238 61.3679 343.955 55.9989 349.861C50.6299 355.768 46.9699 362.16 51.051 364.794C54.4838 367.333 57.6497 370.214 60.4999 373.393C60.4999 373.393 60.0736 364.368 65.9848 357.87C71.8959 351.372 76.0299 355.135 70.6558 361.042C65.2816 366.948 66.8914 377.055 66.8914 377.055C66.8914 377.055 81.122 379.21 91.7041 375.885C102.286 372.561 102.664 368.584 99.6578 364.768C96.652 360.953 85.6449 355.254 89.4053 351.113C93.1658 346.973 99.9759 371.531 105.403 366.753C110.83 361.975 112.819 356.227 110.351 351.821L107.882 347.415C107.882 347.415 96.8748 341.715 93.869 337.9C90.8632 334.086 95.4813 336.128 100.694 338.709C105.908 341.291 117.017 349.245 118.038 346.936C119.059 344.626 116.218 332.322 114.34 328.454C112.463 324.586 95.5972 326.511 93.8265 324.899C92.0557 323.286 101.456 318.885 104.302 319.317C106.419 319.675 108.516 320.142 110.585 320.717C110.585 320.717 111.393 313.89 102.589 306.96C93.7853 300.031 91.3577 308.62 91.3577 308.62Z" fill="#92E3A9"/>
<path opacity="0.3" d="M91.3577 308.62C91.3577 308.62 90.1716 319.417 81.6861 319.252C73.2005 319.088 69.1258 304.58 60.2088 307.262C51.2919 309.944 49.1914 325.308 49.1914 325.308C49.1914 325.308 57.9487 319.241 62.0813 323.004C66.214 326.766 64.7626 331.923 62.4535 330.9C60.1444 329.877 47.5262 325.952 46.2861 335.62C45.8821 338.37 46.0398 341.173 46.7494 343.861C47.459 346.548 48.706 349.063 50.4149 351.255C50.4149 351.255 60.9481 334.931 67.3318 338.584C73.7156 342.238 61.3679 343.955 55.9989 349.861C50.6299 355.768 46.9699 362.16 51.051 364.794C54.4838 367.333 57.6497 370.214 60.4999 373.393C60.4999 373.393 60.0736 364.368 65.9848 357.87C71.8959 351.372 76.0299 355.135 70.6558 361.042C65.2816 366.948 66.8914 377.055 66.8914 377.055C66.8914 377.055 81.122 379.21 91.7041 375.885C102.286 372.561 102.664 368.584 99.6578 364.768C96.652 360.953 85.6449 355.254 89.4053 351.113C93.1658 346.973 99.9759 371.531 105.403 366.753C110.83 361.975 112.819 356.227 110.351 351.821L107.882 347.415C107.882 347.415 96.8748 341.715 93.869 337.9C90.8632 334.086 95.4813 336.128 100.694 338.709C105.908 341.291 117.017 349.245 118.038 346.936C119.059 344.626 116.218 332.322 114.34 328.454C112.463 324.586 95.5972 326.511 93.8265 324.899C92.0557 323.286 101.456 318.885 104.302 319.317C106.419 319.675 108.516 320.142 110.585 320.717C110.585 320.717 111.393 313.89 102.589 306.96C93.7853 300.031 91.3577 308.62 91.3577 308.62Z" fill="#263238"/>
<path d="M82.6764 361.204C80.6867 351.929 78.4484 338.825 79.3718 330.103" stroke="#263238" stroke-linecap="round" stroke-linejoin="round"/>
<path d="M85.3139 372.223C85.3139 372.223 84.6197 369.693 83.6976 365.758" stroke="#263238" stroke-linecap="round" stroke-linejoin="round"/>
<path d="M83.2392 328.223C83.2392 328.223 98.5451 329.197 109.605 336.025" stroke="#263238" stroke-linecap="round" stroke-linejoin="round"/>
<path d="M82.697 340.687C82.697 340.687 83.1284 337.84 94.9314 348.59" stroke="#263238" stroke-linecap="round" stroke-linejoin="round"/>
<path d="M75.2379 326.34C75.2379 326.34 74.9185 319.571 66.2745 316.022" stroke="#263238" stroke-linecap="round" stroke-linejoin="round"/>
<path d="M76.8438 336.439L69.4336 335.093" stroke="#263238" stroke-linecap="round" stroke-linejoin="round"/>
<path d="M77.3242 346.594C77.3242 346.594 63.3589 350.08 58.5218 355.395" stroke="#263238" stroke-linecap="round" stroke-linejoin="round"/>
<path d="M91.3577 398.896C91.3577 398.896 90.1716 409.694 81.6861 409.528C73.2005 409.362 69.1258 394.857 60.2088 397.539C51.2919 400.221 49.1914 415.585 49.1914 415.585C49.1914 415.585 57.9487 409.518 62.0813 413.28C66.214 417.043 64.7626 422.199 62.4535 421.177C60.1444 420.156 47.5262 416.228 46.2861 425.897C45.8823 428.647 46.04 431.45 46.7496 434.137C47.4593 436.825 48.7061 439.34 50.4149 441.532C50.4149 441.532 60.9481 425.205 67.3319 428.861C73.7157 432.517 61.3679 434.232 55.9989 440.138C50.6299 446.044 46.9699 452.436 51.0511 455.071C54.4842 457.609 57.6501 460.49 60.4999 463.67C60.4999 463.67 60.0736 454.644 65.9848 448.147C71.8959 441.649 76.0299 445.412 70.6558 451.318C65.2816 457.225 66.8888 467.325 66.8888 467.325C66.8888 467.325 81.1194 469.481 91.7015 466.154C102.284 462.828 102.661 458.854 99.6552 455.039C96.6494 451.223 85.6423 445.523 89.4028 441.384C93.1632 437.245 99.9733 461.802 105.4 457.024C110.827 452.246 112.817 446.498 110.348 442.091L107.879 437.685C107.879 437.685 96.8722 431.985 93.8664 428.169C90.8606 424.354 95.4788 426.398 100.692 428.978C105.905 431.559 117.014 439.516 118.035 437.206C119.056 434.896 116.215 422.593 114.338 418.724C112.46 414.856 95.5947 416.782 93.8239 415.169C92.0531 413.556 101.453 409.156 104.299 409.587C106.416 409.945 108.514 410.412 110.582 410.986C110.582 410.986 111.39 404.159 102.586 397.231C93.7827 390.303 91.3577 398.896 91.3577 398.896Z" fill="#92E3A9"/>
<path opacity="0.3" d="M91.3577 398.896C91.3577 398.896 90.1716 409.694 81.6861 409.528C73.2005 409.362 69.1258 394.857 60.2088 397.539C51.2919 400.221 49.1914 415.585 49.1914 415.585C49.1914 415.585 57.9487 409.518 62.0813 413.28C66.214 417.043 64.7626 422.199 62.4535 421.177C60.1444 420.156 47.5262 416.228 46.2861 425.897C45.8823 428.647 46.04 431.45 46.7496 434.137C47.4593 436.825 48.7061 439.34 50.4149 441.532C50.4149 441.532 60.9481 425.205 67.3319 428.861C73.7157 432.517 61.3679 434.232 55.9989 440.138C50.6299 446.044 46.9699 452.436 51.0511 455.071C54.4842 457.609 57.6501 460.49 60.4999 463.67C60.4999 463.67 60.0736 454.644 65.9848 448.147C71.8959 441.649 76.0299 445.412 70.6558 451.318C65.2816 457.225 66.8888 467.325 66.8888 467.325C66.8888 467.325 81.1194 469.481 91.7015 466.154C102.284 462.828 102.661 458.854 99.6552 455.039C96.6494 451.223 85.6423 445.523 89.4028 441.384C93.1632 437.245 99.9733 461.802 105.4 457.024C110.827 452.246 112.817 446.498 110.348 442.091L107.879 437.685C107.879 437.685 96.8722 431.985 93.8664 428.169C90.8606 424.354 95.4788 426.398 100.692 428.978C105.905 431.559 117.014 439.516 118.035 437.206C119.056 434.896 116.215 422.593 114.338 418.724C112.46 414.856 95.5947 416.782 93.8239 415.169C92.0531 413.556 101.453 409.156 104.299 409.587C106.416 409.945 108.514 410.412 110.582 410.986C110.582 410.986 111.39 404.159 102.586 397.231C93.7827 390.303 91.3577 398.896 91.3577 398.896Z" fill="#263238"/>
<path d="M82.6764 451.481C80.6867 442.206 78.4484 429.102 79.3718 420.38" stroke="#263238" stroke-linecap="round" stroke-linejoin="round"/>
<path d="M85.3139 462.499C85.3139 462.499 84.6198 459.97 83.6977 456.034" stroke="#263238" stroke-linecap="round" stroke-linejoin="round"/>
<path d="M83.2392 418.5C83.2392 418.5 98.5451 419.474 109.605 426.302" stroke="#263238" stroke-linecap="round" stroke-linejoin="round"/>
<path d="M82.697 430.964C82.697 430.964 83.1284 428.117 94.9314 438.867" stroke="#263238" stroke-linecap="round" stroke-linejoin="round"/>
<path d="M75.2379 416.617C75.2379 416.617 74.9185 409.847 66.2745 406.298" stroke="#263238" stroke-linecap="round" stroke-linejoin="round"/>
<path d="M76.8438 426.716L69.4336 425.37" stroke="#263238" stroke-linecap="round" stroke-linejoin="round"/>
<path d="M77.3242 436.87C77.3242 436.87 63.3589 440.356 58.5218 445.672" stroke="#263238" stroke-linecap="round" stroke-linejoin="round"/>
<path d="M59.9525 390.274C59.9525 390.274 83.9449 447.133 86.4678 474.288L81.4182 344.806" stroke="#263238" stroke-width="2" stroke-linecap="round" stroke-linejoin="round"/>
<path d="M118.035 377.012C86.4678 371.329 86.4678 474.288 86.4678 474.288" stroke="#263238" stroke-width="2" stroke-linecap="round" stroke-linejoin="round"/>
<path d="M90.2553 473.657C90.2553 473.657 71.9474 301.864 124.979 301.864" stroke="#263238" stroke-width="2" stroke-linecap="round" stroke-linejoin="round"/>
<path d="M106.007 373.181C101.694 368.33 92.5322 368.33 87.1426 380.73C81.753 393.13 86.603 390.974 86.603 390.974C86.603 390.974 96.8439 387.739 103.311 385.582C109.779 383.424 118.403 378.034 118.942 381.269C119.48 384.503 114.63 387.739 108.701 388.816C102.772 389.893 87.1426 394.209 88.7588 397.447C90.3751 400.686 94.1484 410.386 94.1484 410.386C98.7565 406.475 103.618 402.873 108.701 399.604C115.708 395.291 120.02 396.907 116.246 401.76C112.473 406.613 101.694 412.004 103.85 418.473C106.006 424.942 118.942 433.03 118.942 433.03C118.942 433.03 120.559 419.551 124.331 415.238C128.103 410.926 128.105 415.777 127.027 423.325C126.488 426.537 126.128 429.777 125.949 433.03L141.04 438.421C141.04 438.421 146.429 430.334 149.125 427.637L151.819 424.942C151.819 424.942 139.962 414.699 139.424 408.229C138.885 401.76 147.507 408.229 150.203 409.308C152.898 410.386 157.21 417.939 157.21 417.939C157.21 417.939 159.904 405.538 160.444 401.226L160.982 396.913C160.982 396.913 149.663 392.6 145.351 392.6C141.04 392.6 138.884 395.834 138.884 391.522C138.884 387.209 143.196 384.512 148.047 385.052C152.437 385.786 156.763 386.868 160.982 388.287C160.982 388.287 164.216 385.591 163.138 377.505C162.06 369.419 159.364 369.417 152.897 371.579C146.429 373.741 142.118 378.588 137.268 378.588C132.418 378.588 135.111 372.662 138.344 371.04C141.578 369.419 149.663 366.188 151.281 365.648C152.898 365.108 142.652 357.562 137.268 356.484C131.883 355.406 124.904 359.203 125.409 364.57C126.487 375.878 110.318 378.034 106.007 373.181Z" fill="#92E3A9"/>
<path d="M140.702 428.692C140.863 430.316 140.978 431.942 141.04 433.564" stroke="#263238" stroke-linecap="round" stroke-linejoin="round"/>
<path d="M129.874 389.99C134.608 400.669 138.016 411.888 140.02 423.397" stroke="#263238" stroke-linecap="round" stroke-linejoin="round"/>
<path d="M127.933 385.662C125.264 379.919 123.253 376.417 123.253 376.417C126.194 375.027 128.64 372.769 130.261 369.948C131.519 367.394 133.366 365.176 135.65 363.478" stroke="#263238" stroke-linecap="round" stroke-linejoin="round"/>
<path d="M104.389 394.747C104.389 394.747 123.793 386.66 123.793 388.278" stroke="#263238" stroke-linecap="round" stroke-linejoin="round"/>
<path d="M134.572 384.503C134.572 384.503 143.201 380.19 150.741 380.19" stroke="#263238" stroke-linecap="round" stroke-linejoin="round"/>
<path d="M131.337 397.443C127.6 400.517 124.17 403.947 121.096 407.686C117.947 411.398 115.401 415.583 113.551 420.086" stroke="#263238" stroke-linecap="round" stroke-linejoin="round"/>
<path d="M137.261 399.599C137.261 399.599 148.579 396.364 154.508 401.755" stroke="#263238" stroke-linecap="round" stroke-linejoin="round"/>
<path d="M157.769 326.752C151.901 323.274 145.406 323.205 142.231 319.538C139.057 315.872 145.295 314.021 148.637 315.405C151.979 316.788 159.72 320.772 161.187 321.641C162.654 322.509 161.637 309.825 158.919 305.047C156.2 300.269 148.756 297.487 145.04 301.391C137.199 309.628 124.971 298.828 125.809 292.391C126.646 285.954 120.638 279.032 107.743 283.09C94.8477 287.148 99.6565 289.402 99.6565 289.402C99.6565 289.402 108.812 295.016 114.68 298.488C120.549 301.96 130.272 304.939 128.183 307.467C126.094 309.994 120.473 308.451 115.772 304.68C111.072 300.91 97.5689 291.927 96.1858 295.276C94.8026 298.626 89.9514 307.83 89.9514 307.83C95.9249 308.747 101.831 310.058 107.632 311.754C115.488 314.218 117.087 318.536 110.951 318.867C104.814 319.198 93.6771 314.59 90.2064 320.459C86.7357 326.328 89.1104 341.402 89.1104 341.402C89.1104 341.402 100.345 333.787 106.075 333.809C111.805 333.831 108.142 337.013 101.738 341.152C98.9587 342.85 96.2767 344.702 93.7041 346.7L99.5277 361.621C99.5277 361.621 109.166 360.391 112.968 360.659L116.769 360.928C116.769 360.928 116.729 345.256 121.26 340.608C125.791 335.96 126.559 346.714 127.512 349.457C128.465 352.199 125.593 360.406 125.593 360.406C125.593 360.406 136.722 354.313 140.331 351.893L143.937 349.473C143.937 349.473 139.774 338.096 136.947 334.84C134.12 331.583 130.264 332.074 133.521 329.246C136.778 326.419 141.635 327.909 144.411 331.927C146.736 335.725 148.755 339.701 150.45 343.818C150.45 343.818 154.605 344.493 160.003 338.378C165.402 332.263 163.637 330.224 157.769 326.752ZM106.761 344.014C102.45 341.858 112.686 337.545 112.686 337.545C116.464 337 111.074 346.165 106.761 344.009V344.014ZM114.022 323.886C112.185 322.967 117.699 321.128 117.699 321.128C125.664 322.656 115.861 324.801 114.022 323.881V323.886Z" fill="#92E3A9"/>
<path d="M106.647 354.992C105.526 356.177 104.374 357.327 103.19 358.441" stroke="#263238" stroke-linecap="round" stroke-linejoin="round"/>
<path d="M128.762 321.441C123.803 332.018 117.567 341.946 110.192 351.005" stroke="#263238" stroke-linecap="round" stroke-linejoin="round"/>
<path d="M130.762 317.137C133.348 311.354 134.673 307.541 134.673 307.541C137.651 308.851 140.958 309.218 144.15 308.592C146.902 307.869 149.788 307.811 152.567 308.422" stroke="#263238" stroke-linecap="round" stroke-linejoin="round"/>
<path d="M108.468 305.309C108.468 305.309 127.293 314.664 126.073 315.724" stroke="#263238" stroke-linecap="round" stroke-linejoin="round"/>
<path d="M135.988 321.392C135.988 321.392 144.897 325.079 149.843 330.779" stroke="#263238" stroke-linecap="round" stroke-linejoin="round"/>
<path d="M124.1 327.432C119.329 326.625 114.491 326.283 109.654 326.412C104.787 326.467 99.9586 327.287 95.3461 328.842" stroke="#263238" stroke-linecap="round" stroke-linejoin="round"/>
<path d="M126.358 333.325C126.358 333.325 136.221 339.753 136.038 347.765" stroke="#263238" stroke-linecap="round" stroke-linejoin="round"/>
<path d="M74.0183 401.456C69.2958 398.662 64.0736 398.6 61.5134 395.651C58.9532 392.703 63.9796 391.212 66.6648 392.325C69.3499 393.438 75.583 396.646 76.764 397.349C77.9449 398.053 77.1271 387.841 74.9391 383.996C72.7511 380.15 66.7613 377.912 63.771 381.053C57.4606 387.683 47.6203 378.992 48.2938 373.81C48.9673 368.628 44.1328 363.06 33.7554 366.326C23.3781 369.591 27.248 371.402 27.248 371.402C27.248 371.402 34.6157 375.92 39.3382 378.714C44.0607 381.508 51.8856 383.906 50.2049 385.94C48.5243 387.974 44.0002 386.732 40.2165 383.697C36.4328 380.662 25.5674 373.436 24.4547 376.126C23.342 378.816 19.4321 386.228 19.4321 386.228C24.2387 386.966 28.9913 388.021 33.6588 389.386C39.9692 391.369 41.2687 394.844 36.3298 395.11C31.391 395.377 22.4302 391.668 19.6369 396.392C16.8436 401.116 18.7547 413.245 18.7547 413.245C18.7547 413.245 27.7966 407.118 32.4058 407.136C37.0149 407.154 34.0684 409.712 28.9145 413.039C26.6788 414.407 24.521 415.897 22.4508 417.504L27.136 429.522C30.7222 429.038 34.3352 428.78 37.9538 428.749L41.0137 428.965C41.0137 428.965 40.9802 416.353 44.626 412.605C48.2719 408.858 48.8914 417.52 49.6589 419.728C50.4264 421.936 48.1135 428.538 48.1135 428.538C48.1135 428.538 57.0678 423.634 59.9732 421.686L62.8772 419.738C62.8772 419.738 59.5289 410.583 57.252 407.961C54.9751 405.34 51.874 405.737 54.4947 403.46C57.1155 401.184 61.0279 402.385 63.2584 405.617C65.1288 408.673 66.7536 411.873 68.1174 415.187C68.1174 415.187 71.4658 415.73 75.8058 410.807C80.1458 405.883 78.7408 404.249 74.0183 401.456ZM32.9699 415.343C29.5004 413.607 37.7348 410.136 37.7348 410.136C40.778 409.703 36.4393 417.078 32.9699 415.343ZM38.8128 399.145C37.3343 398.405 41.7748 396.925 41.7748 396.925C48.1818 398.158 40.2873 399.884 38.8128 399.145Z" fill="#92E3A9"/>
<path d="M32.8771 424.181C31.9756 425.135 31.0484 426.06 30.0954 426.957" stroke="#263238" stroke-linecap="round" stroke-linejoin="round"/>
<path d="M50.6789 397.18C46.6901 405.692 41.6731 413.682 35.74 420.972" stroke="#263238" stroke-linecap="round" stroke-linejoin="round"/>
<path d="M52.2835 393.718C54.3646 389.065 55.431 385.996 55.431 385.996C57.8275 387.049 60.4887 387.344 63.0575 386.841C65.2728 386.259 67.5947 386.213 69.8315 386.705" stroke="#263238" stroke-linecap="round" stroke-linejoin="round"/>
<path d="M34.3427 384.199C34.3427 384.199 49.4928 391.727 48.5089 392.581" stroke="#263238" stroke-linecap="round" stroke-linejoin="round"/>
<path d="M56.4896 397.143C56.4896 397.143 63.6589 400.106 67.6396 404.696" stroke="#263238" stroke-linecap="round" stroke-linejoin="round"/>
<path d="M46.9223 402.003C43.083 401.353 39.1895 401.078 35.297 401.182C31.3801 401.226 27.4945 401.886 23.7824 403.137" stroke="#263238" stroke-linecap="round" stroke-linejoin="round"/>
<path d="M48.7407 406.744C48.7407 406.744 56.6763 411.919 56.5295 418.366" stroke="#263238" stroke-linecap="round" stroke-linejoin="round"/>
<path d="M54.7626 312.429C54.7626 312.429 48.8385 316.742 45.0613 312.429C41.2841 308.116 46.6776 299.489 41.288 296.254C35.8984 293.02 27.2802 298.95 27.2802 298.95C27.2802 298.95 34.286 300.567 34.286 304.341C34.286 308.116 31.0523 309.733 30.5139 308.116C29.9756 306.499 26.2023 298.411 20.8127 302.19C19.2573 303.238 17.9304 304.591 16.9122 306.166C15.894 307.741 15.2056 309.507 14.8886 311.356C14.8886 311.356 27.8237 309.199 28.9016 314.051C29.9795 318.902 23.512 313.512 18.1224 313.512C12.7328 313.512 7.88154 314.59 8.42114 317.825C8.71371 320.695 8.71371 323.586 8.42114 326.456C11.2106 323.842 14.8424 322.313 18.6607 322.143C24.5848 322.143 24.5848 325.917 19.2003 325.917C13.8159 325.917 9.49906 331.309 9.49906 331.309C9.49906 331.309 14.8886 339.395 21.3562 343.169C27.8237 346.943 29.9846 345.325 30.5191 342.091C31.0535 338.856 28.9016 330.769 32.6749 330.769C36.4483 330.769 27.2853 345.325 32.1353 345.865C36.9853 346.405 40.7638 344.787 41.8379 341.551L42.9158 338.316C42.9158 338.316 40.76 330.23 41.2983 326.996C41.8366 323.761 42.9158 326.996 43.9937 330.769C45.0716 334.542 46.1495 343.709 47.7658 343.169C49.382 342.629 54.2333 335.621 55.3112 332.925C56.3891 330.229 47.7658 322.682 47.7658 321.065C47.7658 319.448 54.2333 322.143 55.3112 323.76C56.0953 324.98 56.8153 326.239 57.4683 327.534C57.4683 327.534 61.2404 324.838 60.7021 317.29C60.1638 309.743 54.7626 312.429 54.7626 312.429Z" fill="#92E3A9"/>
<path d="M24.5693 331.982C28.295 326.777 33.8198 319.705 38.5938 316.202" stroke="#263238" stroke-linecap="round" stroke-linejoin="round"/>
<path d="M20.2679 338.306C20.2679 338.306 21.2145 336.81 22.7612 334.562" stroke="#263238" stroke-linecap="round" stroke-linejoin="round"/>
<path d="M41.288 317.283C41.288 317.283 47.7555 325.37 49.373 333.996" stroke="#263238" stroke-linecap="round" stroke-linejoin="round"/>
<path d="M34.8205 322.671C34.8205 322.671 36.438 321.594 36.438 332.376" stroke="#263238" stroke-linecap="round" stroke-linejoin="round"/>
<path d="M38.5938 312.429C38.5938 312.429 41.8276 309.194 39.6705 303.263" stroke="#263238" stroke-linecap="round" stroke-linejoin="round"/>
<path d="M34.2822 317.82L31.5867 313.507" stroke="#263238" stroke-linecap="round" stroke-linejoin="round"/>
<path d="M29.4309 322.671C29.4309 322.671 21.3458 317.283 16.4946 317.283" stroke="#263238" stroke-linecap="round" stroke-linejoin="round"/>
<path d="M107.288 427.006C107.288 427.006 101.364 431.319 97.5869 427.006C93.8097 422.693 99.2032 414.067 93.8136 410.833C88.424 407.598 79.8007 413.528 79.8007 413.528C79.8007 413.528 86.8065 415.146 86.8065 418.919C86.8065 422.692 83.5727 424.31 83.0344 422.693C82.4961 421.076 78.7228 412.989 73.3332 416.767C71.7777 417.815 70.4508 419.168 69.4327 420.743C68.4145 422.319 67.7261 424.084 67.4091 425.933C67.4091 425.933 80.3441 423.776 81.4221 428.628C82.5 433.479 76.0325 428.089 70.6429 428.089C65.2533 428.089 60.402 429.168 60.9416 432.402C61.2342 435.272 61.2342 438.164 60.9416 441.033C63.731 438.42 67.3629 436.89 71.1812 436.72C77.1052 436.72 77.1052 440.495 71.7208 440.495C66.3364 440.495 62.0195 445.886 62.0195 445.886C62.0195 445.886 67.4091 453.973 73.8766 457.746C80.3441 461.519 82.5051 459.903 83.0396 456.668C83.574 453.433 81.4221 445.347 85.1954 445.347C88.9688 445.347 79.8058 459.904 84.6558 460.442C89.5058 460.981 93.2843 459.364 94.3583 456.13L95.4363 452.895C95.4363 452.895 93.2804 444.808 93.8187 441.573C94.3571 438.338 95.4363 441.573 96.5142 445.347C97.5921 449.122 98.67 458.286 100.286 457.746C101.902 457.206 106.754 450.199 107.832 447.504C108.91 444.809 100.286 437.26 100.286 435.642C100.286 434.024 106.754 436.72 107.832 438.338C108.616 439.557 109.335 440.817 109.988 442.111C109.988 442.111 113.761 439.417 113.223 431.869C112.684 424.321 107.288 427.006 107.288 427.006Z" fill="#92E3A9"/>
<path d="M77.0949 446.561C80.8206 441.354 86.3454 434.282 91.1194 430.781" stroke="#263238" stroke-linecap="round" stroke-linejoin="round"/>
<path d="M72.7936 452.885C72.7936 452.885 73.7401 451.388 75.2868 449.14" stroke="#263238" stroke-linecap="round" stroke-linejoin="round"/>
<path d="M93.8136 431.859C93.8136 431.859 100.281 439.945 101.899 448.572" stroke="#263238" stroke-linecap="round" stroke-linejoin="round"/>
<path d="M87.3461 437.25C87.3461 437.25 88.9636 436.171 88.9636 446.954" stroke="#263238" stroke-linecap="round" stroke-linejoin="round"/>
<path d="M91.1194 427.006C91.1194 427.006 94.3532 423.771 92.1961 417.841" stroke="#263238" stroke-linecap="round" stroke-linejoin="round"/>
<path d="M86.8078 432.397L84.1123 428.084" stroke="#263238" stroke-linecap="round" stroke-linejoin="round"/>
<path d="M81.9565 437.25C81.9565 437.25 73.8715 431.859 69.0202 431.859" stroke="#263238" stroke-linecap="round" stroke-linejoin="round"/>
<path d="M109.195 471.862H67.5289V531.855H109.195V471.862Z" fill="#263238" stroke="#263238" stroke-width="2" stroke-linecap="round" stroke-linejoin="round"/>
<path d="M24.9672 531.855H904.424" stroke="#263238" stroke-linecap="round" stroke-linejoin="round"/>
<path d="M756.162 403.849L761.958 527.516" stroke="#263238" stroke-width="6" stroke-linecap="round" stroke-linejoin="round"/>
<path d="M730.17 403.849L736.609 527.516" stroke="#263238" stroke-width="6" stroke-linecap="round" stroke-linejoin="round"/>
<path d="M647.282 403.849L638.911 527.516" stroke="#263238" stroke-width="6" stroke-linecap="round" stroke-linejoin="round"/>
<path d="M628.343 403.849L608.382 527.516" stroke="#263238" stroke-width="6" stroke-linecap="round" stroke-linejoin="round"/>
<path d="M760.007 268.965L760.429 399.513H642.063L646.286 268.965H760.007Z" fill="#808080" stroke="#263238" stroke-linecap="round" stroke-linejoin="round"/>
<path d="M619.329 406.566H760.43V399.131H619.329V406.566Z" fill="#808080" stroke="#263238" stroke-linecap="round" stroke-linejoin="round"/>
<path d="M619.329 406.566H738.837V399.131H619.329V406.566Z" fill="#808080" stroke="#263238" stroke-linecap="round" stroke-linejoin="round"/>
<path d="M649.25 331.641C649.25 331.641 638.304 348.359 636.57 361.043C634.837 373.726 637.723 388.139 645.792 393.326C651.043 396.537 656.956 398.509 663.083 399.092H731.666C731.666 399.092 743.772 396.209 748.957 384.678C754.142 373.148 750.686 358.16 747.229 350.67C743.771 343.18 740.889 336.835 740.889 336.835L649.25 331.641Z" fill="#263238" stroke="#263238" stroke-linecap="round" stroke-linejoin="round"/>
<path d="M681.526 199.08C681.526 199.08 641.182 214.07 638.877 218.106C636.571 222.142 656.743 301.695 656.743 301.695L646.368 334.556C662.17 337.897 678.138 340.399 694.205 342.051C718.416 344.357 742.041 337.439 742.041 337.439L732.819 298.814L747.804 218.103C747.804 218.103 718.192 204.049 711.674 201.564C705.156 199.079 686.136 198.511 681.526 199.08Z" fill="#92E3A9" stroke="#263238" stroke-linecap="round" stroke-linejoin="round"/>
<path d="M724.193 207.075C718.737 204.576 713.88 202.408 711.674 201.567C705.155 199.08 686.136 198.505 681.526 199.08C681.526 199.08 671.639 202.754 661.376 206.952L684.407 302.855L704.579 305.738L724.193 207.075Z" fill="#92E3A9" stroke="#263238" stroke-linecap="round" stroke-linejoin="round"/>
<path d="M703.057 342.514L710.127 201.07C702.561 199.009 685.814 198.542 681.526 199.078C681.526 199.078 680.274 199.544 678.226 200.321L685.778 341.136C688.555 341.471 691.375 341.78 694.205 342.051C697.178 342.337 700.144 342.48 703.057 342.514Z" fill="white" stroke="#263238" stroke-linecap="round" stroke-linejoin="round"/>
<path d="M638.873 218.106C638.873 218.106 601.987 319.57 608.327 323.029C614.667 326.488 688.438 327.641 688.438 327.641V319.57L639.452 301.695L649.25 269.988L638.873 218.106Z" fill="#92E3A9" stroke="#263238" stroke-linecap="round" stroke-linejoin="round"/>
<path d="M688.442 319.57C688.442 319.57 708.037 317.263 709.766 317.263C711.494 317.263 727.056 328.213 727.056 328.213L688.442 327.637V319.57Z" fill="white" stroke="#263238" stroke-linecap="round" stroke-linejoin="round"/>
<path d="M747.648 218.106C747.648 218.106 784.535 319.57 778.195 323.029C771.855 326.488 698.082 327.641 698.082 327.641V319.57L747.072 301.698L737.778 271.691L747.648 218.106Z" fill="#92E3A9" stroke="#263238" stroke-linecap="round" stroke-linejoin="round"/>
<path d="M763.587 299.48C764.789 299.485 765.989 299.588 767.175 299.789" stroke="#263238" stroke-linecap="round" stroke-linejoin="round"/>
<path d="M747.072 301.695C751.744 300.572 756.503 299.843 761.298 299.518" stroke="#263238" stroke-linecap="round" stroke-linejoin="round"/>
<path d="M698.082 319.57C698.082 319.57 678.487 317.263 676.758 317.263C675.03 317.263 659.468 328.213 659.468 328.213L698.082 327.637V319.57Z" fill="white" stroke="#263238" stroke-linecap="round" stroke-linejoin="round"/>
<path d="M749.665 356.851C745.051 337.945 727.169 334.416 711.348 333.112C695.527 331.808 684.995 336.506 684.995 336.506C684.995 336.506 710.704 337.81 714.001 355.411L703.454 380.834C703.454 380.834 701.476 386.701 711.364 395.828" fill="#263238"/>
<path d="M749.665 356.851C745.051 337.945 727.169 334.416 711.348 333.112C695.527 331.808 684.995 336.506 684.995 336.506C684.995 336.506 710.704 337.81 714.001 355.411L703.454 380.834C703.454 380.834 701.476 386.701 711.364 395.828" stroke="#263238" stroke-linecap="round" stroke-linejoin="round"/>
<path d="M707.682 364.651C708.748 376.995 710.521 389.268 712.992 401.409C717.122 421.831 735.413 495.933 736.592 498.85C737.772 501.766 751.343 521.022 748.984 528.024C746.625 535.025 743.673 534.443 738.363 529.191C733.053 523.939 727.742 501.768 727.153 499.433C726.563 497.099 695.881 444.587 686.442 420.665C677.002 396.743 671.101 383.322 674.05 365.818C676.999 348.314 687.621 347.73 695.881 350.064C704.142 352.399 707.682 364.651 707.682 364.651Z" fill="white" stroke="#263238" stroke-linecap="round" stroke-linejoin="round"/>
<path d="M707.213 370.871L686.44 420.669L680.879 405.855L707.213 370.871Z" fill="#263238" stroke="#263238" stroke-miterlimit="10"/>
<path d="M748.983 528.024C750.256 524.244 746.886 516.894 743.33 510.469C739.044 516.971 734.52 516.26 731.354 514.334C733.363 520.479 735.861 526.714 738.368 529.188C743.673 534.443 746.623 535.025 748.983 528.024Z" fill="#263238" stroke="#263238" stroke-linecap="round" stroke-linejoin="round"/>
<path d="M712.071 348.395C712.071 348.395 702.274 331.1 686.712 336.286C671.15 341.472 638.3 454.475 627.926 470.614C625.256 474.797 622.371 478.839 619.282 482.723C613.839 484.235 608.217 485.01 602.567 485.029C593.347 485.029 585.277 485.029 592.194 490.793C599.111 496.558 613.518 500.594 621.011 501.743C628.503 502.892 632.537 488.484 632.537 488.484C632.537 488.484 676.914 412.962 684.984 404.891C693.053 396.821 708.036 370.883 710.918 365.689C713.8 360.495 713.225 353.584 712.071 348.395Z" fill="white" stroke="#263238" stroke-linecap="round" stroke-linejoin="round"/>
<path d="M631.886 490.453C623.657 491.337 610.637 492.521 610.637 492.521L606.076 484.92C604.944 484.989 603.772 485.03 602.567 485.03C593.347 485.03 585.277 485.03 592.194 490.795C599.111 496.559 613.518 500.595 621.011 501.744C626.759 502.629 630.47 494.354 631.886 490.453Z" fill="#263238" stroke="#263238" stroke-linecap="round" stroke-linejoin="round"/>
<path d="M669.765 154.407C669.765 154.407 663.946 159.064 665.11 164.304C666.274 169.544 663.364 177.695 659.289 178.861C655.214 180.026 659.289 185.266 662.199 185.848L665.11 186.43C665.11 186.43 668.019 200.987 670.348 202.732C672.676 204.478 681.407 202.732 681.407 202.732C681.407 202.732 684.317 221.944 688.391 227.767C692.466 233.59 694.794 234.754 700.032 227.185C705.27 219.615 711.674 201.568 711.674 201.568C711.674 201.568 713.42 182.354 708.764 168.963C704.107 155.573 686.652 138.105 669.765 154.407Z" fill="white" stroke="#263238" stroke-linecap="round" stroke-linejoin="round"/>
<path d="M670.673 174.035C670.673 175.531 670.143 176.74 669.489 176.74C668.834 176.74 668.305 175.528 668.305 174.035C668.305 172.542 668.836 171.33 669.489 171.33C670.141 171.33 670.673 172.545 670.673 174.035Z" fill="#263238"/>
<path d="M667.629 167.611C667.629 167.611 670.333 164.566 672.703 168.626" stroke="#263238" stroke-linecap="round" stroke-linejoin="round"/>
<path d="M668.981 189.943C668.981 189.943 670.673 190.619 674.733 187.574" stroke="#263238" stroke-linecap="round" stroke-linejoin="round"/>
<path d="M674.715 134.959C674.715 134.959 662.492 140.016 665.402 150.765C668.313 161.514 685.192 170.365 690.43 179.216C695.668 188.067 694.505 197.551 690.43 201.345C686.355 205.139 683.446 205.77 683.446 205.77C692.349 210.722 702.364 213.333 712.551 213.357C729.431 213.357 736.322 195.938 735.158 184.557C733.994 173.176 730.943 146.456 718.72 138.237C706.497 130.019 686.355 129.269 674.715 134.959Z" fill="#263238" stroke="#263238" stroke-linecap="round" stroke-linejoin="round"/>
<path d="M416.689 403.849L410.894 527.516" stroke="#263238" stroke-width="6" stroke-linecap="round" stroke-linejoin="round"/>
<path d="M479.793 403.849L473.354 527.516" stroke="#263238" stroke-width="6" stroke-linecap="round" stroke-linejoin="round"/>
<path d="M511.345 403.849L519.716 527.516" stroke="#263238" stroke-width="6" stroke-linecap="round" stroke-linejoin="round"/>
<path d="M544.829 403.849L564.79 527.516" stroke="#263238" stroke-width="6" stroke-linecap="round" stroke-linejoin="round"/>
<path d="M406.857 268.965L412.423 399.513H516.565L506.355 268.965H406.857Z" fill="#808080" stroke="#263238" stroke-linecap="round" stroke-linejoin="round"/>
<path d="M553.844 399.131H412.423V406.566H553.844V399.131Z" fill="#808080" stroke="#263238" stroke-linecap="round" stroke-linejoin="round"/>
<path d="M553.844 399.131H469.95V406.566H553.844V399.131Z" fill="#808080" stroke="#263238" stroke-linecap="round" stroke-linejoin="round"/>
<path d="M425.294 333.699C425.294 333.699 420.071 380.904 421.817 387.081C422.568 389.799 424.002 392.281 425.984 394.287C427.965 396.294 430.427 397.76 433.135 398.546C437.922 399.869 504.414 398.508 506.259 398.546C516.845 398.756 518.952 393.32 519.318 382.664C519.715 371.09 518.004 330.417 518.004 330.417L425.294 333.699Z" fill="#263238" stroke="#263238" stroke-linecap="round" stroke-linejoin="round"/>
<path d="M447.976 205.016C447.976 205.016 408.912 220.475 410.2 223.051C411.488 225.627 423.128 300.794 423.558 302.941C423.989 305.088 424.846 329.993 424.846 332.139C424.846 334.285 427.422 338.151 429.998 338.58C443.44 340.817 458.058 339.652 471.666 339.826C480.852 339.942 490.039 339.97 499.225 339.911C504.634 339.876 517.279 342.449 519.278 336.45C520.137 331.726 520.096 225.627 520.526 220.475C520.956 215.322 515.803 214.034 510.223 211.028C504.643 208.023 478.885 201.152 476.309 201.152C473.734 201.152 447.976 205.016 447.976 205.016Z" fill="white" stroke="#263238" stroke-linecap="round" stroke-linejoin="round"/>
<path d="M459.183 229.536L467.888 241.727L457.94 316.284L473.61 332.83L486.231 313.673L473.546 240.422L479.205 228.231L463.1 219.085L459.183 229.536Z" fill="#263238" stroke="#263238" stroke-linecap="round" stroke-linejoin="round"/>
<path d="M450.978 201.152C450.978 201.152 445.826 202.87 445.396 206.304C444.966 209.739 446.255 236.792 446.255 236.792L462.997 230.351L470.295 228.634L489.212 232.148C489.212 232.148 488.754 216.61 485.749 208.881C482.745 201.152 479.31 198.575 476.734 198.146C474.159 197.717 450.978 201.152 450.978 201.152Z" fill="white" stroke="#263238" stroke-linecap="round" stroke-linejoin="round"/>
<path d="M448.402 199.863C448.402 199.863 453.123 217.469 454.841 220.475C456.559 223.48 467.72 232.499 470.295 228.634C472.871 224.769 475.447 214.464 475.875 213.176C476.304 211.887 476.734 198.146 476.734 198.146C476.734 198.146 456.129 205.446 448.402 199.863Z" fill="white" stroke="#263238" stroke-linecap="round" stroke-linejoin="round"/>
<path d="M456.818 211.067C456.818 211.067 457.304 211.796 463.619 214.468C467.054 216.027 470.776 216.854 474.548 216.897L475.762 212.282L476.49 199.893L456.818 211.067Z" fill="#263238" stroke="#263238" stroke-miterlimit="10"/>
<path d="M489.069 167.232C489.069 167.232 490.575 153.17 489.069 145.134C487.564 137.099 479.024 134.588 472.5 133.583C465.976 132.578 438.36 135.09 434.844 142.624C431.328 150.157 438.861 156.183 438.861 156.183C438.861 156.183 434.343 159.196 436.351 163.214C438.358 167.232 440.87 172.757 440.87 172.757L443.882 161.206L464.969 161.707L473 163.717L481.535 174.263C481.535 174.263 486.054 175.268 487.56 173.258C489.065 171.249 489.069 167.232 489.069 167.232Z" fill="#263238" stroke="#263238" stroke-linecap="round" stroke-linejoin="round"/>
<path d="M441.537 170.665C441.537 170.665 437.244 165.941 437.244 171.094C437.244 176.247 442.396 181.4 442.396 181.4L441.537 170.665Z" stroke="#263238" stroke-linecap="round" stroke-linejoin="round"/>
<path d="M440.87 157.69C440.87 157.69 441.372 185.814 442.375 191.339C443.378 196.865 455.43 211.428 457.94 211.428C460.45 211.428 463.966 212.432 466.978 209.92C469.99 207.408 482.543 195.858 483.546 192.343C484.311 188.87 484.814 185.345 485.053 181.797C485.053 181.797 493.086 177.779 492.082 171.749C491.077 165.719 488.065 165.22 486.558 166.725C485.123 168.32 483.782 169.997 482.543 171.749C482.543 171.749 481.538 166.725 479.529 164.718C477.52 162.711 471.497 161.703 472.5 159.694L478.024 148.645C478.024 148.645 468.483 156.681 459.447 158.186C453.268 159.029 446.994 158.861 440.87 157.69Z" fill="white" stroke="#263238" stroke-linecap="round" stroke-linejoin="round"/>
<path d="M450.232 171.501C450.232 172.896 449.517 174.027 448.636 174.027C447.756 174.027 447.042 172.896 447.042 171.501C447.042 170.106 447.756 168.975 448.636 168.975C449.517 168.975 450.232 170.106 450.232 171.501Z" fill="#263238"/>
<path d="M466.446 171.501C466.446 172.896 465.731 174.027 464.852 174.027C463.972 174.027 463.256 172.896 463.256 171.501C463.256 170.106 463.971 168.975 464.852 168.975C465.733 168.975 466.446 170.106 466.446 171.501Z" fill="#263238"/>
<path d="M454.485 170.836C454.485 170.836 450.763 185.193 452.358 185.992C453.954 186.791 462.991 183.333 462.991 183.333" stroke="#263238" stroke-linecap="round" stroke-linejoin="round"/>
<path d="M452.358 185.992C450.189 186.782 448.134 187.854 446.245 189.182C443.852 191.043 448.105 192.639 453.687 192.639C459.27 192.639 466.446 192.372 469.636 190.778C472.826 189.183 470.168 187.852 467.51 186.784C465.084 185.961 462.594 185.339 460.066 184.923C460.066 184.923 455.016 185.725 452.358 185.992Z" fill="#263238" stroke="#263238" stroke-linecap="round" stroke-linejoin="round"/>
<path d="M445.183 165.791C445.183 165.791 447.575 163.132 452.093 165.26" stroke="#263238" stroke-linecap="round" stroke-linejoin="round"/>
<path d="M459.801 165.519C461.352 164.708 463.125 164.425 464.852 164.713C466.579 165.001 468.165 165.843 469.369 167.114" stroke="#263238" stroke-linecap="round" stroke-linejoin="round"/>
<path d="M410.2 223.051C410.2 223.051 383.205 300.365 383.205 301.653C383.205 302.941 379.342 310.24 383.205 314.964C387.069 319.688 393.938 321.405 397.802 319.688C401.665 317.97 421.84 282.33 421.84 282.33C421.84 282.33 411.488 227.346 410.2 223.051Z" fill="white" stroke="#263238" stroke-linecap="round" stroke-linejoin="round"/>
<path d="M412.572 251.831L411.217 247.447" stroke="#263238" stroke-linecap="round" stroke-linejoin="round"/>
<path d="M419.986 275.821L413.916 256.18" stroke="#263238" stroke-linecap="round" stroke-linejoin="round"/>
<path d="M389.216 291.347L466.915 258.283L468.633 266.441C468.633 266.441 409.821 311.958 405.529 315.393C401.236 318.827 399.518 321.405 393.938 321.405C388.358 321.405 381.06 316.252 381.06 309.382C381.164 304.927 382.187 300.541 384.064 296.5" fill="white"/>
<path d="M389.216 291.347L466.915 258.283L468.633 266.441C468.633 266.441 409.821 311.958 405.529 315.393C401.236 318.827 399.518 321.405 393.938 321.405C388.358 321.405 381.06 316.252 381.06 309.382C381.164 304.927 382.187 300.541 384.064 296.5" stroke="#263238" stroke-linecap="round" stroke-linejoin="round"/>
<path d="M458.21 262.77L461.134 270.081" stroke="#263238" stroke-linecap="round" stroke-linejoin="round"/>
<path d="M466.915 258.283C466.915 258.283 469.49 248.837 470.349 247.549C471.208 246.26 476.36 242.825 478.505 241.108C480.651 239.39 484.087 236.384 484.516 238.531C484.944 240.679 479.364 247.118 479.364 247.118C479.364 247.118 487.95 242.825 490.955 242.396C493.959 241.967 497.72 241.506 499.865 241.936C502.011 242.366 499.787 243.573 499.541 246.689C499.135 251.805 490.096 256.566 487.52 259.142C484.944 261.719 468.633 266.441 468.633 266.441L466.915 258.283Z" fill="white" stroke="#263238" stroke-linecap="round" stroke-linejoin="round"/>
<path d="M499.135 244.859L483.788 249.975" stroke="#263238" stroke-linecap="round" stroke-linejoin="round"/>
<path d="M498.404 249.611L485.25 254.362" stroke="#263238" stroke-linecap="round" stroke-linejoin="round"/>
<path d="M489.635 257.652L486.346 258.748" stroke="#263238" stroke-linecap="round" stroke-linejoin="round"/>
<path d="M479.364 247.118L474.288 247.417" stroke="#263238" stroke-linecap="round" stroke-linejoin="round"/>
<path d="M519.666 217.469C519.666 217.469 527.95 238.338 529.968 242.804C532.387 248.149 543.327 270.306 543.327 270.306L563.932 225.649L575.093 230.372C575.093 230.372 557.493 285.764 553.63 293.924C549.766 302.083 550.624 308.523 544.615 308.094C538.606 307.665 520.134 288.743 520.134 288.743L519.666 217.469Z" fill="white" stroke="#263238" stroke-linecap="round" stroke-linejoin="round"/>
<path d="M543.326 270.306L534.945 285.431" stroke="#263238" stroke-linecap="round" stroke-linejoin="round"/>
<path d="M540.06 275.927L533.117 281.41" stroke="#263238" stroke-linecap="round" stroke-linejoin="round"/>
<path d="M561.254 232.797L572.216 238.28" stroke="#263238" stroke-linecap="round" stroke-linejoin="round"/>
<path d="M563.932 225.649C563.932 225.649 563.502 213.625 564.79 211.049C566.078 208.472 570.8 201.603 571.229 199.885C571.658 198.168 573.805 195.162 574.235 198.167C574.436 200.466 574.291 202.782 573.805 205.038C573.805 205.038 579.386 199.885 579.815 198.167C580.244 196.448 579.815 190.438 581.532 190.438C583.249 190.438 584.967 191.726 586.683 196.879C588.4 202.032 586.683 210.191 585.826 213.196C584.968 216.202 576.381 227.795 576.381 227.795L575.093 230.372L563.932 225.649Z" fill="white" stroke="#263238" stroke-linecap="round" stroke-linejoin="round"/>
<path d="M586.833 200.268C586.833 200.268 586.101 197.344 585.371 199.536C584.641 201.729 582.448 210.137 582.448 210.137C582.448 210.137 571.115 217.812 571.115 220.004V222.194" stroke="#263238" stroke-linecap="round" stroke-linejoin="round"/>
<path d="M522.36 510.869L532.147 523.88C532.147 523.88 545.185 527.304 545.283 528.659C545.381 530.014 540.623 531.986 540.623 531.986L527.972 533.98C527.972 533.98 512.99 528.109 509.391 527.282C505.793 526.455 502.458 527.369 503.521 523.21C504.585 519.05 506.262 510.441 506.262 510.441L522.36 510.869Z" fill="white" stroke="#263238" stroke-linecap="round" stroke-linejoin="round"/>
<path d="M487.973 377.638C487.973 377.638 497.985 359.787 511.913 352.821C525.841 345.856 538.029 348.467 549.346 348.467C560.664 348.467 579.815 350.209 581.992 352.821C584.168 355.434 522.365 510.869 522.365 510.869L506.259 510.433C506.259 510.433 518.012 458.185 519.753 445.995C521.494 433.805 525.847 398.537 525.847 398.537C525.847 398.537 495.659 398.488 481.73 398.052" fill="#263238"/>
<path d="M487.973 377.638C487.973 377.638 497.985 359.787 511.913 352.821C525.841 345.856 538.029 348.467 549.346 348.467C560.664 348.467 579.815 350.209 581.992 352.821C584.168 355.434 522.365 510.869 522.365 510.869L506.259 510.433C506.259 510.433 518.012 458.185 519.753 445.995C521.494 433.805 525.847 398.537 525.847 398.537C525.847 398.537 495.659 398.488 481.73 398.052" stroke="#263238" stroke-linecap="round" stroke-linejoin="round"/>
<path d="M429.213 353.728C429.213 353.728 429.649 347.197 443.577 346.762C457.505 346.326 472.304 345.02 474.045 353.293C475.787 361.566 476.222 488.264 476.222 492.618C476.222 496.972 477.528 507.422 477.528 507.422L461.423 508.728C461.423 508.728 440.528 438.631 437.046 422.955C433.564 407.279 434 369.402 434 366.354" fill="#263238"/>
<path d="M429.213 353.728C429.213 353.728 429.649 347.197 443.577 346.762C457.505 346.326 472.304 345.02 474.045 353.293C475.787 361.566 476.222 488.264 476.222 492.618C476.222 496.972 477.528 507.422 477.528 507.422L461.423 508.728C461.423 508.728 440.528 438.631 437.046 422.955C433.564 407.279 434 369.402 434 366.354" stroke="#263238" stroke-linecap="round" stroke-linejoin="round"/>
<path d="M477.526 507.42C477.526 507.42 483.185 526.577 484.491 528.754C485.797 530.931 486.668 532.232 482.75 534.85C478.832 537.468 470.997 539.204 466.21 537.898C461.423 536.592 460.552 528.319 461.422 521.352C461.947 517.161 461.947 512.92 461.422 508.728L477.526 507.42Z" fill="white" stroke="#263238" stroke-linecap="round" stroke-linejoin="round"/>
<path d="M218.363 403.85L198.401 527.516" stroke="#263238" stroke-width="6" stroke-linecap="round" stroke-linejoin="round"/>
<path d="M285.33 403.85L265.369 527.516" stroke="#263238" stroke-width="6" stroke-linecap="round" stroke-linejoin="round"/>
<path d="M313.018 403.85L332.98 527.516" stroke="#263238" stroke-width="6" stroke-linecap="round" stroke-linejoin="round"/>
<path d="M382.562 403.85L402.523 527.516" stroke="#263238" stroke-width="6" stroke-linecap="round" stroke-linejoin="round"/>
<path d="M185.349 268.965L214.096 399.513H307.935L274.544 268.965H185.349Z" fill="#808080" stroke="#263238" stroke-linecap="round" stroke-linejoin="round"/>
<path d="M391.576 399.131H214.096V406.566H391.576V399.131Z" fill="#808080" stroke="#263238" stroke-linecap="round" stroke-linejoin="round"/>
<path d="M391.576 399.131H331.508V406.566H391.576V399.131Z" fill="#808080" stroke="#263238" stroke-linecap="round" stroke-linejoin="round"/>
<path d="M239.398 210.62L203.768 229.943L222.656 345.881C222.656 345.881 221.797 348.886 223.944 350.174C226.091 351.463 232.1 351.893 232.1 351.893H302.072C304.583 351.103 306.817 349.613 308.511 347.598C310.658 344.593 310.658 342.875 310.658 339.869C310.658 336.862 317.956 228.226 316.668 226.079C315.674 224.533 314.523 223.094 313.234 221.785L276.315 207.185L239.398 210.62Z" fill="white" stroke="#263238" stroke-linecap="round" stroke-linejoin="round"/>
<path d="M264.812 236.791L273.205 242.562L270.866 323.884L286.535 340.429L299.156 321.272L278.86 241.257L284.519 229.066L268.413 219.92L264.812 236.791Z" fill="#263238" stroke="#263238" stroke-linecap="round" stroke-linejoin="round"/>
<path d="M291.34 142.775L296.492 158.233L294.345 164.245L301.214 175.839L296.492 178.844C296.492 178.844 299.067 194.733 298.208 196.021C297.349 197.309 279.321 198.597 279.321 198.597L276.745 224.361L247.983 207.615V182.28C247.983 182.28 238.539 146.639 240.686 143.634C242.833 140.629 257.428 134.617 275.027 132.469C292.627 130.322 295.204 128.605 296.063 133.757C296.922 138.91 291.34 142.775 291.34 142.775Z" fill="white" stroke="#263238" stroke-linecap="round" stroke-linejoin="round"/>
<path d="M296.061 133.757C295.204 128.604 292.628 130.323 275.027 132.469C257.426 134.615 242.831 140.628 240.686 143.634C238.54 146.639 247.983 182.28 247.983 182.28V189.152C249.12 189.336 250.28 189.336 251.417 189.152C256.14 188.294 262.578 181.853 262.578 181.853C262.578 181.853 256.139 185.718 253.563 181.853C251.045 178.065 250.12 173.437 250.987 168.971C251.845 164.676 258.284 165.965 258.284 168.112C258.284 170.259 260.86 174.553 263.007 173.694C265.153 172.835 265.582 162.959 265.582 162.959C265.582 162.959 274.597 156.947 275.026 153.942C275.455 150.936 272.45 146.213 272.45 146.213L291.339 142.777C291.339 142.777 296.92 138.91 296.061 133.757Z" fill="#263238" stroke="#263238" stroke-linecap="round" stroke-linejoin="round"/>
<path d="M291.769 159.952C291.769 159.952 286.618 158.233 283.613 162.098" stroke="#263238" stroke-linecap="round" stroke-linejoin="round"/>
<path d="M292.199 165.748C292.199 167.294 291.622 168.539 290.911 168.539C290.201 168.539 289.624 167.289 289.624 165.748C289.624 164.208 290.199 162.957 290.911 162.957C291.624 162.957 292.199 164.206 292.199 165.748Z" fill="#263238"/>
<path d="M294.775 183.139C294.775 183.139 289.194 184.427 287.048 182.28" stroke="#263238" stroke-linecap="round" stroke-linejoin="round"/>
<path d="M279.321 198.597H269.447L277.603 211.908L279.321 198.597Z" fill="#263238" stroke="#263238" stroke-linecap="round" stroke-linejoin="round"/>
<path d="M247.983 202.891L237.251 211.479L263.437 241.537L276.744 224.361L247.983 202.891Z" fill="white" stroke="#263238" stroke-linecap="round" stroke-linejoin="round"/>
<path d="M276.745 224.361L286.619 237.243L283.615 210.191L278.892 204.609L276.745 224.361Z" fill="white" stroke="#263238" stroke-linecap="round" stroke-linejoin="round"/>
<path d="M316.668 226.078L351.869 310.67L328.259 320.117L313.234 293.494L316.668 226.078Z" fill="white" stroke="#263238" stroke-linecap="round" stroke-linejoin="round"/>
<path d="M290.481 310.24C290.481 310.24 321.389 305.518 330.404 303.799C339.419 302.081 346.717 303.37 351.01 308.094C355.302 312.818 354.444 321.834 353.156 323.981C351.869 326.129 340.278 326.987 332.551 326.987C324.824 326.987 301.214 320.976 296.492 319.688L291.769 318.4L290.481 310.24Z" fill="white" stroke="#263238" stroke-linecap="round" stroke-linejoin="round"/>
<path d="M319.244 322.693C319.244 322.693 330.834 324.41 331.692 325.698C332.55 326.987 341.995 337.722 343.283 339.011C344.57 340.299 345.429 352.322 345.429 352.322C345.429 352.322 342.425 354.469 341.566 353.181C340.707 351.893 330.834 339.44 330.834 339.44C330.834 339.44 318.385 335.146 317.526 332.57L316.668 329.993L319.244 322.693Z" fill="white" stroke="#263238" stroke-linecap="round" stroke-linejoin="round"/>
<path d="M203.768 229.943C203.768 229.943 225.232 327.846 226.949 328.275C228.665 328.704 316.668 329.993 316.668 329.993L319.244 322.693L246.266 304.229L241.544 238.96" fill="white"/>
<path d="M203.768 229.943C203.768 229.943 225.232 327.846 226.949 328.275C228.665 328.704 316.668 329.993 316.668 329.993L319.244 322.693L246.266 304.23L241.544 238.96" stroke="#263238" stroke-linecap="round" stroke-linejoin="round"/>
<path d="M353.585 359.447C353.585 359.447 399.947 370.405 403.382 372.513C406.817 374.62 405.099 382.208 402.953 388.53C400.808 394.853 335.127 507.388 335.127 507.388L325.253 504.86L355.303 398.224H317.526L353.585 359.447Z" fill="#263238" stroke="#263238" stroke-linecap="round" stroke-linejoin="round"/>
<path d="M335.127 507.388L342.854 525.091C342.854 525.091 353.585 533.1 353.156 534.366C352.728 535.632 347.576 535.631 347.576 535.631L335.127 532.68C335.127 532.68 323.536 521.722 320.532 519.615C317.527 517.507 314.093 517.085 316.668 513.714C319.335 510.58 322.203 507.624 325.253 504.862L335.127 507.388Z" fill="white" stroke="#263238" stroke-linecap="round" stroke-linejoin="round"/>
<path d="M223.944 350.174C223.944 350.174 221.797 373.362 221.797 379.257C221.797 385.151 226.52 394.43 235.104 397.807C243.689 401.183 343.713 397.807 343.713 397.807L383.205 519.193L394.796 514.978C394.796 514.978 380.201 382.633 380.201 379.683C380.201 376.733 378.913 366.194 374.621 364.088C370.328 361.982 302.072 351.864 302.072 351.864L223.944 350.174Z" fill="#263238" stroke="#263238" stroke-linecap="round" stroke-linejoin="round"/>
<path d="M394.796 514.975C394.796 514.975 417.119 517.926 419.695 517.505C422.271 517.083 430.426 515.397 427.851 519.612C425.275 523.827 408.533 528.463 401.665 531.413C394.797 534.363 387.928 538.999 385.781 535.628C383.634 532.257 383.205 519.19 383.205 519.19L394.796 514.975Z" fill="white" stroke="#263238" stroke-linecap="round" stroke-linejoin="round"/>
<path d="M274.17 303.799H266.013L257.428 313.676C257.428 313.676 254.852 319.688 257.428 319.688C260.003 319.688 266.013 320.976 269.876 319.688C273.74 318.4 284.472 314.105 284.472 314.105C283.931 311.576 282.671 309.258 280.843 307.43C279.015 305.602 276.697 304.341 274.17 303.799Z" fill="white" stroke="#263238" stroke-linecap="round" stroke-linejoin="round"/>
<path d="M278.462 305.518L290.481 310.242L292.198 315.394L284.471 314.106L278.462 305.518Z" fill="white" stroke="#263238" stroke-linecap="round" stroke-linejoin="round"/>
<path d="M256.955 316.209C256.955 316.209 268.297 306.289 271.233 305.042" stroke="#263238" stroke-linecap="round" stroke-linejoin="round"/>
<path d="M259.032 319.064C259.032 319.064 274.089 306.341 277.204 306.341" stroke="#263238" stroke-linecap="round" stroke-linejoin="round"/>
<path d="M264.743 320.363C264.743 320.363 275.647 310.236 280.583 309.717" stroke="#263238" stroke-linecap="round" stroke-linejoin="round"/>
<path d="M836.51 331.174H182.875V361.285H836.51V331.174Z" fill="white" stroke="#263238" stroke-linecap="round" stroke-linejoin="round"/>
<path d="M188.569 531.622H179.76L173.412 331.178H194.919L188.569 531.622Z" fill="white" stroke="#263238" stroke-linecap="round" stroke-linejoin="round"/>
<path d="M837.904 531.622H829.096L822.748 331.178H844.255L837.904 531.622Z" fill="white" stroke="#263238" stroke-linecap="round" stroke-linejoin="round"/>
<path d="M843.793 340.953H173.739V333.868H844.262L843.793 340.953Z" fill="#263238" stroke="#263238" stroke-miterlimit="10"/>
<path d="M850.689 327.846H163.63V334.931H850.689V327.846Z" fill="white" stroke="#263238" stroke-linecap="round" stroke-linejoin="round"/>
<path d="M565.434 303.18C565.434 303.18 568.525 301.854 570.296 302.959C572.066 304.065 572.506 316.444 570.296 320.202C569.783 321.232 569.036 322.129 568.115 322.82C567.194 323.511 566.125 323.977 564.992 324.181L564.549 318.213C564.549 318.213 566.539 319.318 567.64 315.121C568.741 310.924 568.524 307.384 567.86 307.163C567.099 307.131 566.341 307.283 565.65 307.604L565.434 303.18Z" fill="#92E3A9" stroke="#263238" stroke-linecap="round" stroke-linejoin="round"/>
<path d="M565.908 297.153H540.955V328.651H565.908V297.153Z" fill="#92E3A9" stroke="#263238" stroke-linecap="round" stroke-linejoin="round"/>
<path d="M202.168 303.18C202.168 303.18 199.077 301.854 197.307 302.959C195.536 304.065 195.097 316.444 197.307 320.202C197.82 321.232 198.567 322.129 199.488 322.82C200.409 323.511 201.478 323.977 202.611 324.181L203.053 318.213C203.053 318.213 201.063 319.318 199.962 315.121C198.861 310.924 199.079 307.384 199.742 307.163C200.503 307.131 201.261 307.283 201.952 307.604L202.168 303.18Z" fill="#92E3A9" stroke="#263238" stroke-linecap="round" stroke-linejoin="round"/>
<path d="M201.699 328.651H226.652V297.153H201.699V328.651Z" fill="#92E3A9" stroke="#263238" stroke-linecap="round" stroke-linejoin="round"/>
<path d="M794.572 303.18C794.572 303.18 791.481 301.854 789.71 302.959C787.94 304.065 787.5 316.444 789.71 320.202C790.224 321.232 790.971 322.129 791.892 322.82C792.812 323.511 793.882 323.977 795.015 324.181L795.457 318.213C795.457 318.213 793.467 319.318 792.366 315.121C791.265 310.924 791.482 307.384 792.146 307.163C792.907 307.131 793.665 307.283 794.356 307.604L794.572 303.18Z" fill="#92E3A9" stroke="#263238" stroke-linecap="round" stroke-linejoin="round"/>
<path d="M794.103 328.651H819.056V297.153H794.103V328.651Z" fill="#92E3A9" stroke="#263238" stroke-linecap="round" stroke-linejoin="round"/>
<path d="M690.439 270.262H588.566V328.268H690.439V270.262Z" fill="#263238" stroke="#263238" stroke-miterlimit="10"/>
<path d="M393.58 37.5601H293.585C290.283 37.5601 287.115 38.8723 284.78 41.2082C282.445 43.5441 281.133 46.7122 281.133 50.0156V97.6853C281.133 100.989 282.445 104.157 284.78 106.493C287.115 108.829 290.283 110.141 293.585 110.141H305.782L299.978 134.007L321.064 110.141H393.58C396.883 110.141 400.05 108.829 402.385 106.493C404.72 104.157 406.032 100.989 406.032 97.6853V50.0156C406.032 46.7122 404.72 43.5441 402.385 41.2082C400.05 38.8723 396.883 37.5601 393.58 37.5601Z" fill="#263238"/>
<path d="M363.554 58.1223H387.441" stroke="white" stroke-linecap="round" stroke-linejoin="round"/>
<path d="M324.641 58.1223H357.867" stroke="white" stroke-linecap="round" stroke-linejoin="round"/>
<path d="M299.496 58.1223H318.47" stroke="white" stroke-linecap="round" stroke-linejoin="round"/>
<path d="M372.097 68.5955H387.441" stroke="white" stroke-linecap="round" stroke-linejoin="round"/>
<path d="M342.671 68.5955H368.771" stroke="white" stroke-linecap="round" stroke-linejoin="round"/>
<path d="M299.496 68.5955H340.3" stroke="white" stroke-linecap="round" stroke-linejoin="round"/>
<path d="M358.809 79.0684H387.441" stroke="white" stroke-linecap="round" stroke-linejoin="round"/>
<path d="M321.317 79.0684H354.063" stroke="white" stroke-linecap="round" stroke-linejoin="round"/>
<path d="M299.496 79.0684H317.526" stroke="white" stroke-linecap="round" stroke-linejoin="round"/>
<path d="M379.214 89.54H387.441" stroke="white" stroke-linecap="round" stroke-linejoin="round"/>
<path d="M352.639 89.54H374.469" stroke="white" stroke-linecap="round" stroke-linejoin="round"/>
<path d="M340.775 89.54H349.317" stroke="white" stroke-linecap="round" stroke-linejoin="round"/>
<path d="M304.707 89.54H334.605" stroke="white" stroke-linecap="round" stroke-linejoin="round"/>
<path d="M299.496 89.54H302.329" stroke="white" stroke-linecap="round" stroke-linejoin="round"/>
<path d="M531.818 48.2546H438.213C434.91 48.2546 431.743 49.5669 429.408 51.9028C427.073 54.2387 425.761 57.4068 425.761 60.7102V104.667C425.761 107.971 427.073 111.139 429.408 113.475C431.743 115.811 434.91 117.123 438.213 117.123H504.485V136.807L516.288 117.129H531.818C535.12 117.129 538.287 115.817 540.623 113.481C542.958 111.145 544.27 107.977 544.27 104.674V60.7102C544.27 57.4068 542.958 54.2387 540.623 51.9028C538.287 49.5669 535.12 48.2546 531.818 48.2546Z" fill="white" stroke="#263238" stroke-linecap="round" stroke-linejoin="round"/>
<path d="M505.924 67.6162H529.811" stroke="#263238" stroke-linecap="round" stroke-linejoin="round"/>
<path d="M467.01 67.6162H500.236" stroke="#263238" stroke-linecap="round" stroke-linejoin="round"/>
<path d="M441.866 67.6162H460.84" stroke="#263238" stroke-linecap="round" stroke-linejoin="round"/>
<path d="M514.468 78.0894H529.813" stroke="#263238" stroke-linecap="round" stroke-linejoin="round"/>
<path d="M485.044 78.0894H511.144" stroke="#263238" stroke-linecap="round" stroke-linejoin="round"/>
<path d="M441.866 78.0894H482.67" stroke="#263238" stroke-linecap="round" stroke-linejoin="round"/>
<path d="M501.179 88.5623H529.811" stroke="#263238" stroke-linecap="round" stroke-linejoin="round"/>
<path d="M463.687 88.5623H496.438" stroke="#263238" stroke-linecap="round" stroke-linejoin="round"/>
<path d="M441.866 88.5623H459.896" stroke="#263238" stroke-linecap="round" stroke-linejoin="round"/>
<path d="M521.585 99.0339H529.811" stroke="#263238" stroke-linecap="round" stroke-linejoin="round"/>
<path d="M495.009 99.0339H516.839" stroke="#263238" stroke-linecap="round" stroke-linejoin="round"/>
<path d="M483.145 99.0339H491.687" stroke="#263238" stroke-linecap="round" stroke-linejoin="round"/>
<path d="M447.078 99.0339H476.975" stroke="#263238" stroke-linecap="round" stroke-linejoin="round"/>
<path d="M441.866 99.0339H444.7" stroke="#263238" stroke-linecap="round" stroke-linejoin="round"/>
<path d="M660.942 23.1206H567.337C564.035 23.1206 560.868 24.4329 558.533 26.7688C556.197 29.1046 554.885 32.2727 554.885 35.5762V79.5333C554.885 82.8367 556.197 86.0048 558.533 88.3407C560.868 90.6766 564.035 91.9888 567.337 91.9888H635.894L651.751 118.643L649.213 91.9837H660.932C664.235 91.9837 667.402 90.6714 669.737 88.3355C672.072 85.9997 673.384 82.8316 673.384 79.5281V35.5762C673.384 32.2745 672.074 29.108 669.741 26.7724C667.408 24.4368 664.243 23.1233 660.942 23.1206Z" fill="#92E3A9" stroke="#263238" stroke-linecap="round" stroke-linejoin="round"/>
<path d="M634.058 41.0342H657.944" stroke="#263238" stroke-linecap="round" stroke-linejoin="round"/>
<path d="M595.143 41.0342H628.369" stroke="#263238" stroke-linecap="round" stroke-linejoin="round"/>
<path d="M569.999 41.0342H588.973" stroke="#263238" stroke-linecap="round" stroke-linejoin="round"/>
<path d="M642.6 51.5059H657.944" stroke="#263238" stroke-linecap="round" stroke-linejoin="round"/>
<path d="M613.177 51.5059H639.277" stroke="#263238" stroke-linecap="round" stroke-linejoin="round"/>
<path d="M569.999 51.5059H610.798" stroke="#263238" stroke-linecap="round" stroke-linejoin="round"/>
<path d="M629.312 61.979H657.944" stroke="#263238" stroke-linecap="round" stroke-linejoin="round"/>
<path d="M591.82 61.979H624.566" stroke="#263238" stroke-linecap="round" stroke-linejoin="round"/>
<path d="M569.999 61.979H588.029" stroke="#263238" stroke-linecap="round" stroke-linejoin="round"/>
<path d="M649.718 72.4507H657.944" stroke="#263238" stroke-linecap="round" stroke-linejoin="round"/>
<path d="M623.142 72.4507H644.972" stroke="#263238" stroke-linecap="round" stroke-linejoin="round"/>
<path d="M611.278 72.4507H619.821" stroke="#263238" stroke-linecap="round" stroke-linejoin="round"/>
<path d="M575.211 72.4507H605.108" stroke="#263238" stroke-linecap="round" stroke-linejoin="round"/>
<path d="M569.999 72.4507H572.833" stroke="#263238" stroke-linecap="round" stroke-linejoin="round"/>
</g>
<defs>
<clipPath id="clip0_1_3444">
<rect width="907" height="544" fill="white"/>
</clipPath>
</defs>
</svg>
