<svg width="130" height="127" viewBox="0 0 130 127" fill="none" xmlns="http://www.w3.org/2000/svg">
<g clip-path="url(#clip0_1_2561)">
<path d="M97.1797 0.216078C97.6601 -0.0659464 98.2552 -0.0682442 98.7377 0.210061L124.2 14.8952C125.227 15.4876 125.233 16.9667 124.21 17.567L95.8233 34.2327L65.6261 51.3219C65.1528 51.5898 64.5734 51.5898 64.1 51.3216L33.8951 34.2191L5.52616 17.5558C4.50388 16.9554 4.50976 15.4766 5.53676 14.8843L30.9849 0.207127C31.4674 -0.0712373 32.0627 -0.0688757 32.5431 0.21331L48.2253 9.42467L64.093 18.4092C64.5663 18.6772 65.1454 18.6773 65.6187 18.4094L81.4822 9.43191L97.1797 0.216078Z" fill="white"/>
<path d="M61.9048 96.0812C61.9048 95.5245 61.6052 95.0109 61.1207 94.7365L45.2825 85.7641L29.5679 76.5291C29.099 76.2536 28.8093 75.752 28.805 75.2086L28.6601 56.9888L28.8046 38.8163C28.8091 38.2596 28.5135 37.7436 28.0309 37.4651L2.58285 22.788C1.55583 22.1956 0.27089 22.93 0.261468 24.1146L0 56.9888L0.275848 91.6711C0.28017 92.2145 0.569796 92.716 1.03869 92.9916L30.9524 110.571L59.5938 126.796C60.6255 127.381 61.9048 126.636 61.9048 125.452V96.0812Z" fill="white"/>
<path d="M68.0952 96.0812C68.0952 95.5245 68.3948 95.0109 68.8793 94.7365L84.7175 85.7641L100.432 76.5291C100.901 76.2536 101.191 75.752 101.195 75.2086L101.34 56.9888L101.195 38.8163C101.191 38.2596 101.487 37.7436 101.969 37.4651L127.417 22.788C128.444 22.1956 129.729 22.93 129.739 24.1146L130 56.9888L129.724 91.6711C129.72 92.2145 129.43 92.716 128.961 92.9916L99.0476 110.571L70.4062 126.796C69.3745 127.381 68.0952 126.636 68.0952 125.452V96.0812Z" fill="white"/>
</g>
<defs>
<clipPath id="clip0_1_2561">
<rect width="130" height="127" fill="white"/>
</clipPath>
</defs>
</svg>
