<svg width="196" height="40" viewBox="0 0 196 40" fill="none" xmlns="http://www.w3.org/2000/svg">
<path d="M29.9014 0.0680561C30.0493 -0.0207705 30.2323 -0.0214942 30.3808 0.0661611L38.2153 4.69141C38.5313 4.878 38.5331 5.34383 38.2184 5.53291L29.4841 10.782L20.1926 16.1644C20.047 16.2487 19.8687 16.2487 19.7231 16.1643L10.4293 10.7777L1.70034 5.5294C1.3858 5.34028 1.38761 4.87452 1.70361 4.68795L9.53381 0.0652367C9.68226 -0.0224369 9.86544 -0.0216931 10.0133 0.0671843L14.8385 2.9684L19.7209 5.79818C19.8665 5.88258 20.0447 5.8826 20.1903 5.79823L25.0714 2.97068L29.9014 0.0680561Z" fill="white"/>
<path d="M19.0476 30.2617C19.0476 30.0864 18.9555 29.9246 18.8064 29.8382L13.9331 27.0123L9.09782 24.1036C8.95353 24.0168 8.86441 23.8589 8.86308 23.6877L8.81849 17.9492L8.86296 12.2256C8.86433 12.0502 8.77339 11.8877 8.62488 11.8L0.794724 7.17728C0.478717 6.99071 0.0833508 7.22199 0.0804517 7.5951L0 17.9492L0.0848762 28.8727C0.0862061 29.0439 0.175322 29.2018 0.319596 29.2886L9.52382 34.8255L18.3365 39.9358C18.654 40.1199 19.0476 39.8854 19.0476 39.5123V30.2617Z" fill="white"/>
<path d="M20.9524 30.2617C20.9524 30.0864 21.0445 29.9246 21.1936 29.8382L26.0669 27.0123L30.9022 24.1036C31.0465 24.0168 31.1355 23.8589 31.1369 23.6877L31.1815 17.9492L31.137 12.2256C31.1356 12.0502 31.2266 11.8877 31.3751 11.8L39.2053 7.17728C39.5213 6.99071 39.9166 7.22199 39.9195 7.5951L40 17.9492L39.9151 28.8727C39.9138 29.0439 39.8246 29.2018 39.6804 29.2886L30.4762 34.8255L21.6635 39.9358C21.346 40.1199 20.9524 39.8854 20.9524 39.5123V30.2617Z" fill="white"/>
<path d="M61.4347 27V12.4546H64.0696V24.7912H70.4759V27H61.4347Z" fill="white"/>
<path d="M72.6492 27V16.091H75.2202V27H72.6492ZM73.9418 14.5427C73.5346 14.5427 73.1842 14.4077 72.8906 14.1378C72.5971 13.8632 72.4503 13.5341 72.4503 13.1506C72.4503 12.7624 72.5971 12.4333 72.8906 12.1634C73.1842 11.8888 73.5346 11.7515 73.9418 11.7515C74.3537 11.7515 74.7041 11.8888 74.9929 12.1634C75.2865 12.4333 75.4332 12.7624 75.4332 13.1506C75.4332 13.5341 75.2865 13.8632 74.9929 14.1378C74.7041 14.4077 74.3537 14.5427 73.9418 14.5427Z" fill="white"/>
<path d="M77.864 27V16.091H80.3214V17.9446H80.4492C80.6765 17.3196 81.0529 16.832 81.5785 16.4816C82.1041 16.1265 82.7314 15.9489 83.4606 15.9489C84.1992 15.9489 84.8219 16.1288 85.3285 16.4887C85.8398 16.8438 86.1997 17.3291 86.408 17.9446H86.5217C86.7631 17.3386 87.1703 16.8556 87.7433 16.4958C88.3209 16.1312 89.0051 15.9489 89.7958 15.9489C90.7996 15.9489 91.6187 16.2661 92.2532 16.9006C92.8877 17.5351 93.2049 18.4607 93.2049 19.6776V27H90.6268V20.0753C90.6268 19.3982 90.4469 18.9035 90.087 18.591C89.7272 18.2737 89.2868 18.1151 88.766 18.1151C88.1457 18.1151 87.6604 18.3092 87.31 18.6975C86.9644 19.081 86.7916 19.5805 86.7916 20.1961V27H84.2702V19.9688C84.2702 19.4053 84.0998 18.9555 83.7589 18.6194C83.4227 18.2832 82.9824 18.1151 82.4379 18.1151C82.0685 18.1151 81.7324 18.2098 81.4293 18.3992C81.1263 18.5839 80.8848 18.8466 80.7049 19.1875C80.525 19.5237 80.435 19.9167 80.435 20.3665V27H77.864Z" fill="white"/>
<path d="M95.8132 27V16.091H98.3842V27H95.8132ZM97.1058 14.5427C96.6986 14.5427 96.3483 14.4077 96.0547 14.1378C95.7611 13.8632 95.6143 13.5341 95.6143 13.1506C95.6143 12.7624 95.7611 12.4333 96.0547 12.1634C96.3483 11.8888 96.6986 11.7515 97.1058 11.7515C97.5178 11.7515 97.8681 11.8888 98.157 12.1634C98.4505 12.4333 98.5973 12.7624 98.5973 13.1506C98.5973 13.5341 98.4505 13.8632 98.157 14.1378C97.8681 14.4077 97.5178 14.5427 97.1058 14.5427Z" fill="white"/>
<path d="M103.599 20.608V27H101.028V16.091H103.485V17.9446H103.613C103.864 17.3339 104.264 16.8485 104.814 16.4887C105.368 16.1288 106.052 15.9489 106.866 15.9489C107.619 15.9489 108.275 16.1099 108.833 16.4319C109.397 16.7538 109.833 17.2202 110.14 17.831C110.453 18.4418 110.607 19.1828 110.602 20.054V27H108.031V20.4517C108.031 19.7226 107.842 19.152 107.463 18.7401C107.089 18.3282 106.57 18.1222 105.907 18.1222C105.458 18.1222 105.057 18.2216 104.707 18.4205C104.361 18.6146 104.089 18.8964 103.89 19.2657C103.696 19.635 103.599 20.0824 103.599 20.608Z" fill="white"/>
<path d="M116.355 27.2202C115.663 27.2202 115.041 27.0971 114.487 26.8509C113.938 26.6 113.502 26.2306 113.18 25.7429C112.863 25.2553 112.704 24.6539 112.704 23.939C112.704 23.3234 112.818 22.8144 113.045 22.412C113.272 22.0095 113.583 21.6875 113.976 21.4461C114.368 21.2046 114.811 21.0223 115.304 20.8992C115.801 20.7714 116.315 20.679 116.845 20.6222C117.484 20.5559 118.002 20.4967 118.4 20.4446C118.798 20.3878 119.087 20.3026 119.267 20.189C119.451 20.0706 119.544 19.8883 119.544 19.6421V19.5995C119.544 19.0644 119.385 18.6501 119.068 18.3566C118.751 18.063 118.294 17.9162 117.697 17.9162C117.067 17.9162 116.568 18.0535 116.199 18.3282C115.834 18.6028 115.588 18.9271 115.46 19.3012L113.059 18.9603C113.249 18.2974 113.561 17.7434 113.997 17.2983C114.432 16.8485 114.965 16.5124 115.595 16.2898C116.225 16.0625 116.921 15.9489 117.683 15.9489C118.208 15.9489 118.732 16.0105 119.252 16.1336C119.773 16.2567 120.249 16.4603 120.68 16.7444C121.111 17.0237 121.457 17.4049 121.717 17.8878C121.982 18.3708 122.115 18.9745 122.115 19.6989V27H119.643V25.5015H119.558C119.402 25.8045 119.181 26.0886 118.897 26.3537C118.618 26.6142 118.265 26.8249 117.839 26.9858C117.418 27.1421 116.923 27.2202 116.355 27.2202ZM117.022 25.331C117.538 25.331 117.986 25.2292 118.365 25.0256C118.743 24.8173 119.035 24.5427 119.238 24.2017C119.447 23.8608 119.551 23.4892 119.551 23.0867V21.8012C119.47 21.8675 119.333 21.929 119.139 21.9858C118.949 22.0427 118.736 22.0924 118.5 22.135C118.263 22.1776 118.029 22.2155 117.797 22.2486C117.565 22.2818 117.363 22.3102 117.193 22.3339C116.809 22.3859 116.466 22.4712 116.163 22.5895C115.86 22.7079 115.621 22.8736 115.446 23.0867C115.27 23.295 115.183 23.5649 115.183 23.8964C115.183 24.3698 115.356 24.7273 115.701 24.9688C116.047 25.2103 116.487 25.331 117.022 25.331Z" fill="white"/>
<path d="M127.271 12.4546V27H124.7V12.4546H127.271Z" fill="white"/>
<path d="M134.989 27V12.4546H137.624V18.6123H144.364V12.4546H147.006V27H144.364V20.8211H137.624V27H134.989Z" fill="white"/>
<path d="M154.588 27.2131C153.494 27.2131 152.55 26.9858 151.754 26.5313C150.964 26.072 150.355 25.4233 149.929 24.5853C149.503 23.7425 149.29 22.7505 149.29 21.6094C149.29 20.4873 149.503 19.5024 149.929 18.6549C150.36 17.8026 150.961 17.1397 151.733 16.6662C152.505 16.188 153.411 15.9489 154.453 15.9489C155.125 15.9489 155.76 16.0578 156.357 16.2756C156.958 16.4887 157.488 16.8201 157.947 17.2699C158.411 17.7197 158.776 18.2927 159.041 18.9887C159.306 19.68 159.439 20.5038 159.439 21.4603V22.2486H150.497V20.5157H156.974C156.97 20.0232 156.863 19.5853 156.655 19.2017C156.446 18.8135 156.155 18.5081 155.781 18.2856C155.412 18.063 154.981 17.9517 154.489 17.9517C153.963 17.9517 153.501 18.0796 153.104 18.3353C152.706 18.5862 152.396 18.9177 152.173 19.3296C151.955 19.7368 151.844 20.1842 151.839 20.6719V22.1847C151.839 22.8192 151.955 23.3637 152.188 23.8182C152.42 24.268 152.744 24.6137 153.161 24.8552C153.577 25.0919 154.065 25.2103 154.624 25.2103C154.998 25.2103 155.336 25.1582 155.639 25.054C155.942 24.9451 156.205 24.7865 156.428 24.5782C156.65 24.3698 156.818 24.1118 156.932 23.804L159.332 24.0739C159.181 24.7084 158.892 25.2624 158.466 25.7358C158.045 26.2046 157.505 26.5692 156.847 26.8296C156.188 27.0853 155.436 27.2131 154.588 27.2131Z" fill="white"/>
<path d="M164.753 27.2202C164.062 27.2202 163.439 27.0971 162.885 26.8509C162.336 26.6 161.9 26.2306 161.578 25.7429C161.261 25.2553 161.103 24.6539 161.103 23.939C161.103 23.3234 161.216 22.8144 161.444 22.412C161.671 22.0095 161.981 21.6875 162.374 21.4461C162.767 21.2046 163.21 21.0223 163.702 20.8992C164.199 20.7714 164.713 20.679 165.243 20.6222C165.882 20.5559 166.401 20.4967 166.799 20.4446C167.196 20.3878 167.485 20.3026 167.665 20.189C167.85 20.0706 167.942 19.8883 167.942 19.6421V19.5995C167.942 19.0644 167.783 18.6501 167.466 18.3566C167.149 18.063 166.692 17.9162 166.096 17.9162C165.466 17.9162 164.966 18.0535 164.597 18.3282C164.232 18.6028 163.986 18.9271 163.858 19.3012L161.458 18.9603C161.647 18.2974 161.96 17.7434 162.395 17.2983C162.831 16.8485 163.364 16.5124 163.993 16.2898C164.623 16.0625 165.319 15.9489 166.081 15.9489C166.607 15.9489 167.13 16.0105 167.651 16.1336C168.172 16.2567 168.648 16.4603 169.078 16.7444C169.509 17.0237 169.855 17.4049 170.115 17.8878C170.381 18.3708 170.513 18.9745 170.513 19.6989V27H168.042V25.5015H167.956C167.8 25.8045 167.58 26.0886 167.296 26.3537C167.016 26.6142 166.664 26.8249 166.238 26.9858C165.816 27.1421 165.321 27.2202 164.753 27.2202ZM165.421 25.331C165.937 25.331 166.384 25.2292 166.763 25.0256C167.142 24.8173 167.433 24.5427 167.637 24.2017C167.845 23.8608 167.949 23.4892 167.949 23.0867V21.8012C167.869 21.8675 167.731 21.929 167.537 21.9858C167.348 22.0427 167.135 22.0924 166.898 22.135C166.661 22.1776 166.427 22.2155 166.195 22.2486C165.963 22.2818 165.762 22.3102 165.591 22.3339C165.208 22.3859 164.864 22.4712 164.561 22.5895C164.258 22.7079 164.019 22.8736 163.844 23.0867C163.669 23.295 163.581 23.5649 163.581 23.8964C163.581 24.3698 163.754 24.7273 164.1 24.9688C164.445 25.2103 164.886 25.331 165.421 25.331Z" fill="white"/>
<path d="M175.669 12.4546V27H173.098V12.4546H175.669Z" fill="white"/>
<path d="M183.761 16.091V18.0796H177.489V16.091H183.761ZM179.038 13.4773H181.609V23.7188C181.609 24.0644 181.661 24.3296 181.765 24.5142C181.874 24.6942 182.016 24.8173 182.191 24.8836C182.366 24.9499 182.56 24.983 182.773 24.983C182.934 24.983 183.081 24.9712 183.214 24.9475C183.351 24.9238 183.455 24.9025 183.526 24.8836L183.96 26.8935C183.822 26.9409 183.626 26.9929 183.37 27.0498C183.119 27.1066 182.811 27.1397 182.447 27.1492C181.803 27.1681 181.223 27.0711 180.707 26.858C180.191 26.6402 179.781 26.304 179.478 25.8495C179.18 25.3949 179.033 24.8267 179.038 24.1449V13.4773Z" fill="white"/>
<path d="M188.716 20.608V27H186.145V12.4546H188.659V17.9446H188.787C189.043 17.3291 189.438 16.8438 189.973 16.4887C190.513 16.1288 191.2 15.9489 192.033 15.9489C192.791 15.9489 193.451 16.1075 194.015 16.4248C194.578 16.742 195.014 17.206 195.321 17.8168C195.634 18.4276 195.79 19.1733 195.79 20.054V27H193.219V20.4517C193.219 19.7178 193.03 19.1473 192.651 18.7401C192.277 18.3282 191.751 18.1222 191.074 18.1222C190.62 18.1222 190.212 18.2216 189.853 18.4205C189.498 18.6146 189.218 18.8964 189.015 19.2657C188.816 19.635 188.716 20.0824 188.716 20.608Z" fill="white"/>
</svg>
