<svg width="100" height="102" viewBox="0 0 100 102" fill="none" xmlns="http://www.w3.org/2000/svg">
<rect x="48.3862" y="17.7417" width="3.22581" height="80.6452" rx="1" fill="#368B85"/>
<rect x="11.4795" y="34.4614" width="3.22581" height="87.0968" rx="1" transform="rotate(-60 11.4795 34.4614)" fill="#368B85"/>
<rect width="3.22581" height="87.0968" rx="1" transform="matrix(-0.5 -0.866025 -0.866025 0.5 88.5205 34.4614)" fill="#368B85"/>
<circle cx="50.0023" cy="54.8387" r="17.8548" fill="#D7E8E7" stroke="#368B85" stroke-width="3"/>
<circle cx="49.999" cy="55" r="24.5" stroke="#368B85" stroke-width="3"/>
<path fill-rule="evenodd" clip-rule="evenodd" d="M47.6749 50.0829C47.0655 50.5396 46.7901 51.0871 46.7901 51.5981C46.7901 52.1101 47.0655 52.6576 47.6749 53.1155C48.2854 53.5734 49.1791 53.8897 50.2132 53.8897C50.5065 53.8897 50.7878 54.0062 50.9952 54.2136C51.2026 54.421 51.3192 54.7023 51.3192 54.9957C51.3192 55.289 51.2026 55.5703 50.9952 55.7777C50.7878 55.9851 50.5065 56.1017 50.2132 56.1017C48.7466 56.1017 47.3763 55.657 46.3477 54.8851C45.3192 54.1131 44.5782 52.9629 44.5782 51.5992C44.5782 50.2344 45.3192 49.0841 46.3477 48.3122C47.3763 47.5413 48.7477 47.0967 50.2132 47.0967C52.4838 47.0967 54.6305 48.1839 55.4843 49.9944C55.5463 50.1258 55.5817 50.2682 55.5887 50.4133C55.5956 50.5585 55.5739 50.7035 55.5247 50.8403C55.4756 50.977 55.4 51.1028 55.3022 51.2103C55.2045 51.3178 55.0866 51.4051 54.9551 51.467C54.8237 51.5289 54.6813 51.5644 54.5362 51.5713C54.391 51.5783 54.2459 51.5565 54.1092 51.5074C53.9725 51.4582 53.8467 51.3826 53.7392 51.2849C53.6317 51.1872 53.5444 51.0692 53.4825 50.9378C53.0954 50.1116 51.8876 49.3087 50.2143 49.3087C49.1802 49.3087 48.2854 49.625 47.6749 50.0829Z" fill="#368B85"/>
<path fill-rule="evenodd" clip-rule="evenodd" d="M52.3864 59.9074C52.9958 59.4507 53.2701 58.9032 53.2701 58.3922C53.2701 57.8802 52.9958 57.3316 52.3853 56.8748C51.7759 56.4169 50.8812 56.1006 49.8482 56.1006C49.5549 56.1006 49.2736 55.9841 49.0661 55.7767C48.8587 55.5693 48.7422 55.288 48.7422 54.9946C48.7422 54.7013 48.8587 54.42 49.0661 54.2126C49.2736 54.0052 49.5549 53.8886 49.8482 53.8886C51.3147 53.8886 52.6851 54.3332 53.7136 55.1052C54.7422 55.8772 55.4821 57.0274 55.4821 58.3911C55.4821 59.7548 54.7422 60.9061 53.7125 61.677C52.684 62.449 51.3147 62.8936 49.8482 62.8936C47.5776 62.8936 45.4298 61.8064 44.577 59.9948C44.4519 59.7295 44.4374 59.4254 44.5365 59.1493C44.6356 58.8732 44.8404 58.6478 45.1057 58.5227C45.371 58.3976 45.6752 58.383 45.9512 58.4822C46.2273 58.5813 46.4527 58.7861 46.5778 59.0514C46.9671 59.8787 48.1748 60.6816 49.8482 60.6816C50.8823 60.6816 51.7759 60.3653 52.3864 59.9074ZM50.0008 44.8848C50.2942 44.8848 50.5755 45.0013 50.7829 45.2087C50.9903 45.4161 51.1068 45.6974 51.1068 45.9908V47.0967C51.1068 47.3901 50.9903 47.6714 50.7829 47.8788C50.5755 48.0862 50.2942 48.2027 50.0008 48.2027C49.7075 48.2027 49.4262 48.0862 49.2188 47.8788C49.0114 47.6714 48.8948 47.3901 48.8948 47.0967V45.9908C48.8948 45.6974 49.0114 45.4161 49.2188 45.2087C49.4262 45.0013 49.7075 44.8848 50.0008 44.8848Z" fill="#368B85"/>
<path fill-rule="evenodd" clip-rule="evenodd" d="M50.0008 61.4746C50.2942 61.4746 50.5755 61.5911 50.7829 61.7985C50.9903 62.006 51.1068 62.2873 51.1068 62.5806V63.6866C51.1068 63.9799 50.9903 64.2612 50.7829 64.4686C50.5755 64.6761 50.2942 64.7926 50.0008 64.7926C49.7075 64.7926 49.4262 64.6761 49.2188 64.4686C49.0114 64.2612 48.8948 63.9799 48.8948 63.6866V62.5806C48.8948 62.2873 49.0114 62.006 49.2188 61.7985C49.4262 61.5911 49.7075 61.4746 50.0008 61.4746Z" fill="#368B85"/>
<path d="M50.0004 4.30127C51.1411 4.30127 52.2351 4.75442 53.0417 5.56103C53.8483 6.36763 54.3015 7.46163 54.3015 8.60234C54.3015 9.74306 53.8483 10.8371 53.0417 11.6437C52.2351 12.4503 51.1411 12.9034 50.0004 12.9034C48.8597 12.9034 47.7657 12.4503 46.9591 11.6437C46.1525 10.8371 45.6993 9.74306 45.6993 8.60234C45.6993 7.46163 46.1525 6.36763 46.9591 5.56103C47.7657 4.75442 48.8597 4.30127 50.0004 4.30127ZM50.0004 21.5056C50.0004 21.5056 58.6025 21.5056 58.6025 19.355C58.6025 16.7744 54.409 13.9787 50.0004 13.9787C45.5918 13.9787 41.3982 16.7744 41.3982 19.355C41.3982 21.5056 50.0004 21.5056 50.0004 21.5056Z" fill="#368B85"/>
<path d="M87.0976 62.3657C88.2383 62.3657 89.3323 62.8189 90.1389 63.6255C90.9455 64.4321 91.3986 65.5261 91.3986 66.6668C91.3986 67.8075 90.9455 68.9015 90.1389 69.7081C89.3323 70.5147 88.2383 70.9679 87.0976 70.9679C85.9568 70.9679 84.8628 70.5147 84.0562 69.7081C83.2496 68.9015 82.7965 67.8075 82.7965 66.6668C82.7965 65.5261 83.2496 64.4321 84.0562 63.6255C84.8628 62.8189 85.9568 62.3657 87.0976 62.3657ZM87.0976 79.57C87.0976 79.57 95.6997 79.57 95.6997 77.4195C95.6997 74.8388 91.5062 72.0431 87.0976 72.0431C82.689 72.0431 78.4954 74.8388 78.4954 77.4195C78.4954 79.57 87.0976 79.57 87.0976 79.57Z" fill="#368B85"/>
<path d="M12.9032 62.3657C14.0439 62.3657 15.1379 62.8189 15.9445 63.6255C16.7511 64.4321 17.2043 65.5261 17.2043 66.6668C17.2043 67.8075 16.7511 68.9015 15.9445 69.7081C15.1379 70.5147 14.0439 70.9679 12.9032 70.9679C11.7625 70.9679 10.6685 70.5147 9.8619 69.7081C9.05529 68.9015 8.60215 67.8075 8.60215 66.6668C8.60215 65.5261 9.05529 64.4321 9.8619 63.6255C10.6685 62.8189 11.7625 62.3657 12.9032 62.3657ZM12.9032 79.57C12.9032 79.57 21.5054 79.57 21.5054 77.4195C21.5054 74.8388 17.3118 72.0431 12.9032 72.0431C8.49462 72.0431 4.30107 74.8388 4.30107 77.4195C4.30107 79.57 12.9032 79.57 12.9032 79.57Z" fill="#368B85"/>
<circle cx="4.83871" cy="4.83871" r="4.83871" transform="matrix(-1 0 0 1 54.8389 90.3228)" fill="white" stroke="#368B85" stroke-width="3"/>
<circle cx="4.83871" cy="4.83871" r="4.83871" transform="matrix(-1 0 0 1 93.5474 27.4194)" fill="white" stroke="#368B85" stroke-width="3"/>
<circle cx="4.83871" cy="4.83871" r="4.83871" transform="matrix(-1 0 0 1 16.1279 27.4194)" fill="white" stroke="#368B85" stroke-width="3"/>
</svg>
