<svg width="449" height="442" viewBox="0 0 449 442" fill="none" xmlns="http://www.w3.org/2000/svg">
<g clip-path="url(#clip0_1_3790)">
<path opacity="0.7" d="M42.872 137.665C42.872 137.665 14.995 209.492 54.172 281.844C93.349 354.196 174.048 392.403 238.641 425.077C303.234 457.75 370.302 441.839 402.175 388.321C434.048 334.803 390.33 296.596 390.275 220.277C390.22 143.958 401.722 123.75 360.312 59.2703C318.902 -5.20934 217.253 -19.4796 140.412 28.3391C63.571 76.1577 42.872 137.665 42.872 137.665Z" fill="white"/>
<path d="M203.194 22.1556C327.229 11.1341 327.441 80.9588 383.326 146.009C439.211 211.059 451.173 240.553 430.105 315.54C409.037 390.527 338.041 449.312 250.213 416.005C162.385 382.698 112.073 414.684 56.675 385.106C1.277 355.529 -19.293 298.386 21.256 231.039C61.805 163.692 50.253 35.7464 203.194 22.1556Z" fill="#92E3A9"/>
<path opacity="0.7" d="M203.194 22.1556C327.229 11.1341 327.441 80.9588 383.326 146.009C439.211 211.059 451.173 240.553 430.105 315.54C409.037 390.527 338.041 449.312 250.213 416.005C162.385 382.698 112.073 414.684 56.675 385.106C1.277 355.529 -19.293 298.386 21.256 231.039C61.805 163.692 50.253 35.7464 203.194 22.1556Z" fill="white"/>
<path d="M231.355 26.7323L210.95 31.0203C208.199 31.5983 206.439 34.2919 207.018 37.0366L211.315 57.3967C211.895 60.1414 214.594 61.8978 217.345 61.3197L237.751 57.0318C240.501 56.4537 242.262 53.7601 241.682 51.0154L237.385 30.6553C236.805 27.9107 234.106 26.1543 231.355 26.7323Z" stroke="#263238" stroke-linecap="round" stroke-linejoin="round"/>
<path d="M223.046 37.8481L225.654 50.2037" stroke="#263238" stroke-linecap="round" stroke-linejoin="round"/>
<path d="M230.542 42.7241L218.159 45.3263" stroke="#263238" stroke-linecap="round" stroke-linejoin="round"/>
<path d="M437.028 244.38L416.623 248.668C413.872 249.246 412.112 251.94 412.691 254.685L416.988 275.045C417.568 277.789 420.267 279.546 423.018 278.968L443.424 274.68C446.174 274.102 447.935 271.408 447.355 268.663L443.058 248.303C442.478 245.559 439.779 243.802 437.028 244.38Z" stroke="#263238" stroke-linecap="round" stroke-linejoin="round"/>
<path d="M433.479 256.386L426.567 266.962" stroke="#263238" stroke-linecap="round" stroke-linejoin="round"/>
<path d="M435.323 265.122L424.723 258.226" stroke="#263238" stroke-linecap="round" stroke-linejoin="round"/>
<path d="M162.204 375.807L141.386 374.605C138.579 374.443 136.173 376.582 136.011 379.382L134.812 400.154C134.65 402.954 136.794 405.356 139.601 405.518L160.419 406.72C163.226 406.882 165.632 404.743 165.793 401.943L166.992 381.17C167.154 378.37 165.01 375.969 162.204 375.807Z" stroke="#263238" stroke-linecap="round" stroke-linejoin="round"/>
<path d="M157.217 391.023L144.584 390.296" stroke="#263238" stroke-linecap="round" stroke-linejoin="round"/>
<path d="M37.1538 232.112L17.3588 225.569C14.6903 224.687 11.8104 226.131 10.9263 228.793L4.36864 248.544C3.48461 251.207 4.93122 254.08 7.59973 254.963L27.3948 261.506C30.0633 262.388 32.9432 260.944 33.8272 258.282L40.3849 238.531C41.269 235.868 39.8223 232.994 37.1538 232.112Z" stroke="#263238" stroke-linecap="round" stroke-linejoin="round"/>
<path d="M30.293 239.57L14.461 247.505" stroke="#263238" stroke-linecap="round" stroke-linejoin="round"/>
<path d="M21.208 236.306C21.4042 236.696 21.4803 237.135 21.4265 237.568C21.3728 238 21.1916 238.407 20.906 238.737C20.6204 239.067 20.2431 239.305 19.822 239.421C19.4008 239.537 18.9546 239.526 18.5398 239.389C18.125 239.252 17.7603 238.995 17.4917 238.651C17.2232 238.307 17.0629 237.891 17.0311 237.457C16.9994 237.022 17.0976 236.587 17.3133 236.208C17.529 235.829 17.8525 235.522 18.243 235.327C18.7664 235.064 19.3728 235.02 19.9288 235.204C20.4848 235.388 20.9449 235.784 21.208 236.306Z" stroke="#263238" stroke-linecap="round" stroke-linejoin="round"/>
<path d="M27.492 248.79C27.6881 249.179 27.7639 249.618 27.71 250.051C27.6561 250.483 27.4748 250.89 27.1891 251.22C26.9034 251.55 26.5261 251.788 26.1049 251.904C25.6836 252.019 25.2375 252.008 24.8227 251.871C24.408 251.734 24.0434 251.477 23.775 251.133C23.5065 250.789 23.3464 250.373 23.3147 249.938C23.283 249.504 23.3813 249.069 23.5971 248.69C23.8129 248.311 24.1365 248.004 24.527 247.809C24.7862 247.679 25.0685 247.601 25.3579 247.58C25.6472 247.559 25.9378 247.595 26.2132 247.686C26.4885 247.777 26.7432 247.922 26.9626 248.111C27.182 248.3 27.3619 248.531 27.492 248.79Z" stroke="#263238" stroke-linecap="round" stroke-linejoin="round"/>
<path d="M232.641 370.851C230.568 373.839 227.654 376.147 224.267 377.482C220.88 378.818 217.172 379.122 213.611 378.355C210.051 377.588 206.799 375.786 204.266 373.175C201.732 370.564 200.032 367.262 199.379 363.687C198.726 360.112 199.15 356.423 200.598 353.089C202.045 349.754 204.451 346.923 207.512 344.952C210.572 342.982 214.149 341.961 217.791 342.019C221.432 342.077 224.975 343.211 227.971 345.277C231.988 348.052 234.737 352.304 235.612 357.099C236.488 361.895 235.419 366.841 232.641 370.851Z" fill="#92E3A9"/>
<mask id="mask0_1_3790" style="mask-type:luminance" maskUnits="userSpaceOnUse" x="199" y="342" width="37" height="37">
<path d="M232.641 370.851C230.568 373.839 227.654 376.147 224.267 377.482C220.88 378.818 217.172 379.122 213.611 378.355C210.051 377.588 206.799 375.786 204.266 373.175C201.732 370.564 200.032 367.262 199.379 363.687C198.726 360.112 199.15 356.423 200.598 353.089C202.045 349.754 204.451 346.923 207.512 344.952C210.572 342.982 214.149 341.961 217.791 342.019C221.432 342.077 224.975 343.211 227.971 345.277C231.988 348.052 234.737 352.304 235.612 357.099C236.488 361.895 235.419 366.841 232.641 370.851Z" fill="white"/>
</mask>
<g mask="url(#mask0_1_3790)">
<path opacity="0.3" d="M230.241 369.19C228.497 371.706 226.045 373.649 223.195 374.774C220.344 375.9 217.223 376.156 214.227 375.512C211.23 374.867 208.492 373.351 206.359 371.154C204.226 368.957 202.794 366.178 202.244 363.169C201.694 360.16 202.051 357.055 203.269 354.248C204.487 351.442 206.511 349.058 209.087 347.399C211.663 345.741 214.673 344.881 217.738 344.93C220.804 344.978 223.785 345.932 226.307 347.672C227.981 348.827 229.412 350.3 230.515 352.006C231.619 353.713 232.376 355.62 232.741 357.618C233.106 359.616 233.074 361.667 232.645 363.652C232.216 365.638 231.399 367.519 230.241 369.19Z" fill="black" fill-opacity="0.7"/>
<path d="M230.241 369.19C228.497 371.706 226.045 373.649 223.195 374.774C220.344 375.9 217.223 376.156 214.227 375.512C211.23 374.867 208.492 373.351 206.359 371.154C204.226 368.957 202.794 366.178 202.244 363.169C201.694 360.16 202.051 357.055 203.269 354.248C204.487 351.442 206.511 349.058 209.087 347.399C211.663 345.741 214.673 344.881 217.738 344.93C220.804 344.978 223.785 345.932 226.307 347.672C227.981 348.827 229.412 350.3 230.515 352.006C231.619 353.713 232.376 355.62 232.741 357.618C233.106 359.616 233.074 361.667 232.645 363.652C232.216 365.638 231.399 367.519 230.241 369.19Z" stroke="#263238" stroke-linecap="round" stroke-linejoin="round"/>
<path d="M221.462 352.675L222.206 351.602L224.067 352.885L223.323 353.958C224.708 355.401 224.678 357.21 223.323 359.171L223.008 359.626L220.857 358.141L221.271 357.542C221.987 356.51 221.845 355.833 221.121 355.333C220.397 354.833 219.711 354.94 218.996 355.972C218.281 357.004 218.196 358.011 218.881 360.284C219.714 363.055 219.568 364.632 218.424 366.283C217.066 368.244 215.345 368.917 213.503 368.133L212.774 369.186L210.913 367.902L211.642 366.85C210.242 365.393 210.282 363.563 211.642 361.603L212.328 360.613L214.479 362.096L213.693 363.231C212.978 364.263 213.175 364.948 213.899 365.447C214.623 365.946 215.335 365.889 216.05 364.857C216.765 363.825 216.866 362.798 216.165 360.545C215.319 357.796 215.479 356.198 216.623 354.547C217.963 352.608 219.627 351.927 221.462 352.675Z" fill="#92E3A9" stroke="#263238" stroke-linecap="round" stroke-linejoin="round"/>
<path opacity="0.2" d="M212.351 345.497C212.354 349.793 211.236 354.017 209.107 357.752C206.979 361.487 203.913 364.605 200.211 366.8C199.333 364.443 198.948 361.931 199.082 359.42C199.216 356.909 199.865 354.453 200.989 352.202C202.113 349.952 203.688 347.955 205.617 346.337C207.545 344.718 209.786 343.512 212.201 342.793C212.302 343.691 212.352 344.594 212.351 345.497Z" fill="black" fill-opacity="0.7"/>
</g>
<path d="M232.641 370.851C230.568 373.839 227.654 376.147 224.267 377.482C220.88 378.818 217.172 379.122 213.611 378.355C210.051 377.588 206.799 375.786 204.266 373.175C201.732 370.564 200.032 367.262 199.379 363.687C198.726 360.112 199.15 356.423 200.598 353.089C202.045 349.754 204.451 346.923 207.512 344.952C210.572 342.982 214.149 341.961 217.791 342.019C221.432 342.077 224.975 343.211 227.971 345.277C231.988 348.052 234.737 352.304 235.612 357.099C236.488 361.895 235.419 366.841 232.641 370.851Z" stroke="#263238" stroke-linecap="round" stroke-linejoin="round"/>
<path d="M191.181 363.31C201.357 363.31 209.606 355.079 209.606 344.926C209.606 334.773 201.357 326.542 191.181 326.542C181.005 326.542 172.756 334.773 172.756 344.926C172.756 355.079 181.005 363.31 191.181 363.31Z" fill="#92E3A9" stroke="#263238" stroke-linecap="round" stroke-linejoin="round"/>
<path opacity="0.3" d="M191.181 360.393C199.742 360.393 206.682 353.468 206.682 344.926C206.682 336.384 199.742 329.459 191.181 329.459C182.62 329.459 175.68 336.384 175.68 344.926C175.68 353.468 182.62 360.393 191.181 360.393Z" fill="black" fill-opacity="0.7"/>
<path d="M191.181 360.393C199.742 360.393 206.682 353.468 206.682 344.926C206.682 336.384 199.742 329.459 191.181 329.459C182.62 329.459 175.68 336.384 175.68 344.926C175.68 353.468 182.62 360.393 191.181 360.393Z" stroke="#263238" stroke-linecap="round" stroke-linejoin="round"/>
<path d="M190.049 336.322V335.016H192.312V336.322C194.274 336.721 195.28 338.228 195.28 340.613V341.165H192.665V340.438C192.665 339.183 192.165 338.707 191.282 338.707C190.399 338.707 189.898 339.183 189.898 340.438C189.898 341.693 190.398 342.57 192.262 344.05C194.525 345.856 195.305 347.236 195.305 349.238C195.305 351.622 194.274 353.152 192.312 353.553V354.833H190.049V353.553C188.063 353.154 187.058 351.622 187.058 349.238V348.034H189.673V349.413C189.673 350.668 190.226 351.119 191.106 351.119C191.986 351.119 192.539 350.668 192.539 349.413C192.539 348.158 192.039 347.256 190.175 345.801C187.913 344.02 187.133 342.615 187.133 340.613C187.133 338.253 188.114 336.747 190.049 336.322Z" fill="#92E3A9" stroke="#263238" stroke-linecap="round" stroke-linejoin="round"/>
<path d="M294.608 360.38C300.099 351.832 297.604 340.461 289.036 334.983C280.468 329.505 269.072 331.994 263.582 340.543C258.092 349.091 260.587 360.462 269.154 365.94C277.722 371.418 289.118 368.929 294.608 360.38Z" fill="#92E3A9" stroke="#263238" stroke-linecap="round" stroke-linejoin="round"/>
<path opacity="0.3" d="M290.454 339.936C292.54 342.177 293.914 344.985 294.4 348.005C294.887 351.025 294.466 354.121 293.189 356.902C291.912 359.683 289.838 362.024 287.228 363.628C284.618 365.233 281.59 366.029 278.526 365.916C275.463 365.804 272.502 364.787 270.017 362.996C267.533 361.204 265.637 358.717 264.568 355.85C263.5 352.983 263.308 349.864 264.016 346.888C264.725 343.912 266.301 341.213 268.547 339.131C270.038 337.748 271.788 336.673 273.696 335.965C275.604 335.257 277.633 334.931 279.668 335.006C281.702 335.081 283.702 335.555 285.552 336.401C287.403 337.247 289.069 338.448 290.454 339.936Z" fill="black" fill-opacity="0.7"/>
<path d="M290.454 339.936C292.54 342.177 293.914 344.985 294.4 348.005C294.887 351.025 294.466 354.121 293.189 356.902C291.912 359.683 289.838 362.024 287.228 363.628C284.618 365.233 281.59 366.029 278.526 365.916C275.463 365.804 272.502 364.787 270.017 362.996C267.533 361.204 265.637 358.717 264.568 355.85C263.5 352.983 263.308 349.864 264.016 346.888C264.725 343.912 266.301 341.213 268.547 339.131C270.038 337.748 271.788 336.673 273.696 335.965C275.604 335.257 277.633 334.931 279.668 335.006C281.702 335.081 283.702 335.555 285.552 336.401C287.403 337.247 289.069 338.448 290.454 339.936Z" stroke="#263238" stroke-linecap="round" stroke-linejoin="round"/>
<path d="M272.398 344.925L271.507 343.969L273.165 342.433L274.056 343.388C275.766 342.351 277.53 342.77 279.156 344.517L279.533 344.922L277.617 346.697L277.117 346.164C276.261 345.244 275.568 345.237 274.923 345.835C274.278 346.433 274.234 347.123 275.09 348.042C275.946 348.961 276.913 349.262 279.285 349.085C282.176 348.871 283.685 349.352 285.057 350.824C286.683 352.57 286.971 354.391 285.807 356.012L286.68 356.95L285.022 358.487L284.149 357.549C282.42 358.604 280.64 358.166 279.014 356.42L278.193 355.536L280.109 353.76L281.05 354.771C281.906 355.691 282.618 355.646 283.263 355.049C283.908 354.451 284.005 353.745 283.149 352.826C282.293 351.906 281.31 351.586 278.949 351.784C276.076 352.015 274.549 351.515 273.178 350.044C271.578 348.321 271.27 346.551 272.398 344.925Z" fill="#92E3A9" stroke="#263238" stroke-linecap="round" stroke-linejoin="round"/>
<path opacity="0.2" d="M271.507 270.538C271.507 270.538 271.431 308.689 271.507 310.917C271.583 313.145 274.477 326.542 274.477 326.542L265.193 343.621L273.186 350.05L288.741 334.796C288.741 334.796 301.983 342.958 304.403 354.63C306.823 366.302 321.23 374.804 336.181 407.131C351.132 439.458 368.181 334.792 368.181 334.792L322.053 276.85L271.507 270.538Z" fill="black" fill-opacity="0.7"/>
<path d="M412.531 65.5494L398.401 203.123L389.711 287.755L268.271 275.343L244.641 272.928L229.511 271.382L242.921 140.772L252.331 49.1758L412.531 65.5494Z" fill="white"/>
<mask id="mask1_1_3790" style="mask-type:luminance" maskUnits="userSpaceOnUse" x="229" y="49" width="184" height="239">
<path d="M412.531 65.5494L398.401 203.123L389.711 287.755L268.271 275.343L244.641 272.928L229.511 271.382L242.921 140.772L252.331 49.1758L412.531 65.5494Z" fill="white"/>
</mask>
<g mask="url(#mask1_1_3790)">
<path d="M366.004 70.6859L296.851 63.6147C296.236 63.5665 295.626 63.7603 295.153 64.1545C294.679 64.5488 294.378 65.1123 294.316 65.7247C294.253 66.337 294.432 66.9496 294.816 67.4316C295.2 67.9136 295.757 68.2268 296.369 68.3042L365.522 75.3745C366.145 75.4383 366.768 75.2524 367.254 74.8578C367.74 74.4631 368.049 73.892 368.113 73.2702C368.177 72.6483 367.991 72.0266 367.595 71.5417C367.2 71.0569 366.627 70.7497 366.004 70.6859Z" fill="#263238"/>
<path d="M347.726 78.5564L313.149 75.0183C312.841 74.9942 312.537 75.0912 312.3 75.2884C312.063 75.4856 311.912 75.7675 311.881 76.0738C311.849 76.38 311.939 76.6865 312.131 76.9276C312.323 77.1687 312.602 77.3253 312.908 77.364L347.485 80.8992C347.797 80.9311 348.108 80.8381 348.351 80.6408C348.594 80.4435 348.749 80.158 348.781 79.847C348.812 79.5361 348.719 79.2252 348.522 78.9828C348.324 78.7404 348.038 78.5863 347.726 78.5544V78.5564Z" fill="#263238"/>
<path d="M385.769 180.092L273.531 168.618C273.219 168.586 272.908 168.679 272.665 168.877C272.422 169.074 272.268 169.36 272.236 169.671C272.204 169.982 272.297 170.292 272.495 170.535C272.693 170.777 272.979 170.931 273.291 170.963L385.528 182.437C385.84 182.469 386.151 182.376 386.394 182.179C386.637 181.981 386.792 181.696 386.824 181.385C386.855 181.074 386.762 180.763 386.565 180.521C386.367 180.278 386.081 180.124 385.769 180.092Z" fill="#263238"/>
<path d="M384.902 188.525L254.392 175.181C254.08 175.15 253.769 175.243 253.526 175.44C253.283 175.638 253.129 175.923 253.097 176.234C253.065 176.545 253.158 176.856 253.356 177.098C253.554 177.34 253.84 177.494 254.152 177.526L384.662 190.871C384.969 190.894 385.274 190.796 385.51 190.599C385.747 190.402 385.896 190.12 385.928 189.814C385.959 189.508 385.869 189.202 385.678 188.961C385.486 188.721 385.208 188.564 384.902 188.525Z" fill="#263238"/>
<path d="M347.49 193.221L253.526 183.614C253.372 183.598 253.216 183.613 253.067 183.657C252.919 183.701 252.78 183.775 252.66 183.872C252.54 183.97 252.44 184.09 252.366 184.227C252.293 184.363 252.247 184.512 252.231 184.666C252.215 184.82 252.23 184.976 252.275 185.124C252.319 185.272 252.392 185.41 252.49 185.53C252.588 185.65 252.709 185.75 252.845 185.823C252.982 185.897 253.132 185.943 253.286 185.958L347.25 195.566C347.404 195.582 347.56 195.567 347.709 195.523C347.857 195.478 347.996 195.405 348.116 195.307C348.236 195.209 348.336 195.089 348.41 194.953C348.483 194.817 348.529 194.667 348.545 194.513C348.561 194.359 348.546 194.204 348.502 194.056C348.457 193.907 348.384 193.769 348.286 193.649C348.188 193.529 348.067 193.43 347.931 193.356C347.794 193.283 347.644 193.237 347.49 193.221Z" fill="#263238"/>
<path d="M252.058 192.713L248.239 229.899L379.807 243.352L383.626 206.165L252.058 192.713Z" fill="#BFBFBF" stroke="#263238" stroke-miterlimit="10"/>
<path d="M312.38 149.697C324.805 139.365 326.484 120.94 316.13 108.542C305.775 96.1445 287.309 94.4694 274.884 104.801C262.459 115.132 260.78 133.558 271.134 145.955C281.489 158.353 299.955 160.028 312.38 149.697Z" fill="#92E3A9"/>
<mask id="mask2_1_3790" style="mask-type:luminance" maskUnits="userSpaceOnUse" x="264" y="98" width="59" height="59">
<path d="M312.38 149.697C324.805 139.365 326.484 120.94 316.13 108.542C305.775 96.1445 287.309 94.4694 274.884 104.801C262.459 115.132 260.78 133.558 271.134 145.955C281.489 158.353 299.955 160.028 312.38 149.697Z" fill="white"/>
</mask>
<g mask="url(#mask2_1_3790)">
<path opacity="0.5" d="M312.38 149.697C324.805 139.365 326.484 120.94 316.13 108.542C305.775 96.1445 287.309 94.4694 274.884 104.801C262.459 115.132 260.78 133.558 271.134 145.955C281.489 158.353 299.955 160.028 312.38 149.697Z" fill="white"/>
</g>
<path d="M312.38 149.697C324.805 139.365 326.484 120.94 316.13 108.542C305.775 96.1445 287.309 94.4694 274.884 104.801C262.459 115.132 260.78 133.558 271.134 145.955C281.489 158.353 299.955 160.028 312.38 149.697Z" stroke="#263238" stroke-width="0.999712" stroke-miterlimit="10"/>
<path d="M294.484 127.16L318.844 139.388C321.119 134.678 322.023 129.426 321.453 124.228C320.884 119.031 318.863 114.097 315.622 109.989L294.484 127.16Z" fill="white"/>
<path d="M294.641 125.846L315.041 109.283C311.993 105.664 308.072 102.877 303.648 101.186L299.969 111.264L294.641 125.846Z" fill="#92E3A9"/>
<path d="M296.952 99.54L294.478 123.627L302.785 100.87C300.894 100.22 298.938 99.7741 296.952 99.54Z" fill="#757575"/>
<path d="M293.214 126.943L296.038 99.446C291.211 99.0306 286.359 99.8734 281.957 101.892C277.555 103.91 273.754 107.034 270.926 110.959C268.098 114.884 266.341 119.474 265.825 124.281C265.31 129.087 266.055 133.945 267.987 138.377L293.214 126.943Z" fill="#999999"/>
<path d="M290.792 155.021C296.355 155.589 301.96 154.481 306.886 151.84C311.811 149.199 315.831 145.146 318.426 140.205L293.634 127.759L268.361 139.213C270.421 143.55 273.568 147.284 277.498 150.054C281.427 152.823 286.006 154.534 290.792 155.021Z" fill="#BFBFBF"/>
<path d="M340.644 108.277L337.303 107.935C336.959 107.9 336.651 108.149 336.616 108.492L336.275 111.827C336.239 112.17 336.49 112.477 336.834 112.512L340.175 112.854C340.519 112.889 340.826 112.64 340.862 112.297L341.203 108.963C341.238 108.619 340.988 108.313 340.644 108.277Z" fill="#92E3A9" stroke="#263238" stroke-miterlimit="10"/>
<path d="M387.069 114.711L344.014 110.309C343.877 110.291 343.753 110.22 343.668 110.112C343.582 110.004 343.543 109.868 343.557 109.731C343.571 109.594 343.638 109.468 343.743 109.38C343.849 109.291 343.985 109.247 344.122 109.257L387.177 113.659C387.248 113.665 387.317 113.684 387.38 113.716C387.443 113.748 387.499 113.793 387.545 113.847C387.59 113.901 387.625 113.964 387.645 114.032C387.666 114.099 387.673 114.17 387.666 114.241C387.659 114.311 387.638 114.379 387.603 114.442C387.569 114.504 387.523 114.558 387.467 114.602C387.412 114.646 387.348 114.678 387.279 114.697C387.211 114.716 387.139 114.72 387.069 114.711Z" fill="#263238"/>
<path d="M382.618 116.569L343.779 112.598C343.708 112.593 343.639 112.573 343.576 112.541C343.513 112.509 343.457 112.465 343.411 112.41C343.366 112.356 343.331 112.293 343.31 112.226C343.29 112.158 343.283 112.087 343.29 112.016C343.297 111.946 343.318 111.878 343.353 111.816C343.387 111.754 343.433 111.699 343.489 111.655C343.544 111.611 343.608 111.579 343.677 111.56C343.745 111.542 343.817 111.537 343.887 111.546L382.726 115.517C382.863 115.535 382.987 115.606 383.072 115.714C383.158 115.822 383.197 115.959 383.183 116.095C383.169 116.232 383.102 116.358 382.997 116.447C382.891 116.535 382.755 116.579 382.618 116.569Z" fill="#263238"/>
<path d="M339.591 118.527L336.25 118.185C335.906 118.15 335.598 118.399 335.563 118.742L335.222 122.077C335.186 122.42 335.437 122.727 335.781 122.762L339.122 123.104C339.466 123.14 339.773 122.89 339.808 122.547L340.15 119.213C340.185 118.87 339.935 118.563 339.591 118.527Z" fill="#757575" stroke="#263238" stroke-width="1.00021" stroke-linecap="round" stroke-linejoin="round"/>
<path d="M386.017 124.961L342.962 120.559C342.891 120.554 342.822 120.534 342.759 120.502C342.696 120.47 342.64 120.425 342.594 120.371C342.549 120.317 342.514 120.254 342.494 120.187C342.473 120.119 342.466 120.048 342.473 119.977C342.48 119.907 342.501 119.839 342.536 119.777C342.57 119.715 342.616 119.66 342.672 119.616C342.727 119.572 342.791 119.54 342.86 119.521C342.928 119.503 343 119.498 343.07 119.507L386.125 123.909C386.196 123.914 386.265 123.934 386.328 123.966C386.391 123.998 386.447 124.042 386.493 124.097C386.538 124.151 386.573 124.214 386.594 124.281C386.614 124.349 386.621 124.42 386.614 124.491C386.607 124.561 386.586 124.629 386.551 124.691C386.517 124.753 386.471 124.808 386.415 124.852C386.36 124.896 386.296 124.928 386.227 124.947C386.159 124.965 386.087 124.97 386.017 124.961Z" fill="#263238"/>
<path d="M381.565 126.818L342.726 122.847C342.655 122.841 342.587 122.822 342.524 122.789C342.461 122.757 342.405 122.713 342.36 122.658C342.314 122.604 342.28 122.541 342.26 122.474C342.239 122.406 342.232 122.335 342.239 122.265C342.247 122.195 342.268 122.127 342.302 122.065C342.336 122.003 342.382 121.948 342.438 121.905C342.493 121.861 342.557 121.828 342.625 121.81C342.694 121.791 342.765 121.786 342.835 121.795L381.673 125.766C381.81 125.784 381.934 125.855 382.019 125.963C382.105 126.071 382.144 126.207 382.13 126.344C382.116 126.481 382.049 126.607 381.944 126.695C381.838 126.784 381.702 126.828 381.565 126.818Z" fill="#263238"/>
<path d="M338.539 128.778L335.198 128.435C334.854 128.4 334.546 128.65 334.511 128.993L334.17 132.327C334.134 132.67 334.385 132.977 334.729 133.012L338.07 133.355C338.414 133.39 338.721 133.14 338.756 132.797L339.098 129.463C339.133 129.12 338.883 128.813 338.539 128.778Z" fill="#999999" stroke="#263238" stroke-width="1.00021" stroke-linecap="round" stroke-linejoin="round"/>
<path d="M384.964 135.212L341.909 130.809C341.772 130.791 341.648 130.721 341.563 130.613C341.478 130.505 341.438 130.368 341.452 130.231C341.466 130.094 341.533 129.969 341.638 129.88C341.744 129.792 341.88 129.748 342.017 129.758L385.072 134.16C385.209 134.178 385.333 134.249 385.418 134.356C385.504 134.464 385.543 134.601 385.529 134.738C385.515 134.875 385.449 135.001 385.343 135.089C385.237 135.178 385.102 135.221 384.964 135.212Z" fill="#263238"/>
<path d="M380.513 137.069L341.674 133.097C341.537 133.079 341.413 133.009 341.328 132.901C341.243 132.793 341.203 132.656 341.217 132.519C341.231 132.383 341.298 132.257 341.403 132.168C341.509 132.08 341.645 132.036 341.782 132.046L380.621 136.017C380.692 136.022 380.761 136.041 380.824 136.073C380.887 136.106 380.943 136.15 380.989 136.204C381.034 136.259 381.069 136.321 381.09 136.389C381.11 136.457 381.117 136.528 381.11 136.598C381.103 136.669 381.082 136.737 381.047 136.799C381.013 136.861 380.967 136.916 380.911 136.96C380.856 137.003 380.792 137.036 380.723 137.054C380.655 137.073 380.583 137.078 380.513 137.069Z" fill="#263238"/>
<path d="M337.486 139.028L334.145 138.685C333.801 138.65 333.493 138.9 333.458 139.243L333.116 142.577C333.081 142.92 333.332 143.227 333.676 143.262L337.017 143.605C337.361 143.64 337.668 143.39 337.703 143.047L338.045 139.713C338.08 139.37 337.83 139.063 337.486 139.028Z" fill="#BFBFBF" stroke="#263238" stroke-width="1.00021" stroke-miterlimit="10"/>
<path d="M383.911 145.461L340.856 141.059C340.785 141.054 340.716 141.035 340.653 141.003C340.59 140.97 340.534 140.926 340.488 140.872C340.443 140.818 340.408 140.755 340.388 140.687C340.367 140.619 340.36 140.548 340.367 140.478C340.374 140.407 340.395 140.339 340.43 140.277C340.464 140.215 340.51 140.161 340.566 140.117C340.621 140.073 340.685 140.041 340.754 140.022C340.822 140.003 340.894 139.998 340.964 140.008L384.019 144.41C384.156 144.428 384.28 144.498 384.365 144.606C384.451 144.714 384.49 144.851 384.476 144.988C384.462 145.125 384.395 145.251 384.29 145.339C384.184 145.427 384.048 145.471 383.911 145.461Z" fill="#263238"/>
<path d="M379.46 147.318L340.621 143.347C340.484 143.329 340.36 143.258 340.275 143.15C340.189 143.043 340.15 142.906 340.164 142.769C340.178 142.632 340.245 142.506 340.35 142.418C340.456 142.329 340.592 142.285 340.729 142.295L379.568 146.266C379.705 146.285 379.829 146.355 379.914 146.463C379.999 146.571 380.039 146.708 380.025 146.845C380.011 146.981 379.944 147.107 379.839 147.196C379.733 147.284 379.597 147.328 379.46 147.318Z" fill="#263238"/>
<path d="M336.433 149.277L333.092 148.935C332.748 148.9 332.44 149.149 332.405 149.492L332.064 152.827C332.029 153.17 332.279 153.477 332.623 153.512L335.964 153.854C336.308 153.889 336.615 153.64 336.651 153.297L336.992 149.962C337.027 149.619 336.777 149.312 336.433 149.277Z" fill="white" stroke="#263238" stroke-linecap="round" stroke-linejoin="round"/>
<path d="M382.858 155.711L339.803 151.309C339.666 151.291 339.542 151.22 339.457 151.112C339.372 151.004 339.332 150.868 339.346 150.731C339.36 150.594 339.427 150.468 339.532 150.38C339.638 150.291 339.774 150.247 339.911 150.257L382.966 154.659C383.103 154.678 383.227 154.748 383.312 154.856C383.398 154.964 383.437 155.101 383.423 155.238C383.409 155.374 383.342 155.5 383.237 155.589C383.131 155.677 382.995 155.721 382.858 155.711Z" fill="#263238"/>
<path d="M378.407 157.569L339.568 153.598C339.497 153.593 339.428 153.573 339.365 153.541C339.302 153.509 339.246 153.465 339.2 153.41C339.155 153.356 339.12 153.293 339.099 153.226C339.079 153.158 339.072 153.087 339.079 153.016C339.086 152.946 339.107 152.878 339.142 152.816C339.176 152.754 339.222 152.699 339.278 152.655C339.333 152.611 339.397 152.579 339.466 152.56C339.534 152.542 339.606 152.537 339.676 152.546L378.515 156.517C378.652 156.535 378.776 156.606 378.861 156.714C378.947 156.822 378.986 156.959 378.972 157.095C378.958 157.232 378.891 157.358 378.786 157.447C378.68 157.535 378.544 157.579 378.407 157.569Z" fill="#263238"/>
<path d="M363.709 230.791L366.167 231.042L367.607 217.019L365.149 216.767L363.709 230.791Z" fill="#757575" stroke="#263238" stroke-linecap="round" stroke-linejoin="round"/>
<path d="M363.927 228.678L366.385 228.93L367.063 222.328L364.605 222.077L363.927 228.678Z" fill="#92E3A9" stroke="#263238" stroke-miterlimit="10"/>
<path d="M369.607 227.818L372.065 228.069L373.505 214.046L371.047 213.794L369.607 227.818Z" fill="#757575" stroke="#263238" stroke-linecap="round" stroke-linejoin="round"/>
<path d="M370.664 217.519L369.986 224.121L372.444 224.372L373.122 217.77L370.664 217.519Z" fill="#92E3A9" stroke="#263238" stroke-miterlimit="10"/>
<path d="M374.865 231.073L377.323 231.325L378.763 217.301L376.305 217.05L374.865 231.073Z" fill="#757575" stroke="#263238" stroke-linecap="round" stroke-linejoin="round"/>
<path d="M375.407 225.792L377.865 226.043L378.543 219.442L376.085 219.19L375.407 225.792Z" fill="#92E3A9" stroke="#263238" stroke-miterlimit="10"/>
<path d="M358.46 227.454L360.918 227.706L362.358 213.682L359.9 213.431L358.46 227.454Z" fill="#757575" stroke="#263238" stroke-linecap="round" stroke-linejoin="round"/>
<path d="M358.677 225.342L361.135 225.593L361.813 218.992L359.355 218.74L358.677 225.342Z" fill="#92E3A9" stroke="#263238" stroke-miterlimit="10"/>
<path d="M352.5 231.037L354.958 231.289L356.398 217.265L353.94 217.014L352.5 231.037Z" fill="#757575" stroke="#263238" stroke-linecap="round" stroke-linejoin="round"/>
<path d="M352.663 229.453L355.121 229.704L355.799 223.102L353.341 222.851L352.663 229.453Z" fill="#92E3A9" stroke="#263238" stroke-miterlimit="10"/>
<path d="M347.338 226.852L349.796 227.103L351.236 213.08L348.778 212.828L347.338 226.852Z" fill="#757575" stroke="#263238" stroke-linecap="round" stroke-linejoin="round"/>
<path d="M347.392 226.323L349.85 226.574L350.528 219.973L348.07 219.721L347.392 226.323Z" fill="#92E3A9" stroke="#263238" stroke-miterlimit="10"/>
<path d="M341.05 233.617L343.508 233.869L344.948 219.845L342.49 219.594L341.05 233.617Z" fill="#757575" stroke="#263238" stroke-linecap="round" stroke-linejoin="round"/>
<path d="M341.105 233.088L343.563 233.34L344.241 226.738L341.783 226.487L341.105 233.088Z" fill="#92E3A9" stroke="#263238" stroke-miterlimit="10"/>
<path d="M336.424 224.219L338.882 224.471L340.322 210.447L337.864 210.196L336.424 224.219Z" fill="#757575" stroke="#263238" stroke-linecap="round" stroke-linejoin="round"/>
<path d="M336.641 222.107L339.099 222.358L339.777 215.757L337.319 215.505L336.641 222.107Z" fill="#92E3A9" stroke="#263238" stroke-miterlimit="10"/>
<path d="M330.973 222.836L333.431 223.087L334.872 209.064L332.413 208.812L330.973 222.836Z" fill="#757575" stroke="#263238" stroke-linecap="round" stroke-linejoin="round"/>
<path d="M331.516 217.554L333.974 217.806L334.652 211.204L332.194 210.953L331.516 217.554Z" fill="#92E3A9" stroke="#263238" stroke-miterlimit="10"/>
<path d="M324.536 231.071L326.994 231.323L328.434 217.3L325.976 217.048L324.536 231.071Z" fill="#757575" stroke="#263238" stroke-linecap="round" stroke-linejoin="round"/>
<path d="M325.132 225.262L327.59 225.514L328.268 218.912L325.81 218.661L325.132 225.262Z" fill="#92E3A9" stroke="#263238" stroke-miterlimit="10"/>
<path d="M319.635 224.342L322.093 224.594L323.533 210.571L321.075 210.319L319.635 224.342Z" fill="#757575" stroke="#263238" stroke-linecap="round" stroke-linejoin="round"/>
<path d="M319.906 221.701L322.364 221.953L323.042 215.351L320.584 215.1L319.906 221.701Z" fill="#92E3A9" stroke="#263238" stroke-miterlimit="10"/>
<path d="M313.724 227.435L316.182 227.687L317.622 213.663L315.164 213.412L313.724 227.435Z" fill="#757575" stroke="#263238" stroke-linecap="round" stroke-linejoin="round"/>
<path d="M313.941 225.322L316.4 225.573L317.078 218.97L314.62 218.719L313.941 225.322Z" fill="#92E3A9" stroke="#263238" stroke-width="1.00021" stroke-miterlimit="10"/>
<path d="M307.544 233.166L310.002 233.417L311.442 219.394L308.984 219.142L307.544 233.166Z" fill="#757575" stroke="#263238" stroke-linecap="round" stroke-linejoin="round"/>
<path d="M307.544 233.166L310.002 233.417L310.68 226.815L308.222 226.564L307.544 233.166Z" fill="#92E3A9" stroke="#263238" stroke-miterlimit="10"/>
<path d="M302.922 223.717L305.38 223.969L306.82 209.946L304.362 209.694L302.922 223.717Z" fill="#757575" stroke="#263238" stroke-linecap="round" stroke-linejoin="round"/>
<path d="M303.085 222.133L305.543 222.384L306.221 215.783L303.763 215.531L303.085 222.133Z" fill="#92E3A9" stroke="#263238" stroke-miterlimit="10"/>
<path d="M298.02 216.99L300.479 217.241L301.92 203.215L299.461 202.964L298.02 216.99Z" fill="#757575" stroke="#263238" stroke-width="1.00021" stroke-linecap="round" stroke-linejoin="round"/>
<path d="M298.184 215.405L300.642 215.657L301.32 209.055L298.862 208.804L298.184 215.405Z" fill="#92E3A9" stroke="#263238" stroke-miterlimit="10"/>
<path d="M291.724 223.846L294.182 224.098L295.622 210.074L293.164 209.823L291.724 223.846Z" fill="#757575" stroke="#263238" stroke-linecap="round" stroke-linejoin="round"/>
<path d="M292.267 218.564L294.725 218.815L295.403 212.214L292.945 211.962L292.267 218.564Z" fill="#92E3A9" stroke="#263238" stroke-miterlimit="10"/>
<path d="M285.376 231.207L287.834 231.458L289.274 217.435L286.816 217.184L285.376 231.207Z" fill="#757575" stroke="#263238" stroke-linecap="round" stroke-linejoin="round"/>
<path d="M286.027 224.869L288.485 225.121L289.163 218.519L286.705 218.268L286.027 224.869Z" fill="#92E3A9" stroke="#263238" stroke-miterlimit="10"/>
<path d="M280.656 222.714L283.114 222.965L284.554 208.942L282.096 208.691L280.656 222.714Z" fill="#757575" stroke="#263238" stroke-linecap="round" stroke-linejoin="round"/>
<path d="M280.873 220.602L283.331 220.853L284.009 214.251L281.551 214L280.873 220.602Z" fill="#92E3A9" stroke="#263238" stroke-miterlimit="10"/>
<path d="M275.362 219.815L277.82 220.066L279.26 206.043L276.802 205.792L275.362 219.815Z" fill="#757575" stroke="#263238" stroke-linecap="round" stroke-linejoin="round"/>
<path d="M275.958 214.005L278.416 214.256L279.094 207.655L276.636 207.403L275.958 214.005Z" fill="#92E3A9" stroke="#263238" stroke-miterlimit="10"/>
<path d="M269.378 223.624L271.836 223.875L273.276 209.852L270.818 209.6L269.378 223.624Z" fill="#757575" stroke="#263238" stroke-linecap="round" stroke-linejoin="round"/>
<path d="M269.378 223.624L271.836 223.875L272.514 217.273L270.056 217.022L269.378 223.624Z" fill="#92E3A9" stroke="#263238" stroke-miterlimit="10"/>
<path d="M264.294 218.684L266.752 218.935L268.192 204.912L265.734 204.661L264.294 218.684Z" fill="#757575" stroke="#263238" stroke-linecap="round" stroke-linejoin="round"/>
<path d="M264.402 217.627L266.86 217.878L267.538 211.277L265.08 211.025L264.402 217.627Z" fill="#92E3A9" stroke="#263238" stroke-miterlimit="10"/>
<path d="M258.565 220.01L261.023 220.261L262.463 206.238L260.005 205.987L258.565 220.01Z" fill="#757575" stroke="#263238" stroke-linecap="round" stroke-linejoin="round"/>
<path d="M258.619 219.481L261.077 219.732L261.755 213.131L259.297 212.879L258.619 219.481Z" fill="#92E3A9" stroke="#263238" stroke-miterlimit="10"/>
<path d="M253.216 217.642L255.674 217.894L257.114 203.87L254.656 203.619L253.216 217.642Z" fill="#757575" stroke="#263238" stroke-linecap="round" stroke-linejoin="round"/>
<path d="M253.921 210.777L256.379 211.028L257.057 204.426L254.599 204.175L253.921 210.777Z" fill="#92E3A9" stroke="#263238" stroke-miterlimit="10"/>
<path d="M378.794 248.008L266.556 236.534C266.244 236.502 265.933 236.595 265.69 236.793C265.447 236.99 265.293 237.276 265.261 237.587C265.229 237.898 265.322 238.208 265.52 238.451C265.718 238.693 266.004 238.847 266.316 238.879L378.553 250.353C378.861 250.377 379.166 250.28 379.402 250.083C379.639 249.886 379.79 249.604 379.821 249.298C379.853 248.991 379.763 248.685 379.571 248.444C379.379 248.203 379.1 248.047 378.794 248.008Z" fill="#263238"/>
<path d="M377.927 256.442L247.417 243.097C247.263 243.082 247.107 243.096 246.958 243.141C246.81 243.185 246.671 243.258 246.551 243.356C246.431 243.454 246.331 243.574 246.257 243.711C246.184 243.847 246.138 243.996 246.122 244.15C246.106 244.304 246.121 244.46 246.166 244.608C246.21 244.756 246.283 244.894 246.381 245.014C246.479 245.134 246.6 245.234 246.736 245.307C246.873 245.381 247.023 245.426 247.177 245.442L377.687 258.787C377.841 258.802 377.997 258.787 378.146 258.743C378.294 258.699 378.433 258.626 378.553 258.528C378.673 258.43 378.773 258.31 378.847 258.173C378.92 258.037 378.966 257.888 378.982 257.734C378.998 257.58 378.983 257.424 378.938 257.276C378.894 257.128 378.821 256.99 378.723 256.87C378.625 256.75 378.504 256.65 378.368 256.577C378.231 256.503 378.081 256.457 377.927 256.442Z" fill="#263238"/>
<path d="M322.241 259.268L246.551 251.525C246.244 251.502 245.939 251.599 245.703 251.797C245.467 251.994 245.317 252.276 245.285 252.582C245.254 252.888 245.344 253.194 245.535 253.434C245.727 253.675 246.005 253.832 246.311 253.871L322.001 261.61C322.309 261.634 322.614 261.537 322.85 261.34C323.087 261.143 323.238 260.861 323.269 260.554C323.301 260.248 323.211 259.942 323.019 259.701C322.827 259.46 322.548 259.303 322.242 259.264L322.241 259.268Z" fill="#263238"/>
<path opacity="0.2" d="M391.171 183.966C387.301 183.657 385.961 189.813 385.961 189.813C385.961 189.813 379.841 181.811 380.811 162.993C380.811 162.993 377.821 154.651 369.811 159.69C361.801 164.729 353.501 182.489 355.481 201.836L339.911 150.261C334.531 151.398 323.601 158.612 326.481 193.445L309.491 175.525C309.491 175.525 304.891 174.048 302.291 178.109C299.691 182.17 300.931 211.255 303.081 222.131C305.231 233.007 299.751 254.858 299.751 254.858C299.751 254.858 293.893 230.113 283.291 223.852L242.921 140.772L229.511 271.382L244.641 272.928L268.941 261.127C268.806 266.585 268.673 271.604 268.274 275.343L389.714 287.755L398.404 203.123C395.451 192.577 392.631 184.076 391.171 183.966Z" fill="black" fill-opacity="0.7"/>
</g>
<path d="M412.531 65.5494L398.401 203.123L389.711 287.755L268.271 275.343L244.641 272.928L229.511 271.382L242.921 140.772L252.331 49.1758L412.531 65.5494Z" stroke="#263238" stroke-linecap="round" stroke-linejoin="round"/>
<path d="M410.531 419.722L339.531 431.775C339.531 431.775 327.171 366.271 319.801 355.954C312.431 345.636 313.781 341.386 310.201 334.431C308.041 330.231 297.211 322.398 288.711 314.665H288.701C287.961 313.997 287.241 313.328 286.551 312.66C286.251 312.39 285.971 312.101 285.691 311.832C284.561 310.714 283.511 309.627 282.581 308.559C282.241 308.18 281.921 307.801 281.621 307.421C280.045 305.67 278.87 303.596 278.181 301.345C278.15 301.244 278.13 301.141 278.121 301.036C278.092 300.914 278.072 300.791 278.061 300.667C277.871 299.12 277.671 297.354 277.471 295.438C277.431 295.059 277.391 294.66 277.341 294.261C277.321 294.101 277.301 293.951 277.281 293.782C277.111 292.185 276.921 290.489 276.701 288.743C276.481 286.917 276.241 285.021 275.961 283.116C275.871 282.457 275.781 281.798 275.671 281.13C275.671 281.12 275.671 281.11 275.661 281.11C275.551 280.372 275.431 279.633 275.311 278.885L274.981 276.969C274.961 276.859 274.931 276.76 274.921 276.67C274.781 275.922 274.641 275.193 274.501 274.455C274.474 274.374 274.457 274.29 274.451 274.205C274.311 273.557 274.181 272.918 274.031 272.27C273.721 270.823 273.371 269.406 272.991 268.029C272.303 265.438 271.417 262.903 270.341 260.446C265.221 249.041 271.881 253.162 267.871 223.817C267.871 223.817 270.821 217.013 279.231 222.45C279.881 222.874 280.508 223.33 281.111 223.817H281.121C282.825 225.193 284.33 226.798 285.591 228.587C287.297 231.01 288.6 233.692 289.451 236.529C290.825 241.154 291.214 246.014 290.591 250.797C290.591 250.797 296.911 272.409 300.241 277.328C303.571 282.247 317.341 253.99 316.451 250.698C316.138 249.221 315.901 247.729 315.741 246.228C315.681 245.739 315.621 245.22 315.551 244.671C315.481 244.122 315.421 243.554 315.361 242.965C315.321 242.685 315.291 242.386 315.251 242.097C315.241 241.977 315.231 241.857 315.211 241.748C315.091 240.62 314.951 239.423 314.821 238.185C314.791 237.836 314.751 237.507 314.711 237.168C314.651 236.579 314.591 235.97 314.531 235.372C314.515 235.273 314.505 235.173 314.501 235.072C314.461 234.733 314.421 234.384 314.391 234.025C314.311 233.326 314.241 232.618 314.171 231.909C314.101 231.301 314.051 230.692 313.991 230.083C313.871 228.936 313.761 227.789 313.651 226.681C313.571 225.853 313.491 225.035 313.421 224.236C313.401 224.057 313.381 223.877 313.371 223.708C312.951 219.317 312.621 215.705 312.501 214.169C312.501 214.169 302.491 199.382 301.461 192.417C300.431 185.453 300.521 178.119 304.711 175.136C314.631 168.091 311.731 179.446 316.171 184.146C320.611 188.865 327.421 196.548 331.281 198.953C334.841 201.208 338.021 209.968 338.471 211.245C337.961 209.33 332.871 190.492 332.761 186.7C332.631 182.699 329.571 161.596 334.771 154.023C339.971 146.449 346.881 152.326 347.521 153.823C348.161 155.32 348.351 175.764 350.181 181.462C352.011 187.159 359.671 210.866 359.671 210.866C359.671 210.866 359.991 187.798 361.721 177.47C363.451 167.143 367.941 159.071 372.341 158.612C376.741 158.153 380.811 162.993 380.811 162.993C380.811 162.993 379.071 179.456 379.571 183.258C380.071 187.059 378.851 200.789 380.941 208.172C380.941 208.172 380.701 188.506 383.761 185.992C386.821 183.477 389.451 182.27 391.171 183.966C392.891 185.662 393.261 197.306 395.011 204.311C396.761 211.315 396.541 220.834 397.691 231.76C398.841 242.685 403.371 257.852 402.471 266.522C401.571 275.173 398.801 296.695 396.571 309.317C394.341 321.939 388.651 339.231 388.651 339.231C388.651 339.231 391.241 348.46 390.741 356.692C390.241 364.924 410.531 419.722 410.531 419.722Z" fill="white"/>
<path opacity="0.4" d="M350.185 181.459C351.546 185.673 356.085 199.76 358.354 206.793C358.354 206.793 348.428 214.077 348.675 220.836C348.922 227.595 346.858 241.254 342.401 240.861C337.944 240.469 338.347 212.069 336.892 207.298C337.792 209.345 338.384 211.016 338.502 211.344C338.172 210.121 332.869 190.571 332.757 186.699C332.731 185.788 332.547 183.978 332.342 181.633V181.587C332.342 181.587 342.206 172.165 349.451 177.934V177.943C349.608 179.132 349.854 180.307 350.185 181.459Z" fill="#92E3A9"/>
<path opacity="0.4" d="M379.674 189.58C375.053 193.952 368.082 201.678 367.2 209.137C367.2 209.137 369.776 229.943 368.675 239.02L359.667 210.87C359.667 210.87 359.991 187.798 361.721 177.475C361.766 177.193 361.821 176.903 361.875 176.621C367.486 173.791 373.673 172.282 379.96 172.21C379.576 175.879 379.444 179.571 379.566 183.258C379.713 185.362 379.749 187.473 379.674 189.58Z" fill="#92E3A9"/>
<path opacity="0.4" d="M383.759 185.992L383.75 186.001L383.721 186.027C383.615 186.103 383.344 186.315 382.946 186.65C383.184 186.203 383.447 185.769 383.735 185.353L383.759 185.992Z" fill="#92E3A9"/>
<path opacity="0.4" d="M386.11 243.537C386.11 243.537 380.171 221.304 380.066 203.404C380.023 196.781 380.79 190.741 382.936 186.658L382.946 186.65C383.184 186.203 383.447 185.77 383.735 185.353L383.759 185.996C384.832 185.068 386.022 184.283 387.298 183.661C385.63 186.255 383.707 191.337 385.933 199.589C389.416 212.512 386.384 228.304 386.11 243.537Z" fill="#92E3A9"/>
<path opacity="0.4" d="M304.178 285.897C304.178 285.897 305.778 307.084 288.708 314.669H288.698C287.958 313.999 287.244 313.331 286.549 312.664C286.249 312.389 285.967 312.106 285.689 311.831C284.562 310.716 283.506 309.622 282.578 308.556C282.234 308.167 281.917 307.79 281.617 307.423C280.042 305.671 278.869 303.597 278.181 301.346C278.152 301.245 278.13 301.142 278.117 301.038C278.09 300.916 278.069 300.793 278.057 300.668C277.867 299.123 277.672 297.357 277.468 295.435C277.427 295.057 277.387 294.659 277.338 294.261C277.32 294.104 277.302 293.947 277.285 293.78C277.107 292.184 276.916 290.488 276.702 288.741C276.483 286.919 276.241 285.022 275.962 283.113C275.862 282.456 275.768 281.789 275.67 281.131C275.67 281.122 275.67 281.113 275.662 281.112C275.551 280.371 275.431 279.629 275.311 278.887C275.203 278.247 275.086 277.606 274.978 276.966C274.957 276.866 274.936 276.766 274.923 276.666C274.785 275.924 274.646 275.19 274.498 274.455C274.477 274.373 274.46 274.289 274.449 274.205C274.314 273.554 274.179 272.908 274.034 272.27C273.709 270.826 273.361 269.412 272.988 268.029C279.739 261.543 295.322 265.613 287.78 250.598C287.78 250.598 291.58 237.748 281.108 223.813H281.117C288.281 229.577 291.946 239.699 290.592 250.799C290.592 250.799 296.91 272.403 300.242 277.326C303.574 282.249 317.342 253.988 316.442 250.692C316.271 250.039 316.02 248.426 315.742 246.224C315.681 245.733 315.62 245.215 315.553 244.67C315.486 244.124 315.419 243.551 315.353 242.959C315.315 242.681 315.287 242.386 315.253 242.098C315.242 241.979 315.231 241.859 315.21 241.747C315.087 240.611 314.958 239.418 314.822 238.18C314.788 237.838 314.753 237.506 314.71 237.163C314.654 236.572 314.59 235.966 314.526 235.367C314.513 235.275 314.51 235.174 314.498 235.068C314.463 234.726 314.421 234.37 314.388 234.014C314.311 233.316 314.244 232.61 314.168 231.899C314.104 231.288 314.05 230.68 313.986 230.069C313.872 228.925 313.759 227.774 313.652 226.671C313.574 225.84 313.496 225.017 313.416 224.232C313.399 224.047 313.383 223.872 313.366 223.696C313.644 225.008 318.715 249.089 321.609 254.701C324.577 260.483 311.968 290.891 304.178 285.897Z" fill="#92E3A9"/>
<path opacity="0.4" d="M396.567 309.318C394.336 321.953 388.655 339.233 388.655 339.233C388.655 339.233 391.243 348.462 390.737 356.694C390.601 358.907 391.978 364.5 394.042 371.485C393.442 369.952 387.071 353.467 387.176 347.717C387.298 341.683 385.576 340.017 382.207 332.603C378.838 325.19 373.696 326.004 373.696 326.004C373.696 326.004 371.712 344.503 367.058 332.346C362.404 320.189 361.507 306.051 373.24 256.961C373.24 256.961 375.014 263.12 373.531 281.406C372.048 299.693 376.431 305.234 376.431 305.234C383.019 293.786 388.251 281.612 392.022 268.959C392.022 268.959 390.507 290.304 389.155 300.027C387.803 309.749 393.961 288.762 398.264 275.796C402.306 263.63 402.453 259.002 400.915 250.342C402.058 256.444 402.915 262.263 402.479 266.514C401.574 275.173 398.797 296.693 396.567 309.318Z" fill="#92E3A9"/>
<path opacity="0.4" d="M316.341 350.461C319.802 355.949 328.275 363.204 333.32 383.272C338.365 403.341 335.195 425.303 335.195 425.303L316.341 350.461Z" fill="#92E3A9"/>
<path opacity="0.2" d="M289.451 236.529C289.451 236.529 271.741 245.479 270.341 260.446C265.221 249.041 271.881 253.162 267.871 223.817C267.871 223.817 270.821 217.012 279.231 222.45C279.881 222.873 280.508 223.33 281.111 223.817H281.121C282.825 225.193 284.33 226.798 285.591 228.587L289.451 236.529Z" fill="black" fill-opacity="0.7"/>
<path d="M339.528 431.778C339.528 431.778 327.175 366.27 319.801 355.952C312.427 345.634 313.78 341.385 310.201 334.432C306.622 327.48 279.271 310.55 278.059 300.669C276.847 290.788 275.459 271.856 270.339 260.445C265.219 249.033 271.88 253.161 267.86 223.813C267.86 223.813 270.826 217.016 279.228 222.451C287.63 227.886 292.058 238.761 290.589 250.803C290.589 250.803 296.906 272.403 300.243 277.329C303.58 282.255 317.331 253.989 316.443 250.689C315.555 247.388 312.913 219.289 312.5 214.17C312.5 214.17 302.489 199.377 301.461 192.418C300.433 185.46 300.52 178.119 304.708 175.145C314.63 168.096 311.723 179.451 316.166 184.159C320.609 188.868 327.417 196.55 331.273 198.965C335.129 201.379 338.516 211.404 338.516 211.404C338.516 211.404 332.872 190.709 332.754 186.706C332.636 182.703 329.566 161.602 334.763 154.034C339.96 146.467 346.88 152.338 347.517 153.829C348.154 155.32 348.352 175.766 350.186 181.467C352.02 187.169 359.662 210.878 359.662 210.878C359.662 210.878 359.988 187.811 361.715 177.486C363.442 167.161 367.941 159.071 372.341 158.613C376.741 158.155 380.808 162.994 380.808 162.994C380.808 162.994 379.067 179.457 379.562 183.254C380.057 187.052 378.848 200.782 380.942 208.174C380.942 208.174 380.695 188.504 383.762 185.988C386.829 183.473 389.451 182.271 391.162 183.965C392.873 185.659 393.254 197.305 395.007 204.314C396.76 211.322 396.539 220.838 397.687 231.762C398.835 242.685 403.363 257.855 402.467 266.516C401.571 275.178 398.791 296.692 396.558 309.321C394.325 321.95 388.658 339.234 388.658 339.234C388.658 339.234 391.245 348.459 390.739 356.695C390.233 364.93 410.524 419.722 410.524 419.722" stroke="#263238" stroke-linecap="round" stroke-linejoin="round"/>
<path d="M359.664 210.867C361.732 215.715 366.844 236.186 368.671 239.023C369.596 240.596 370.948 241.876 372.571 242.714" stroke="#263238" stroke-linecap="round" stroke-linejoin="round"/>
<path d="M380.941 208.174C380.941 208.174 380.501 212.365 382.773 225.743C385.045 239.121 386.15 244.814 387.423 247.794" stroke="#263238" stroke-linecap="round" stroke-linejoin="round"/>
<path d="M338.518 211.398C341.293 219.549 342.861 232.539 344.44 236.449C346.019 240.36 347.426 241.173 347.426 241.173" stroke="#263238" stroke-linecap="round" stroke-linejoin="round"/>
<path d="M343.011 230.957C344.679 232.218 345.999 233.882 346.847 235.792" stroke="#263238" stroke-linecap="round" stroke-linejoin="round"/>
<path d="M300.241 277.329C300.241 277.329 301.761 288.137 308.548 287.281" stroke="#263238" stroke-linecap="round" stroke-linejoin="round"/>
<path d="M316.441 250.691C316.441 250.691 318.199 263.537 315.316 268.99" stroke="#263238" stroke-linecap="round" stroke-linejoin="round"/>
<path d="M370.677 250.804C370.677 250.804 375.238 253.59 372.188 261.757C369.138 269.924 363.834 302.893 363.834 302.893" stroke="#263238" stroke-linecap="round" stroke-linejoin="round"/>
<path d="M390.532 259.429C392.444 266.813 392.614 267.002 389.508 276.074C386.402 285.146 381.396 307.359 381.396 307.359" stroke="#263238" stroke-linecap="round" stroke-linejoin="round"/>
<path d="M388.659 339.236C388.659 339.236 385.677 333.228 388.141 328.293" stroke="#263238" stroke-linecap="round" stroke-linejoin="round"/>
<path d="M319.801 355.953C319.801 355.953 327.342 366.522 330.619 378.346" stroke="#263238" stroke-linecap="round" stroke-linejoin="round"/>
<path d="M375.282 170.734L377.317 168.725L378.243 168.463L378.182 169.461L376.306 171.844L375.282 170.734Z" fill="#757575" stroke="#263238" stroke-linecap="round" stroke-linejoin="round"/>
<path d="M376.927 171.849L373.613 179.358L284.412 298.022L274.477 291.703L287.965 274.819L368.084 174.542L375.151 170.063C375.579 170.178 375.968 170.404 376.28 170.717C376.592 171.031 376.815 171.421 376.927 171.849Z" fill="#92E3A9"/>
<mask id="mask3_1_3790" style="mask-type:luminance" maskUnits="userSpaceOnUse" x="274" y="170" width="103" height="129">
<path d="M376.927 171.849L373.613 179.358L284.412 298.022L274.477 291.703L287.965 274.819L368.084 174.542L375.151 170.063C375.579 170.178 375.968 170.404 376.28 170.717C376.592 171.031 376.815 171.421 376.927 171.849Z" fill="white"/>
</mask>
<g mask="url(#mask3_1_3790)">
<path opacity="0.3" d="M376.927 171.849L373.613 179.358L284.412 298.022L274.477 291.703L287.965 274.819C294.165 274.178 295.196 277.832 295.196 277.832L372.046 177.755C371.291 175.061 368.084 174.547 368.084 174.547L375.151 170.068C375.578 170.182 375.967 170.407 376.279 170.72C376.591 171.033 376.815 171.422 376.927 171.849Z" fill="black" fill-opacity="0.7"/>
</g>
<path d="M376.927 171.849L373.613 179.358L284.412 298.022L274.477 291.703L287.965 274.819L368.084 174.542L375.151 170.063C375.579 170.178 375.968 170.404 376.28 170.717C376.592 171.031 376.815 171.421 376.927 171.849Z" stroke="#263238" stroke-linecap="round" stroke-linejoin="round"/>
<path d="M313.506 262.891C313.506 262.891 303.552 282.609 293.971 296.556L287.127 298.322C287.127 298.322 271.427 313.887 261.851 321.656C260.111 320.578 258.534 319.257 257.169 317.734C257.169 317.734 270.769 291.675 285.817 275.179C287.582 275.806 289.245 276.687 290.754 277.794C292.706 279.176 294.443 280.839 295.907 282.728L312.679 261.675L313.506 262.891Z" fill="#92E3A9"/>
<mask id="mask4_1_3790" style="mask-type:luminance" maskUnits="userSpaceOnUse" x="257" y="261" width="57" height="61">
<path d="M313.506 262.891C313.506 262.891 303.552 282.609 293.971 296.556L287.127 298.322C287.127 298.322 271.427 313.887 261.851 321.656C260.111 320.578 258.534 319.257 257.169 317.734C257.169 317.734 270.769 291.675 285.817 275.179C287.582 275.806 289.245 276.687 290.754 277.794C292.706 279.176 294.443 280.839 295.907 282.728L312.679 261.675L313.506 262.891Z" fill="white"/>
</mask>
<g mask="url(#mask4_1_3790)">
<path opacity="0.3" d="M313.506 262.891C313.506 262.891 303.552 282.609 293.971 296.556L287.127 298.322C287.127 298.322 271.427 313.887 261.851 321.656L262.111 317.43C272.498 301.595 285.697 284.325 290.754 277.794C292.706 279.176 294.443 280.839 295.907 282.728L286.587 295.14L291.927 294.182L312.679 261.674L313.506 262.891Z" fill="black" fill-opacity="0.7"/>
</g>
<path d="M313.506 262.891C313.506 262.891 303.552 282.609 293.971 296.556L287.127 298.322C287.127 298.322 271.427 313.887 261.851 321.656C260.111 320.578 258.534 319.257 257.169 317.734C257.169 317.734 270.769 291.675 285.817 275.179C287.582 275.806 289.245 276.687 290.754 277.794C292.706 279.176 294.443 280.839 295.907 282.728L312.679 261.675L313.506 262.891Z" stroke="#263238" stroke-linecap="round" stroke-linejoin="round"/>
<path d="M347.425 241.169L319.561 268.127L315.109 272.437C318.157 264.617 316.683 252.527 316.488 251.055V251.037C316.475 250.953 316.469 250.907 316.469 250.907C316.467 250.836 316.459 250.765 316.445 250.695C316.274 250.041 316.023 248.429 315.745 246.227C315.684 245.736 315.623 245.218 315.556 244.672C315.489 244.126 315.422 243.554 315.356 242.962C315.318 242.684 315.29 242.388 315.256 242.101C315.245 241.981 315.234 241.862 315.213 241.75C315.089 240.622 314.951 239.42 314.825 238.183C314.791 237.84 314.756 237.508 314.713 237.166C314.657 236.574 314.593 235.969 314.529 235.37C314.516 235.277 314.513 235.176 314.501 235.071C314.466 234.728 314.424 234.372 314.391 234.017C314.314 233.319 314.247 232.613 314.171 231.902C314.107 231.291 314.053 230.682 313.989 230.072C313.875 228.927 313.762 227.777 313.655 226.673C313.568 225.841 313.489 225.028 313.419 224.235C313.402 224.05 313.386 223.875 313.369 223.699C312.948 219.309 312.618 215.703 312.501 214.162C312.501 214.162 302.501 199.374 301.463 192.411C300.425 185.447 300.52 178.112 304.715 175.137C314.635 168.088 311.729 179.441 316.169 184.148C320.609 188.854 327.424 196.542 331.279 198.955C335.134 201.368 338.519 211.397 338.519 211.397C341.294 219.546 342.86 232.532 344.441 236.449C346.022 240.365 347.425 241.169 347.425 241.169Z" fill="white"/>
<path d="M343.011 230.957C344.679 232.218 345.999 233.882 346.847 235.792" stroke="#263238" stroke-linecap="round" stroke-linejoin="round"/>
<path opacity="0.4" d="M316.167 184.151C320.589 188.855 327.379 196.497 331.241 198.937C330.697 198.665 323.594 195.209 319.622 199.052C315.492 203.059 312.499 214.169 312.499 214.169C312.499 214.169 302.499 199.381 301.461 192.418C300.423 185.454 300.518 178.119 304.713 175.144C314.633 168.091 311.727 179.444 316.167 184.151Z" fill="#92E3A9"/>
<path opacity="0.4" d="M319.561 268.127L315.109 272.436C318.157 264.617 316.683 252.527 316.488 251.055V251.037C316.487 250.922 316.473 250.807 316.445 250.695C316.274 250.041 316.023 248.429 315.745 246.227C315.684 245.736 315.623 245.218 315.556 244.672C315.489 244.126 315.422 243.554 315.356 242.962C315.318 242.684 315.29 242.388 315.256 242.101C315.245 241.981 315.234 241.861 315.213 241.75C315.09 240.613 314.961 239.421 314.825 238.183C314.791 237.84 314.756 237.508 314.713 237.166C314.657 236.574 314.593 235.968 314.529 235.37C314.516 235.277 314.513 235.176 314.501 235.07C314.466 234.728 314.424 234.372 314.391 234.017C314.314 233.318 314.247 232.613 314.171 231.901C314.107 231.291 314.053 230.682 313.989 230.072C313.875 228.927 313.762 227.777 313.655 226.673C313.577 225.842 313.499 225.02 313.419 224.235C313.402 224.05 313.386 223.874 313.369 223.699C313.647 225.011 318.718 249.091 321.612 254.704C322.703 256.834 321.685 262.308 319.561 268.127Z" fill="#92E3A9"/>
<path d="M347.426 241.173C347.426 241.173 346.02 240.36 344.44 236.45C342.86 232.539 341.293 219.549 338.518 211.398C338.518 211.398 335.13 201.375 331.275 198.959C327.42 196.543 320.611 188.865 316.168 184.154C311.725 179.442 314.632 168.09 304.71 175.139C300.522 178.113 300.435 185.449 301.463 192.413C302.491 199.376 312.502 214.164 312.502 214.164C312.915 219.288 315.556 247.39 316.445 250.683" stroke="#263238" stroke-linecap="round" stroke-linejoin="round"/>
<path d="M316.441 250.692C316.441 250.692 318.199 263.537 315.316 268.99" stroke="#263238" stroke-linecap="round" stroke-linejoin="round"/>
<path opacity="0.2" d="M145.413 266.408C145.413 266.408 151.743 295.733 138.029 317.07C124.315 338.407 113.765 344.096 109.018 350.462C104.271 356.828 85.698 392.42 85.698 392.42L63.998 328.293L85.698 248.959L145.413 266.408Z" fill="black" fill-opacity="0.7"/>
<path d="M273.311 243.983L138.751 300.487L124.881 306.314L98.741 244.342L38.041 100.432L186.471 38.1006L273.311 243.983Z" fill="white"/>
<mask id="mask5_1_3790" style="mask-type:luminance" maskUnits="userSpaceOnUse" x="38" y="38" width="236" height="269">
<path d="M273.311 243.983L138.751 300.487L124.881 306.314L98.741 244.342L38.041 100.432L186.471 38.1006L273.311 243.983Z" fill="white"/>
</mask>
<g mask="url(#mask5_1_3790)">
<path d="M148.121 64.886L84.049 91.7911C83.7569 91.9069 83.4908 92.0797 83.2664 92.2994C83.0421 92.519 82.8639 92.7812 82.7423 93.0704C82.6207 93.3596 82.5582 93.6702 82.5584 93.9838C82.5586 94.2975 82.6215 94.6079 82.7434 94.897C82.8654 95.1861 83.0439 95.448 83.2686 95.6674C83.4932 95.8867 83.7595 96.0592 84.0517 96.1746C84.344 96.29 84.6564 96.3461 84.9707 96.3396C85.285 96.333 85.5948 96.264 85.882 96.1365L149.954 69.2313C150.241 69.1122 150.502 68.9376 150.722 68.7175C150.941 68.4974 151.115 68.2363 151.233 67.949C151.352 67.6617 151.412 67.354 151.41 67.0435C151.409 66.733 151.346 66.4258 151.225 66.1396C151.105 65.8534 150.928 65.5938 150.707 65.3757C150.485 65.1576 150.223 64.9853 149.934 64.8687C149.646 64.7522 149.337 64.6936 149.026 64.6964C148.715 64.6992 148.407 64.7643 148.121 64.886Z" fill="#263238"/>
<path d="M135.87 80.5424L103.834 93.9955C103.689 94.0543 103.558 94.1412 103.447 94.2511C103.337 94.361 103.249 94.4918 103.189 94.6357C103.129 94.7797 103.099 94.9341 103.099 95.0899C103.1 95.2457 103.131 95.3999 103.192 95.5435C103.252 95.6872 103.341 95.8174 103.452 95.9266C103.563 96.0359 103.695 96.1221 103.84 96.1801C103.985 96.2381 104.14 96.2669 104.296 96.2648C104.453 96.2626 104.607 96.2296 104.75 96.1676L136.786 82.7155C137.075 82.5943 137.304 82.3636 137.422 82.0742C137.54 81.7847 137.538 81.4602 137.417 81.172C137.296 80.8838 137.064 80.6556 136.774 80.5375C136.484 80.4194 136.159 80.4212 135.87 80.5424Z" fill="#263238"/>
<path d="M188.578 162.49C188.578 162.49 189.93 173.081 185.978 174.741C182.37 176.255 177.617 170.573 173.469 172.315C169.321 174.057 172.593 189.071 168.591 190.751C164.589 192.431 159.767 186.261 156.316 187.713C152.865 189.164 154.951 196.885 151.393 198.38C148.457 199.613 144.253 193.474 140.893 192.127C140.583 191.978 140.247 191.892 139.903 191.875C139.56 191.857 139.216 191.909 138.893 192.027C135.371 193.506 137.119 209.634 134.081 210.91C133.23 211.273 132.303 211.424 131.381 211.35C130.25 211.144 129.103 211.036 127.954 211.028C127.513 211.072 127.081 211.182 126.672 211.354C124.078 212.444 124.432 220.933 122.06 221.931C119.688 222.928 117.348 221.692 114.816 222.756C112.284 223.819 112.325 228.232 108.551 229.816L110.151 233.602L202.259 194.925" fill="#BFBFBF"/>
<path d="M188.578 162.49C188.578 162.49 189.93 173.081 185.978 174.741C182.37 176.255 177.617 170.573 173.469 172.315C169.321 174.057 172.593 189.071 168.591 190.751C164.589 192.431 159.767 186.261 156.316 187.713C152.865 189.164 154.951 196.885 151.393 198.38C148.457 199.613 144.253 193.474 140.893 192.127C140.583 191.978 140.247 191.892 139.903 191.875C139.56 191.857 139.216 191.909 138.893 192.027C135.371 193.506 137.119 209.634 134.081 210.91C133.23 211.273 132.303 211.424 131.381 211.35C130.25 211.144 129.103 211.036 127.954 211.028C127.513 211.072 127.081 211.182 126.672 211.354C124.078 212.444 124.432 220.933 122.06 221.931C119.688 222.928 117.348 221.692 114.816 222.756C112.284 223.819 112.325 228.232 108.551 229.816L110.151 233.602L202.259 194.925" stroke="#263238" stroke-miterlimit="10"/>
<path d="M91.501 189.385L110.149 233.597L206.587 193.101" stroke="#263238" stroke-linecap="round" stroke-linejoin="round"/>
<path d="M195.989 180.06C195.632 179.633 195.252 179.226 194.852 178.84C193.661 177.693 191.768 176.234 190.332 176.838C188.927 177.428 188.802 179.758 188.832 182.248C188.865 185.277 189.132 188.534 187.603 189.179C186.303 189.724 185.138 188.905 183.944 188.01C182.577 186.99 181.171 185.876 179.488 186.583C176.644 187.781 177.511 191.472 176.509 194.635C176.244 195.552 175.767 196.394 175.118 197.094C174.468 197.794 173.663 198.333 172.768 198.667C170.312 199.699 167.82 198.686 165.475 197.088C161.513 194.394 157.955 190.028 155.65 190.994C151.983 192.535 156.028 202.438 152.085 204.094C149.885 205.019 145.322 198.086 140.893 192.127C137.393 187.409 133.969 183.303 131.867 184.185C127.111 186.18 134.948 209.858 131.491 211.31C131.457 211.324 131.42 211.339 131.385 211.35C130.831 211.582 130.229 211.674 129.631 211.618C129.033 211.561 128.459 211.359 127.958 211.028C126.711 210.323 125.698 209.325 124.32 209.903C121.774 210.972 123.268 220.254 120.46 221.434C117.652 222.613 115.97 220.907 112.811 222.232C110.138 223.354 108.555 229.815 108.555 229.815L110.155 233.601L202.263 194.924" fill="#757575"/>
<path d="M195.989 180.06C195.632 179.633 195.252 179.226 194.852 178.84C193.661 177.693 191.768 176.234 190.332 176.838C188.927 177.428 188.802 179.758 188.832 182.248C188.865 185.277 189.132 188.534 187.603 189.179C186.303 189.724 185.138 188.905 183.944 188.01C182.577 186.99 181.171 185.876 179.488 186.583C176.644 187.781 177.511 191.472 176.509 194.635C176.244 195.552 175.767 196.394 175.118 197.094C174.468 197.794 173.663 198.333 172.768 198.667C170.312 199.699 167.82 198.686 165.475 197.088C161.513 194.394 157.955 190.028 155.65 190.994C151.983 192.535 156.028 202.438 152.085 204.094C149.885 205.019 145.322 198.086 140.893 192.127C137.393 187.409 133.969 183.303 131.867 184.185C127.111 186.18 134.948 209.858 131.491 211.31C131.457 211.324 131.42 211.339 131.385 211.35C130.831 211.582 130.229 211.674 129.631 211.618C129.033 211.561 128.459 211.359 127.958 211.028C126.711 210.323 125.698 209.325 124.32 209.903C121.774 210.972 123.268 220.254 120.46 221.434C117.652 222.613 115.97 220.907 112.811 222.232C110.138 223.354 108.555 229.815 108.555 229.815L110.155 233.601L202.263 194.924" stroke="#263238" stroke-linecap="round" stroke-linejoin="round"/>
<path d="M176.496 211.626L144.46 225.078C144.317 225.138 144.187 225.225 144.078 225.336C143.969 225.446 143.883 225.576 143.824 225.719C143.765 225.863 143.736 226.016 143.737 226.171C143.737 226.326 143.769 226.479 143.829 226.622C143.889 226.764 143.977 226.894 144.087 227.003C144.197 227.111 144.328 227.198 144.472 227.256C144.615 227.314 144.769 227.344 144.924 227.343C145.08 227.342 145.233 227.311 145.376 227.251L177.412 213.799C177.555 213.739 177.685 213.652 177.794 213.541C177.903 213.431 177.989 213.301 178.048 213.158C178.106 213.014 178.136 212.861 178.135 212.706C178.134 212.551 178.103 212.398 178.043 212.255C177.983 212.113 177.895 211.983 177.785 211.874C177.675 211.766 177.544 211.679 177.4 211.621C177.256 211.563 177.103 211.533 176.948 211.534C176.792 211.535 176.639 211.566 176.496 211.626Z" fill="#263238"/>
<path d="M201.874 158.648L198.777 159.949C198.458 160.082 198.309 160.449 198.443 160.767L199.746 163.857C199.88 164.175 200.247 164.324 200.566 164.19L203.663 162.89C203.982 162.756 204.132 162.39 203.998 162.072L202.694 158.982C202.56 158.664 202.193 158.514 201.874 158.648Z" fill="#BFBFBF" stroke="#263238" stroke-width="1.00031" stroke-miterlimit="10"/>
<path d="M218.61 153.444L205.81 158.82C205.746 158.848 205.676 158.863 205.606 158.864C205.536 158.865 205.467 158.852 205.402 158.826C205.336 158.8 205.277 158.761 205.227 158.712C205.177 158.663 205.138 158.605 205.11 158.54C205.083 158.476 205.069 158.406 205.069 158.336C205.069 158.266 205.082 158.197 205.109 158.133C205.136 158.068 205.176 158.009 205.225 157.96C205.275 157.911 205.334 157.872 205.399 157.845L218.199 152.469C218.328 152.417 218.473 152.417 218.602 152.47C218.731 152.524 218.833 152.626 218.887 152.754C218.941 152.882 218.943 153.027 218.891 153.156C218.839 153.285 218.738 153.389 218.61 153.444Z" fill="#263238"/>
<path d="M215.598 157.203L206.698 160.939C206.634 160.966 206.564 160.981 206.494 160.982C206.424 160.983 206.355 160.97 206.29 160.944C206.224 160.918 206.165 160.88 206.115 160.831C206.065 160.781 206.026 160.723 205.998 160.659C205.971 160.594 205.957 160.525 205.957 160.455C205.957 160.385 205.97 160.316 205.997 160.251C206.024 160.186 206.064 160.128 206.113 160.078C206.163 160.029 206.222 159.99 206.287 159.964L215.187 156.228C215.316 156.176 215.461 156.176 215.59 156.229C215.719 156.283 215.821 156.384 215.875 156.513C215.929 156.641 215.931 156.785 215.879 156.915C215.827 157.044 215.726 157.147 215.598 157.203Z" fill="#263238"/>
<path d="M205.879 168.145L202.782 169.446C202.463 169.579 202.314 169.946 202.448 170.264L203.751 173.354C203.885 173.672 204.252 173.821 204.571 173.688L207.668 172.387C207.987 172.253 208.137 171.887 208.003 171.569L206.699 168.479C206.565 168.161 206.198 168.011 205.879 168.145Z" fill="#757575" stroke="#263238" stroke-width="1.00031" stroke-linecap="round" stroke-linejoin="round"/>
<path d="M222.615 162.939L209.815 168.315C209.686 168.368 209.541 168.367 209.412 168.314C209.283 168.261 209.181 168.159 209.127 168.03C209.073 167.902 209.071 167.758 209.123 167.629C209.175 167.499 209.276 167.396 209.404 167.34L222.204 161.964C222.333 161.912 222.478 161.912 222.607 161.966C222.736 162.019 222.838 162.121 222.892 162.249C222.946 162.377 222.948 162.522 222.896 162.651C222.844 162.78 222.743 162.884 222.615 162.939Z" fill="#263238"/>
<path d="M219.603 166.7L210.703 170.436C210.574 170.488 210.429 170.488 210.3 170.434C210.171 170.381 210.069 170.279 210.015 170.151C209.961 170.023 209.959 169.878 210.011 169.749C210.063 169.62 210.164 169.516 210.292 169.461L219.192 165.725C219.321 165.673 219.466 165.673 219.595 165.726C219.724 165.78 219.826 165.882 219.88 166.01C219.934 166.138 219.936 166.283 219.884 166.412C219.832 166.541 219.731 166.644 219.603 166.7Z" fill="#263238"/>
<path d="M239.451 202.092L135.461 245.759C135.172 245.88 134.943 246.111 134.825 246.4C134.707 246.689 134.709 247.014 134.83 247.302C134.951 247.59 135.183 247.819 135.473 247.937C135.763 248.055 136.088 248.053 136.377 247.932L240.368 204.265C240.515 204.208 240.649 204.122 240.762 204.012C240.875 203.902 240.965 203.771 241.027 203.626C241.088 203.481 241.12 203.325 241.12 203.167C241.12 203.01 241.089 202.854 241.028 202.709C240.966 202.563 240.877 202.432 240.764 202.322C240.651 202.212 240.517 202.126 240.37 202.068C240.223 202.011 240.066 201.983 239.908 201.987C239.75 201.991 239.595 202.027 239.451 202.092Z" fill="#263238"/>
<path d="M242.747 209.904L121.825 260.681C121.544 260.808 121.324 261.039 121.212 261.325C121.099 261.611 121.103 261.93 121.223 262.213C121.343 262.497 121.568 262.722 121.852 262.842C122.136 262.962 122.455 262.966 122.742 262.854L243.663 212.077C243.952 211.956 244.181 211.725 244.299 211.436C244.417 211.146 244.415 210.822 244.294 210.534C244.173 210.246 243.941 210.017 243.651 209.899C243.361 209.781 243.036 209.783 242.747 209.904Z" fill="#263238"/>
<path d="M246.041 217.718L125.121 268.494C124.978 268.554 124.848 268.642 124.739 268.752C124.63 268.862 124.544 268.992 124.485 269.135C124.367 269.425 124.369 269.749 124.49 270.038C124.611 270.326 124.843 270.554 125.133 270.672C125.423 270.79 125.748 270.788 126.037 270.667L246.959 219.89C247.102 219.83 247.232 219.742 247.341 219.632C247.45 219.522 247.536 219.392 247.594 219.248C247.653 219.105 247.683 218.952 247.682 218.797C247.681 218.642 247.649 218.489 247.589 218.347C247.529 218.204 247.441 218.074 247.331 217.966C247.22 217.857 247.09 217.771 246.946 217.713C246.802 217.654 246.649 217.625 246.493 217.626C246.338 217.626 246.185 217.658 246.042 217.718H246.041Z" fill="#263238"/>
<path d="M249.341 225.531L128.419 276.308C128.276 276.368 128.146 276.455 128.037 276.565C127.928 276.676 127.842 276.806 127.784 276.949C127.725 277.093 127.696 277.246 127.696 277.401C127.697 277.556 127.729 277.709 127.789 277.851C127.849 277.994 127.937 278.123 128.047 278.232C128.158 278.341 128.288 278.427 128.432 278.485C128.576 278.544 128.729 278.573 128.885 278.572C129.04 278.571 129.193 278.54 129.336 278.48L250.257 227.704C250.4 227.644 250.53 227.556 250.639 227.446C250.748 227.336 250.834 227.206 250.893 227.062C250.952 226.919 250.981 226.766 250.98 226.611C250.98 226.456 250.948 226.303 250.888 226.16C250.828 226.018 250.74 225.888 250.63 225.779C250.52 225.67 250.389 225.584 250.245 225.526C250.102 225.467 249.948 225.438 249.793 225.438C249.637 225.439 249.484 225.471 249.341 225.531Z" fill="#263238"/>
<path d="M201.841 254.672L131.712 284.12C131.569 284.18 131.439 284.268 131.33 284.378C131.221 284.488 131.135 284.618 131.076 284.762C131.018 284.905 130.988 285.059 130.989 285.213C130.989 285.368 131.021 285.521 131.081 285.664C131.141 285.807 131.229 285.936 131.339 286.045C131.449 286.154 131.58 286.24 131.724 286.298C131.867 286.357 132.021 286.386 132.176 286.386C132.332 286.385 132.485 286.354 132.628 286.294L202.758 256.845C202.905 256.788 203.039 256.702 203.152 256.592C203.266 256.482 203.355 256.351 203.417 256.206C203.478 256.061 203.51 255.905 203.51 255.747C203.511 255.59 203.479 255.434 203.418 255.289C203.356 255.143 203.267 255.012 203.154 254.902C203.041 254.792 202.907 254.706 202.76 254.648C202.613 254.591 202.456 254.563 202.298 254.567C202.14 254.571 201.985 254.607 201.841 254.672Z" fill="#263238"/>
<path d="M163.217 102.357C163.217 102.357 164.569 112.949 160.617 114.608C157.009 116.124 152.256 110.44 148.108 112.183C143.96 113.925 147.232 128.938 143.23 130.62C139.228 132.301 134.406 126.13 130.955 127.58C127.504 129.031 129.59 136.753 126.032 138.248C123.095 139.481 118.892 133.342 115.532 131.995C115.222 131.845 114.886 131.759 114.542 131.742C114.199 131.725 113.855 131.777 113.532 131.895C110.01 133.373 111.758 149.502 108.72 150.778C107.869 151.142 106.942 151.293 106.02 151.218C104.889 151.013 103.742 150.905 102.593 150.895C102.152 150.94 101.72 151.05 101.311 151.223C98.717 152.312 99.071 160.801 96.699 161.799C94.327 162.797 91.987 161.561 89.455 162.624C86.923 163.688 86.964 168.1 83.19 169.686L84.79 173.47L176.898 134.793" fill="#BFBFBF"/>
<path d="M163.217 102.357C163.217 102.357 164.569 112.949 160.617 114.608C157.009 116.124 152.256 110.44 148.108 112.183C143.96 113.925 147.232 128.938 143.23 130.62C139.228 132.301 134.406 126.13 130.955 127.58C127.504 129.031 129.59 136.753 126.032 138.248C123.095 139.481 118.892 133.342 115.532 131.995C115.222 131.845 114.886 131.759 114.542 131.742C114.199 131.725 113.855 131.777 113.532 131.895C110.01 133.373 111.758 149.502 108.72 150.778C107.869 151.142 106.942 151.293 106.02 151.218C104.889 151.013 103.742 150.905 102.593 150.895C102.152 150.94 101.72 151.05 101.311 151.223C98.717 152.312 99.071 160.801 96.699 161.799C94.327 162.797 91.987 161.561 89.455 162.624C86.923 163.688 86.964 168.1 83.19 169.686L84.79 173.47L176.898 134.793" stroke="#263238" stroke-miterlimit="10"/>
<path d="M169.17 116.476C169.17 116.476 170.014 121.609 167.977 122.463C166.288 123.172 165.25 122.184 163.469 122.119C162.582 122.1 161.701 122.28 160.893 122.646C159.265 123.33 158.87 125.522 158.581 127.881C158.226 130.78 158.036 133.93 155.909 134.824C154.419 135.45 152.809 135.084 151.146 134.505C148.502 133.585 145.718 132.13 143.034 133.258C141.734 133.805 140.82 135.216 140.112 136.959C138.443 141.08 137.918 147.049 136.112 147.807C133.541 148.888 128.833 144.478 126.55 145.437C124.267 146.396 125.203 150.351 123.35 151.129C121.497 151.907 120.441 149.612 117.18 150.981C113.919 152.35 115.507 157.156 110.912 159.085C106.317 161.015 104.297 157.465 99.848 159.334C95.399 161.203 96.208 164.564 93.075 165.879C89.942 167.194 88.616 164.908 86.37 165.851C84.195 166.764 83.597 170.335 83.562 170.558L84.789 173.468L176.897 134.791" fill="#92E3A9"/>
<path d="M169.17 116.476C169.17 116.476 170.014 121.609 167.977 122.463C166.288 123.172 165.25 122.184 163.469 122.119C162.582 122.1 161.701 122.28 160.893 122.646C159.265 123.33 158.87 125.522 158.581 127.881C158.226 130.78 158.036 133.93 155.909 134.824C154.419 135.45 152.809 135.084 151.146 134.505C148.502 133.585 145.718 132.13 143.034 133.258C141.734 133.805 140.82 135.216 140.112 136.959C138.443 141.08 137.918 147.049 136.112 147.807C133.541 148.888 128.833 144.478 126.55 145.437C124.267 146.396 125.203 150.351 123.35 151.129C121.497 151.907 120.441 149.612 117.18 150.981C113.919 152.35 115.507 157.156 110.912 159.085C106.317 161.015 104.297 157.465 99.848 159.334C95.399 161.203 96.208 164.564 93.075 165.879C89.942 167.194 88.616 164.908 86.37 165.851C84.195 166.764 83.597 170.335 83.562 170.558L84.789 173.468L176.897 134.791" stroke="#263238" stroke-miterlimit="10"/>
<path d="M66.141 129.258L84.789 173.47L181.227 132.975" stroke="#263238" stroke-linecap="round" stroke-linejoin="round"/>
<path d="M150.841 150.811L118.805 164.264C118.66 164.323 118.529 164.41 118.418 164.519C118.308 164.629 118.22 164.76 118.16 164.904C118.1 165.048 118.07 165.202 118.07 165.358C118.071 165.514 118.102 165.668 118.163 165.812C118.223 165.955 118.312 166.086 118.423 166.195C118.534 166.304 118.666 166.39 118.811 166.448C118.956 166.506 119.111 166.535 119.267 166.533C119.424 166.531 119.578 166.498 119.721 166.436L151.758 152.984C152.039 152.857 152.259 152.626 152.371 152.34C152.484 152.054 152.48 151.735 152.36 151.452C152.24 151.168 152.015 150.943 151.731 150.823C151.447 150.703 151.128 150.699 150.841 150.811Z" fill="#263238"/>
<path d="M174.894 94.6823L171.797 95.9827C171.478 96.1166 171.329 96.4829 171.463 96.801L172.766 99.8911C172.9 100.209 173.267 100.359 173.586 100.225L176.683 98.9243C177.002 98.7904 177.152 98.4241 177.018 98.106L175.714 95.0159C175.58 94.6978 175.213 94.5485 174.894 94.6823Z" fill="#BFBFBF" stroke="#263238" stroke-width="1.00031" stroke-miterlimit="10"/>
<path d="M191.63 89.4761L178.83 94.8522C178.766 94.88 178.696 94.8949 178.626 94.8959C178.556 94.8969 178.487 94.884 178.422 94.8579C178.357 94.8319 178.297 94.7932 178.247 94.7442C178.197 94.6951 178.158 94.6367 178.13 94.5722C178.103 94.5077 178.089 94.4385 178.089 94.3685C178.089 94.2985 178.102 94.2292 178.129 94.1646C178.156 94.1 178.196 94.0413 178.245 93.992C178.295 93.9427 178.354 93.9037 178.419 93.8773L191.219 88.5013C191.283 88.4734 191.353 88.4586 191.423 88.4576C191.493 88.4566 191.562 88.4695 191.627 88.4955C191.693 88.5216 191.752 88.5602 191.802 88.6093C191.852 88.6583 191.891 88.7168 191.919 88.7813C191.946 88.8458 191.96 88.915 191.96 88.985C191.96 89.0549 191.947 89.1242 191.92 89.1888C191.893 89.2535 191.853 89.3121 191.804 89.3615C191.754 89.4108 191.695 89.4497 191.63 89.4761Z" fill="#263238"/>
<path d="M188.618 93.2356L179.718 96.9712C179.653 97.0018 179.583 97.0189 179.512 97.0216C179.44 97.0244 179.369 97.0126 179.302 96.9872C179.235 96.9617 179.174 96.9229 179.123 96.8733C179.071 96.8237 179.031 96.7642 179.003 96.6984C178.975 96.6327 178.961 96.562 178.961 96.4906C178.962 96.4192 178.977 96.3487 179.005 96.2832C179.033 96.2177 179.075 96.1586 179.127 96.1095C179.179 96.0604 179.24 96.0222 179.307 95.9974L188.207 92.2617C188.272 92.2312 188.342 92.2141 188.413 92.2113C188.485 92.2086 188.556 92.2203 188.623 92.2458C188.69 92.2713 188.751 92.31 188.802 92.3596C188.854 92.4093 188.894 92.4687 188.922 92.5345C188.95 92.6003 188.964 92.671 188.964 92.7424C188.963 92.8138 188.948 92.8843 188.92 92.9498C188.892 93.0153 188.85 93.0744 188.798 93.1235C188.746 93.1726 188.685 93.2107 188.618 93.2356Z" fill="#263238"/>
<path d="M178.9 104.179L175.803 105.48C175.484 105.614 175.335 105.98 175.469 106.298L176.772 109.388C176.906 109.706 177.273 109.856 177.592 109.722L180.689 108.421C181.008 108.287 181.158 107.921 181.024 107.603L179.72 104.513C179.586 104.195 179.219 104.046 178.9 104.179Z" fill="#92E3A9" stroke="#263238" stroke-width="1.00031" stroke-miterlimit="10"/>
<path d="M195.635 98.9732L182.835 104.349C182.706 104.402 182.561 104.401 182.432 104.348C182.303 104.295 182.201 104.193 182.147 104.065C182.093 103.936 182.091 103.792 182.143 103.663C182.195 103.533 182.296 103.43 182.424 103.374L195.224 97.9984C195.288 97.9705 195.358 97.9556 195.428 97.9546C195.498 97.9537 195.567 97.9665 195.632 97.9926C195.698 98.0186 195.757 98.0573 195.807 98.1064C195.857 98.1554 195.897 98.2139 195.924 98.2784C195.951 98.3428 195.965 98.4121 195.965 98.482C195.965 98.552 195.952 98.6213 195.925 98.6859C195.898 98.7505 195.858 98.8092 195.809 98.8585C195.759 98.9078 195.7 98.9468 195.635 98.9732Z" fill="#263238"/>
<path d="M192.623 102.733L183.723 106.468C183.658 106.499 183.588 106.516 183.517 106.519C183.445 106.521 183.374 106.51 183.307 106.484C183.24 106.459 183.179 106.42 183.128 106.37C183.077 106.321 183.036 106.261 183.008 106.196C182.98 106.13 182.966 106.059 182.966 105.988C182.967 105.916 182.982 105.846 183.01 105.78C183.038 105.715 183.08 105.656 183.132 105.607C183.184 105.557 183.245 105.519 183.312 105.494L192.212 101.759C192.277 101.728 192.347 101.711 192.418 101.708C192.49 101.706 192.561 101.717 192.628 101.743C192.695 101.768 192.756 101.807 192.807 101.857C192.859 101.906 192.899 101.966 192.927 102.032C192.955 102.097 192.969 102.168 192.969 102.239C192.968 102.311 192.953 102.381 192.925 102.447C192.897 102.512 192.855 102.571 192.803 102.621C192.751 102.67 192.69 102.708 192.623 102.733Z" fill="#263238"/>
<path opacity="0.2" d="M138.751 300.487L124.881 306.314L98.741 244.342C101.076 242.031 102.608 239.034 103.111 235.791C104.671 227.489 103.571 200.798 124.401 198.045C145.231 195.291 127.661 242.027 128.621 250.937C129.501 259.049 141.371 282.626 138.751 300.487Z" fill="black" fill-opacity="0.7"/>
</g>
<path d="M273.311 243.983L138.751 300.487L124.881 306.314L98.741 244.342L38.041 100.432L186.471 38.1006L273.311 243.983Z" stroke="#263238" stroke-linecap="round" stroke-linejoin="round"/>
<path d="M130.372 254.32C132.706 246.353 141.827 220.78 140.63 209.474C140.536 208.533 140.322 207.608 139.992 206.722C136.792 198.279 123.707 199.097 118.685 206.092C113.168 213.786 108.661 227.63 108.277 236.056C107.937 240.261 106.579 244.321 104.32 247.887C104.312 247.906 104.312 247.915 104.303 247.924C103.521 249.242 102.635 250.496 101.656 251.676L71.809 181.01C68.7965 183.516 66.1656 186.446 63.999 189.707C62.778 191.524 61.993 193.596 61.705 195.764C61.093 202.723 53.193 231.319 49.905 243.387C49.842 243.646 49.769 243.886 49.705 244.129C46.547 255.725 54.885 298.79 52.505 311.298C50.125 323.806 48.641 323.529 48.291 332.412C48.037 338.898 38.737 358.618 28.319 378.861C22.341 390.462 16.001 402.225 10.771 411.758L87.091 408.596C88.414 399.343 89.769 389.577 91.008 380.125C91.5486 376.189 92.3098 372.287 93.288 368.437V368.428C94.973 361.643 97.024 355.506 98.272 351.914C99.8843 346.633 101.214 341.271 102.255 335.849C111.13 326.475 122.77 311.74 126.142 301.758C126.151 301.74 126.159 301.712 126.167 301.693C126.996 299.64 127.258 297.403 126.927 295.214C126.561 293.419 126.36 291.594 126.327 289.763C126.336 289.754 126.336 289.754 126.327 289.745C125.941 278.942 128.415 260.954 130.372 254.32Z" fill="white"/>
<path opacity="0.4" d="M104.303 247.92C101.936 252.66 99.085 257.263 97.265 262.575C95.445 267.888 93.491 268.639 88.149 272.795C82.807 276.95 78.909 270.101 78.909 270.101C78.909 270.101 85.976 262.773 83.628 258.697C81.28 254.621 72.483 244.466 73.004 238.867C73.525 233.269 67.67 220.718 67.67 220.718C67.67 220.718 80.996 212.91 78.41 203.79C76.998 198.795 70.021 193.48 63.999 189.704C66.1656 186.442 68.7965 183.512 71.809 181.006L101.656 251.668C102.635 250.49 103.52 249.237 104.303 247.92Z" fill="#92E3A9"/>
<path opacity="0.4" d="M55.899 291.264C56.08 291.862 60.417 306.165 56.758 312.117C53.013 318.204 49.337 325.972 51.126 334.061C52.554 340.522 40.555 363.876 28.319 378.856C38.741 358.618 48.041 338.899 48.291 332.412C48.638 323.532 50.111 323.798 52.505 311.298C54.899 298.798 46.551 255.722 49.705 244.13C49.768 243.888 49.841 243.647 49.905 243.387C52.235 256.526 57.663 282.7 59.153 291.111C61.054 301.827 56.1 291.687 55.899 291.264Z" fill="#92E3A9"/>
<path opacity="0.4" d="M83.381 377.546C92.247 339.444 122.1 310.224 126.142 301.765C122.77 311.743 111.13 326.482 102.255 335.856C101.214 341.278 99.8843 346.64 98.272 351.921C97.024 355.513 94.972 361.651 93.288 368.435V368.444C84.621 378.628 83.381 377.546 83.381 377.546Z" fill="#92E3A9"/>
<path opacity="0.4" d="M130.372 254.32C128.415 260.958 125.937 278.946 126.322 289.753C124.753 282.968 121.729 274.351 121.229 262.348C120.382 241.993 131.937 249.293 127.907 239.269C123.877 229.245 112.389 242.096 118.05 220.866C122.185 205.369 133.95 205.514 139.992 206.722C140.322 207.608 140.536 208.533 140.63 209.474C141.827 220.776 132.706 246.349 130.372 254.32Z" fill="#92E3A9"/>
<path d="M22.377 390.742C31.95 373.295 41.254 355.346 47.961 335.985C48.761 333.2 47.695 329.575 48.498 326.791C57.563 301.651 47.282 275.479 48.967 249.727C50.383 239.58 53.635 229.356 56.886 219.132C58.417 211.731 58.991 203.453 61.439 196.013C63.964 190.406 66.45 183.882 71.809 181.01C82.009 204.333 92.176 227.759 101.656 251.672C105.938 249.201 106.627 243.669 107.356 239.054C109.651 227.952 111.985 217.766 116.192 208.422C120.475 200.907 131.373 197.704 138.063 203.847C139.985 205.762 141.082 208.349 141.121 211.058C139.821 223.952 135.765 236.961 131.672 249.053C130.065 254.624 128.42 259.278 127.731 264.809C127.808 266.64 127.846 267.556 127.922 269.387C125.55 278.658 127.728 286.822 127.192 296.016C125.125 312.611 111.818 324.169 102.219 336.49C99.847 345.76 97.475 355.031 94.186 364.339C90.169 378.263 88.906 392.077 87.535 405.497" stroke="#263238" stroke-linecap="round" stroke-linejoin="round"/>
<path d="M101.658 251.671C99.8502 255.159 98.377 258.81 97.258 262.575C96.007 267.464 89.675 266.76 86.407 269.798" stroke="#263238" stroke-linecap="round" stroke-linejoin="round"/>
<path d="M77.784 243.064C77.784 243.064 86.395 246.093 91.406 249.998C96.417 253.902 100.127 254.856 100.127 254.856" stroke="#263238" stroke-linecap="round" stroke-linejoin="round"/>
<path d="M72.291 221.762C72.291 221.762 79.239 223.706 84.391 221.263C84.6255 218.775 85.0622 216.31 85.697 213.893" stroke="#263238" stroke-linecap="round" stroke-linejoin="round"/>
<path d="M86.047 222.268C86.047 222.268 86.119 223.234 89.662 223.275" stroke="#263238" stroke-linecap="round" stroke-linejoin="round"/>
<path d="M102.253 335.858C97.4046 340.729 93.6779 346.595 91.332 353.048" stroke="#263238" stroke-linecap="round" stroke-linejoin="round"/>
<path d="M49.296 246.262C48.985 252.236 56.019 273.477 58.155 284.032C60.291 294.586 61.087 302.053 61.087 302.053" stroke="#263238" stroke-linecap="round" stroke-linejoin="round"/>
</g>
<defs>
<clipPath id="clip0_1_3790">
<rect width="448.997" height="442" fill="white"/>
</clipPath>
</defs>
</svg>
