<svg width="104" height="104" viewBox="0 0 104 104" fill="none" xmlns="http://www.w3.org/2000/svg">
<path d="M89.5041 48.527C90.4954 48.4215 91.2176 47.5314 91.0676 46.5459C89.8174 38.3292 86.0425 30.6869 80.2443 24.6915C74.4463 18.6963 66.9353 14.6685 58.7661 13.1451C57.786 12.9623 56.8722 13.6546 56.7337 14.642C56.5953 15.6293 57.2847 16.5374 58.264 16.7246C65.6361 18.1333 72.4111 21.7851 77.6495 27.2017C82.888 32.6184 86.3116 39.5123 87.4739 46.9284C87.6282 47.9133 88.5128 48.6325 89.5041 48.527Z" fill="#368B85"/>
<path d="M13.3304 48.4578C12.3394 48.3504 11.6188 47.4591 11.7705 46.4739C13.1 37.8416 17.2145 29.8603 23.5119 23.7618C29.8091 17.6635 37.9175 13.8078 46.5867 12.7569C47.5765 12.6369 48.4443 13.386 48.5196 14.3801C48.5949 15.3743 47.8491 16.2367 46.8599 16.3611C39.0316 17.3454 31.7145 20.844 26.023 26.3556C20.3315 31.8674 16.5994 39.0692 15.3636 46.8629C15.2074 47.8475 14.3215 48.5651 13.3304 48.4578Z" fill="#368B85"/>
<path d="M56.6095 90.5392C56.7448 91.527 57.6563 92.2223 58.637 92.0427C66.8206 90.5443 74.3525 86.5337 80.1726 80.5464C85.9929 74.559 89.7893 66.9158 91.0563 58.6919C91.2081 57.7067 90.4875 56.8153 89.4965 56.7079C88.5054 56.6005 87.6195 57.3181 87.4633 58.3027C86.2859 65.7253 82.8428 72.62 77.5843 78.0296C72.3258 83.4391 65.5319 87.0754 58.1465 88.4616C57.1667 88.6456 56.4743 89.5514 56.6095 90.5392Z" fill="#368B85"/>
<path d="M48.4998 90.7823C48.4239 91.7765 47.5557 92.5251 46.566 92.4046C37.8996 91.3494 29.7951 87.4912 23.5016 81.3922C17.2081 75.2931 13.0969 67.3129 11.7694 58.6826C11.6178 57.6973 12.3386 56.8061 13.3297 56.699C14.3208 56.5918 15.2065 57.3096 15.3625 58.2942C16.5966 66.0862 20.3257 73.287 26.0137 78.7993C31.7017 84.3116 39.0154 87.8124 46.8411 88.8005C47.8302 88.9254 48.5756 89.7882 48.4998 90.7823Z" fill="#368B85"/>
<rect x="49.8424" y="1" width="5.4884" height="24.0932" rx="2.7442" fill="#368B85" stroke="#D7E8E7" stroke-width="2"/>
<rect x="103" y="49.8379" width="5.4884" height="24.0902" rx="2.7442" transform="rotate(90 103 49.8379)" fill="#368B85" stroke="#D7E8E7" stroke-width="2"/>
<rect x="49.8424" y="78.9077" width="5.4884" height="24.0932" rx="2.7442" fill="#368B85" stroke="#D7E8E7" stroke-width="2"/>
<rect x="1.00537" y="-0.9946" width="5.4884" height="24.0902" rx="2.7442" transform="matrix(-0.00538364 0.999986 -0.999986 -0.00538514 24.125 48.8326)" fill="#368B85" stroke="#D7E8E7" stroke-width="2"/>
<path d="M43.14 52.0008H54.2143M43.14 57.3165H58.644M43.14 62.6321H49.7846M65.2886 65.29V46.6852L54.2143 33.396H43.14C41.9652 33.396 40.8384 33.956 40.0077 34.9529C39.177 35.9498 38.7103 37.3019 38.7103 38.7117V65.29C38.7103 66.6998 39.177 68.0518 40.0077 69.0487C40.8384 70.0456 41.9652 70.6056 43.14 70.6056H60.8589C62.0337 70.6056 63.1604 70.0456 63.9911 69.0487C64.8219 68.0518 65.2886 66.6998 65.2886 65.29Z" stroke="#368B85" stroke-width="2" stroke-linecap="round" stroke-linejoin="round"/>
<path d="M54.4358 33.396V41.3695C54.4358 42.7793 54.8838 44.1314 55.6813 45.1282C56.4788 46.1251 57.5605 46.6852 58.6883 46.6852H65.0671" stroke="#368B85" stroke-width="2" stroke-linecap="round" stroke-linejoin="round"/>
</svg>
