<svg width="104" height="103" viewBox="0 0 104 103" fill="none" xmlns="http://www.w3.org/2000/svg">
<path d="M51.0157 79.203C50.921 79.5836 50.7017 79.9215 50.3927 80.163C50.0837 80.4046 49.7029 80.5359 49.3107 80.536C49.1666 80.5356 49.023 80.5179 48.883 80.4833L39.5084 78.1396C39.3135 78.0897 39.1283 78.0075 38.9605 77.8965L31.9296 73.2091C31.7372 73.081 31.572 72.9163 31.4433 72.7243C31.3146 72.5323 31.225 72.3169 31.1795 72.0903C31.0878 71.6326 31.1816 71.1573 31.4403 70.7688C31.6991 70.3803 32.1015 70.1105 32.5592 70.0188C32.7858 69.9733 33.0191 69.973 33.2459 70.0177C33.4726 70.0625 33.6883 70.1515 33.8807 70.2796L40.6568 74.797L49.7384 77.0674C49.9627 77.1235 50.1736 77.2233 50.3592 77.3611C50.5448 77.4989 50.7014 77.6719 50.8201 77.8703C50.9387 78.0687 51.0171 78.2885 51.0506 78.5172C51.0842 78.7459 51.0724 78.9789 51.0157 79.203ZM89.8999 50.9034C89.7318 51.4144 89.4639 51.8869 89.1119 52.2937C88.7599 52.7006 88.3307 53.0335 87.8492 53.2734L80.8183 56.7889L64.6148 72.9924C64.285 73.321 63.8383 73.5054 63.3727 73.505C63.2285 73.5048 63.0849 73.4871 62.945 73.4523L44.1957 68.765C43.985 68.7103 43.7864 68.6169 43.6098 68.4896L27.3096 56.8533L20.1527 53.2734C19.1801 52.7869 18.4405 51.934 18.0966 50.9023C17.7526 49.8705 17.8326 48.7445 18.3188 47.7717L25.5988 33.2146C26.0853 32.242 26.9382 31.5024 27.9699 31.1585C29.0016 30.8146 30.1277 30.8945 31.1005 31.3807L37.7682 34.7146L53.5147 30.2147C53.8306 30.1244 54.1655 30.1244 54.4814 30.2147L70.2279 34.7146L76.8956 31.3807C77.8684 30.8945 78.9944 30.8146 80.0262 31.1585C81.0579 31.5024 81.9108 32.242 82.3973 33.2146L89.6773 47.7717C89.9193 48.2531 90.0636 48.7777 90.1018 49.3153C90.1401 49.8528 90.0714 50.3925 89.8999 50.9034ZM21.7259 50.13L27.4327 52.998L35.2488 37.3775L29.5273 34.5241C29.3882 34.4551 29.2274 34.444 29.0802 34.4935C28.933 34.5429 28.8114 34.6488 28.7422 34.7878L21.4622 49.3448C21.3941 49.4836 21.3836 49.6437 21.4329 49.7901C21.4558 49.8639 21.4936 49.9321 21.544 49.9905C21.5944 50.049 21.6563 50.0965 21.7259 50.13ZM72.4543 60.1725L63.4518 52.9629C57.8856 57.7615 50.6847 58.4705 44.7611 54.6855C44.2428 54.3559 43.8052 53.9141 43.4805 53.3928C43.1559 52.8715 42.9524 52.2839 42.8852 51.6734C42.818 51.0629 42.8887 50.4451 43.0922 49.8656C43.2957 49.2862 43.6268 48.7598 44.0609 48.3254L57.4549 35.3298C57.6498 35.1419 57.8854 35.0015 58.1434 34.9196L53.998 33.7332L38.8199 38.0572L30.4619 54.7851L45.3734 65.4341L62.8336 69.7991L72.4543 60.1725ZM77.6338 54.9931L69.3168 38.3502H59.3972L46.5335 50.8301C46.4764 50.89 46.4334 50.9618 46.4076 51.0403C46.3817 51.1189 46.3737 51.2022 46.3841 51.2842C46.3932 51.3737 46.4228 51.4599 46.4705 51.5361C46.5183 51.6123 46.5829 51.6765 46.6595 51.7237C50.5529 54.2109 56.661 54.9081 62.1247 49.4034C62.4304 49.0965 62.8387 48.9133 63.2713 48.889C63.7038 48.8646 64.1301 49.0009 64.4683 49.2716L74.9621 57.6853L77.6338 54.9931ZM86.528 49.3448L79.2539 34.7878C79.1847 34.6488 79.0631 34.5429 78.9159 34.4935C78.7687 34.444 78.6078 34.4551 78.4688 34.5241L72.7619 37.3775L80.5634 52.998L86.2702 50.1446C86.3397 50.1111 86.4016 50.0636 86.452 50.0052C86.5024 49.9467 86.5403 49.8785 86.5632 49.8048C86.5896 49.7301 86.6007 49.6509 86.5956 49.5718C86.5906 49.4928 86.5696 49.4156 86.5339 49.3448H86.528Z" fill="#368B85"/>
<path d="M11.0123 80.3684C11.4583 81.0665 12.3858 81.2709 13.0839 80.8249C13.782 80.3789 13.9864 79.4514 13.5404 78.7533L11.0123 80.3684ZM16.9558 19.2907C16.8937 18.4647 16.1736 17.8454 15.3475 17.9076L1.88557 18.9207C1.05948 18.9829 0.440207 19.703 0.502382 20.5291C0.564557 21.3552 1.28464 21.9745 2.11073 21.9123L14.0769 21.0117L14.9775 32.9778C15.0397 33.8039 15.7598 34.4232 16.5858 34.361C17.4119 34.2988 18.0312 33.5788 17.969 32.7527L16.9558 19.2907ZM13.5404 78.7533C10.2115 73.5426 6.32557 64.2965 5.61462 53.6624C4.90628 43.0674 7.34753 31.1369 16.5974 20.3814L14.3228 18.4253C4.47011 29.8818 1.87042 42.6312 2.6213 53.8626C3.36957 65.0548 7.44305 74.7816 11.0123 80.3684L13.5404 78.7533Z" fill="#368B85"/>
<path d="M23.8836 9.71632C23.1643 10.1282 22.9144 11.0448 23.3254 11.7636C23.7365 12.4823 24.6528 12.731 25.3721 12.3191L23.8836 9.71632ZM86.7598 16.831C87.5853 16.7597 88.1975 16.0328 88.1272 15.2075L86.9822 1.75799C86.912 0.932663 86.1858 0.321423 85.3604 0.39275C84.5349 0.464077 83.9227 1.19096 83.9929 2.01629L85.0107 13.9714L73.0537 15.0046C72.2282 15.0759 71.616 15.8028 71.6863 16.6281C71.7565 17.4535 72.4827 18.0647 73.3081 17.9934L86.7598 16.831ZM25.3721 12.3191C30.8249 9.19637 40.4626 5.61374 51.4761 5.14209C62.458 4.67178 74.7466 7.29324 85.6657 16.4847L87.5995 14.1886C75.9925 4.41811 62.9198 1.6495 51.3516 2.14491C39.8147 2.63898 29.7132 6.37785 23.8836 9.71632L25.3721 12.3191Z" fill="#368B85"/>
<path d="M97.0698 25.3309C96.6796 24.6014 95.7707 24.3279 95.0397 24.7201C94.3087 25.1123 94.0325 26.0216 94.4226 26.7511L97.0698 25.3309ZM86.3763 85.7834C86.3739 86.6116 87.0437 87.283 87.8723 87.2829L101.375 87.2814C102.204 87.2813 102.878 86.6098 102.88 85.7816C102.882 84.9533 102.213 84.282 101.384 84.2821L89.3812 84.2834L89.4156 72.2862C89.418 71.4579 88.7482 70.7866 87.9196 70.7867C87.091 70.7868 86.4173 71.4583 86.4149 72.2865L86.3763 85.7834ZM94.4226 26.7511C97.3351 32.1963 100.488 41.7068 100.367 52.3632C100.246 62.9805 96.8809 74.6929 86.8187 84.7229L88.9345 86.8435C99.6524 76.1599 103.239 63.6429 103.367 52.3883C103.495 41.1728 100.193 31.1691 97.0698 25.3309L94.4226 26.7511Z" fill="#368B85"/>
<path d="M78.7229 94.8093C79.4723 94.4525 79.7929 93.5575 79.4391 92.8101C79.0852 92.0628 78.1909 91.7462 77.4415 92.1029L78.7229 94.8093ZM16.5863 82.9983C15.7576 83.0074 15.0903 83.6861 15.0959 84.5142L15.1866 98.0086C15.1922 98.8367 15.8685 99.5006 16.6972 99.4915C17.5259 99.4825 18.1932 98.8038 18.1876 97.9757L18.1069 85.9807L30.1109 85.8493C30.9396 85.8402 31.6069 85.1615 31.6014 84.3335C31.5958 83.5054 30.9195 82.8414 30.0908 82.8505L16.5863 82.9983ZM77.4415 92.1029C71.761 94.8073 61.8719 97.6563 50.8541 97.3003C39.8677 96.9453 27.8199 93.4096 17.6502 83.4259L15.5425 85.5696C26.3529 96.1823 39.1713 99.9237 50.7444 100.298C62.2861 100.671 72.6498 97.7006 78.7229 94.8093L77.4415 92.1029Z" fill="#368B85"/>
</svg>
