<svg width="355" height="362" viewBox="0 0 355 362" fill="none" xmlns="http://www.w3.org/2000/svg">
<g clip-path="url(#clip0_1_2981)">
<path d="M22.82 243.039C24.4323 255.547 29.2031 267.438 36.6822 277.59C44.1613 287.742 54.1021 295.82 65.5668 301.062C114.784 323.356 201.234 358.969 232.133 349.394C276.327 335.699 366.948 83.2577 352.154 37.8676C337.361 -7.52241 33.1324 23.1695 19.5237 60.6063C9.13285 89.1925 15.072 184.14 22.82 243.039Z" fill="#92E3A9"/>
<path opacity="0.7" d="M22.82 243.039C24.4323 255.547 29.2031 267.438 36.6822 277.59C44.1613 287.742 54.1021 295.82 65.5668 301.062C114.784 323.356 201.234 358.969 232.133 349.394C276.327 335.699 366.948 83.2577 352.154 37.8676C337.361 -7.52241 33.1324 23.1695 19.5237 60.6063C9.13285 89.1925 15.072 184.14 22.82 243.039Z" fill="white"/>
<path d="M313.366 240.248C313.37 240.234 313.37 240.219 313.364 240.206C313.358 240.193 313.347 240.182 313.333 240.177C313.32 240.171 313.305 240.171 313.291 240.176C313.277 240.181 313.266 240.192 313.26 240.205C311.58 244.232 310.252 248.397 309.29 252.653C308.318 256.911 307.587 261.22 307.1 265.561L306.793 268.825C306.745 269.369 306.686 269.912 306.647 270.457L306.558 272.094C306.51 273.186 306.444 274.276 306.413 275.37L306.443 278.649L306.479 280.287C306.503 280.833 306.543 281.378 306.579 281.922C306.66 283.013 306.729 284.105 306.828 285.19C307.037 287.363 307.364 289.525 307.7 291.677C307.702 291.691 307.709 291.703 307.72 291.712C307.73 291.721 307.743 291.726 307.757 291.726C307.765 291.726 307.772 291.724 307.779 291.722C307.786 291.719 307.792 291.714 307.797 291.709C307.803 291.704 307.807 291.697 307.81 291.69C307.812 291.683 307.814 291.676 307.814 291.669C307.808 290.576 307.762 289.486 307.738 288.401C307.713 287.316 307.612 286.233 307.627 285.146C307.642 284.059 307.604 282.976 307.591 281.892L307.562 280.267L307.59 278.641L307.604 275.393L307.692 272.146L307.726 270.522C307.747 269.98 307.788 269.44 307.818 268.899L308.017 265.654C308.387 261.332 309 257.034 309.854 252.781C310.661 248.51 311.836 244.317 313.366 240.248Z" fill="#263238"/>
<path d="M313.831 257.236C313.835 257.222 313.834 257.207 313.827 257.193C313.821 257.18 313.809 257.17 313.795 257.164C313.781 257.16 313.766 257.161 313.752 257.168C313.738 257.174 313.728 257.186 313.723 257.2C311.867 262.62 310.634 268.234 310.047 273.933C309.758 276.776 309.441 279.622 309.4 282.481C309.329 285.341 309.43 288.202 309.703 291.049C309.705 291.063 309.711 291.075 309.72 291.084C309.73 291.093 309.742 291.099 309.755 291.1C309.763 291.101 309.77 291.101 309.777 291.099C309.785 291.096 309.791 291.093 309.797 291.088C309.803 291.083 309.808 291.078 309.812 291.071C309.815 291.064 309.817 291.057 309.818 291.049C310.148 288.203 310.35 285.364 310.545 282.526C310.741 279.688 310.774 276.844 310.959 274.006C311.139 271.174 311.477 268.355 311.972 265.561C312.437 262.754 313.058 259.975 313.831 257.236Z" fill="#263238"/>
<path d="M323.244 263.213C323.24 263.206 323.235 263.2 323.229 263.196C323.222 263.191 323.215 263.188 323.208 263.186C323.2 263.185 323.192 263.185 323.185 263.186C323.177 263.187 323.17 263.19 323.164 263.195C320.81 264.709 318.689 266.558 316.87 268.685C315.955 269.755 315.132 270.9 314.409 272.108L313.903 273.064L313.507 274.056C313.373 274.384 313.258 274.72 313.162 275.061C313.06 275.4 312.946 275.736 312.855 276.077C312.134 278.794 311.698 281.578 311.553 284.385C311.413 287.177 311.518 289.977 311.865 292.751C311.865 292.766 311.871 292.781 311.882 292.792C311.893 292.802 311.908 292.808 311.923 292.808C311.938 292.808 311.953 292.802 311.963 292.792C311.974 292.781 311.98 292.766 311.98 292.751L312.698 284.469C312.895 281.73 313.246 279.004 313.748 276.304C313.823 275.971 313.919 275.646 314.003 275.315C314.081 274.985 314.178 274.659 314.293 274.34L314.629 273.382L315.062 272.479C315.716 271.276 316.471 270.13 317.317 269.053C318.997 266.857 320.988 264.918 323.227 263.297C323.235 263.293 323.241 263.288 323.246 263.281C323.251 263.275 323.254 263.267 323.256 263.259C323.257 263.251 323.257 263.242 323.255 263.234C323.253 263.226 323.249 263.219 323.244 263.213Z" fill="#263238"/>
<path d="M318.688 273.853C317.465 274.746 316.482 275.929 315.827 277.295C315.138 278.638 314.602 280.054 314.226 281.516C314.113 281.877 314.024 282.243 313.946 282.61L313.686 283.711C313.549 284.45 313.456 285.197 313.409 285.948C313.399 286.7 313.377 287.45 313.428 288.199C313.484 288.95 313.582 289.696 313.723 290.436C313.726 290.447 313.731 290.457 313.739 290.465C313.748 290.473 313.758 290.479 313.769 290.481C313.784 290.484 313.8 290.481 313.813 290.473C313.825 290.464 313.834 290.451 313.838 290.436C314.01 289.71 314.143 288.975 314.234 288.234C314.351 287.506 314.464 286.779 314.551 286.051C314.658 285.33 314.753 284.609 314.809 283.882C314.91 283.164 314.963 282.427 315.12 281.721C315.373 280.287 315.785 278.886 316.348 277.543C316.854 276.173 317.677 274.942 318.751 273.952L318.759 273.945C318.77 273.935 318.777 273.922 318.779 273.908C318.781 273.893 318.777 273.879 318.768 273.867C318.76 273.856 318.747 273.848 318.733 273.845C318.719 273.842 318.704 273.845 318.692 273.853H318.688Z" fill="#263238"/>
<path d="M305.488 282.15C305.178 278.472 304.571 274.832 303.999 271.194C303.426 267.556 302.791 263.928 302.126 260.307C301.437 256.69 300.717 253.08 299.937 249.483C299.934 249.468 299.925 249.456 299.913 249.448C299.9 249.439 299.885 249.436 299.871 249.438C299.863 249.44 299.856 249.442 299.85 249.447C299.844 249.451 299.838 249.456 299.834 249.462C299.83 249.468 299.827 249.476 299.825 249.483C299.823 249.49 299.823 249.498 299.825 249.505C300.453 253.129 301.022 256.764 301.559 260.403C302.111 264.04 302.631 267.678 303.094 271.324C303.558 274.971 303.894 278.628 304.35 282.27L305.694 293.215C305.696 293.228 305.703 293.241 305.713 293.25C305.723 293.259 305.736 293.265 305.749 293.266C305.757 293.266 305.764 293.265 305.771 293.262C305.779 293.26 305.785 293.256 305.791 293.251C305.796 293.246 305.801 293.239 305.804 293.233C305.807 293.226 305.809 293.218 305.809 293.211C305.851 292.289 305.853 291.366 305.875 290.441C305.883 289.518 305.837 288.598 305.821 287.674C305.783 285.827 305.626 283.989 305.488 282.15Z" fill="#263238"/>
<path d="M303.284 282.096C303.087 280.641 302.82 279.193 302.542 277.749L302.026 275.603C301.858 274.887 301.697 274.17 301.488 273.463C300.755 270.612 299.816 267.817 298.678 265.102L298.238 264.09L297.748 263.1C297.437 262.434 297.06 261.799 296.703 261.16C295.981 259.873 295.089 258.689 294.051 257.641C294.04 257.632 294.025 257.627 294.011 257.628C293.997 257.629 293.983 257.635 293.973 257.645C293.963 257.655 293.957 257.669 293.956 257.683C293.956 257.697 293.961 257.711 293.97 257.722L293.975 257.728C294.941 258.813 295.756 260.024 296.399 261.327C296.722 261.98 297.056 262.62 297.33 263.298L297.761 264.298L298.143 265.32C299.161 268.045 299.98 270.84 300.592 273.684C300.928 275.098 301.15 276.54 301.424 277.968L301.767 280.123C301.892 280.839 302.045 281.551 302.146 282.272C302.375 283.71 302.64 285.143 302.89 286.582C303.113 288.024 303.376 289.465 303.68 290.905C303.683 290.918 303.69 290.93 303.7 290.938C303.711 290.947 303.723 290.952 303.737 290.952C303.752 290.952 303.767 290.946 303.777 290.935C303.788 290.925 303.795 290.91 303.795 290.895C303.801 289.426 303.767 287.957 303.692 286.489C303.61 285.017 303.436 283.558 303.284 282.096Z" fill="#263238"/>
<path d="M300.242 282.284C299.561 280.355 298.774 278.467 297.916 276.615C297.048 274.768 296.071 272.976 294.988 271.247C294.98 271.234 294.967 271.224 294.952 271.221C294.937 271.218 294.921 271.22 294.908 271.228C294.901 271.232 294.895 271.237 294.89 271.243C294.885 271.249 294.882 271.256 294.88 271.264C294.878 271.272 294.878 271.279 294.879 271.287C294.88 271.295 294.883 271.302 294.887 271.309C295.831 273.102 296.665 274.951 297.386 276.845C298.132 278.725 298.804 280.634 299.367 282.572C299.931 284.511 300.354 286.483 300.869 288.428C301.41 290.368 301.848 292.335 302.446 294.304C302.449 294.316 302.456 294.326 302.466 294.334C302.476 294.342 302.488 294.346 302.501 294.347C302.508 294.347 302.516 294.345 302.523 294.342C302.53 294.34 302.536 294.335 302.542 294.33C302.547 294.325 302.551 294.318 302.554 294.311C302.557 294.304 302.559 294.297 302.559 294.289C302.583 292.236 302.392 290.186 301.988 288.172C301.565 286.166 300.982 284.196 300.242 282.284Z" fill="#263238"/>
<path d="M300.116 288.71C299.742 287.507 299.198 286.364 298.501 285.315C297.849 284.239 297.057 283.254 296.145 282.388C295.68 281.968 295.179 281.589 294.648 281.256C294.125 280.915 293.553 280.656 292.952 280.488C292.938 280.485 292.924 280.487 292.912 280.494C292.9 280.501 292.891 280.512 292.886 280.525C292.882 280.538 292.882 280.553 292.887 280.565C292.892 280.578 292.902 280.589 292.915 280.595H292.921C294.005 281.116 294.966 281.863 295.739 282.785C296.523 283.684 297.184 284.685 297.702 285.76C298.26 286.815 298.548 287.983 299.033 289.074C299.247 289.632 299.46 290.193 299.708 290.75C299.916 291.332 300.163 291.899 300.446 292.448C300.451 292.457 300.458 292.464 300.467 292.47C300.475 292.476 300.485 292.479 300.495 292.479C300.503 292.48 300.511 292.479 300.518 292.476C300.526 292.473 300.532 292.469 300.538 292.464C300.544 292.459 300.548 292.452 300.552 292.445C300.555 292.438 300.557 292.431 300.557 292.423C300.576 291.796 300.553 291.168 300.487 290.544C300.394 289.932 300.264 289.32 300.116 288.71Z" fill="#263238"/>
<path d="M300.344 254.747C298.508 254.234 296.847 253.229 295.541 251.84C294.235 250.451 293.333 248.732 292.932 246.868C291.543 240.38 296.02 243.161 292.006 232.964C287.991 222.768 288.918 220.451 290.309 217.516C291.7 214.581 292.471 215.508 293.702 219.37C294.934 223.233 299.415 229.256 301.113 240.534C302.812 251.812 300.344 254.747 300.344 254.747Z" fill="#92E3A9"/>
<path d="M312.233 243.778C312.233 243.778 308.218 242.388 308.064 234.819C307.91 227.249 310.998 228.793 311.457 219.37C311.917 209.948 312.538 203.304 314.237 203.149C315.935 202.995 320.413 207.784 321.957 218.289C323.501 228.794 319.95 235.749 316.862 238.835C313.773 241.92 312.233 243.778 312.233 243.778Z" fill="#92E3A9"/>
<path d="M298.182 263.861C298.182 263.861 297.256 258.299 295.403 255.674C293.55 253.048 289.536 250.73 286.911 245.632C284.286 240.534 281.352 238.063 281.507 245.323C281.661 252.584 284.9 256.291 288.918 258.763C292.936 261.235 298.182 263.861 298.182 263.861Z" fill="#92E3A9"/>
<path d="M296.484 273.439C294.033 268.918 290.967 264.758 287.374 261.08C281.97 255.826 277.646 253.202 279.19 255.826C280.734 258.45 282.584 258.297 285.212 262.932C287.84 267.567 287.065 270.965 290.771 273.591C294.477 276.216 296.484 273.439 296.484 273.439Z" fill="#92E3A9"/>
<path d="M296.02 282.554C295.866 282.091 295.712 278.691 290.462 275.911C285.212 273.13 280.271 274.213 280.889 275.602C281.506 276.991 284.749 279.31 287.991 280.699C290.579 281.654 293.276 282.277 296.02 282.554Z" fill="#92E3A9"/>
<path d="M311.924 264.17C311.924 264.17 309.608 261.234 310.843 255.056C312.079 248.877 314.858 250.421 317.946 247.177C321.034 243.932 320.417 243.47 323.504 240.07C326.592 236.671 329.372 234.816 330.607 236.209C331.842 237.602 329.99 241.925 328.136 244.396C326.283 246.867 323.35 248.104 321.96 251.193C320.571 254.283 321.188 259.227 317.637 261.54C314.086 263.854 311.924 264.17 311.924 264.17Z" fill="#92E3A9"/>
<path d="M319.644 265.87C319.644 265.87 325.203 259.535 329.217 254.901C333.232 250.267 334.776 246.713 334.93 249.803C335.085 252.892 336.32 255.364 333.078 259.381C329.835 263.398 319.644 265.87 319.644 265.87Z" fill="#92E3A9"/>
<path d="M316.711 276.065C316.711 276.065 316.556 273.593 325.355 267.877C334.155 262.162 337.862 261.08 336.936 263.398C336.01 265.715 332.149 268.032 327.98 272.203C323.811 276.374 316.711 276.065 316.711 276.065Z" fill="#92E3A9"/>
<path d="M300.711 254.089C300.711 254.089 298.645 243.006 296.484 235.127C294.323 227.249 292.929 222.46 292.929 222.46" stroke="#263238" stroke-linecap="round" stroke-linejoin="round"/>
<path d="M311.878 243.895C311.878 243.895 315.63 231.883 316.865 224.622C318.1 217.362 316.711 211.955 316.093 208.711" stroke="#263238" stroke-linecap="round" stroke-linejoin="round"/>
<path d="M297.695 263.63C296.033 260.769 294.129 258.056 292.006 255.519C288.612 251.502 285.984 249.34 284.44 245.477" stroke="#263238" stroke-linecap="round" stroke-linejoin="round"/>
<path d="M311.924 264.17C311.924 264.17 313.16 256.755 316.093 252.892C319.027 249.03 324.894 243.006 327.21 239.144" stroke="#263238" stroke-linecap="round" stroke-linejoin="round"/>
<path d="M295.658 282.385C295.658 282.385 290.462 279 286.757 277.147" stroke="#263238" stroke-linecap="round" stroke-linejoin="round"/>
<path d="M325.407 313.526C325.061 304.149 314.65 297.902 314.65 297.902H298.694C298.694 297.902 288.284 304.149 287.937 313.526C287.59 322.903 299.733 357.273 299.733 357.273H313.606C313.606 357.273 325.755 322.897 325.407 313.526Z" fill="#263238" stroke="#263238" stroke-linecap="round" stroke-linejoin="round"/>
<path d="M316.704 288.682H296.344L298.693 297.897H314.354L316.704 288.682Z" fill="#263238" stroke="#263238" stroke-linecap="round" stroke-linejoin="round"/>
<g opacity="0.3">
<path d="M243.66 319.104L256.102 320.531L258.898 308.276L247.436 304.288C247.327 301.324 246.727 298.399 245.659 295.633L254.188 287.131L246.351 277.303L236.397 283.588C233.914 281.778 231.138 280.41 228.19 279.543L226.891 267.805H214.334L213.034 279.543C210.128 280.398 207.388 281.742 204.931 283.516L194.778 277.105L186.945 286.932L195.598 295.557C194.553 298.233 193.946 301.059 193.8 303.929L182.02 308.027L184.815 320.282L197.419 318.837C198.786 321.183 200.5 323.308 202.502 325.142L198.228 337.287L209.548 342.742L216.366 331.838C219.012 332.263 221.706 332.287 224.358 331.911L231.2 342.852L242.52 337.398L238.33 325.491C240.426 323.65 242.224 321.496 243.66 319.104ZM203.598 305.314C203.597 301.946 204.594 298.654 206.464 295.853C208.333 293.053 210.991 290.87 214.101 289.58C217.21 288.291 220.632 287.953 223.934 288.61C227.235 289.266 230.268 290.888 232.649 293.269C235.029 295.65 236.65 298.684 237.307 301.987C237.964 305.29 237.627 308.714 236.339 311.826C235.051 314.937 232.869 317.597 230.071 319.468C227.272 321.339 223.981 322.337 220.615 322.337C216.102 322.337 211.773 320.543 208.582 317.35C205.391 314.157 203.598 309.826 203.598 305.31V305.314Z" stroke="black" stroke-miterlimit="10"/>
<path d="M170.917 298.982L179.589 299.976L181.537 291.437L173.552 288.659C173.476 286.594 173.057 284.556 172.312 282.628L178.255 276.705L172.797 269.857L165.861 274.237C164.131 272.975 162.197 272.021 160.143 271.417L159.238 263.239H150.484L149.58 271.417C147.554 272.013 145.645 272.949 143.934 274.186L136.859 269.72L131.401 276.567L137.431 282.576C136.702 284.441 136.279 286.41 136.178 288.409L127.97 291.265L129.918 299.804L138.699 298.797C139.652 300.431 140.847 301.912 142.242 303.19L139.264 311.652L147.151 315.452L151.901 307.853C153.745 308.149 155.622 308.166 157.47 307.903L162.237 315.527L170.124 311.728L167.205 303.432C168.665 302.149 169.917 300.648 170.917 298.982ZM143.005 289.374C143.005 287.027 143.701 284.734 145.004 282.783C146.307 280.833 148.159 279.313 150.326 278.415C152.493 277.518 154.877 277.283 157.176 277.741C159.476 278.199 161.589 279.329 163.247 280.988C164.905 282.648 166.034 284.761 166.491 287.063C166.949 289.364 166.714 291.749 165.816 293.917C164.919 296.084 163.399 297.937 161.449 299.24C159.499 300.544 157.207 301.239 154.862 301.239C153.304 301.239 151.762 300.933 150.324 300.336C148.885 299.74 147.577 298.866 146.476 297.764C145.375 296.662 144.502 295.354 143.906 293.914C143.311 292.475 143.004 290.932 143.005 289.374Z" stroke="black" stroke-miterlimit="10"/>
</g>
<g opacity="0.3">
<path d="M208.748 243.378C217.834 234.286 217.834 219.546 208.748 210.455C199.661 201.363 184.928 201.363 175.841 210.455C166.754 219.546 166.754 234.286 175.841 243.378C184.928 252.469 199.661 252.469 208.748 243.378Z" stroke="black" stroke-linecap="round" stroke-linejoin="round"/>
<path d="M192.564 243.537V240.426C190.268 240.337 188.552 239.601 187.416 238.219C186.279 236.836 185.666 234.773 185.577 232.03L190.29 231.228C190.312 232.168 190.43 233.104 190.642 234.021C190.767 234.646 191.062 235.224 191.494 235.692C191.69 235.878 191.921 236.023 192.174 236.118C192.427 236.213 192.696 236.256 192.965 236.245C193.241 236.276 193.52 236.23 193.771 236.112C194.022 235.994 194.235 235.808 194.387 235.576C194.648 235.107 194.78 234.577 194.77 234.04C194.806 233.029 194.532 232.031 193.985 231.18C193.372 230.314 192.647 229.532 191.829 228.855L188.987 226.413C188.367 225.84 187.786 225.225 187.248 224.574C186.726 223.933 186.314 223.209 186.029 222.432C185.709 221.519 185.556 220.557 185.577 219.589C185.523 218.694 185.655 217.796 185.962 216.953C186.27 216.111 186.748 215.34 187.366 214.689C188.673 213.469 190.376 212.762 192.162 212.699V209.722H193.764V212.699C194.803 212.719 195.821 213.001 196.722 213.519C197.453 213.959 198.058 214.581 198.477 215.325C198.885 216.068 199.178 216.869 199.346 217.7C199.52 218.521 199.631 219.354 199.681 220.192L194.9 220.894C194.886 220.16 194.819 219.427 194.7 218.703C194.628 218.164 194.421 217.652 194.098 217.215C193.932 217.029 193.724 216.887 193.491 216.8C193.258 216.712 193.008 216.682 192.761 216.713C192.482 216.709 192.206 216.774 191.958 216.903C191.71 217.031 191.498 217.219 191.34 217.449C191.019 217.91 190.85 218.459 190.855 219.021C190.811 219.906 191.071 220.779 191.591 221.496C192.1 222.141 192.658 222.745 193.262 223.302L196.037 225.711C196.773 226.381 197.455 227.107 198.076 227.885C198.703 228.67 199.21 229.544 199.581 230.478C199.975 231.519 200.167 232.626 200.146 233.739C200.161 234.856 199.914 235.961 199.426 236.966C198.958 237.923 198.243 238.738 197.355 239.325C196.398 239.945 195.299 240.313 194.162 240.395V243.539L192.564 243.537Z" stroke="black" stroke-linecap="round" stroke-linejoin="round"/>
</g>
<g opacity="0.3">
<path d="M296.875 195.214C304.964 193.284 309.959 185.158 308.03 177.064C306.101 168.971 297.979 163.974 289.89 165.904C281.8 167.833 276.806 175.959 278.734 184.053C280.663 192.147 288.785 197.144 296.875 195.214Z" stroke="black" stroke-width="1.00028" stroke-linecap="round" stroke-linejoin="round"/>
<path d="M293.543 191.314V189.303C292.917 189.322 292.295 189.204 291.72 188.957C291.144 188.711 290.63 188.341 290.212 187.874C289.389 186.705 288.971 185.299 289.022 183.87L292.072 183.352C292.086 183.96 292.162 184.565 292.299 185.158C292.38 185.562 292.571 185.937 292.851 186.24C292.977 186.36 293.127 186.454 293.29 186.515C293.454 186.577 293.628 186.605 293.802 186.598C293.981 186.618 294.161 186.588 294.323 186.511C294.486 186.435 294.624 186.315 294.722 186.165C294.892 185.861 294.978 185.517 294.971 185.169C294.994 184.515 294.816 183.87 294.463 183.319C294.066 182.758 293.596 182.253 293.067 181.815L291.228 180.235C290.828 179.864 290.452 179.466 290.104 179.045C289.766 178.63 289.499 178.162 289.314 177.66C289.108 177.069 289.009 176.446 289.022 175.82C288.987 175.241 289.072 174.66 289.272 174.115C289.471 173.569 289.78 173.071 290.18 172.65C291.025 171.86 292.127 171.403 293.283 171.362V169.437H294.322V171.362C294.994 171.376 295.652 171.558 296.236 171.892C296.707 172.178 297.097 172.581 297.367 173.061C297.632 173.542 297.823 174.06 297.933 174.597C298.045 175.128 298.117 175.667 298.149 176.209L295.056 176.663C295.047 176.188 295.004 175.715 294.926 175.246C294.88 174.897 294.746 174.566 294.537 174.283C294.429 174.163 294.295 174.071 294.144 174.015C293.994 173.959 293.832 173.94 293.672 173.959C293.492 173.957 293.313 173.999 293.153 174.082C292.992 174.165 292.855 174.286 292.752 174.435C292.545 174.734 292.435 175.089 292.439 175.452C292.41 176.025 292.578 176.59 292.915 177.054C293.244 177.471 293.606 177.862 293.996 178.223L295.792 179.781C296.268 180.214 296.709 180.684 297.111 181.187C297.516 181.695 297.844 182.261 298.084 182.865C298.34 183.538 298.465 184.254 298.452 184.975C298.462 185.697 298.302 186.412 297.987 187.063C297.684 187.682 297.221 188.208 296.646 188.589C296.027 188.99 295.316 189.228 294.581 189.281V191.314H293.543Z" stroke="black" stroke-linecap="round" stroke-linejoin="round"/>
</g>
<g opacity="0.3">
<path d="M336.818 48.3421H318.596V30.6976C314.99 30.6976 311.464 31.7675 308.466 33.7721C305.467 35.7768 303.13 38.626 301.75 41.9596C300.37 45.2931 300.009 48.9613 300.712 52.5002C301.416 56.0391 303.153 59.2897 305.703 61.8411C308.253 64.3925 311.502 66.1301 315.039 66.834C318.576 67.5379 322.242 67.1766 325.574 65.7958C328.906 64.415 331.754 62.0767 333.757 59.0766C335.761 56.0765 336.83 52.5493 336.83 48.9411C336.83 48.743 336.825 48.5401 336.818 48.3421Z" stroke="black" stroke-miterlimit="10"/>
<path d="M338.612 46.5484H320.39V28.9031C325.122 28.9031 329.669 30.744 333.069 34.0368C336.47 37.3296 338.457 41.8162 338.612 46.5484Z" stroke="black" stroke-miterlimit="10"/>
</g>
<g opacity="0.3">
<path d="M70.1421 38.6509H56.7079V80.1448H70.1421V38.6509Z" stroke="black" stroke-linecap="round" stroke-linejoin="round"/>
<path d="M88.2503 53.2617H74.816V80.1448H88.2503V53.2617Z" stroke="black" stroke-linecap="round" stroke-linejoin="round"/>
<path d="M106.358 62.9044H92.9233V80.1447H106.358V62.9044Z" stroke="black" stroke-linecap="round" stroke-linejoin="round"/>
<path d="M104.015 60.1755L101.563 48.0075L99.0313 50.2417L85.5292 34.9196C85.1626 34.5035 84.6819 34.2045 84.1468 34.0595L59.101 27.2735L57.6224 32.7355L81.8458 39.2992L94.7921 53.9836L92.2601 56.2178L104.015 60.1755Z" stroke="black" stroke-miterlimit="10"/>
</g>
<path d="M250.734 0H189.762C185.307 0 181.696 3.61292 181.696 8.06968V67.904C181.696 72.3608 185.307 75.9737 189.762 75.9737H250.734C255.189 75.9737 258.8 72.3608 258.8 67.904V8.06968C258.8 3.61292 255.189 0 250.734 0Z" fill="#263238"/>
<path d="M330.753 154.08H109.744C109.902 124.861 121.614 96.8923 142.32 76.2869C163.027 55.6816 191.044 44.115 220.248 44.115C249.453 44.115 277.47 55.6816 298.177 76.2869C318.883 96.8923 330.595 124.861 330.753 154.08Z" fill="#92E3A9" stroke="#263238" stroke-linejoin="round"/>
<path d="M325.251 154.08H115.246C115.4 126.318 126.53 99.7459 146.205 80.1697C165.881 60.5934 192.5 49.6047 220.248 49.6047C247.996 49.6047 274.616 60.5934 294.292 80.1697C313.967 99.7459 325.097 126.318 325.251 154.08Z" fill="white" stroke="#263238" stroke-linejoin="round"/>
<path d="M280.977 68.9217L220.656 154.081L220.252 154.646L219.849 154.081L159.528 68.9298C177.279 56.3465 198.497 49.5875 220.251 49.5861C242.006 49.5846 263.224 56.3408 280.977 68.9217Z" fill="white" stroke="#263238" stroke-linejoin="round"/>
<path d="M261.635 154.08H178.862C179.014 143.198 183.441 132.814 191.186 125.172C198.931 117.531 209.371 113.247 220.248 113.247C231.126 113.247 241.566 117.531 249.311 125.172C257.056 132.814 261.483 143.198 261.635 154.08Z" fill="white" stroke="#263238" stroke-linejoin="round"/>
<path d="M251.646 181.322C251.228 181.806 250.719 182.204 250.147 182.491C249.575 182.778 248.952 182.949 248.313 182.994C247.675 183.039 247.034 182.957 246.428 182.753C245.821 182.55 245.261 182.228 244.779 181.807L160.618 107.156L164.836 102.256L251.11 174.456C251.597 174.87 251.998 175.377 252.289 175.947C252.58 176.517 252.756 177.139 252.806 177.777C252.855 178.415 252.779 179.057 252.58 179.665C252.381 180.274 252.063 180.836 251.646 181.322Z" fill="#263238"/>
<path d="M220.249 178.142C233.22 178.142 243.734 167.623 243.734 154.646C243.734 141.669 233.22 131.149 220.249 131.149C207.279 131.149 196.764 141.669 196.764 154.646C196.764 167.623 207.279 178.142 220.249 178.142Z" fill="white" stroke="#263238" stroke-linejoin="round"/>
<path d="M220.248 167.458C227.321 167.458 233.055 161.721 233.055 154.645C233.055 147.568 227.321 141.832 220.248 141.832C213.176 141.832 207.442 147.568 207.442 154.645C207.442 161.721 213.176 167.458 220.248 167.458Z" fill="#263238" stroke="#263238" stroke-linejoin="round"/>
<g opacity="0.28">
<path d="M136.998 130.643V115.563H139.752V128.739H143.398V130.638L136.998 130.643Z" fill="black"/>
<path d="M148.738 130.847C147.85 130.891 146.967 130.685 146.189 130.252C145.555 129.853 145.076 129.248 144.831 128.539C144.541 127.689 144.402 126.794 144.422 125.896V120.251C144.401 119.362 144.54 118.477 144.831 117.636C145.079 116.941 145.559 116.353 146.189 115.97C146.991 115.59 147.866 115.393 148.753 115.393C149.639 115.393 150.515 115.59 151.316 115.97C151.943 116.357 152.422 116.944 152.674 117.636C152.972 118.475 153.113 119.362 153.092 120.251V125.91C153.111 126.8 152.97 127.686 152.674 128.526C152.422 129.23 151.944 129.832 151.316 130.239C150.532 130.682 149.638 130.893 148.738 130.847ZM148.738 128.818C149.102 128.849 149.463 128.742 149.752 128.52C149.981 128.301 150.135 128.014 150.19 127.701C150.267 127.329 150.304 126.95 150.301 126.569V119.625C150.305 119.245 150.268 118.865 150.19 118.493C150.133 118.19 149.979 117.912 149.752 117.703C149.46 117.487 149.1 117.384 148.738 117.414C148.386 117.389 148.036 117.491 147.753 117.703C147.521 117.91 147.364 118.188 147.306 118.493C147.228 118.865 147.191 119.245 147.195 119.625V126.569C147.192 126.949 147.226 127.328 147.296 127.701C147.346 128.015 147.5 128.304 147.733 128.52C148.02 128.74 148.378 128.847 148.738 128.82V128.818Z" fill="black"/>
<path d="M156.701 130.643L154.562 115.563H156.869L158.116 125.337L159.679 115.6H161.558L163.158 125.337L164.386 115.563H166.656L164.555 130.642H162.322L160.647 120.534L158.99 130.643H156.701Z" fill="black"/>
</g>
<g opacity="0.28">
<path d="M271.088 130.643V115.563H273.823V121.874H276.893V115.563H279.647V130.642H276.893V123.828H273.822V130.642L271.088 130.643Z" fill="black"/>
<path d="M282.029 130.643V115.563H284.745V130.642L282.029 130.643Z" fill="black"/>
<path d="M290.848 130.847C290.013 130.892 289.186 130.67 288.485 130.214C287.883 129.767 287.442 129.137 287.228 128.418C286.958 127.528 286.83 126.6 286.848 125.67V120.606C286.829 119.662 286.954 118.72 287.219 117.813C287.433 117.079 287.897 116.444 288.532 116.017C289.317 115.561 290.22 115.344 291.127 115.394C291.977 115.354 292.823 115.533 293.584 115.915C294.179 116.249 294.642 116.778 294.895 117.413C295.18 118.171 295.316 118.978 295.295 119.787V120.569H292.671V119.712C292.677 119.294 292.643 118.877 292.569 118.465C292.525 118.163 292.381 117.885 292.16 117.674C291.871 117.469 291.518 117.373 291.165 117.404C290.975 117.387 290.783 117.41 290.602 117.47C290.421 117.531 290.255 117.629 290.114 117.758C289.885 118.018 289.742 118.344 289.705 118.689C289.647 119.108 289.62 119.531 289.624 119.955V126.266C289.617 126.722 289.661 127.178 289.755 127.624C289.816 127.964 289.986 128.275 290.239 128.509C290.526 128.73 290.883 128.839 291.244 128.816C291.615 128.841 291.983 128.721 292.267 128.481C292.52 128.226 292.692 127.902 292.76 127.55C292.861 127.085 292.908 126.611 292.9 126.135V124.72H291.284V122.992H295.379V130.643H293.61L293.406 129.154C293.219 129.633 292.908 130.054 292.503 130.373C292.021 130.715 291.438 130.882 290.848 130.847Z" fill="black"/>
<path d="M297.508 130.643V115.563H300.244V121.874H303.314V115.563H306.066V130.642H303.313V123.828H300.243V130.642L297.508 130.643Z" fill="black"/>
</g>
<path d="M195.525 32.9197V9.25065H201.19C202.561 9.21725 203.928 9.40979 205.236 9.82054C206.275 10.1529 207.164 10.8395 207.748 11.7606C208.378 12.9028 208.676 14.1981 208.61 15.5008C208.619 16.365 208.531 17.2276 208.347 18.0721C208.198 18.7765 207.894 19.4391 207.458 20.0121C207.002 20.5756 206.402 21.0049 205.721 21.2545L209.022 32.9133H204.695L201.834 22.0726H199.847V32.9197H195.525ZM199.847 19.3614H201.19C201.876 19.3912 202.56 19.2663 203.191 18.996C203.683 18.7576 204.065 18.3392 204.258 17.8272C204.493 17.1665 204.603 16.4677 204.581 15.7667C204.648 14.8289 204.418 13.8937 203.925 13.0935C203.487 12.5007 202.654 12.2043 201.427 12.2043H199.847V19.3614Z" fill="#92E3A9"/>
<path d="M211.968 32.9197V9.25067H216.232V32.9197H211.968Z" fill="#92E3A9"/>
<path d="M225.838 33.2407C224.598 33.285 223.368 32.9976 222.276 32.4081C221.314 31.8456 220.557 30.991 220.114 29.9685C219.589 28.719 219.311 27.3793 219.297 26.0238L223.006 25.2963C223.031 26.1143 223.144 26.9273 223.342 27.7213C223.476 28.327 223.768 28.8863 224.189 29.342C224.387 29.5345 224.623 29.6844 224.882 29.7824C225.14 29.8804 225.416 29.9245 225.692 29.9119C225.973 29.9405 226.257 29.898 226.517 29.7883C226.778 29.6785 227.006 29.5051 227.182 29.2838C227.489 28.8112 227.642 28.2548 227.62 27.6914C227.658 26.7918 227.413 25.903 226.92 25.15C226.382 24.4121 225.753 23.7443 225.05 23.1623L222.071 20.5327C221.268 19.853 220.591 19.037 220.071 18.1222C219.544 17.1087 219.287 15.9764 219.326 14.8347C219.275 14.0388 219.395 13.2413 219.677 12.4954C219.96 11.7495 220.397 11.0724 220.962 10.5093C222.199 9.44385 223.8 8.89944 225.43 8.9904C226.381 8.95992 227.327 9.13414 228.205 9.50127C228.907 9.81228 229.516 10.3009 229.971 10.9191C230.418 11.5414 230.749 12.239 230.949 12.9788C231.169 13.7761 231.306 14.5938 231.359 15.4191L227.678 16.0618C227.649 15.394 227.566 14.7296 227.431 14.0749C227.34 13.5628 227.107 13.0866 226.759 12.7007C226.569 12.5252 226.346 12.3906 226.102 12.3051C225.859 12.2196 225.6 12.185 225.342 12.2036C225.065 12.1865 224.787 12.2343 224.531 12.3433C224.275 12.4523 224.047 12.6195 223.867 12.8316C223.518 13.2766 223.337 13.8305 223.357 14.3958C223.328 15.0871 223.501 15.7718 223.853 16.3673C224.253 16.9623 224.735 17.4985 225.283 17.9606L228.234 20.561C229.212 21.3842 230.054 22.3555 230.731 23.4395C231.45 24.643 231.809 26.0268 231.768 27.4279C231.787 28.4793 231.53 29.5173 231.023 30.4382C230.536 31.3042 229.818 32.0175 228.949 32.4978C227.994 33.0109 226.922 33.2669 225.838 33.2407Z" fill="#92E3A9"/>
<path d="M234.079 32.9198V9.25067H238.402V19.6532L243.075 9.25067H247.195L242.671 19.8286L247.666 32.9198H243.371L239.4 22.1373L238.407 23.9488V32.9214L234.079 32.9198Z" fill="#92E3A9"/>
<g opacity="0.28">
<path d="M192.62 81.7081L192.88 66.6293H195.727L197.866 77.0731L200.099 66.6293H202.853L203.132 81.7081H201.085L200.862 71.2279L198.723 81.7081H197.066L194.885 71.1908L194.681 81.7081H192.62Z" fill="black"/>
<path d="M205.253 81.7081V66.6293H211.579V68.5693H208.007V72.9069H210.816V74.8226H208.007V79.8117H211.619V81.7105L205.253 81.7081Z" fill="black"/>
<path d="M213.216 81.7081V66.6293H216.771C217.755 66.5837 218.736 66.7553 219.646 67.132C220.312 67.4449 220.837 67.9972 221.115 68.6792C221.432 69.5234 221.581 70.4218 221.552 71.3233V76.8338C221.579 77.7621 221.431 78.6872 221.115 79.5603C220.845 80.2598 220.327 80.8354 219.66 81.177C218.788 81.5711 217.835 81.7528 216.879 81.7073L213.216 81.7081ZM215.97 79.7907H216.807C217.285 79.833 217.763 79.7152 218.166 79.456C218.452 79.2069 218.632 78.857 218.668 78.4787C218.736 77.9569 218.767 77.431 218.761 76.9049V71.1342C218.772 70.6407 218.729 70.1476 218.631 69.6638C218.6 69.4981 218.537 69.3402 218.444 69.1995C218.351 69.0589 218.231 68.9383 218.091 68.8449C217.682 68.6412 217.226 68.5513 216.77 68.5846H215.97V79.7907Z" fill="black"/>
<path d="M223.657 81.7081V66.6293H226.373V81.7081H223.657Z" fill="black"/>
<path d="M232.827 81.9134C231.918 81.9651 231.013 81.7517 230.223 81.2991C229.601 80.887 229.145 80.2666 228.939 79.549C228.686 78.6658 228.567 77.7498 228.585 76.8314V66.6293H231.265V77.1474C231.263 77.5929 231.294 78.0379 231.357 78.4788C231.4 78.8498 231.552 79.1997 231.795 79.4835C232.086 79.7297 232.455 79.8648 232.837 79.8648C233.218 79.8648 233.588 79.7297 233.879 79.4835C234.111 79.1943 234.259 78.8467 234.307 78.4788C234.377 78.0384 234.411 77.5932 234.409 77.1474V66.6293H237.069V76.8314C237.087 77.7498 236.968 78.6658 236.716 79.549C236.511 80.2647 236.059 80.8846 235.441 81.2991C234.648 81.7538 233.74 81.9673 232.827 81.9134Z" fill="black"/>
<path d="M239.19 81.7081L239.451 66.6293H242.298L244.438 77.0731L246.67 66.6293H249.424L249.703 81.7081H247.657L247.434 71.2279L245.293 81.7081H243.637L241.461 71.1908L241.256 81.7081H239.19Z" fill="black"/>
</g>
<path d="M115.619 162.956C119.827 157.763 123.593 160.817 127.802 155.623C132.01 150.429 128.246 147.373 132.456 142.178C136.666 136.983 140.432 140.036 144.642 134.84C148.852 129.644 145.087 126.589 149.298 121.392C153.508 116.195 157.274 119.25 161.484 114.053" stroke="#92E3A9" stroke-linecap="round" stroke-linejoin="round"/>
<path d="M124.421 170.095C128.63 164.902 132.395 167.956 136.603 162.762C140.812 157.569 137.048 154.512 141.258 149.316C145.468 144.12 149.234 147.175 153.444 141.979C157.654 136.783 153.889 133.728 158.1 128.531C162.311 123.334 166.076 126.389 170.287 121.192" stroke="#92E3A9" stroke-linecap="round" stroke-linejoin="round"/>
<path d="M133.223 177.235C137.431 172.041 141.197 175.095 145.406 169.901C149.614 164.708 145.85 161.652 150.059 156.456C154.269 151.259 158.035 154.314 162.245 149.118C166.456 143.922 162.691 140.867 166.902 135.671C171.112 130.474 174.878 133.528 179.088 128.332" stroke="#92E3A9" stroke-linecap="round" stroke-linejoin="round"/>
<path d="M142.025 184.374C146.233 179.18 149.999 182.234 154.207 177.041C158.416 171.847 154.652 168.791 158.862 163.595C163.072 158.399 166.838 161.453 171.048 156.257C175.258 151.061 171.493 148.007 175.703 142.81C179.913 137.613 183.68 140.667 187.891 135.471" stroke="#92E3A9" stroke-linecap="round" stroke-linejoin="round"/>
<path d="M17.9385 338.763C17.9385 338.763 17.0126 352.505 18.0928 355.282C19.173 358.059 23.0301 362.383 25.3448 361.457C27.6595 360.53 27.0414 355.128 27.0414 351.422C27.0414 347.717 27.9673 342.16 27.9673 341.237C27.9673 340.314 17.9385 338.763 17.9385 338.763Z" fill="white" stroke="#263238" stroke-linejoin="round"/>
<path d="M89.0703 348.026C89.0703 348.026 88.7617 357.443 90.4592 358.061C92.1566 358.679 101.878 357.598 103.575 357.907C105.273 358.215 110.673 358.524 112.679 357.907C114.685 357.289 117.308 356.209 116.536 354.664C115.764 353.12 105.889 348.953 103.729 347.563C101.57 346.174 97.7112 343.549 97.7112 343.549L89.0703 348.026Z" fill="white" stroke="#263238" stroke-linejoin="round"/>
<path d="M38.3064 233.477C38.3064 233.477 37.5349 238.881 37.2262 248.298C36.9176 257.715 40.1574 277.317 40.1574 277.317L36.146 300.166L20.7145 335.364C20.7145 335.364 17.011 336.29 17.9369 338.759C18.8628 341.227 22.1034 343.851 23.9543 343.851C25.8053 343.851 28.2751 343.079 29.0443 341.845C29.8134 340.611 30.1245 337.522 30.1245 337.522C30.1245 337.522 56.972 301.706 57.4326 300.471C57.8931 299.235 62.2163 280.248 62.2163 280.248L73.3254 295.222L88.7569 341.378C88.4263 341.872 88.2128 342.434 88.1325 343.022C88.0523 343.611 88.1075 344.21 88.2939 344.773C88.9112 346.781 89.9906 349.56 89.9906 349.56C91.4186 349.466 92.8239 349.154 94.1571 348.633C96.0685 347.842 97.8398 346.747 99.403 345.391C99.7853 344.518 99.893 343.549 99.7116 342.613C99.403 341.069 98.4771 340.451 98.6314 339.218C98.7857 337.984 93.2312 293.984 92.3053 291.052C91.3794 288.119 70.0872 243.966 70.0872 243.966L68.544 232.697C58.7834 236.054 48.227 236.326 38.3064 233.477Z" fill="#263238" stroke="#263238" stroke-linejoin="round"/>
<path d="M59.9113 137.346C59.9113 137.346 53.8227 134.971 48.8855 136.233C43.9482 137.495 36.2979 144.259 36.857 148.233C37.4161 152.207 46.4593 160.9 46.4593 160.9L46.1127 168.841L61.8924 175.656L64.1392 165.51C64.1392 165.51 69.9353 164.028 69.7139 163.166C69.4926 162.303 68.1635 154.41 68.1635 154.41C68.41 154.246 68.6211 154.034 68.7841 153.787C68.9471 153.54 69.0588 153.262 69.1125 152.971C69.1662 152.68 69.1607 152.381 69.0965 152.092C69.0323 151.803 68.9107 151.53 68.7388 151.289C67.6092 149.596 66.3536 147.992 64.9827 146.489C64.9827 146.489 65.7777 143.203 59.9113 137.346Z" fill="white" stroke="#263238" stroke-linecap="round" stroke-linejoin="round"/>
<path d="M64.1392 165.51C64.1392 165.51 60.4284 165.529 59.8192 165.407C58.3152 164.714 56.8497 163.94 55.4289 163.089L62.2576 172.972L64.1392 165.51Z" fill="#263238" stroke="#263238" stroke-linecap="round" stroke-linejoin="round"/>
<path d="M64.0649 148.521C64.4535 149.129 64.5658 149.753 64.3145 149.913C64.0633 150.073 63.5462 149.71 63.1576 149.104C62.769 148.499 62.6567 147.872 62.9079 147.712C63.1592 147.551 63.6763 147.912 64.0649 148.521Z" fill="#263238"/>
<path d="M63.5615 145.673C63.1173 145.573 62.652 145.637 62.2511 145.853C61.8503 146.069 61.541 146.423 61.3801 146.849" stroke="#263238" stroke-linecap="round" stroke-linejoin="round"/>
<path d="M67.2764 156.759C66.2307 157.02 65.1247 156.861 64.1942 156.317" stroke="#263238" stroke-linecap="round" stroke-linejoin="round"/>
<path d="M60.9584 138.745L54.5046 142.118C54.5046 142.118 56.9858 143.772 56.4558 145.28L55.9266 146.789L56.0647 152.702L54.4028 153.356C54.4028 153.356 49.3864 149.834 48.168 153.12C46.9497 156.407 51.2066 158.75 51.2066 158.75C51.2066 158.75 49.4534 162.63 47.8457 163.499C46.2379 164.368 47.1371 161.621 43.9627 160.831C40.7884 160.041 34.7935 154.481 34.6715 151.309C34.5495 148.137 36.1218 140.871 41.4783 137.67C46.8349 134.47 50.5401 133.752 53.5505 133.897C56.5608 134.043 59.5405 132.31 60.5189 134.347C61.1007 135.736 61.2538 137.268 60.9584 138.745Z" fill="#263238" stroke="#263238" stroke-linecap="round" stroke-linejoin="round"/>
<path d="M44.9428 168.792C41.1818 174.119 38.4115 180.081 36.7649 186.392C34.4502 196.118 33.9872 207.696 35.9933 213.562C37.9994 219.429 37.69 229.772 37.69 229.772C37.69 229.772 36.1468 232.706 37.8443 234.558C39.5418 236.409 50.3422 239.807 59.7546 238.417C69.167 237.028 69.4756 234.712 69.9385 233.169C70.4015 231.626 70.2472 210.629 68.2419 201.212C66.7061 193.865 64.8007 186.6 62.533 179.445C61.1426 175.277 44.9428 168.792 44.9428 168.792Z" fill="white" stroke="#263238" stroke-linejoin="round"/>
<path d="M45.144 163.613L64.691 176.512L64.3824 183.459L43.0894 169.101L45.144 163.613Z" fill="white" stroke="#263238" stroke-linejoin="round"/>
<path d="M145.595 191.001L135.31 182.102L131.819 180.037L110.166 218.872C103.453 226.794 92.7593 228.756 86.2822 223.259C79.805 217.763 79.9957 206.886 86.7096 198.967L119.127 168.543L109.553 160.103L105.352 157.578L72.2185 192.721C67.0012 198.888 64.4445 206.876 65.1099 214.928C65.7754 222.981 69.6087 230.439 75.7675 235.666C81.9264 240.892 89.907 243.458 97.956 242.801C106.005 242.143 113.464 238.316 118.694 232.159L145.595 191.001Z" fill="#263238" stroke="#263238" stroke-linejoin="round"/>
<path d="M135.31 182.102L131.819 180.037L120.669 200.035L130.22 207.97L133.153 210.034L145.595 191.001L135.31 182.102Z" fill="#263238" stroke="#263238" stroke-linecap="round" stroke-linejoin="round"/>
<path d="M99.6809 182.053L102.196 184.435L119.129 168.543L109.553 160.103L105.352 157.578L94.5093 169.08L99.6809 182.053Z" fill="#263238" stroke="#263238" stroke-linecap="round" stroke-linejoin="round"/>
<path d="M142.534 189.13L131.819 180.037L107.109 217.002C100.396 224.924 89.7021 226.885 83.225 221.388C76.7478 215.891 76.9384 205.016 83.6515 197.096L116.07 166.672L105.354 157.579L69.1589 190.85C66.5706 193.903 64.6087 197.436 63.3852 201.248C62.1618 205.06 61.7007 209.075 62.0283 213.065C62.356 217.055 63.4659 220.942 65.2947 224.503C67.1235 228.064 69.6355 231.229 72.6871 233.819C75.7387 236.408 79.2703 238.371 83.0801 239.595C86.8899 240.82 90.9034 241.281 94.8914 240.953C98.8794 240.625 102.764 239.515 106.323 237.685C109.882 235.855 113.046 233.342 115.634 230.289L142.534 189.13Z" fill="white" stroke="#263238" stroke-linejoin="round"/>
<path d="M130.221 207.97L142.534 189.13L131.82 180.037L119.327 198.725L130.221 207.97Z" fill="#92E3A9" stroke="#263238" stroke-linejoin="round"/>
<path d="M99.6809 182.053L116.07 166.672L105.354 157.579L88.7859 172.808L99.6809 182.053Z" fill="#92E3A9" stroke="#263238" stroke-linejoin="round"/>
<path d="M62.6857 219.429L96.1656 236.101C97.5458 234.969 98.8354 233.73 100.023 232.397C100.441 231.784 100.99 231.272 101.631 230.898C102.271 230.524 102.987 230.298 103.726 230.235C105.114 230.081 106.04 230.698 107.738 229.309C109.435 227.919 109.744 228.228 109.126 229.772C108.509 231.316 108.355 231.934 106.966 232.088C106.148 232.174 105.358 232.437 104.652 232.86C104.652 232.86 108.663 235.329 109.589 235.793C110.515 236.256 111.286 237.028 110.978 237.49C110.67 237.953 110.978 238.725 110.052 238.725H108.046C107.155 239.533 106.329 240.411 105.577 241.35C104.343 242.893 103.109 243.665 101.72 243.819C98.9111 243.958 96.0979 243.646 93.3879 242.893C90.1473 241.968 63.299 233.631 59.7505 232.242C56.9257 230.974 54.2373 229.422 51.727 227.61L62.6857 219.429Z" fill="white" stroke="#263238" stroke-linejoin="round"/>
<path d="M41.8548 181.605C41.8548 181.605 37.3805 185.155 37.8435 189.787C38.3064 194.418 46.7929 225.604 46.7929 225.604L62.0709 216.187C62.0709 216.187 57.2871 190.097 54.5103 185.62C51.7334 181.142 48.492 180.371 48.492 180.371" fill="white"/>
<path d="M41.8548 181.605C41.8548 181.605 37.3805 185.155 37.8435 189.787C38.3064 194.418 46.7929 225.604 46.7929 225.604L62.0709 216.187C62.0709 216.187 57.2871 190.097 54.5103 185.62C51.7334 181.142 48.492 180.371 48.492 180.371" stroke="#263238" stroke-linejoin="round"/>
<path d="M62.0709 211.864L44.0153 223.134C44.0153 223.134 45.867 229.618 47.2551 230.699L48.6439 231.779C48.6439 231.779 63.4565 221.59 64.3824 220.201C65.3083 218.811 62.5314 212.636 62.0709 211.864Z" fill="white" stroke="#263238" stroke-linejoin="round"/>
<path d="M91.7944 187.312L91.4978 187.571C91.0335 187.975 90.985 188.68 91.3895 189.144L93.8776 192.002C94.2821 192.466 94.9864 192.515 95.4507 192.11L95.7473 191.851C96.2116 191.447 96.2601 190.742 95.8556 190.278L93.3675 187.42C92.963 186.956 92.2587 186.907 91.7944 187.312Z" fill="white" stroke="#263238" stroke-linejoin="round"/>
<path d="M90.1933 189.807L89.8966 190.065C89.4322 190.47 89.3837 191.175 89.7881 191.639L91.6692 193.8C92.0737 194.264 92.778 194.313 93.2423 193.908L93.539 193.65C94.0033 193.245 94.0519 192.541 93.6474 192.076L91.7663 189.915C91.3619 189.451 90.6576 189.402 90.1933 189.807Z" fill="white" stroke="#263238" stroke-linejoin="round"/>
<path d="M88.1136 191.887L87.8169 192.146C87.3526 192.551 87.3041 193.255 87.7085 193.72L89.5896 195.881C89.9941 196.345 90.6983 196.394 91.1627 195.989L91.4594 195.731C91.9237 195.326 91.9722 194.621 91.5678 194.157L89.6867 191.996C89.2822 191.531 88.578 191.483 88.1136 191.887Z" fill="white" stroke="#263238" stroke-linejoin="round"/>
<path d="M86.0526 193.717L85.7559 193.976C85.2916 194.381 85.243 195.085 85.6475 195.55L87.1131 197.233C87.5175 197.698 88.2218 197.747 88.6861 197.342L88.9828 197.083C89.4472 196.679 89.4957 195.974 89.0913 195.51L87.6256 193.826C87.2212 193.361 86.5169 193.313 86.0526 193.717Z" fill="white" stroke="#263238" stroke-linejoin="round"/>
</g>
<defs>
<clipPath id="clip0_1_2981">
<rect width="355" height="362" fill="white"/>
</clipPath>
</defs>
</svg>
