<svg width="341" height="362" viewBox="0 0 341 362" fill="none" xmlns="http://www.w3.org/2000/svg">
<path d="M9.82001 243.039C11.4323 255.547 16.2031 267.438 23.6822 277.59C31.1613 287.742 41.1021 295.82 52.5668 301.062C101.784 323.356 188.234 358.969 219.133 349.394C263.327 335.699 353.948 83.2577 339.154 37.8676C324.361 -7.52241 20.1324 23.1695 6.52365 60.6063C-3.86715 89.1925 2.07195 184.14 9.82001 243.039Z" fill="#92E3A9"/>
<path opacity="0.7" d="M9.82001 243.039C11.4323 255.547 16.2031 267.438 23.6822 277.59C31.1613 287.742 41.1021 295.82 52.5668 301.062C101.784 323.356 188.234 358.969 219.133 349.394C263.327 335.699 353.948 83.2577 339.154 37.8676C324.361 -7.52241 20.1324 23.1695 6.52365 60.6063C-3.86715 89.1925 2.07195 184.14 9.82001 243.039Z" fill="white"/>
<path d="M300.366 240.248C300.37 240.234 300.37 240.219 300.364 240.206C300.358 240.193 300.347 240.182 300.333 240.177C300.32 240.171 300.305 240.171 300.291 240.176C300.277 240.181 300.266 240.192 300.26 240.205C298.58 244.232 297.252 248.397 296.29 252.653C295.318 256.911 294.587 261.22 294.1 265.561L293.793 268.825C293.745 269.369 293.686 269.912 293.647 270.457L293.558 272.094C293.51 273.186 293.444 274.276 293.413 275.37L293.443 278.649L293.479 280.287C293.503 280.833 293.543 281.378 293.579 281.922C293.66 283.013 293.729 284.105 293.828 285.19C294.037 287.363 294.364 289.525 294.7 291.677C294.702 291.691 294.709 291.703 294.72 291.712C294.73 291.721 294.743 291.726 294.757 291.726C294.765 291.726 294.772 291.724 294.779 291.722C294.786 291.719 294.792 291.714 294.797 291.709C294.803 291.704 294.807 291.697 294.81 291.69C294.812 291.683 294.814 291.676 294.814 291.669C294.808 290.576 294.762 289.486 294.738 288.401C294.713 287.316 294.612 286.233 294.627 285.146C294.642 284.059 294.604 282.976 294.591 281.892L294.562 280.267L294.59 278.641L294.604 275.393L294.692 272.146L294.726 270.522C294.747 269.98 294.788 269.44 294.818 268.899L295.017 265.654C295.387 261.332 296 257.034 296.854 252.781C297.661 248.51 298.836 244.317 300.366 240.248Z" fill="#263238"/>
<path d="M300.831 257.236C300.835 257.222 300.834 257.207 300.827 257.193C300.821 257.18 300.809 257.17 300.795 257.164C300.781 257.16 300.766 257.161 300.752 257.168C300.738 257.174 300.728 257.186 300.723 257.2C298.867 262.62 297.634 268.234 297.047 273.933C296.758 276.776 296.441 279.622 296.4 282.481C296.329 285.341 296.43 288.202 296.703 291.049C296.705 291.063 296.711 291.075 296.72 291.084C296.73 291.093 296.742 291.099 296.755 291.1C296.763 291.101 296.77 291.101 296.777 291.099C296.785 291.096 296.791 291.093 296.797 291.088C296.803 291.083 296.808 291.078 296.812 291.071C296.815 291.064 296.817 291.057 296.818 291.049C297.148 288.203 297.35 285.364 297.545 282.526C297.741 279.688 297.774 276.844 297.959 274.006C298.139 271.174 298.477 268.355 298.972 265.561C299.437 262.754 300.058 259.975 300.831 257.236Z" fill="#263238"/>
<path d="M310.244 263.213C310.24 263.206 310.235 263.2 310.229 263.196C310.222 263.191 310.215 263.188 310.208 263.186C310.2 263.185 310.192 263.185 310.185 263.186C310.177 263.187 310.17 263.19 310.164 263.195C307.81 264.709 305.689 266.558 303.87 268.685C302.955 269.755 302.132 270.9 301.409 272.108L300.903 273.064L300.507 274.056C300.373 274.384 300.258 274.72 300.162 275.061C300.06 275.4 299.946 275.736 299.855 276.077C299.134 278.794 298.698 281.578 298.553 284.385C298.413 287.177 298.518 289.977 298.865 292.751C298.865 292.766 298.871 292.781 298.882 292.792C298.893 292.802 298.908 292.808 298.923 292.808C298.938 292.808 298.953 292.802 298.963 292.792C298.974 292.781 298.98 292.766 298.98 292.751L299.698 284.469C299.895 281.73 300.246 279.004 300.748 276.304C300.823 275.971 300.919 275.646 301.003 275.315C301.081 274.985 301.178 274.659 301.293 274.34L301.629 273.382L302.062 272.479C302.716 271.276 303.471 270.13 304.317 269.053C305.997 266.857 307.988 264.918 310.227 263.297C310.235 263.293 310.241 263.288 310.246 263.281C310.251 263.275 310.254 263.267 310.256 263.259C310.257 263.251 310.257 263.242 310.255 263.234C310.253 263.226 310.249 263.219 310.244 263.213Z" fill="#263238"/>
<path d="M305.688 273.853C304.465 274.746 303.482 275.929 302.827 277.295C302.138 278.638 301.602 280.054 301.226 281.516C301.113 281.877 301.024 282.243 300.946 282.61L300.686 283.711C300.549 284.45 300.456 285.197 300.409 285.948C300.399 286.7 300.377 287.45 300.428 288.199C300.484 288.95 300.582 289.696 300.723 290.436C300.726 290.447 300.731 290.457 300.739 290.465C300.748 290.473 300.758 290.479 300.769 290.481C300.784 290.484 300.8 290.481 300.813 290.473C300.825 290.464 300.834 290.451 300.838 290.436C301.01 289.71 301.143 288.975 301.234 288.234C301.351 287.506 301.464 286.779 301.551 286.051C301.658 285.33 301.753 284.609 301.809 283.882C301.91 283.164 301.963 282.427 302.12 281.721C302.373 280.287 302.785 278.886 303.348 277.543C303.854 276.173 304.677 274.942 305.751 273.952L305.759 273.945C305.77 273.935 305.777 273.922 305.779 273.908C305.781 273.893 305.777 273.879 305.768 273.867C305.76 273.856 305.747 273.848 305.733 273.845C305.719 273.842 305.704 273.845 305.692 273.853H305.688Z" fill="#263238"/>
<path d="M292.488 282.15C292.178 278.472 291.571 274.832 290.999 271.194C290.426 267.556 289.791 263.928 289.126 260.307C288.437 256.69 287.717 253.08 286.937 249.483C286.934 249.468 286.925 249.456 286.913 249.448C286.9 249.439 286.885 249.436 286.871 249.438C286.863 249.44 286.856 249.442 286.85 249.447C286.844 249.451 286.838 249.456 286.834 249.462C286.83 249.468 286.827 249.476 286.825 249.483C286.823 249.49 286.823 249.498 286.825 249.505C287.453 253.129 288.022 256.764 288.559 260.403C289.111 264.04 289.631 267.678 290.094 271.324C290.558 274.971 290.894 278.628 291.35 282.27L292.694 293.215C292.696 293.228 292.703 293.241 292.713 293.25C292.723 293.259 292.736 293.265 292.749 293.266C292.757 293.266 292.764 293.265 292.771 293.262C292.779 293.26 292.785 293.256 292.791 293.251C292.796 293.246 292.801 293.239 292.804 293.233C292.807 293.226 292.809 293.218 292.809 293.211C292.851 292.289 292.853 291.366 292.875 290.441C292.883 289.518 292.837 288.598 292.821 287.674C292.783 285.827 292.626 283.989 292.488 282.15Z" fill="#263238"/>
<path d="M290.284 282.096C290.087 280.641 289.82 279.193 289.542 277.749L289.026 275.603C288.858 274.887 288.697 274.17 288.488 273.463C287.755 270.612 286.816 267.817 285.678 265.102L285.238 264.09L284.748 263.1C284.437 262.434 284.06 261.799 283.703 261.16C282.981 259.873 282.089 258.689 281.051 257.641C281.04 257.632 281.025 257.627 281.011 257.628C280.997 257.629 280.983 257.635 280.973 257.645C280.963 257.655 280.957 257.669 280.956 257.683C280.956 257.697 280.961 257.711 280.97 257.722L280.975 257.728C281.941 258.813 282.756 260.024 283.399 261.327C283.722 261.98 284.056 262.62 284.33 263.298L284.761 264.298L285.143 265.32C286.161 268.045 286.98 270.84 287.592 273.684C287.928 275.098 288.15 276.54 288.424 277.968L288.767 280.123C288.892 280.839 289.045 281.551 289.146 282.272C289.375 283.71 289.64 285.143 289.89 286.582C290.113 288.024 290.376 289.465 290.68 290.905C290.683 290.918 290.69 290.93 290.7 290.938C290.711 290.947 290.723 290.952 290.737 290.952C290.752 290.952 290.767 290.946 290.777 290.935C290.788 290.925 290.795 290.91 290.795 290.895C290.801 289.426 290.767 287.957 290.692 286.489C290.61 285.017 290.436 283.558 290.284 282.096Z" fill="#263238"/>
<path d="M287.242 282.284C286.561 280.355 285.774 278.467 284.916 276.615C284.048 274.768 283.071 272.976 281.988 271.247C281.98 271.234 281.967 271.224 281.952 271.221C281.937 271.218 281.921 271.22 281.908 271.228C281.901 271.232 281.895 271.237 281.89 271.243C281.885 271.249 281.882 271.256 281.88 271.264C281.878 271.272 281.878 271.279 281.879 271.287C281.88 271.295 281.883 271.302 281.887 271.309C282.831 273.102 283.665 274.951 284.386 276.845C285.132 278.725 285.804 280.634 286.367 282.572C286.931 284.511 287.354 286.483 287.869 288.428C288.41 290.368 288.848 292.335 289.446 294.304C289.449 294.316 289.456 294.326 289.466 294.334C289.476 294.342 289.488 294.346 289.501 294.347C289.508 294.347 289.516 294.345 289.523 294.342C289.53 294.34 289.536 294.335 289.542 294.33C289.547 294.325 289.551 294.318 289.554 294.311C289.557 294.304 289.559 294.297 289.559 294.289C289.583 292.236 289.392 290.186 288.988 288.172C288.565 286.166 287.982 284.196 287.242 282.284Z" fill="#263238"/>
<path d="M287.116 288.71C286.742 287.507 286.198 286.364 285.501 285.315C284.849 284.239 284.057 283.254 283.145 282.388C282.68 281.968 282.179 281.589 281.648 281.256C281.125 280.915 280.553 280.656 279.952 280.488C279.938 280.485 279.924 280.487 279.912 280.494C279.9 280.501 279.891 280.512 279.886 280.525C279.882 280.538 279.882 280.553 279.887 280.565C279.892 280.578 279.902 280.589 279.915 280.595H279.921C281.005 281.116 281.966 281.863 282.739 282.785C283.523 283.684 284.184 284.685 284.702 285.76C285.26 286.815 285.548 287.983 286.033 289.074C286.247 289.632 286.46 290.193 286.708 290.75C286.916 291.332 287.163 291.899 287.446 292.448C287.451 292.457 287.458 292.464 287.467 292.47C287.475 292.476 287.485 292.479 287.495 292.479C287.503 292.48 287.511 292.479 287.518 292.476C287.526 292.473 287.532 292.469 287.538 292.464C287.544 292.459 287.548 292.452 287.552 292.445C287.555 292.438 287.557 292.431 287.557 292.423C287.576 291.796 287.553 291.168 287.487 290.544C287.394 289.932 287.264 289.32 287.116 288.71Z" fill="#263238"/>
<path d="M287.344 254.747C285.508 254.234 283.847 253.229 282.541 251.84C281.235 250.451 280.333 248.732 279.932 246.868C278.543 240.38 283.02 243.161 279.006 232.964C274.991 222.768 275.918 220.451 277.309 217.516C278.7 214.581 279.471 215.508 280.702 219.37C281.934 223.233 286.415 229.256 288.113 240.534C289.812 251.812 287.344 254.747 287.344 254.747Z" fill="#92E3A9"/>
<path d="M299.233 243.778C299.233 243.778 295.218 242.388 295.064 234.819C294.91 227.249 297.998 228.793 298.457 219.37C298.917 209.948 299.538 203.304 301.237 203.149C302.935 202.995 307.413 207.784 308.957 218.289C310.501 228.794 306.95 235.749 303.862 238.835C300.773 241.92 299.233 243.778 299.233 243.778Z" fill="#92E3A9"/>
<path d="M285.182 263.861C285.182 263.861 284.256 258.299 282.403 255.674C280.55 253.048 276.536 250.73 273.911 245.632C271.286 240.534 268.352 238.063 268.507 245.323C268.661 252.584 271.9 256.291 275.918 258.763C279.936 261.235 285.182 263.861 285.182 263.861Z" fill="#92E3A9"/>
<path d="M283.484 273.439C281.033 268.918 277.967 264.758 274.374 261.08C268.97 255.826 264.646 253.202 266.19 255.826C267.734 258.45 269.584 258.297 272.212 262.932C274.84 267.567 274.065 270.965 277.771 273.591C281.477 276.216 283.484 273.439 283.484 273.439Z" fill="#92E3A9"/>
<path d="M283.02 282.554C282.866 282.091 282.712 278.691 277.462 275.911C272.212 273.13 267.271 274.213 267.889 275.602C268.506 276.991 271.749 279.31 274.991 280.699C277.579 281.654 280.276 282.277 283.02 282.554Z" fill="#92E3A9"/>
<path d="M298.924 264.17C298.924 264.17 296.608 261.234 297.843 255.056C299.079 248.877 301.858 250.421 304.946 247.177C308.034 243.932 307.417 243.47 310.504 240.07C313.592 236.671 316.372 234.816 317.607 236.209C318.842 237.602 316.99 241.925 315.136 244.396C313.283 246.867 310.35 248.104 308.96 251.193C307.571 254.283 308.188 259.227 304.637 261.54C301.086 263.854 298.924 264.17 298.924 264.17Z" fill="#92E3A9"/>
<path d="M306.644 265.87C306.644 265.87 312.203 259.535 316.217 254.901C320.232 250.267 321.776 246.713 321.93 249.803C322.085 252.892 323.32 255.364 320.078 259.381C316.835 263.398 306.644 265.87 306.644 265.87Z" fill="#92E3A9"/>
<path d="M303.711 276.065C303.711 276.065 303.556 273.593 312.355 267.877C321.155 262.162 324.862 261.08 323.936 263.398C323.01 265.715 319.149 268.032 314.98 272.203C310.811 276.374 303.711 276.065 303.711 276.065Z" fill="#92E3A9"/>
<path d="M287.711 254.089C287.711 254.089 285.645 243.006 283.484 235.127C281.323 227.249 279.929 222.46 279.929 222.46" stroke="#263238" stroke-linecap="round" stroke-linejoin="round"/>
<path d="M298.878 243.895C298.878 243.895 302.63 231.883 303.865 224.622C305.1 217.362 303.711 211.955 303.093 208.711" stroke="#263238" stroke-linecap="round" stroke-linejoin="round"/>
<path d="M284.695 263.63C283.033 260.769 281.129 258.056 279.006 255.519C275.612 251.502 272.984 249.34 271.44 245.477" stroke="#263238" stroke-linecap="round" stroke-linejoin="round"/>
<path d="M298.924 264.17C298.924 264.17 300.16 256.755 303.093 252.892C306.027 249.03 311.894 243.006 314.21 239.144" stroke="#263238" stroke-linecap="round" stroke-linejoin="round"/>
<path d="M282.658 282.385C282.658 282.385 277.462 279 273.757 277.147" stroke="#263238" stroke-linecap="round" stroke-linejoin="round"/>
<path d="M312.407 313.526C312.061 304.149 301.65 297.902 301.65 297.902H285.694C285.694 297.902 275.284 304.149 274.937 313.526C274.59 322.903 286.733 357.273 286.733 357.273H300.606C300.606 357.273 312.755 322.897 312.407 313.526Z" fill="#263238" stroke="#263238" stroke-linecap="round" stroke-linejoin="round"/>
<path d="M303.704 288.682H283.344L285.693 297.897H301.354L303.704 288.682Z" fill="#263238" stroke="#263238" stroke-linecap="round" stroke-linejoin="round"/>
<g opacity="0.3">
<path d="M230.66 319.104L243.102 320.531L245.898 308.276L234.436 304.288C234.327 301.324 233.727 298.399 232.659 295.633L241.188 287.131L233.351 277.303L223.397 283.588C220.914 281.778 218.138 280.41 215.19 279.543L213.891 267.805H201.334L200.034 279.543C197.128 280.398 194.388 281.742 191.931 283.516L181.778 277.105L173.945 286.932L182.598 295.557C181.553 298.233 180.946 301.059 180.8 303.929L169.02 308.027L171.815 320.282L184.419 318.837C185.786 321.183 187.5 323.308 189.502 325.142L185.228 337.287L196.548 342.742L203.366 331.838C206.012 332.263 208.706 332.287 211.358 331.911L218.2 342.852L229.52 337.398L225.33 325.491C227.426 323.65 229.224 321.496 230.66 319.104ZM190.598 305.314C190.597 301.946 191.594 298.654 193.464 295.853C195.333 293.053 197.991 290.87 201.101 289.58C204.21 288.291 207.632 287.953 210.934 288.61C214.235 289.266 217.268 290.888 219.649 293.269C222.029 295.65 223.65 298.684 224.307 301.987C224.964 305.29 224.627 308.714 223.339 311.826C222.051 314.937 219.869 317.597 217.071 319.468C214.272 321.339 210.981 322.337 207.615 322.337C203.102 322.337 198.773 320.543 195.582 317.35C192.391 314.157 190.598 309.826 190.598 305.31V305.314Z" stroke="black" stroke-miterlimit="10"/>
<path d="M157.917 298.982L166.589 299.976L168.537 291.437L160.552 288.659C160.476 286.594 160.057 284.556 159.312 282.628L165.255 276.705L159.797 269.857L152.861 274.237C151.131 272.975 149.197 272.021 147.143 271.417L146.238 263.239H137.484L136.58 271.417C134.554 272.013 132.645 272.949 130.934 274.186L123.859 269.72L118.401 276.567L124.431 282.576C123.702 284.441 123.279 286.41 123.178 288.409L114.97 291.265L116.918 299.804L125.699 298.797C126.652 300.431 127.847 301.912 129.242 303.19L126.264 311.652L134.151 315.452L138.901 307.853C140.745 308.149 142.622 308.166 144.47 307.903L149.237 315.527L157.124 311.728L154.205 303.432C155.665 302.149 156.917 300.648 157.917 298.982ZM130.005 289.374C130.005 287.027 130.701 284.734 132.004 282.783C133.307 280.833 135.159 279.313 137.326 278.415C139.493 277.518 141.877 277.283 144.176 277.741C146.476 278.199 148.589 279.329 150.247 280.988C151.905 282.648 153.034 284.761 153.491 287.063C153.949 289.364 153.714 291.749 152.816 293.917C151.919 296.084 150.399 297.937 148.449 299.24C146.499 300.544 144.207 301.239 141.862 301.239C140.304 301.239 138.762 300.933 137.324 300.336C135.885 299.74 134.577 298.866 133.476 297.764C132.375 296.662 131.502 295.354 130.906 293.914C130.311 292.475 130.004 290.932 130.005 289.374Z" stroke="black" stroke-miterlimit="10"/>
</g>
<g opacity="0.3">
<path d="M195.748 243.378C204.834 234.286 204.834 219.546 195.748 210.455C186.661 201.363 171.928 201.363 162.841 210.455C153.754 219.546 153.754 234.286 162.841 243.378C171.928 252.469 186.661 252.469 195.748 243.378Z" stroke="black" stroke-linecap="round" stroke-linejoin="round"/>
<path d="M179.564 243.537V240.426C177.268 240.337 175.552 239.601 174.416 238.219C173.279 236.836 172.666 234.773 172.577 232.03L177.29 231.228C177.312 232.168 177.43 233.104 177.642 234.021C177.767 234.646 178.062 235.224 178.494 235.692C178.69 235.878 178.921 236.023 179.174 236.118C179.427 236.213 179.696 236.256 179.965 236.245C180.241 236.276 180.52 236.23 180.771 236.112C181.022 235.994 181.235 235.808 181.387 235.576C181.648 235.107 181.78 234.577 181.77 234.04C181.806 233.029 181.532 232.031 180.985 231.18C180.372 230.314 179.647 229.532 178.829 228.855L175.987 226.413C175.367 225.84 174.786 225.225 174.248 224.574C173.726 223.933 173.314 223.209 173.029 222.432C172.709 221.519 172.556 220.557 172.577 219.589C172.523 218.694 172.655 217.796 172.962 216.953C173.27 216.111 173.748 215.34 174.366 214.689C175.673 213.469 177.376 212.762 179.162 212.699V209.722H180.764V212.699C181.803 212.719 182.821 213.001 183.722 213.519C184.453 213.959 185.058 214.581 185.477 215.325C185.885 216.068 186.178 216.869 186.346 217.7C186.52 218.521 186.631 219.354 186.681 220.192L181.9 220.894C181.886 220.16 181.819 219.427 181.7 218.703C181.628 218.164 181.421 217.652 181.098 217.215C180.932 217.029 180.724 216.887 180.491 216.8C180.258 216.712 180.008 216.682 179.761 216.713C179.482 216.709 179.206 216.774 178.958 216.903C178.71 217.031 178.498 217.219 178.34 217.449C178.019 217.91 177.85 218.459 177.855 219.021C177.811 219.906 178.071 220.779 178.591 221.496C179.1 222.141 179.658 222.745 180.262 223.302L183.037 225.711C183.773 226.381 184.455 227.107 185.076 227.885C185.703 228.67 186.21 229.544 186.581 230.478C186.975 231.519 187.167 232.626 187.146 233.739C187.161 234.856 186.914 235.961 186.426 236.966C185.958 237.923 185.243 238.738 184.355 239.325C183.398 239.945 182.299 240.313 181.162 240.395V243.539L179.564 243.537Z" stroke="black" stroke-linecap="round" stroke-linejoin="round"/>
</g>
<g opacity="0.3">
<path d="M283.875 195.214C291.964 193.284 296.959 185.158 295.03 177.064C293.101 168.971 284.979 163.974 276.89 165.904C268.8 167.833 263.806 175.959 265.734 184.053C267.663 192.147 275.785 197.144 283.875 195.214Z" stroke="black" stroke-width="1.00028" stroke-linecap="round" stroke-linejoin="round"/>
<path d="M280.543 191.314V189.303C279.917 189.322 279.295 189.204 278.72 188.957C278.144 188.711 277.63 188.341 277.212 187.874C276.389 186.705 275.971 185.299 276.022 183.87L279.072 183.352C279.086 183.96 279.162 184.565 279.299 185.158C279.38 185.562 279.571 185.937 279.851 186.24C279.977 186.36 280.127 186.454 280.29 186.515C280.454 186.577 280.628 186.605 280.802 186.598C280.981 186.618 281.161 186.588 281.323 186.511C281.486 186.435 281.624 186.315 281.722 186.165C281.892 185.861 281.978 185.517 281.971 185.169C281.994 184.515 281.816 183.87 281.463 183.319C281.066 182.758 280.596 182.253 280.067 181.815L278.228 180.235C277.828 179.864 277.452 179.466 277.104 179.045C276.766 178.63 276.499 178.162 276.314 177.66C276.108 177.069 276.009 176.446 276.022 175.82C275.987 175.241 276.072 174.66 276.272 174.115C276.471 173.569 276.78 173.071 277.18 172.65C278.025 171.86 279.127 171.403 280.283 171.362V169.437H281.322V171.362C281.994 171.376 282.652 171.558 283.236 171.892C283.707 172.178 284.097 172.581 284.367 173.061C284.632 173.542 284.823 174.06 284.933 174.597C285.045 175.128 285.117 175.667 285.149 176.209L282.056 176.663C282.047 176.188 282.004 175.715 281.926 175.246C281.88 174.897 281.746 174.566 281.537 174.283C281.429 174.163 281.295 174.071 281.144 174.015C280.994 173.959 280.832 173.94 280.672 173.959C280.492 173.957 280.313 173.999 280.153 174.082C279.992 174.165 279.855 174.286 279.752 174.435C279.545 174.734 279.435 175.089 279.439 175.452C279.41 176.025 279.578 176.59 279.915 177.054C280.244 177.471 280.606 177.862 280.996 178.223L282.792 179.781C283.268 180.214 283.709 180.684 284.111 181.187C284.516 181.695 284.844 182.261 285.084 182.865C285.34 183.538 285.465 184.254 285.452 184.975C285.462 185.697 285.302 186.412 284.987 187.063C284.684 187.682 284.221 188.208 283.646 188.589C283.027 188.99 282.316 189.228 281.581 189.281V191.314H280.543Z" stroke="black" stroke-linecap="round" stroke-linejoin="round"/>
</g>
<g opacity="0.3">
<path d="M323.818 48.3421H305.596V30.6976C301.99 30.6976 298.464 31.7675 295.466 33.7721C292.467 35.7768 290.13 38.626 288.75 41.9596C287.37 45.2931 287.009 48.9613 287.712 52.5002C288.416 56.0391 290.153 59.2897 292.703 61.8411C295.253 64.3925 298.502 66.1301 302.039 66.834C305.576 67.5379 309.242 67.1766 312.574 65.7958C315.906 64.415 318.754 62.0767 320.757 59.0766C322.761 56.0765 323.83 52.5493 323.83 48.9411C323.83 48.743 323.825 48.5401 323.818 48.3421Z" stroke="black" stroke-miterlimit="10"/>
<path d="M325.612 46.5484H307.39V28.9031C312.122 28.9031 316.669 30.744 320.069 34.0368C323.47 37.3296 325.457 41.8162 325.612 46.5484Z" stroke="black" stroke-miterlimit="10"/>
</g>
<g opacity="0.3">
<path d="M57.1421 38.6509H43.7079V80.1448H57.1421V38.6509Z" stroke="black" stroke-linecap="round" stroke-linejoin="round"/>
<path d="M75.2503 53.2617H61.816V80.1448H75.2503V53.2617Z" stroke="black" stroke-linecap="round" stroke-linejoin="round"/>
<path d="M93.3576 62.9044H79.9233V80.1447H93.3576V62.9044Z" stroke="black" stroke-linecap="round" stroke-linejoin="round"/>
<path d="M91.0155 60.1755L88.5634 48.0075L86.0313 50.2417L72.5292 34.9196C72.1626 34.5035 71.6819 34.2045 71.1468 34.0595L46.101 27.2735L44.6224 32.7355L68.8458 39.2992L81.7921 53.9836L79.2601 56.2178L91.0155 60.1755Z" stroke="black" stroke-miterlimit="10"/>
</g>
<path d="M237.734 0H176.762C172.307 0 168.696 3.61292 168.696 8.06968V67.904C168.696 72.3608 172.307 75.9737 176.762 75.9737H237.734C242.189 75.9737 245.8 72.3608 245.8 67.904V8.06968C245.8 3.61292 242.189 0 237.734 0Z" fill="#263238"/>
<path d="M317.753 154.08H96.7437C96.9016 124.861 108.614 96.8923 129.32 76.2869C150.027 55.6816 178.044 44.115 207.248 44.115C236.453 44.115 264.47 55.6816 285.177 76.2869C305.883 96.8923 317.595 124.861 317.753 154.08Z" fill="#92E3A9" stroke="#263238" stroke-linejoin="round"/>
<path d="M312.251 154.08H102.246C102.4 126.318 113.53 99.7459 133.205 80.1697C152.881 60.5934 179.5 49.6047 207.248 49.6047C234.996 49.6047 261.616 60.5934 281.292 80.1697C300.967 99.7459 312.097 126.318 312.251 154.08Z" fill="white" stroke="#263238" stroke-linejoin="round"/>
<path d="M267.977 68.9217L207.656 154.081L207.252 154.646L206.849 154.081L146.528 68.9298C164.279 56.3465 185.497 49.5875 207.251 49.5861C229.006 49.5846 250.224 56.3408 267.977 68.9217Z" fill="white" stroke="#263238" stroke-linejoin="round"/>
<path d="M248.635 154.08H165.862C166.014 143.198 170.441 132.814 178.186 125.172C185.931 117.531 196.371 113.247 207.248 113.247C218.126 113.247 228.566 117.531 236.311 125.172C244.056 132.814 248.483 143.198 248.635 154.08Z" fill="white" stroke="#263238" stroke-linejoin="round"/>
<path d="M238.646 181.322C238.228 181.806 237.719 182.204 237.147 182.491C236.575 182.778 235.952 182.949 235.313 182.994C234.675 183.039 234.034 182.957 233.428 182.753C232.821 182.55 232.261 182.228 231.779 181.807L147.618 107.156L151.836 102.256L238.11 174.456C238.597 174.87 238.998 175.377 239.289 175.947C239.58 176.517 239.756 177.139 239.806 177.777C239.855 178.415 239.779 179.057 239.58 179.665C239.381 180.274 239.063 180.836 238.646 181.322Z" fill="#263238"/>
<path d="M207.249 178.142C220.22 178.142 230.734 167.623 230.734 154.646C230.734 141.669 220.22 131.149 207.249 131.149C194.279 131.149 183.764 141.669 183.764 154.646C183.764 167.623 194.279 178.142 207.249 178.142Z" fill="white" stroke="#263238" stroke-linejoin="round"/>
<path d="M207.248 167.458C214.321 167.458 220.055 161.721 220.055 154.645C220.055 147.568 214.321 141.832 207.248 141.832C200.176 141.832 194.442 147.568 194.442 154.645C194.442 161.721 200.176 167.458 207.248 167.458Z" fill="#263238" stroke="#263238" stroke-linejoin="round"/>
<g opacity="0.28">
<path d="M123.998 130.643V115.563H126.752V128.739H130.398V130.638L123.998 130.643Z" fill="black"/>
<path d="M135.738 130.847C134.85 130.891 133.967 130.685 133.189 130.252C132.555 129.853 132.076 129.248 131.831 128.539C131.541 127.689 131.402 126.794 131.422 125.896V120.251C131.401 119.362 131.54 118.477 131.831 117.636C132.079 116.941 132.559 116.353 133.189 115.97C133.991 115.59 134.866 115.393 135.753 115.393C136.639 115.393 137.515 115.59 138.316 115.97C138.943 116.357 139.422 116.944 139.674 117.636C139.972 118.475 140.113 119.362 140.092 120.251V125.91C140.111 126.8 139.97 127.686 139.674 128.526C139.422 129.23 138.944 129.832 138.316 130.239C137.532 130.682 136.638 130.893 135.738 130.847ZM135.738 128.818C136.102 128.849 136.463 128.742 136.752 128.52C136.981 128.301 137.135 128.014 137.19 127.701C137.267 127.329 137.304 126.95 137.301 126.569V119.625C137.305 119.245 137.268 118.865 137.19 118.493C137.133 118.19 136.979 117.912 136.752 117.703C136.46 117.487 136.1 117.384 135.738 117.414C135.386 117.389 135.036 117.491 134.753 117.703C134.521 117.91 134.364 118.188 134.306 118.493C134.228 118.865 134.191 119.245 134.195 119.625V126.569C134.192 126.949 134.226 127.328 134.296 127.701C134.346 128.015 134.5 128.304 134.733 128.52C135.02 128.74 135.378 128.847 135.738 128.82V128.818Z" fill="black"/>
<path d="M143.701 130.643L141.562 115.563H143.869L145.116 125.337L146.679 115.6H148.558L150.158 125.337L151.386 115.563H153.656L151.555 130.642H149.322L147.647 120.534L145.99 130.643H143.701Z" fill="black"/>
</g>
<g opacity="0.28">
<path d="M258.088 130.643V115.563H260.823V121.874H263.893V115.563H266.647V130.642H263.893V123.828H260.822V130.642L258.088 130.643Z" fill="black"/>
<path d="M269.029 130.643V115.563H271.745V130.642L269.029 130.643Z" fill="black"/>
<path d="M277.848 130.847C277.013 130.892 276.186 130.67 275.485 130.214C274.883 129.767 274.442 129.137 274.228 128.418C273.958 127.528 273.83 126.6 273.848 125.67V120.606C273.829 119.662 273.954 118.72 274.219 117.813C274.433 117.079 274.897 116.444 275.532 116.017C276.317 115.561 277.22 115.344 278.127 115.394C278.977 115.354 279.823 115.533 280.584 115.915C281.179 116.249 281.642 116.778 281.895 117.413C282.18 118.171 282.316 118.978 282.295 119.787V120.569H279.671V119.712C279.677 119.294 279.643 118.877 279.569 118.465C279.525 118.163 279.381 117.885 279.16 117.674C278.871 117.469 278.518 117.373 278.165 117.404C277.975 117.387 277.783 117.41 277.602 117.47C277.421 117.531 277.255 117.629 277.114 117.758C276.885 118.018 276.742 118.344 276.705 118.689C276.647 119.108 276.62 119.531 276.624 119.955V126.266C276.617 126.722 276.661 127.178 276.755 127.624C276.816 127.964 276.986 128.275 277.239 128.509C277.526 128.73 277.883 128.839 278.244 128.816C278.615 128.841 278.983 128.721 279.267 128.481C279.52 128.226 279.692 127.902 279.76 127.55C279.861 127.085 279.908 126.611 279.9 126.135V124.72H278.284V122.992H282.379V130.643H280.61L280.406 129.154C280.219 129.633 279.908 130.054 279.503 130.373C279.021 130.715 278.438 130.882 277.848 130.847Z" fill="black"/>
<path d="M284.508 130.643V115.563H287.244V121.874H290.314V115.563H293.066V130.642H290.313V123.828H287.243V130.642L284.508 130.643Z" fill="black"/>
</g>
<path d="M182.525 32.9197V9.25065H188.19C189.561 9.21725 190.928 9.40979 192.236 9.82054C193.275 10.1529 194.164 10.8395 194.748 11.7606C195.378 12.9028 195.676 14.1981 195.61 15.5008C195.619 16.365 195.531 17.2276 195.347 18.0721C195.198 18.7765 194.894 19.4391 194.458 20.0121C194.002 20.5756 193.402 21.0049 192.721 21.2545L196.022 32.9133H191.695L188.834 22.0726H186.847V32.9197H182.525ZM186.847 19.3614H188.19C188.876 19.3912 189.56 19.2663 190.191 18.996C190.683 18.7576 191.065 18.3392 191.258 17.8272C191.493 17.1665 191.603 16.4677 191.581 15.7667C191.648 14.8289 191.418 13.8937 190.925 13.0935C190.487 12.5007 189.654 12.2043 188.427 12.2043H186.847V19.3614Z" fill="#92E3A9"/>
<path d="M198.968 32.9197V9.25067H203.232V32.9197H198.968Z" fill="#92E3A9"/>
<path d="M212.838 33.2407C211.598 33.285 210.368 32.9976 209.276 32.4081C208.314 31.8456 207.557 30.991 207.114 29.9685C206.589 28.719 206.311 27.3793 206.297 26.0238L210.006 25.2963C210.031 26.1143 210.144 26.9273 210.342 27.7213C210.476 28.327 210.768 28.8863 211.189 29.342C211.387 29.5345 211.623 29.6844 211.882 29.7824C212.14 29.8804 212.416 29.9245 212.692 29.9119C212.973 29.9405 213.257 29.898 213.517 29.7883C213.778 29.6785 214.006 29.5051 214.182 29.2838C214.489 28.8112 214.642 28.2548 214.62 27.6914C214.658 26.7918 214.413 25.903 213.92 25.15C213.382 24.4121 212.753 23.7443 212.05 23.1623L209.071 20.5327C208.268 19.853 207.591 19.037 207.071 18.1222C206.544 17.1087 206.287 15.9764 206.326 14.8347C206.275 14.0388 206.395 13.2413 206.677 12.4954C206.96 11.7495 207.397 11.0724 207.962 10.5093C209.199 9.44385 210.8 8.89944 212.43 8.9904C213.381 8.95992 214.327 9.13414 215.205 9.50127C215.907 9.81228 216.516 10.3009 216.971 10.9191C217.418 11.5414 217.749 12.239 217.949 12.9788C218.169 13.7761 218.306 14.5938 218.359 15.4191L214.678 16.0618C214.649 15.394 214.566 14.7296 214.431 14.0749C214.34 13.5628 214.107 13.0866 213.759 12.7007C213.569 12.5252 213.346 12.3906 213.102 12.3051C212.859 12.2196 212.6 12.185 212.342 12.2036C212.065 12.1865 211.787 12.2343 211.531 12.3433C211.275 12.4523 211.047 12.6195 210.867 12.8316C210.518 13.2766 210.337 13.8305 210.357 14.3958C210.328 15.0871 210.501 15.7718 210.853 16.3673C211.253 16.9623 211.735 17.4985 212.283 17.9606L215.234 20.561C216.212 21.3842 217.054 22.3555 217.731 23.4395C218.45 24.643 218.809 26.0268 218.768 27.4279C218.787 28.4793 218.53 29.5173 218.023 30.4382C217.536 31.3042 216.818 32.0175 215.949 32.4978C214.994 33.0109 213.922 33.2669 212.838 33.2407Z" fill="#92E3A9"/>
<path d="M221.079 32.9198V9.25067H225.402V19.6532L230.075 9.25067H234.195L229.671 19.8286L234.666 32.9198H230.371L226.4 22.1373L225.407 23.9488V32.9214L221.079 32.9198Z" fill="#92E3A9"/>
<g opacity="0.28">
<path d="M179.62 81.7081L179.88 66.6293H182.727L184.866 77.0731L187.099 66.6293H189.853L190.132 81.7081H188.085L187.862 71.2279L185.723 81.7081H184.066L181.885 71.1908L181.681 81.7081H179.62Z" fill="black"/>
<path d="M192.253 81.7081V66.6293H198.579V68.5693H195.007V72.9069H197.816V74.8226H195.007V79.8117H198.619V81.7105L192.253 81.7081Z" fill="black"/>
<path d="M200.216 81.7081V66.6293H203.771C204.755 66.5837 205.736 66.7553 206.646 67.132C207.312 67.4449 207.837 67.9972 208.115 68.6792C208.432 69.5234 208.581 70.4218 208.552 71.3233V76.8338C208.579 77.7621 208.431 78.6872 208.115 79.5603C207.845 80.2598 207.327 80.8354 206.66 81.177C205.788 81.5711 204.835 81.7528 203.879 81.7073L200.216 81.7081ZM202.97 79.7907H203.807C204.285 79.833 204.763 79.7152 205.166 79.456C205.452 79.2069 205.632 78.857 205.668 78.4787C205.736 77.9569 205.767 77.431 205.761 76.9049V71.1342C205.772 70.6407 205.729 70.1476 205.631 69.6638C205.6 69.4981 205.537 69.3402 205.444 69.1995C205.351 69.0589 205.231 68.9383 205.091 68.8449C204.682 68.6412 204.226 68.5513 203.77 68.5846H202.97V79.7907Z" fill="black"/>
<path d="M210.657 81.7081V66.6293H213.373V81.7081H210.657Z" fill="black"/>
<path d="M219.827 81.9134C218.918 81.9651 218.013 81.7517 217.223 81.2991C216.601 80.887 216.145 80.2666 215.939 79.549C215.686 78.6658 215.567 77.7498 215.585 76.8314V66.6293H218.265V77.1474C218.263 77.5929 218.294 78.0379 218.357 78.4788C218.4 78.8498 218.552 79.1997 218.795 79.4835C219.086 79.7297 219.455 79.8648 219.837 79.8648C220.218 79.8648 220.588 79.7297 220.879 79.4835C221.111 79.1943 221.259 78.8467 221.307 78.4788C221.377 78.0384 221.411 77.5932 221.409 77.1474V66.6293H224.069V76.8314C224.087 77.7498 223.968 78.6658 223.716 79.549C223.511 80.2647 223.059 80.8846 222.441 81.2991C221.648 81.7538 220.74 81.9673 219.827 81.9134Z" fill="black"/>
<path d="M226.19 81.7081L226.451 66.6293H229.298L231.438 77.0731L233.67 66.6293H236.424L236.703 81.7081H234.657L234.434 71.2279L232.293 81.7081H230.637L228.461 71.1908L228.256 81.7081H226.19Z" fill="black"/>
</g>
<path d="M102.619 162.956C106.827 157.763 110.593 160.817 114.802 155.623C119.01 150.429 115.246 147.373 119.456 142.178C123.666 136.983 127.432 140.036 131.642 134.84C135.852 129.644 132.087 126.589 136.298 121.392C140.508 116.195 144.274 119.25 148.484 114.053" stroke="#92E3A9" stroke-linecap="round" stroke-linejoin="round"/>
<path d="M111.421 170.095C115.63 164.902 119.395 167.956 123.603 162.762C127.812 157.569 124.048 154.512 128.258 149.316C132.468 144.12 136.234 147.175 140.444 141.979C144.654 136.783 140.889 133.728 145.1 128.531C149.311 123.334 153.076 126.389 157.287 121.192" stroke="#92E3A9" stroke-linecap="round" stroke-linejoin="round"/>
<path d="M120.223 177.235C124.431 172.041 128.197 175.095 132.406 169.901C136.614 164.708 132.85 161.652 137.059 156.456C141.269 151.259 145.035 154.314 149.245 149.118C153.456 143.922 149.691 140.867 153.902 135.671C158.112 130.474 161.878 133.528 166.088 128.332" stroke="#92E3A9" stroke-linecap="round" stroke-linejoin="round"/>
<path d="M129.025 184.374C133.233 179.18 136.999 182.234 141.207 177.041C145.416 171.847 141.652 168.791 145.862 163.595C150.072 158.399 153.838 161.453 158.048 156.257C162.258 151.061 158.493 148.007 162.703 142.81C166.913 137.613 170.68 140.667 174.891 135.471" stroke="#92E3A9" stroke-linecap="round" stroke-linejoin="round"/>
<path d="M4.93848 338.763C4.93848 338.763 4.01259 352.505 5.0928 355.282C6.173 358.059 10.0301 362.383 12.3448 361.457C14.6595 360.53 14.0414 355.128 14.0414 351.422C14.0414 347.717 14.9673 342.16 14.9673 341.237C14.9673 340.314 4.93848 338.763 4.93848 338.763Z" fill="white" stroke="#263238" stroke-linejoin="round"/>
<path d="M76.0703 348.026C76.0703 348.026 75.7617 357.443 77.4592 358.061C79.1566 358.679 88.8777 357.598 90.5751 357.907C92.2726 358.215 97.6728 358.524 99.6789 357.907C101.685 357.289 104.308 356.209 103.536 354.664C102.764 353.12 92.889 348.953 90.7294 347.563C88.5698 346.174 84.7112 343.549 84.7112 343.549L76.0703 348.026Z" fill="white" stroke="#263238" stroke-linejoin="round"/>
<path d="M25.3064 233.477C25.3064 233.477 24.5349 238.881 24.2262 248.298C23.9176 257.715 27.1574 277.317 27.1574 277.317L23.146 300.166L7.71453 335.364C7.71453 335.364 4.01098 336.29 4.93687 338.759C5.86276 341.227 9.10337 343.851 10.9543 343.851C12.8053 343.851 15.2751 343.079 16.0443 341.845C16.8134 340.611 17.1245 337.522 17.1245 337.522C17.1245 337.522 43.972 301.706 44.4326 300.471C44.8931 299.235 49.2163 280.248 49.2163 280.248L60.3254 295.222L75.7569 341.378C75.4263 341.872 75.2128 342.434 75.1325 343.022C75.0523 343.611 75.1075 344.21 75.2939 344.773C75.9112 346.781 76.9906 349.56 76.9906 349.56C78.4186 349.466 79.8239 349.154 81.1571 348.633C83.0685 347.842 84.8398 346.747 86.403 345.391C86.7853 344.518 86.893 343.549 86.7116 342.613C86.403 341.069 85.4771 340.451 85.6314 339.218C85.7857 337.984 80.2312 293.984 79.3053 291.052C78.3794 288.119 57.0872 243.966 57.0872 243.966L55.544 232.697C45.7834 236.054 35.227 236.326 25.3064 233.477Z" fill="#263238" stroke="#263238" stroke-linejoin="round"/>
<path d="M46.9113 137.346C46.9113 137.346 40.8227 134.971 35.8855 136.233C30.9482 137.495 23.2979 144.259 23.857 148.233C24.4161 152.207 33.4593 160.9 33.4593 160.9L33.1127 168.841L48.8924 175.656L51.1392 165.51C51.1392 165.51 56.9353 164.028 56.7139 163.166C56.4926 162.303 55.1635 154.41 55.1635 154.41C55.41 154.246 55.6211 154.034 55.7841 153.787C55.9471 153.54 56.0588 153.262 56.1125 152.971C56.1662 152.68 56.1607 152.381 56.0965 152.092C56.0323 151.803 55.9107 151.53 55.7388 151.289C54.6092 149.596 53.3536 147.992 51.9827 146.489C51.9827 146.489 52.7777 143.203 46.9113 137.346Z" fill="white" stroke="#263238" stroke-linecap="round" stroke-linejoin="round"/>
<path d="M51.1392 165.51C51.1392 165.51 47.4284 165.529 46.8192 165.407C45.3152 164.714 43.8497 163.94 42.4289 163.089L49.2576 172.972L51.1392 165.51Z" fill="#263238" stroke="#263238" stroke-linecap="round" stroke-linejoin="round"/>
<path d="M51.0649 148.521C51.4535 149.129 51.5658 149.753 51.3145 149.913C51.0633 150.073 50.5462 149.71 50.1576 149.104C49.769 148.499 49.6567 147.872 49.9079 147.712C50.1592 147.551 50.6763 147.912 51.0649 148.521Z" fill="#263238"/>
<path d="M50.5615 145.673C50.1173 145.573 49.652 145.637 49.2511 145.853C48.8503 146.069 48.541 146.423 48.3801 146.849" stroke="#263238" stroke-linecap="round" stroke-linejoin="round"/>
<path d="M54.2764 156.759C53.2307 157.02 52.1247 156.861 51.1942 156.317" stroke="#263238" stroke-linecap="round" stroke-linejoin="round"/>
<path d="M47.9584 138.745L41.5046 142.118C41.5046 142.118 43.9858 143.772 43.4558 145.28L42.9266 146.789L43.0647 152.702L41.4028 153.356C41.4028 153.356 36.3864 149.834 35.168 153.12C33.9497 156.407 38.2066 158.75 38.2066 158.75C38.2066 158.75 36.4534 162.63 34.8457 163.499C33.2379 164.368 34.1371 161.621 30.9627 160.831C27.7884 160.041 21.7935 154.481 21.6715 151.309C21.5495 148.137 23.1218 140.871 28.4783 137.67C33.8349 134.47 37.5401 133.752 40.5505 133.897C43.5608 134.043 46.5405 132.31 47.5189 134.347C48.1007 135.736 48.2538 137.268 47.9584 138.745Z" fill="#263238" stroke="#263238" stroke-linecap="round" stroke-linejoin="round"/>
<path d="M31.9428 168.792C28.1818 174.119 25.4115 180.081 23.7649 186.392C21.4502 196.118 20.9872 207.696 22.9933 213.562C24.9994 219.429 24.69 229.772 24.69 229.772C24.69 229.772 23.1468 232.706 24.8443 234.558C26.5418 236.409 37.3422 239.807 46.7546 238.417C56.167 237.028 56.4756 234.712 56.9385 233.169C57.4015 231.626 57.2472 210.629 55.2419 201.212C53.7061 193.865 51.8007 186.6 49.533 179.445C48.1426 175.277 31.9428 168.792 31.9428 168.792Z" fill="white" stroke="#263238" stroke-linejoin="round"/>
<path d="M32.144 163.613L51.691 176.512L51.3824 183.459L30.0894 169.101L32.144 163.613Z" fill="white" stroke="#263238" stroke-linejoin="round"/>
<path d="M132.595 191.001L122.31 182.102L118.819 180.037L97.1662 218.872C90.4531 226.794 79.7593 228.756 73.2822 223.259C66.805 217.763 66.9957 206.886 73.7096 198.967L106.127 168.543L96.553 160.103L92.3518 157.578L59.2185 192.721C54.0012 198.888 51.4445 206.876 52.1099 214.928C52.7754 222.981 56.6087 230.439 62.7675 235.666C68.9264 240.892 76.907 243.458 84.956 242.801C93.005 242.143 100.464 238.316 105.694 232.159L132.595 191.001Z" fill="#263238" stroke="#263238" stroke-linejoin="round"/>
<path d="M122.31 182.102L118.819 180.037L107.669 200.035L117.22 207.97L120.153 210.034L132.595 191.001L122.31 182.102Z" fill="#263238" stroke="#263238" stroke-linecap="round" stroke-linejoin="round"/>
<path d="M86.6809 182.053L89.196 184.435L106.129 168.543L96.553 160.103L92.3517 157.578L81.5093 169.08L86.6809 182.053Z" fill="#263238" stroke="#263238" stroke-linecap="round" stroke-linejoin="round"/>
<path d="M129.534 189.13L118.819 180.037L94.109 217.002C87.3959 224.924 76.7021 226.885 70.225 221.388C63.7478 215.891 63.9384 205.016 70.6515 197.096L103.07 166.672L92.3542 157.579L56.1589 190.85C53.5706 193.903 51.6087 197.436 50.3852 201.248C49.1618 205.06 48.7007 209.075 49.0283 213.065C49.356 217.055 50.4659 220.942 52.2947 224.503C54.1235 228.064 56.6355 231.229 59.6871 233.819C62.7387 236.408 66.2703 238.371 70.0801 239.595C73.8899 240.82 77.9034 241.281 81.8914 240.953C85.8794 240.625 89.7639 239.515 93.3229 237.685C96.882 235.855 100.046 233.342 102.634 230.289L129.534 189.13Z" fill="white" stroke="#263238" stroke-linejoin="round"/>
<path d="M117.221 207.97L129.534 189.13L118.82 180.037L106.327 198.725L117.221 207.97Z" fill="#92E3A9" stroke="#263238" stroke-linejoin="round"/>
<path d="M86.6809 182.053L103.07 166.672L92.3542 157.579L75.7859 172.808L86.6809 182.053Z" fill="#92E3A9" stroke="#263238" stroke-linejoin="round"/>
<path d="M49.6857 219.429L83.1656 236.101C84.5458 234.969 85.8354 233.73 87.0226 232.397C87.4408 231.784 87.9901 231.272 88.6308 230.898C89.2714 230.524 89.9872 230.298 90.7262 230.235C92.1142 230.081 93.0401 230.698 94.7376 229.309C96.435 227.919 96.7437 228.228 96.1264 229.772C95.5092 231.316 95.3548 231.934 93.966 232.088C93.1478 232.174 92.3581 232.437 91.6521 232.86C91.6521 232.86 95.6635 235.329 96.5894 235.793C97.5152 236.256 98.286 237.028 97.9782 237.49C97.6704 237.953 97.9782 238.725 97.0523 238.725H95.0462C94.1551 239.533 93.3295 240.411 92.5772 241.35C91.3435 242.893 90.1089 243.665 88.7201 243.819C85.9111 243.958 83.0979 243.646 80.3879 242.893C77.1473 241.968 50.299 233.631 46.7505 232.242C43.9257 230.974 41.2373 229.422 38.727 227.61L49.6857 219.429Z" fill="white" stroke="#263238" stroke-linejoin="round"/>
<path d="M28.8548 181.605C28.8548 181.605 24.3805 185.155 24.8435 189.787C25.3064 194.418 33.7929 225.604 33.7929 225.604L49.0709 216.187C49.0709 216.187 44.2871 190.097 41.5103 185.62C38.7334 181.142 35.492 180.371 35.492 180.371" fill="white"/>
<path d="M28.8548 181.605C28.8548 181.605 24.3805 185.155 24.8435 189.787C25.3064 194.418 33.7929 225.604 33.7929 225.604L49.0709 216.187C49.0709 216.187 44.2871 190.097 41.5103 185.62C38.7334 181.142 35.492 180.371 35.492 180.371" stroke="#263238" stroke-linejoin="round"/>
<path d="M49.0709 211.864L31.0153 223.134C31.0153 223.134 32.867 229.618 34.2551 230.699L35.6439 231.779C35.6439 231.779 50.4565 221.59 51.3824 220.201C52.3083 218.811 49.5314 212.636 49.0709 211.864Z" fill="white" stroke="#263238" stroke-linejoin="round"/>
<path d="M78.7944 187.312L78.4978 187.571C78.0335 187.975 77.985 188.68 78.3895 189.144L80.8776 192.002C81.2821 192.466 81.9864 192.515 82.4507 192.11L82.7473 191.851C83.2116 191.447 83.2601 190.742 82.8556 190.278L80.3675 187.42C79.963 186.956 79.2587 186.907 78.7944 187.312Z" fill="white" stroke="#263238" stroke-linejoin="round"/>
<path d="M77.1933 189.807L76.8966 190.065C76.4322 190.47 76.3837 191.175 76.7881 191.639L78.6692 193.8C79.0737 194.264 79.778 194.313 80.2423 193.908L80.539 193.65C81.0033 193.245 81.0519 192.541 80.6474 192.076L78.7663 189.915C78.3619 189.451 77.6576 189.402 77.1933 189.807Z" fill="white" stroke="#263238" stroke-linejoin="round"/>
<path d="M75.1136 191.887L74.8169 192.146C74.3526 192.551 74.3041 193.255 74.7085 193.72L76.5896 195.881C76.9941 196.345 77.6983 196.394 78.1627 195.989L78.4594 195.731C78.9237 195.326 78.9722 194.621 78.5678 194.157L76.6867 191.996C76.2822 191.531 75.578 191.483 75.1136 191.887Z" fill="white" stroke="#263238" stroke-linejoin="round"/>
<path d="M73.0526 193.717L72.7559 193.976C72.2916 194.381 72.243 195.085 72.6475 195.55L74.1131 197.233C74.5175 197.698 75.2218 197.747 75.6861 197.342L75.9828 197.083C76.4472 196.679 76.4957 195.974 76.0913 195.51L74.6256 193.826C74.2212 193.361 73.5169 193.313 73.0526 193.717Z" fill="white" stroke="#263238" stroke-linejoin="round"/>
</svg>
