<svg width="553" height="507" viewBox="0 0 553 507" fill="none" xmlns="http://www.w3.org/2000/svg">
<path d="M536.715 299.314C519.532 345.34 484.425 395.155 435.012 409.903C360.357 432.197 351.44 492.372 217.723 486.79C198.199 486.066 178.812 483.223 159.902 478.312C150.658 475.879 141.578 472.858 132.718 469.268C54.601 437.63 13.8518 367.997 10.4693 295.13C6.00477 199.304 72.8677 153.624 116.324 126.879C159.78 100.134 212.15 -3.49696 343.647 0.955899C363.726 1.55667 383.668 4.46976 403.079 9.63751C447.324 21.6118 492.301 48.0978 518.438 86.8196C520.4 89.729 522.275 92.7023 524.064 95.7393C559.04 155.08 560.149 236.571 536.715 299.314Z" fill="#92E3A9"/>
<path opacity="0.7" d="M536.715 299.314C519.532 345.34 484.425 395.155 435.012 409.903C360.357 432.197 351.44 492.372 217.723 486.79C198.199 486.066 178.812 483.223 159.902 478.312C150.658 475.879 141.578 472.858 132.718 469.268C54.601 437.63 13.8518 367.997 10.4693 295.13C6.00477 199.304 72.8677 153.624 116.324 126.879C159.78 100.134 212.15 -3.49696 343.647 0.955899C363.726 1.55667 383.668 4.46976 403.079 9.63751C447.324 21.6118 492.301 48.0978 518.438 86.8196C520.4 89.729 522.275 92.7023 524.064 95.7393C559.04 155.08 560.149 236.571 536.715 299.314Z" fill="white"/>
<path d="M279.435 340.937C265.867 310.123 267.865 259.657 274.161 255.461C281.086 250.845 292.049 274.503 303.013 267.578C313.976 260.653 321.478 245.651 312.245 221.993C303.013 198.335 290.895 213.914 282.239 219.684C273.583 225.455 266.659 220.262 268.39 199.492C269.667 184.172 275.647 156.007 278.701 142.263C280.077 142.857 281.452 143.458 282.817 144.097C255.696 131.401 225.689 127.362 212.995 131.401C200.301 135.44 202.607 136.594 208.953 151.594C222.192 182.885 172.05 193.641 157.572 169.512C148.917 155.086 161.639 146.985 158.176 136.597C154.713 126.209 90.6634 138.328 82.5852 142.945C82.5852 142.945 98.1649 189.684 95.8574 206.419C93.5498 223.154 85.4693 230.654 73.3527 218.536C61.236 206.418 45.6551 217.383 45.0773 237.579C44.4995 257.775 47.9626 273.932 61.8114 269.316C75.6602 264.7 86.6237 247.966 91.24 269.316C95.8562 290.666 87.7781 318.364 83.1618 337.982C83.1618 337.982 119.515 353.563 136.249 352.409C152.984 351.254 163.37 350.678 158.176 340.291C152.982 329.904 144.328 322.98 150.675 311.439C157.022 299.898 182.412 301.051 195.684 303.937C208.956 306.824 214.726 316.633 210.687 327.596C206.649 338.56 199.723 349.523 212.418 351.832C224.383 354.007 254.805 349.003 284.837 339.24C283.036 339.821 281.235 340.387 279.435 340.937Z" stroke="#263238" stroke-miterlimit="10"/>
<path d="M290.316 337.4C288.539 338.014 286.759 338.61 284.975 339.189C286.758 338.608 288.538 338.011 290.316 337.4Z" stroke="#263238" stroke-miterlimit="10"/>
<path d="M500.934 213.337C489.97 213.337 489.394 221.993 477.852 220.262C466.311 218.531 465.158 191.984 477.276 145.246C477.276 145.246 464.004 155.051 433.998 155.634C403.993 156.218 391.874 152.749 399.376 141.785C406.877 130.822 412.648 122.166 406.3 113.511C399.951 104.856 369.37 106.01 359.56 113.511C349.751 121.013 356.675 129.668 363.6 139.478C370.525 149.288 362.446 155.058 350.905 155.634C339.363 156.211 309.936 156.789 282.815 144.094C281.45 143.456 280.076 142.854 278.699 142.26C275.645 156.004 269.665 184.17 268.388 199.489C266.657 220.265 273.582 225.456 282.237 219.682C290.892 213.908 303.013 198.331 312.243 221.99C321.474 245.65 313.974 260.652 303.011 267.575C292.047 274.499 281.084 250.842 274.159 255.459C267.863 259.661 265.865 310.121 279.434 340.935C283.062 339.825 286.699 338.646 290.316 337.397C322.053 326.434 353.79 321.241 359.56 328.741C365.331 336.242 363.022 335.09 355.521 346.63C348.019 358.17 348.597 367.98 361.291 373.751C373.986 379.521 405.147 378.367 408.032 365.095C410.917 351.822 394.76 344.319 402.261 331.627C409.763 318.934 476.121 337.397 476.121 337.397C476.121 337.397 461.118 286.618 466.889 269.884C472.66 253.15 477.277 257.19 486.508 263.537C495.74 269.884 507.859 269.307 512.475 250.842C517.091 232.377 511.897 213.337 500.934 213.337Z" stroke="#263238" stroke-miterlimit="10"/>
<path d="M466.62 90.9764C481.309 84.0429 487.597 66.5143 480.663 51.8252C473.73 37.1361 456.201 30.8489 441.512 37.7824C426.823 44.7158 420.535 62.2444 427.469 76.9336C434.402 91.6227 451.931 97.9099 466.62 90.9764Z" fill="#92E3A9" stroke="#263238" stroke-miterlimit="10"/>
<path d="M456.537 88.4334C469.821 87.0695 479.484 75.1949 478.12 61.9107C476.756 48.6264 464.882 38.9631 451.597 40.327C438.313 41.6909 428.65 53.5655 430.014 66.8497C431.378 80.134 443.252 89.7973 456.537 88.4334Z" fill="white" stroke="#263238" stroke-miterlimit="10"/>
<path d="M461.646 80.2756C470.43 76.0931 474.159 65.5823 469.977 56.7991C465.794 48.0158 455.283 44.2862 446.5 48.4687C437.717 52.6512 433.987 63.162 438.17 71.9452C442.352 80.7285 452.863 84.4581 461.646 80.2756Z" fill="#92E3A9" stroke="#263238" stroke-width="1.00015" stroke-miterlimit="10"/>
<path d="M465.185 64.3789C465.185 62.1799 464.533 60.0303 463.311 58.202C462.089 56.3737 460.353 54.9488 458.321 54.1074C456.289 53.266 454.054 53.046 451.897 53.4751C449.74 53.9043 447.759 54.9633 446.204 56.5184C444.649 58.0734 443.591 60.0546 443.162 62.2114C442.733 64.3681 442.953 66.6037 443.795 68.6353C444.636 70.6669 446.061 72.4034 447.89 73.625C449.718 74.8467 451.868 75.4988 454.067 75.4988C455.527 75.4988 456.973 75.2112 458.322 74.6523C459.671 74.0935 460.897 73.2744 461.929 72.2418C462.962 71.2092 463.781 69.9833 464.339 68.6342C464.898 67.2851 465.186 65.8391 465.185 64.3789Z" fill="white" stroke="#263238" stroke-miterlimit="10"/>
<path d="M459.213 64.3792C459.213 63.3612 458.911 62.3661 458.345 61.5198C457.779 60.6735 456.975 60.0139 456.035 59.6245C455.094 59.2351 454.059 59.1333 453.061 59.3321C452.063 59.5308 451.145 60.0212 450.426 60.7411C449.706 61.461 449.216 62.3781 449.017 63.3766C448.819 64.3751 448.921 65.41 449.31 66.3504C449.7 67.2909 450.36 68.0948 451.206 68.6603C452.053 69.2259 453.048 69.5277 454.066 69.5277C454.742 69.5277 455.411 69.3945 456.036 69.1358C456.661 68.877 457.228 68.4978 457.706 68.0197C458.184 67.5416 458.563 66.974 458.822 66.3494C459.08 65.7247 459.213 65.0553 459.213 64.3792Z" fill="#92E3A9" stroke="#263238" stroke-miterlimit="10"/>
<path d="M456.192 56.3091L454.067 64.3803L461.686 66.0482L456.192 56.3091Z" fill="#263238" stroke="#263238" stroke-miterlimit="10"/>
<path d="M459.438 60.8027L492.901 42.5734" stroke="#263238" stroke-width="2" stroke-miterlimit="10"/>
<path d="M482.164 48.567L482.664 39.827L498.396 30.8396V40.8285L482.164 48.567Z" fill="#263238" stroke="#263238" stroke-miterlimit="10"/>
<path d="M505.138 45.5709L498.252 40.4912L482.102 48.9849L489.879 53.4845L505.138 45.5709Z" fill="#263238" stroke="#263238" stroke-miterlimit="10"/>
<path d="M299.874 66.1592H288.175V94.0108H299.874V66.1592Z" fill="#92E3A9" stroke="#263238" stroke-miterlimit="10"/>
<path d="M317.117 57.7203H305.418V94.0108H317.117V57.7203Z" fill="#92E3A9" stroke="#263238" stroke-miterlimit="10"/>
<path d="M334.361 66.1592H322.662V94.0108H334.361V66.1592Z" fill="#92E3A9" stroke="#263238" stroke-miterlimit="10"/>
<path d="M351.604 55.8866H339.905V94.0108H351.604V55.8866Z" fill="#92E3A9" stroke="#263238" stroke-miterlimit="10"/>
<path d="M368.848 41.9458H357.149V94.0121H368.848V41.9458Z" fill="#92E3A9" stroke="#263238" stroke-miterlimit="10"/>
<path d="M353.319 19.8787L357.883 21.8314L326.847 51.6159L312.024 43.5307L288.54 57.8044V62.1149L312.117 47.7793L327.445 56.14L360.431 24.4914L362.193 29.1322L368.718 13.9855L353.319 19.8787Z" fill="#263238" stroke="#263238" stroke-linecap="round" stroke-linejoin="round"/>
<path d="M217.156 92.8314C232.969 89.1195 242.779 73.2911 239.067 57.4776C235.356 41.6641 219.527 31.8539 203.714 35.5658C187.9 39.2778 178.09 55.1062 181.802 70.9197C185.514 86.7331 201.342 96.5433 217.156 92.8314Z" fill="white" stroke="#263238" stroke-miterlimit="10"/>
<path d="M216.254 89.6888C230.332 86.4741 239.139 72.4557 235.924 58.3779C232.709 44.3 218.691 35.4936 204.613 38.7083C190.535 41.923 181.729 55.9414 184.943 70.0193C188.158 84.0972 202.177 92.9035 216.254 89.6888Z" fill="#92E3A9" stroke="#263238" stroke-miterlimit="10"/>
<path d="M214.012 87.6874C226.886 85.6937 235.706 73.641 233.713 60.7669C231.719 47.8929 219.666 39.0725 206.792 41.0662C193.918 43.0598 185.098 55.1125 187.091 67.9866C189.085 80.8607 201.138 89.681 214.012 87.6874Z" fill="white" stroke="#263238" stroke-width="0.999776" stroke-miterlimit="10"/>
<path d="M210.072 84.5602V80.8147C208.907 80.8507 207.747 80.6313 206.676 80.172C205.604 79.7127 204.646 79.0246 203.868 78.1558C202.5 76.4914 201.76 74.0076 201.651 70.7044L207.33 69.7379C207.357 70.8703 207.498 71.997 207.753 73.1006C207.904 73.8536 208.259 74.5504 208.78 75.1152C209.016 75.3384 209.295 75.5121 209.599 75.6261C209.904 75.7402 210.228 75.7923 210.553 75.7794C210.885 75.8168 211.221 75.7613 211.523 75.6191C211.825 75.4769 212.082 75.2536 212.265 74.974C212.582 74.4089 212.743 73.7696 212.732 73.1217C212.775 71.9038 212.445 70.7019 211.785 69.6773C211.047 68.6333 210.174 67.6914 209.188 66.876L205.764 63.9358C205.017 63.244 204.317 62.5031 203.669 61.7181C203.039 60.9461 202.543 60.0747 202.199 59.1398C201.815 58.0403 201.631 56.8808 201.655 55.7164C201.591 54.6376 201.75 53.5572 202.12 52.5421C202.491 51.527 203.066 50.5988 203.81 49.8151C205.385 48.3457 207.438 47.4947 209.591 47.4188V43.8367H211.524V47.4223C212.776 47.4457 214.002 47.785 215.089 48.4086C215.969 48.9393 216.698 49.6888 217.204 50.5842C217.696 51.4792 218.05 52.4433 218.254 53.4439C218.462 54.4329 218.596 55.4359 218.657 56.4447L212.895 57.2909C212.879 56.407 212.798 55.5254 212.654 54.6531C212.568 54.0037 212.319 53.3867 211.929 52.8603C211.729 52.6371 211.478 52.4656 211.198 52.3603C210.917 52.255 210.616 52.2191 210.318 52.2557C209.982 52.2512 209.65 52.3296 209.351 52.4842C209.052 52.6387 208.797 52.8645 208.606 53.1416C208.219 53.6966 208.015 54.3584 208.022 55.0348C207.97 56.1003 208.282 57.1518 208.908 58.0158C209.522 58.7927 210.195 59.5202 210.923 60.1914L214.266 63.0919C215.151 63.8981 215.97 64.7732 216.717 65.7088C217.472 66.6546 218.082 67.7067 218.529 68.831C219.006 70.0846 219.239 71.4177 219.215 72.7587C219.232 74.1039 218.935 75.4347 218.349 76.6454C217.785 77.7982 216.922 78.7788 215.851 79.4852C214.697 80.2304 213.375 80.6721 212.005 80.7691V84.5555L210.072 84.5602Z" fill="#263238"/>
<path d="M115.102 41.438H60.4922V92.7807H115.102V41.438Z" fill="white" stroke="#263238" stroke-miterlimit="10"/>
<path d="M115.102 41.438H60.4922V54.639H115.102V41.438Z" fill="#92E3A9" stroke="#263238" stroke-linecap="round" stroke-linejoin="round"/>
<path d="M71.4597 61.9758H64.9257V68.5098H71.4597V61.9758Z" fill="#92E3A9" stroke="#263238" stroke-linecap="round" stroke-linejoin="round"/>
<path d="M81.2623 61.9758H74.7283V68.5098H81.2623V61.9758Z" fill="#92E3A9" stroke="#263238" stroke-linecap="round" stroke-linejoin="round"/>
<path d="M91.0649 61.9758H84.5309V68.5098H91.0649V61.9758Z" fill="#92E3A9" stroke="#263238" stroke-linecap="round" stroke-linejoin="round"/>
<path d="M100.865 61.9758H94.3313V68.5098H100.865V61.9758Z" fill="#92E3A9" stroke="#263238" stroke-linecap="round" stroke-linejoin="round"/>
<path d="M110.669 61.9758H104.134V68.5098H110.669V61.9758Z" fill="#92E3A9" stroke="#263238" stroke-linecap="round" stroke-linejoin="round"/>
<path d="M71.4597 72.2437H64.9257V78.7776H71.4597V72.2437Z" fill="#92E3A9" stroke="#263238" stroke-linecap="round" stroke-linejoin="round"/>
<path d="M81.2623 72.2437H74.7283V78.7776H81.2623V72.2437Z" fill="#92E3A9" stroke="#263238" stroke-linecap="round" stroke-linejoin="round"/>
<path d="M91.0649 72.2437H84.5309V78.7776H91.0649V72.2437Z" fill="#92E3A9" stroke="#263238" stroke-linecap="round" stroke-linejoin="round"/>
<path d="M100.865 72.2437H94.3313V78.7776H100.865V72.2437Z" fill="#92E3A9" stroke="#263238" stroke-linecap="round" stroke-linejoin="round"/>
<path d="M110.669 72.2437H104.134V78.7776H110.669V72.2437Z" fill="#92E3A9" stroke="#263238" stroke-linecap="round" stroke-linejoin="round"/>
<path d="M71.4597 82.5126H64.9257V89.0465H71.4597V82.5126Z" fill="#92E3A9" stroke="#263238" stroke-linecap="round" stroke-linejoin="round"/>
<path d="M81.2623 82.5126H74.7283V89.0465H81.2623V82.5126Z" fill="#92E3A9" stroke="#263238" stroke-linecap="round" stroke-linejoin="round"/>
<path d="M91.0649 82.5126H84.5309V89.0465H91.0649V82.5126Z" fill="#92E3A9" stroke="#263238" stroke-linecap="round" stroke-linejoin="round"/>
<path d="M100.865 82.5126H94.3313V89.0465H100.865V82.5126Z" fill="#92E3A9" stroke="#263238" stroke-linecap="round" stroke-linejoin="round"/>
<path d="M110.669 82.5126H104.134V89.0465H110.669V82.5126Z" fill="#92E3A9" stroke="#263238" stroke-linecap="round" stroke-linejoin="round"/>
<path d="M72.6289 33.0365H67.9613V45.6387H72.6289V33.0365Z" fill="#263238"/>
<path d="M84.2963 33.0365H79.6287V45.6387H84.2963V33.0365Z" fill="#263238"/>
<path d="M95.966 33.0365H91.2984V45.6387H95.966V33.0365Z" fill="#263238"/>
<path d="M107.636 33.0365H102.968V45.6387H107.636V33.0365Z" fill="#263238"/>
<path d="M12.994 424.986C15.528 426.092 21.7258 425.952 21.7304 425.952C21.7946 425.952 20.3987 421.895 20.2808 421.65C18.921 418.804 14.621 414.108 11.1218 414.58C10.5429 414.675 9.99034 414.89 9.50019 415.213C9.01004 415.535 8.59324 415.957 8.27692 416.451C7.9606 416.945 7.75184 417.5 7.66423 418.08C7.57662 418.66 7.61213 419.252 7.76843 419.817C8.3497 422.242 10.8358 424.042 12.994 424.986Z" fill="#92E3A9"/>
<path d="M15.1333 442.938C17.7618 443.321 23.2931 441.718 23.732 441.588C24.6428 444.753 25.7635 447.853 27.0865 450.868C27.8464 452.631 28.6681 454.381 29.5131 456.121C29.0089 455.382 28.5525 454.72 28.479 454.64C26.4154 452.255 21.0276 448.861 17.7781 450.24C17.2447 450.485 16.7687 450.838 16.381 451.278C15.9933 451.719 15.7026 452.236 15.5279 452.796C15.3531 453.355 15.2983 453.946 15.3668 454.529C15.4354 455.111 15.6258 455.673 15.9258 456.177C17.1257 458.362 20.0016 459.445 22.3314 459.781C24.6961 460.131 29.4384 458.853 30.6897 458.497C31.0211 459.164 31.3445 459.833 31.6783 460.497C33.2808 463.687 34.8927 466.861 36.3786 470.024C36.9027 471.139 37.3777 472.256 37.8574 473.372C37.4092 472.716 37.0252 472.167 36.9575 472.088C34.8951 469.703 29.5073 466.309 26.2566 467.689C25.7225 467.933 25.2458 468.286 24.8575 468.727C24.4693 469.167 24.1781 469.684 24.0031 470.245C23.8282 470.805 23.7732 471.396 23.8419 471.979C23.9107 472.562 24.1015 473.124 24.402 473.629C25.603 475.814 28.4767 476.897 30.8075 477.233C33.0637 477.562 37.4524 476.427 38.9406 476.013C39.397 477.171 39.8568 478.33 40.2467 479.472C40.4965 480.257 40.7906 480.997 40.996 481.8C41.2014 482.603 41.4349 483.374 41.652 484.15C42.0138 485.658 42.3966 487.213 42.7118 488.693C42.9394 489.721 43.1378 490.705 43.3397 491.696C42.8308 490.58 41.7897 488.417 41.6812 488.247C40.0051 485.577 35.1927 481.406 31.7705 482.278C31.2064 482.438 30.6824 482.716 30.2326 483.092C29.7828 483.469 29.4173 483.936 29.1599 484.463C28.9025 484.99 28.7589 485.565 28.7386 486.151C28.7182 486.738 28.8214 487.321 29.0416 487.865C29.8971 490.205 32.5747 491.709 34.8262 492.398C37.3065 493.156 42.7958 492.463 43.481 492.373C43.8101 494.007 44.1148 495.611 44.3774 497.124C44.9668 500.464 45.4104 503.457 45.7477 505.995H48.0634C47.6595 503.375 47.1296 500.253 46.4293 496.746C46.1025 495.078 45.7197 493.304 45.3088 491.486C46.9613 490.824 48.5736 490.065 50.1375 489.214C51.9443 491.172 56.5758 493.462 57.1745 493.754C56.5454 495.304 55.9163 496.805 55.307 498.211C54.0231 501.158 52.8104 503.773 51.7366 505.995H54.239C55.1623 503.947 56.1766 501.612 57.2352 499.026C57.8819 497.455 58.5413 495.758 59.202 494.02C59.8661 494.159 65.3006 495.263 67.8334 494.691C70.1304 494.171 72.913 492.872 73.9413 490.606C74.2012 490.08 74.3475 489.505 74.3706 488.919C74.3938 488.333 74.2934 487.749 74.0758 487.204C73.8583 486.659 73.5285 486.166 73.108 485.757C72.6874 485.348 72.1856 485.033 71.6349 484.83C68.2886 483.706 63.1786 487.508 61.3064 490.045C61.1955 490.195 60.1789 491.953 59.5556 493.072C59.8217 492.358 60.0879 491.671 60.3528 490.93C60.8874 489.473 61.3776 488.005 61.9099 486.427L62.6102 484.093C62.8588 483.317 63.0245 482.466 63.2381 481.642C63.6945 479.73 64.0622 477.771 64.389 475.79C65.6647 476.257 70.225 477.839 72.5804 477.673C74.9358 477.507 77.8771 476.645 79.2334 474.556C79.5702 474.075 79.8022 473.53 79.9143 472.954C80.0264 472.379 80.016 471.786 79.8839 471.214C79.7518 470.643 79.5009 470.106 79.1475 469.638C78.7941 469.17 78.3461 468.781 77.8328 468.498C74.6942 466.879 69.0683 469.863 66.8331 472.087C66.6942 472.226 65.2702 474.002 64.5069 474.993C64.6936 473.8 64.8874 472.611 65.0368 471.398C65.4721 467.897 65.8025 464.34 66.1479 460.792C66.2542 459.705 66.3721 458.624 66.4864 457.541C66.9381 457.712 72.3119 459.712 74.9556 459.526C77.3052 459.361 80.2524 458.497 81.6086 456.408C81.9455 455.928 82.1775 455.382 82.2895 454.807C82.4016 454.231 82.3913 453.638 82.2591 453.067C82.127 452.495 81.8761 451.958 81.5227 451.49C81.1693 451.022 80.7214 450.634 80.208 450.35C77.0694 448.732 71.4435 451.716 69.2083 453.939C69.0403 454.107 66.9907 456.666 66.5063 457.343C66.7584 454.957 67.0315 452.583 67.3968 450.252C67.8723 447.103 68.5519 443.988 69.4313 440.927C69.6414 441.008 75.2416 443.121 77.9518 442.93C80.3014 442.766 83.2486 441.902 84.6048 439.814C84.9417 439.334 85.1737 438.788 85.2857 438.213C85.3978 437.637 85.3875 437.044 85.2553 436.473C85.1232 435.901 84.8723 435.364 84.5189 434.896C84.1655 434.428 83.7176 434.04 83.2042 433.756C80.0656 432.137 74.4409 435.121 72.2045 437.345C72.0306 437.519 69.8305 440.274 69.4675 440.801C69.52 440.624 69.5538 440.435 69.6087 440.259C70.5758 437.214 71.8117 434.261 73.3017 431.435C74.1059 429.864 74.9615 428.407 75.8252 427.007C76.8278 427.508 81.4347 429.746 83.8894 429.844C86.2436 429.937 89.2666 429.404 90.8482 427.477C91.2357 427.036 91.5261 426.519 91.7006 425.959C91.8751 425.399 91.9297 424.809 91.8609 424.226C91.7921 423.644 91.6014 423.082 91.3012 422.578C91.001 422.074 90.5981 421.639 90.1187 421.301C87.1762 419.348 81.2573 421.696 78.791 423.661C78.658 423.767 77.4149 425.004 76.522 425.918C76.9223 425.293 77.3227 424.635 77.7172 424.051C79.1949 421.826 80.6842 419.881 82.0172 418.167C82.784 417.199 83.4948 416.339 84.1706 415.542C85.409 415.52 90.4058 415.368 92.5908 414.343C94.7221 413.342 97.1604 411.474 97.6751 409.036C97.8159 408.467 97.8353 407.874 97.732 407.297C97.6288 406.719 97.4051 406.17 97.0756 405.685C96.7461 405.199 96.3181 404.789 95.8195 404.48C95.3209 404.171 94.7629 403.97 94.1817 403.891C90.6708 403.513 86.4992 408.326 85.2164 411.205C85.1056 411.455 83.8158 415.547 83.8835 415.546H83.9582C83.2941 416.301 82.5903 417.117 81.8398 418.025C80.466 419.711 78.9299 421.63 77.4044 423.831C75.728 426.185 74.1905 428.634 72.7998 431.166C71.2284 433.995 69.9121 436.958 68.8664 440.02C68.8535 440.057 68.8465 440.096 68.8348 440.137C68.8523 439.103 68.8068 436.208 68.7776 435.988C68.3726 432.861 65.7523 427.056 62.2799 426.417C61.7002 426.326 61.1081 426.359 60.5418 426.512C59.9755 426.665 59.4479 426.936 58.9932 427.307C58.5385 427.678 58.167 428.14 57.9027 428.664C57.6384 429.187 57.4873 429.761 57.4593 430.347C57.2574 432.832 59.0584 435.318 60.815 436.883C62.7993 438.653 68.2933 440.366 68.731 440.501C67.7448 443.644 66.9689 446.848 66.4082 450.093C66.0721 451.983 65.7908 453.896 65.5328 455.813C65.52 454.917 65.5025 454.118 65.4873 454.006C65.0823 450.879 62.4619 445.076 58.9884 444.435C58.4089 444.344 57.8168 444.377 57.2507 444.53C56.6845 444.683 56.1571 444.954 55.7025 445.325C55.248 445.696 54.8767 446.158 54.6127 446.682C54.3486 447.205 54.1979 447.779 54.1702 448.365C53.9659 450.85 55.7669 453.336 57.5235 454.901C59.3058 456.493 63.9641 458.053 65.2025 458.444C65.1115 459.181 65.0123 459.918 64.9247 460.661C64.501 464.205 64.0937 467.743 63.5871 471.201C63.4109 472.42 63.1903 473.614 62.9743 474.808C62.9627 474.014 62.9452 473.344 62.9323 473.242C62.5261 470.116 59.9058 464.312 56.4345 463.671C55.8549 463.581 55.2627 463.613 54.6965 463.767C54.1302 463.92 53.6026 464.191 53.1479 464.561C52.6932 464.932 52.3216 465.394 52.0574 465.918C51.7931 466.442 51.642 467.015 51.614 467.601C51.4097 470.085 53.2119 472.572 54.9685 474.138C56.6691 475.655 60.9563 477.13 62.4258 477.607C62.1678 478.824 61.9122 480.044 61.6087 481.212C61.3823 482.005 61.22 482.783 60.9481 483.567C60.696 484.346 60.4466 485.119 60.1999 485.889C59.6688 487.347 59.1308 488.854 58.5775 490.264C58.2005 491.246 57.8223 492.177 57.4453 493.114C57.6356 491.902 57.9601 489.524 57.9647 489.323C57.926 486.549 57.1765 483.831 55.7879 481.429C55.7981 481.12 55.7789 480.811 55.7307 480.506C55.6575 479.924 55.4626 479.364 55.1587 478.862C54.8547 478.36 54.4485 477.928 53.9665 477.593C53.4845 477.259 52.9375 477.03 52.361 476.92C51.7846 476.811 51.1916 476.825 50.6207 476.96C47.209 477.869 45.045 483.858 44.8839 487.007C44.8734 487.193 45.0007 489.225 45.0929 490.497C44.9213 489.755 44.7637 489.032 44.577 488.271C44.2186 486.762 43.8171 485.267 43.3923 483.655L42.6849 481.321C42.4667 480.536 42.1352 479.736 41.8609 478.934C41.1863 477.088 40.4124 475.251 39.5919 473.419C40.9131 473.101 45.5866 471.911 47.4635 470.47C49.3403 469.03 51.3152 466.691 51.2954 464.199C51.3113 463.613 51.2037 463.029 50.9794 462.487C50.7551 461.945 50.4192 461.457 49.9936 461.053C49.5679 460.649 49.0621 460.34 48.5089 460.145C47.9557 459.95 47.3677 459.873 46.783 459.92C43.272 460.301 40.2257 465.894 39.5884 468.981C39.5487 469.175 39.3409 471.441 39.2511 472.689C38.7492 471.591 38.2531 470.493 37.7104 469.398C36.1416 466.238 34.455 463.088 32.7859 459.943C32.2747 458.979 31.7763 458.012 31.2686 457.046C31.7355 456.938 37.3263 455.646 39.4285 454.029C41.296 452.596 43.2802 450.25 43.2615 447.757C43.2774 447.17 43.1696 446.587 42.9451 446.045C42.7207 445.503 42.3847 445.015 41.9589 444.611C41.5331 444.208 41.0271 443.899 40.4739 443.704C39.9207 443.509 39.3326 443.433 38.748 443.48C35.2371 443.861 32.1918 449.453 31.5546 452.541C31.5067 452.774 31.2114 456.036 31.1775 456.869C30.0722 454.741 28.9902 452.61 28.0086 450.466C26.6678 447.577 25.5164 444.603 24.5619 441.565C24.7813 441.515 30.6173 440.189 32.7708 438.537C34.6383 437.104 36.6225 434.758 36.6027 432.264C36.6185 431.678 36.5107 431.095 36.2864 430.553C36.062 430.011 35.7261 429.523 35.3004 429.119C34.8748 428.716 34.369 428.406 33.8159 428.211C33.2629 428.016 32.6749 427.94 32.0903 427.987C28.5794 428.368 25.533 433.96 24.8957 437.049C24.8455 437.292 24.5315 440.801 24.5199 441.441C24.465 441.265 24.3891 441.091 24.3366 440.912C23.4639 437.839 22.8663 434.693 22.5508 431.514C22.3535 429.763 22.2637 428.073 22.2123 426.43C23.3246 426.294 28.3985 425.613 30.4994 424.346C32.5152 423.125 34.7422 421.013 34.9978 418.534C35.0782 417.952 35.0353 417.361 34.8719 416.797C34.7086 416.234 34.4284 415.711 34.0497 415.263C33.6709 414.815 33.2021 414.452 32.6736 414.197C32.1452 413.942 31.569 413.802 30.9826 413.784C27.4519 413.778 23.809 419.003 22.8368 422.001C22.7842 422.165 22.4294 423.882 22.1901 425.136C22.1785 424.395 22.1516 423.63 22.1551 422.919C22.1551 420.249 22.329 417.804 22.4959 415.64C22.601 414.41 22.72 413.3 22.8461 412.263C23.8674 411.563 27.9514 408.678 29.2073 406.618C30.4329 404.607 31.4355 401.705 30.5204 399.381C30.3237 398.828 30.0129 398.323 29.6082 397.899C29.2035 397.474 28.7139 397.14 28.1714 396.917C27.6289 396.694 27.0455 396.588 26.4592 396.605C25.8729 396.622 25.2969 396.763 24.7685 397.017C21.631 398.639 20.807 404.954 21.3252 408.064C21.3708 408.332 22.5555 412.455 22.6092 412.42L22.6698 412.377C22.5321 413.372 22.3967 414.443 22.2707 415.613C22.0559 417.778 21.833 420.226 21.7711 422.906C21.6707 425.794 21.7393 428.685 21.9765 431.564C22.2263 434.79 22.763 437.988 23.5803 441.119C23.5908 441.156 23.6059 441.194 23.6164 441.236C23.0609 440.362 21.4256 437.974 21.282 437.805C19.2184 435.421 13.8307 432.026 10.5812 433.406C10.0479 433.65 9.57193 434.004 9.18432 434.445C8.79672 434.885 8.50612 435.402 8.33141 435.962C8.1567 436.522 8.1018 437.112 8.17027 437.695C8.23874 438.278 8.42906 438.839 8.72884 439.344C9.92872 441.518 12.8035 442.598 15.1333 442.938Z" fill="#92E3A9"/>
<path d="M75.6846 426.349C75.7383 426.383 76.811 422.229 76.8518 421.96C77.286 418.837 76.2904 412.547 73.111 411.011C72.5759 410.77 71.9962 410.645 71.4096 410.644C70.823 410.642 70.2426 410.764 69.7062 411.002C69.1699 411.239 68.6896 411.587 68.2967 412.023C67.9037 412.458 67.6069 412.972 67.4255 413.53C66.5735 415.871 67.6532 418.746 68.9336 420.722C70.4334 423.044 75.68 426.346 75.6846 426.349Z" fill="#92E3A9"/>
<path d="M443.82 424.986C446.354 426.092 452.55 425.952 452.556 425.952C452.619 425.952 451.223 421.895 451.106 421.65C449.747 418.804 445.445 414.108 441.946 414.58C441.367 414.675 440.815 414.891 440.325 415.213C439.835 415.535 439.418 415.957 439.102 416.451C438.786 416.945 438.577 417.5 438.489 418.08C438.401 418.66 438.437 419.252 438.593 419.817C439.174 422.242 441.661 424.042 443.82 424.986Z" fill="#92E3A9"/>
<path d="M445.959 442.938C448.587 443.321 454.119 441.718 454.559 441.588C455.469 444.753 456.59 447.854 457.913 450.87C458.674 452.632 459.495 454.382 460.341 456.122C459.836 455.383 459.379 454.721 459.306 454.641C457.242 452.256 451.854 448.862 448.605 450.242C448.071 450.486 447.595 450.839 447.208 451.28C446.82 451.72 446.529 452.237 446.355 452.797C446.18 453.357 446.125 453.947 446.194 454.53C446.263 455.112 446.453 455.674 446.754 456.178C447.954 458.363 450.828 459.446 453.158 459.782C455.523 460.132 460.266 458.854 461.517 458.498C461.849 459.165 462.172 459.834 462.506 460.498C464.108 463.688 465.719 466.863 467.205 470.026C467.729 471.14 468.204 472.257 468.684 473.373C468.236 472.717 467.852 472.169 467.785 472.089C465.722 469.705 460.334 466.31 457.084 467.69C456.551 467.934 456.075 468.288 455.687 468.728C455.3 469.168 455.009 469.685 454.834 470.245C454.659 470.805 454.605 471.396 454.673 471.978C454.742 472.561 454.932 473.122 455.232 473.626C456.433 475.811 459.307 476.895 461.638 477.231C463.895 477.56 468.283 476.424 469.771 476.011C470.228 477.169 470.687 478.328 471.078 479.469C471.327 480.255 471.622 480.995 471.826 481.798C472.048 482.589 472.267 483.372 472.482 484.148C472.844 485.656 473.227 487.21 473.543 488.69C473.777 489.719 473.968 490.703 474.171 491.694C473.662 490.578 472.62 488.415 472.513 488.244C470.835 485.575 466.023 481.404 462.601 482.275C462.037 482.436 461.513 482.714 461.063 483.09C460.613 483.466 460.248 483.933 459.99 484.46C459.733 484.988 459.589 485.563 459.569 486.149C459.548 486.735 459.652 487.319 459.872 487.863C460.728 490.203 463.405 491.706 465.658 492.396C468.137 493.154 473.627 492.46 474.312 492.37C474.641 494.005 474.945 495.608 475.209 497.122C475.792 500.462 476.242 503.454 476.579 505.993H478.894C478.49 503.372 477.96 500.25 477.265 496.744C476.937 495.076 476.554 493.302 476.144 491.483C477.796 490.822 479.409 490.063 480.972 489.212C482.779 491.169 487.411 493.459 488.011 493.751C487.38 495.301 486.752 496.802 486.136 498.209C484.852 501.156 483.639 503.77 482.566 505.993H485.069C485.991 503.944 487.007 501.61 488.064 499.024C488.711 497.452 489.37 495.755 490.031 494.017C490.695 494.156 496.13 495.26 498.662 494.689C500.959 494.169 503.742 492.87 504.77 490.603C505.031 490.078 505.177 489.503 505.201 488.917C505.224 488.33 505.123 487.746 504.906 487.201C504.688 486.656 504.358 486.163 503.938 485.754C503.517 485.346 503.015 485.03 502.464 484.828C499.118 483.704 494.008 487.506 492.137 490.043C492.02 490.192 491.009 491.95 490.386 493.07C490.652 492.355 490.918 491.669 491.183 490.928C491.719 489.471 492.208 488.003 492.741 486.425C492.975 485.654 493.208 484.876 493.442 484.09C493.691 483.314 493.857 482.463 494.071 481.639C494.526 479.727 494.888 477.769 495.22 475.788C496.497 476.255 501.056 477.837 503.413 477.671C505.769 477.505 508.708 476.642 510.066 474.553C510.403 474.073 510.635 473.528 510.747 472.952C510.859 472.376 510.849 471.783 510.716 471.212C510.584 470.641 510.333 470.103 509.98 469.635C509.627 469.167 509.179 468.779 508.665 468.495C505.527 466.877 499.9 469.861 497.666 472.085C497.526 472.223 496.102 474 495.338 474.991C495.526 473.798 495.719 472.609 495.869 471.396C496.303 467.894 496.634 464.338 496.98 460.79C497.085 459.703 497.203 458.622 497.318 457.539C497.771 457.709 503.143 459.71 505.787 459.523C508.137 459.359 511.084 458.495 512.44 456.406C512.777 455.926 513.009 455.38 513.121 454.804C513.233 454.229 513.223 453.636 513.09 453.064C512.958 452.493 512.707 451.956 512.354 451.488C512.001 451.02 511.553 450.631 511.039 450.348C507.901 448.73 502.275 451.713 500.041 453.937C499.873 454.105 497.823 456.664 497.338 457.341C497.59 454.955 497.863 452.581 498.228 450.25C498.704 447.101 499.384 443.986 500.264 440.925C500.474 441.006 506.073 443.118 508.784 442.928C511.134 442.763 514.081 441.9 515.437 439.812C515.774 439.332 516.006 438.786 516.119 438.21C516.231 437.635 516.221 437.042 516.088 436.47C515.956 435.899 515.705 435.362 515.352 434.894C514.998 434.426 514.55 434.037 514.037 433.754C510.898 432.135 505.273 435.118 503.038 437.343C502.863 437.517 500.663 440.271 500.3 440.799C500.353 440.622 500.387 440.433 500.441 440.256C501.408 437.211 502.644 434.258 504.135 431.432C504.938 429.861 505.794 428.405 506.658 427.005C507.66 427.506 512.267 429.743 514.723 429.841C517.076 429.935 520.1 429.401 521.681 427.474C522.068 427.034 522.359 426.517 522.533 425.957C522.708 425.397 522.762 424.806 522.693 424.224C522.625 423.641 522.434 423.08 522.134 422.576C521.834 422.072 521.431 421.637 520.951 421.299C518.009 419.346 512.09 421.693 509.629 423.659C509.495 423.765 508.252 425.002 507.36 425.916C507.76 425.29 508.16 424.632 508.556 424.049C510.032 421.824 511.521 419.878 512.856 418.165C513.621 417.197 514.332 416.337 515.008 415.54C516.247 415.518 521.244 415.366 523.428 414.341C525.559 413.34 527.998 411.472 528.513 409.034C528.654 408.464 528.674 407.871 528.57 407.294C528.467 406.716 528.243 406.167 527.914 405.682C527.584 405.197 527.156 404.786 526.657 404.477C526.158 404.168 525.6 403.968 525.019 403.889C521.508 403.511 517.336 408.324 516.054 411.202C515.937 411.452 514.653 415.544 514.722 415.543H514.797C514.131 416.298 513.429 417.114 512.677 418.022C511.303 419.709 509.768 421.628 508.242 423.829C506.565 426.182 505.028 428.631 503.637 431.164C502.066 433.993 500.75 436.956 499.704 440.018C499.692 440.054 499.684 440.094 499.672 440.135C499.691 439.101 499.645 436.206 499.616 435.985C499.21 432.859 496.589 427.054 493.117 426.414C492.537 426.324 491.945 426.356 491.379 426.51C490.813 426.663 490.285 426.934 489.831 427.305C489.376 427.675 489.005 428.138 488.741 428.661C488.476 429.185 488.326 429.759 488.298 430.344C488.095 432.829 489.896 435.316 491.652 436.881C493.636 438.65 499.132 440.364 499.569 440.499C498.582 443.641 497.806 446.846 497.247 450.091C496.909 451.981 496.628 453.894 496.371 455.81C496.358 454.915 496.34 454.116 496.324 454.004C495.919 450.877 493.299 445.073 489.827 444.432C489.247 444.342 488.655 444.374 488.089 444.528C487.523 444.681 486.995 444.952 486.54 445.323C486.086 445.693 485.714 446.156 485.45 446.679C485.186 447.203 485.035 447.777 485.007 448.362C484.803 450.847 486.605 453.334 488.361 454.899C490.144 456.491 494.801 458.05 496.04 458.441C495.949 459.179 495.849 459.915 495.762 460.659C495.338 464.202 494.931 467.74 494.425 471.199C494.248 472.417 494.029 473.611 493.813 474.805C493.8 474.012 493.782 473.342 493.77 473.24C493.364 470.113 490.744 464.31 487.272 463.669C486.692 463.578 486.1 463.611 485.534 463.764C484.967 463.918 484.44 464.188 483.985 464.559C483.53 464.93 483.159 465.392 482.895 465.916C482.63 466.44 482.479 467.013 482.451 467.599C482.248 470.083 484.05 472.57 485.807 474.135C487.506 475.653 491.793 477.128 493.263 477.604C493.005 478.822 492.749 480.041 492.446 481.21C492.219 482.002 492.057 482.781 491.786 483.565L491.037 485.887C490.506 487.345 489.968 488.851 489.416 490.261C489.038 491.244 488.659 492.174 488.282 493.112C488.473 491.9 488.797 489.521 488.802 489.321C488.759 486.546 488.006 483.828 486.613 481.427C486.623 481.118 486.604 480.809 486.555 480.504C486.482 479.922 486.287 479.361 485.983 478.86C485.68 478.358 485.273 477.926 484.792 477.591C484.31 477.257 483.763 477.027 483.186 476.918C482.61 476.809 482.017 476.822 481.446 476.958C478.033 477.867 475.869 483.856 475.708 487.005C475.699 487.19 475.825 489.223 475.918 490.495C475.746 489.752 475.588 489.03 475.401 488.269C475.044 486.76 474.643 485.265 474.217 483.653C473.983 482.882 473.748 482.104 473.51 481.318C473.291 480.534 472.96 479.733 472.685 478.931C472.011 477.086 471.237 475.249 470.417 473.416C471.737 473.099 476.412 471.908 478.288 470.468C480.163 469.028 482.14 466.689 482.121 464.197C482.137 463.61 482.029 463.027 481.805 462.485C481.58 461.943 481.244 461.454 480.819 461.05C480.393 460.647 479.887 460.337 479.334 460.142C478.78 459.947 478.192 459.87 477.607 459.918C474.098 460.298 471.051 465.891 470.414 468.979C470.374 469.172 470.165 471.439 470.075 472.687C469.573 471.589 469.079 470.49 468.535 469.395C466.966 466.236 465.279 463.085 463.611 459.941C463.099 458.977 462.602 458.009 462.094 457.044C462.561 456.936 468.152 455.643 470.254 454.027C472.121 452.594 474.106 450.247 474.086 447.754C474.102 447.168 473.994 446.585 473.77 446.043C473.545 445.501 473.209 445.013 472.784 444.61C472.358 444.206 471.852 443.897 471.299 443.702C470.746 443.507 470.158 443.43 469.573 443.478C466.063 443.858 463.016 449.45 462.379 452.539C462.331 452.772 462.037 456.033 462.002 456.867C460.897 454.739 459.815 452.608 458.833 450.463C457.493 447.574 456.342 444.601 455.386 441.562C455.607 441.512 461.443 440.186 463.595 438.535C465.463 437.101 467.447 434.755 467.427 432.262C467.443 431.676 467.335 431.093 467.111 430.551C466.887 430.009 466.551 429.52 466.125 429.117C465.7 428.713 465.194 428.404 464.64 428.209C464.087 428.013 463.499 427.937 462.915 427.984C459.404 428.366 456.357 433.958 455.721 437.047C455.671 437.289 455.356 440.799 455.344 441.439C455.289 441.262 455.213 441.089 455.162 440.91C454.289 437.836 453.691 434.691 453.375 431.512C453.178 429.761 453.088 428.071 453.038 426.427C454.15 426.292 459.224 425.61 461.325 424.344C463.34 423.123 465.566 421.01 465.823 418.531C465.903 417.95 465.86 417.359 465.697 416.795C465.533 416.232 465.253 415.709 464.874 415.261C464.495 414.813 464.026 414.45 463.498 414.195C462.969 413.94 462.393 413.8 461.807 413.782C458.276 413.776 454.633 419 453.661 421.999C453.609 422.162 453.254 423.879 453.014 425.134C453.003 424.393 452.977 423.627 452.979 422.916C452.985 420.247 453.153 417.802 453.32 415.638C453.425 414.408 453.546 413.298 453.67 412.261C454.692 411.561 458.776 408.675 460.032 406.615C461.258 404.604 462.26 401.703 461.345 399.379C461.148 398.826 460.837 398.321 460.433 397.897C460.028 397.472 459.539 397.137 458.996 396.915C458.454 396.692 457.871 396.585 457.284 396.603C456.698 396.62 456.122 396.761 455.594 397.015C452.457 398.636 451.631 404.952 452.15 408.061C452.195 408.33 453.38 412.452 453.433 412.417L453.495 412.374C453.356 413.37 453.221 414.44 453.096 415.611C452.88 417.776 452.657 420.224 452.595 422.904C452.495 425.791 452.564 428.682 452.802 431.562C453.052 434.788 453.589 437.986 454.406 441.117C454.415 441.154 454.431 441.191 454.441 441.233C453.885 440.36 452.25 437.972 452.106 437.803C450.044 435.418 444.656 432.024 441.406 433.404C440.872 433.648 440.396 434.002 440.009 434.442C439.621 434.883 439.33 435.4 439.156 435.96C438.981 436.52 438.927 437.11 438.995 437.693C439.064 438.275 439.254 438.837 439.554 439.341C440.755 441.518 443.629 442.598 445.959 442.938Z" fill="#92E3A9"/>
<path d="M506.509 426.349C506.563 426.383 507.636 422.229 507.676 421.96C508.11 418.837 507.114 412.547 503.935 411.011C503.4 410.77 502.82 410.645 502.234 410.644C501.647 410.642 501.067 410.764 500.53 411.002C499.994 411.239 499.514 411.587 499.121 412.023C498.728 412.458 498.431 412.972 498.249 413.53C497.397 415.871 498.483 418.746 499.757 420.722C501.257 423.044 506.505 426.346 506.509 426.349Z" fill="#92E3A9"/>
<path d="M394.794 182.028C394.794 182.028 395.151 168.855 402.749 165.113C410.346 161.371 410.777 173.72 410.777 173.72C410.777 173.72 428.168 162.682 431.934 171.051C435.701 179.419 430.435 183.467 430.435 183.467C430.435 183.467 445.871 182.929 446.939 191.391C448.007 199.854 440.037 203.997 440.037 203.997C440.037 203.997 449.581 211.778 446.223 215.373C442.865 218.968 435.539 219.224 435.539 219.224C435.539 219.224 439.694 227.58 432.456 230.537C425.218 233.493 416.913 227.988 416.913 227.988C416.913 227.988 418.205 231.807 412.761 230.837C407.317 229.867 401.821 227.355 398.451 219.359C395.081 211.362 390.733 188.762 394.794 182.028Z" fill="#263238" stroke="#263238" stroke-linecap="round" stroke-linejoin="round"/>
<path d="M314.567 436.537C314.567 436.537 310.231 453.06 310.295 454.899C310.36 456.739 308.867 460.885 310.137 462.068C312.518 464.005 315.04 465.762 317.681 467.327C318.759 467.308 319.811 466.988 320.716 466.402C321.01 466.14 321.247 465.82 321.41 465.462C321.574 465.104 321.662 464.716 321.667 464.322C321.645 463.709 319.917 461.109 319.692 460.503C319.468 459.897 322.874 452.001 324.17 448.069C325.141 444.557 325.837 440.974 326.252 437.354L314.567 436.537Z" fill="white" stroke="#263238" stroke-miterlimit="10"/>
<path d="M319.259 448.039C319.259 448.039 316.808 453.855 316.633 454.883C316.458 455.911 313.082 458.691 313.569 460.925C314.056 463.159 318.948 462.58 321.377 455.946" fill="#D4D6D7"/>
<path d="M319.259 448.039C319.259 448.039 316.808 453.855 316.633 454.883C316.458 455.911 313.082 458.691 313.569 460.925C314.056 463.159 318.948 462.58 321.377 455.946" stroke="#263238" stroke-miterlimit="10"/>
<path d="M330.295 346.755C330.295 346.755 328.224 380.466 327.442 383.444C326.66 386.423 317.28 413.601 315.21 421.936C313.941 427.111 313.039 432.368 312.512 437.67L325.118 440.316L332.182 409.246C332.182 409.246 341.428 380.973 339.585 367.677C338.612 359.941 335.381 352.664 330.295 346.755Z" fill="#D7E8E7" stroke="#263238" stroke-miterlimit="10"/>
<path d="M395.901 505.996C396.046 498.663 396.357 488.777 397.014 483.119C398.149 473.342 402.363 467.293 406.659 455.045C410.954 442.798 411.282 426.852 411.282 426.852L334.364 429.536C334.364 429.536 325.484 462.599 320.137 486.982C318.674 493.224 317.821 499.593 317.589 506" fill="#D7E8E7"/>
<path d="M395.901 505.996C396.046 498.663 396.357 488.777 397.014 483.119C398.149 473.342 402.363 467.293 406.659 455.045C410.954 442.798 411.282 426.852 411.282 426.852L334.364 429.536C334.364 429.536 325.484 462.599 320.137 486.982C318.674 493.224 317.821 499.593 317.589 506" stroke="#263238" stroke-miterlimit="10"/>
<path d="M344.528 441.988L408.531 443.791L409.882 438.833L344.528 441.988Z" fill="#263238" stroke="#263238" stroke-linecap="round" stroke-linejoin="round"/>
<path d="M341.296 504.823C341.296 504.823 340.033 464.804 340.002 443.086L341.296 504.823Z" fill="white"/>
<path d="M341.296 504.823C341.296 504.823 340.033 464.804 340.002 443.086" stroke="#263238" stroke-miterlimit="10"/>
<path d="M390.349 262.084L399.686 268.368C399.686 268.368 410.717 278.26 413.467 286.385C416.217 294.51 414.211 343.083 411.47 358.798C408.73 374.513 415.574 394.004 418.013 405.019C420.453 416.034 421.578 436.544 421.578 436.544C421.578 436.544 423.307 438.951 393.332 439.995C363.357 441.04 342.454 442.591 340.005 443.087C338.52 443.387 337.016 443.577 335.503 443.655L334.31 433.009L331.326 441.746L325.11 440.317C325.11 440.317 328.962 421.276 329.943 413.843C330.923 406.41 337.023 381.124 337.104 371.666C337.186 362.208 329.252 346.867 327.691 337.467C326.131 328.068 329.267 311.928 337.062 299.737C344.858 287.545 350.041 282.841 365.225 270.391C380.409 257.94 390.349 262.084 390.349 262.084Z" fill="#D7E8E7" stroke="#263238" stroke-miterlimit="10"/>
<path d="M366.031 404.315L397.343 407.86L395.582 399.659L376.048 397.979" fill="#D7E8E7"/>
<path d="M366.031 404.315L397.343 407.86L395.582 399.659L376.048 397.979" stroke="#263238" stroke-miterlimit="10"/>
<path d="M355.081 397.528L353.497 402.897L361.353 403.786" fill="#D7E8E7"/>
<path d="M355.081 397.528L353.497 402.897L361.353 403.786" stroke="#263238" stroke-miterlimit="10"/>
<path d="M366.831 343.874C365.36 342.509 364.008 341.02 362.791 339.425" stroke="#263238" stroke-miterlimit="10"/>
<path d="M377.727 353.068C377.727 353.068 374.42 350.573 370.802 347.466" stroke="#263238" stroke-miterlimit="10"/>
<path d="M390.35 262.084C390.35 262.084 380.413 257.942 365.227 270.391C350.04 282.84 344.863 287.549 337.066 299.735C332.406 307.255 329.31 315.637 327.962 324.38C328.148 325.29 328.348 326.214 328.572 327.16C332.911 345.506 337.742 354.38 337.742 354.38C337.742 354.38 346.145 312.572 360.767 295.62C375.388 278.668 399.688 268.368 399.688 268.368L390.35 262.084Z" fill="#D7E8E7" stroke="#263238" stroke-miterlimit="10"/>
<path d="M353.856 180.534C353.856 180.534 342.896 190.773 342.081 198.832C341.267 206.892 340.415 213.858 339.047 216.457C337.679 219.056 330.8 220.759 333.128 224.694C335.455 228.629 337.643 228.553 337.643 228.553C337.643 228.553 341.17 245.952 343.811 248.416C346.453 250.88 355.894 249.455 355.894 249.455L358.801 270.558C358.801 270.558 339.212 287.94 335.397 312.151C331.581 336.362 335.945 350.191 335.945 350.191C335.945 350.191 338.499 312.042 347.322 297.755C356.145 283.467 376.644 269.936 379.666 267.5C382.688 265.064 390.351 262.079 390.351 262.079C390.351 262.079 386.713 253.856 386.22 250.223C385.728 246.589 385.903 241.107 386.581 239.624C387.259 238.14 399.517 233.697 404.138 219.665C408.759 205.632 401.977 189.076 394.8 182.025C387.623 174.974 363.03 171.453 353.856 180.534Z" fill="white" stroke="#263238" stroke-miterlimit="10"/>
<path d="M404.136 219.668C408.758 205.635 401.975 189.079 394.798 182.028C387.621 174.977 363.034 171.453 353.86 180.534C353.86 180.534 353.276 181.085 352.363 182.022C355.854 181.159 359.486 181.039 363.026 181.672C370.369 182.877 370.208 188.723 368.211 194.269C366.213 199.814 367.71 200.856 371.458 203.646C375.206 206.435 371.372 211.681 374.001 213.779C376.63 215.878 378.786 204.486 384.549 212.681C390.311 220.876 386.427 224.662 382.858 226.977C380.855 228.312 378.681 229.372 376.396 230.128C376.396 230.128 381.807 236.465 387.134 239.077C389.669 237.142 399.983 232.278 404.136 219.668Z" fill="#263238" stroke="#263238" stroke-linecap="round" stroke-linejoin="round"/>
<path d="M343.588 231.635C343.588 231.635 351.232 231.004 354.763 227.595" stroke="#263238" stroke-miterlimit="10"/>
<path d="M348.435 213.577C348.498 215.39 347.814 216.884 346.909 216.916C346.003 216.947 345.216 215.504 345.158 213.692C345.099 211.879 345.779 210.384 346.684 210.352C347.59 210.321 348.372 211.766 348.435 213.577Z" fill="#263238"/>
<path d="M345.147 206.184C345.147 206.184 347.61 202.872 351.134 206.78" stroke="#263238" stroke-miterlimit="10"/>
<path opacity="0.2" d="M355.888 249.46L364.992 246.023L358.648 257.428L355.888 249.46Z" fill="#263238" stroke="#263238" stroke-miterlimit="10"/>
<path d="M329.638 416.98L317.683 467.326L328.411 469.817L334.313 433.005L329.638 416.98Z" fill="white" stroke="#263238" stroke-miterlimit="10"/>
<path d="M340.2 296.459C337.902 301.452 336.286 306.732 335.395 312.155C331.578 336.367 335.943 350.196 335.943 350.196C335.943 350.196 338.467 312.56 347.148 298.056C344.778 297.792 342.447 297.257 340.2 296.459Z" fill="white" stroke="#263238" stroke-miterlimit="10"/>
<path d="M377.134 312.171L376.317 354.89L301.553 367.213L303.195 387.342C303.195 387.342 344.686 388.159 363.994 386.525C383.301 384.891 400.143 383.65 402.608 381.596C405.073 379.541 412.069 339.832 414.944 311.899C417.819 283.965 412.069 274.517 400.567 276.159" fill="#D7E8E7"/>
<path d="M377.134 312.171L376.317 354.89L301.553 367.213L303.195 387.342C303.195 387.342 344.686 388.159 363.994 386.525C383.301 384.891 400.143 383.65 402.608 381.596C405.073 379.541 412.069 339.832 414.944 311.899C417.819 283.965 412.069 274.517 400.567 276.159" stroke="#263238" stroke-miterlimit="10"/>
<path d="M256.834 365.401L250.858 383.568L256.74 386.745C256.74 386.745 264.149 392.482 268.213 395.589C272.278 398.696 275.385 398.697 277.536 397.74C279.687 396.783 289.488 382.917 290.683 380.291C291.878 377.664 286.141 369.773 280.405 366.427C274.668 363.08 269.887 363.08 266.54 364.036C263.345 364.746 260.1 365.202 256.834 365.401Z" fill="white" stroke="#263238" stroke-miterlimit="10"/>
<path d="M301.552 367.217L292.098 366.4C289.131 365.627 286.11 365.078 283.06 364.757C280.595 364.757 277.31 367.222 275.666 368.454C274.023 369.687 255.949 389.404 255.949 389.404C255.949 389.404 257.591 392.691 260.056 391.869C262.521 391.048 267.039 388.993 267.039 388.993C267.039 388.993 262.11 393.924 264.574 396.388C267.038 398.852 271.148 398.853 271.148 398.853L274.023 397.209C275.24 398.163 276.638 398.862 278.131 399.264C280.184 399.674 283.471 398.853 286.347 397.209C289.223 395.566 296.502 386.998 296.502 386.998L302.813 384.557L301.552 367.217Z" fill="white" stroke="#263238" stroke-miterlimit="10"/>
<path d="M260.086 366.188C260.086 366.188 272.039 359.256 277.297 361.169C282.555 363.082 289.488 374.794 287.576 376.467C285.664 378.14 282.557 377.424 280.882 375.75C279.489 374.48 277.967 373.358 276.341 372.404C273.194 374.17 269.669 375.154 266.062 375.272" fill="white"/>
<path d="M260.086 366.188C260.086 366.188 272.039 359.256 277.297 361.169C282.555 363.082 289.488 374.794 287.576 376.467C285.664 378.14 282.557 377.424 280.882 375.75C279.489 374.48 277.967 373.358 276.341 372.404C273.194 374.17 269.669 375.154 266.062 375.272" stroke="#263238" stroke-miterlimit="10"/>
<path d="M295.731 393.326L291.936 391.298C291.631 391.136 291.362 390.914 291.143 390.647C290.924 390.381 290.759 390.073 290.659 389.743C290.559 389.412 290.525 389.065 290.559 388.722C290.592 388.378 290.694 388.044 290.856 387.74C291.185 387.125 291.745 386.666 292.412 386.463C293.079 386.261 293.799 386.332 294.414 386.66L298.21 388.687C298.825 389.016 299.284 389.576 299.486 390.243C299.689 390.911 299.618 391.631 299.289 392.246C299.127 392.551 298.905 392.82 298.639 393.039C298.372 393.258 298.064 393.423 297.734 393.523C297.403 393.623 297.056 393.657 296.712 393.624C296.369 393.59 296.035 393.489 295.731 393.326Z" fill="white" stroke="#263238" stroke-miterlimit="10"/>
<path d="M292.384 397.387L288.59 395.359C288.285 395.197 288.016 394.975 287.796 394.709C287.577 394.442 287.413 394.134 287.313 393.804C287.212 393.473 287.178 393.126 287.212 392.782C287.246 392.439 287.347 392.105 287.51 391.8C287.673 391.496 287.894 391.226 288.161 391.007C288.428 390.788 288.735 390.624 289.065 390.524C289.396 390.423 289.743 390.389 290.086 390.423C290.43 390.457 290.763 390.558 291.068 390.721L294.862 392.748C295.167 392.911 295.437 393.132 295.656 393.399C295.875 393.666 296.04 393.973 296.14 394.304C296.24 394.634 296.275 394.981 296.241 395.325C296.207 395.669 296.106 396.002 295.943 396.307C295.614 396.922 295.055 397.381 294.387 397.583C293.72 397.786 293 397.715 292.384 397.387Z" fill="white" stroke="#263238" stroke-miterlimit="10"/>
<path d="M288.559 400.972L284.764 398.945C284.46 398.782 284.19 398.561 283.971 398.294C283.752 398.027 283.588 397.719 283.487 397.389C283.387 397.059 283.353 396.712 283.387 396.368C283.421 396.024 283.522 395.691 283.685 395.386C283.847 395.081 284.068 394.812 284.335 394.593C284.602 394.373 284.909 394.209 285.24 394.109C285.57 394.008 285.917 393.974 286.261 394.008C286.604 394.042 286.938 394.143 287.242 394.306L291.038 396.334C291.653 396.663 292.112 397.222 292.314 397.89C292.517 398.557 292.446 399.277 292.118 399.893C291.789 400.507 291.229 400.966 290.562 401.169C289.894 401.371 289.174 401.301 288.559 400.972Z" fill="white" stroke="#263238" stroke-miterlimit="10"/>
<path d="M280.502 401.146L279.504 400.613C278.89 400.284 278.431 399.724 278.228 399.057C278.026 398.39 278.096 397.67 278.425 397.055C278.588 396.75 278.809 396.481 279.076 396.261C279.342 396.042 279.65 395.878 279.98 395.777C280.311 395.677 280.658 395.643 281.002 395.677C281.345 395.71 281.679 395.811 281.984 395.974L282.98 396.508C283.285 396.67 283.555 396.891 283.774 397.158C283.993 397.425 284.158 397.733 284.258 398.063C284.358 398.394 284.393 398.741 284.359 399.084C284.325 399.428 284.224 399.762 284.061 400.066C283.732 400.681 283.173 401.14 282.505 401.343C281.838 401.545 281.118 401.474 280.502 401.146Z" fill="white" stroke="#263238" stroke-miterlimit="10"/>
<path d="M256.833 365.401L206.663 344.196L208.518 377.423L249.945 386.916L256.833 365.401Z" fill="#D7E8E7" stroke="#263238" stroke-linecap="round" stroke-linejoin="round"/>
<path d="M249.946 386.914L256.832 365.401L249.819 362.305L249.68 363.005L243.25 385.287L249.946 386.914Z" fill="white" stroke="#263238" stroke-miterlimit="10"/>
<path d="M178.526 232.486L191.392 238.457C191.392 238.457 196.784 253.73 194.987 254.18C193.191 254.629 179.712 243.847 179.712 243.847L178.526 232.486Z" fill="white" stroke="#263238" stroke-linecap="round" stroke-linejoin="round"/>
<path d="M185.931 229.423L186.835 224.28C186.835 224.28 198.74 225.097 203.496 225.069C208.253 225.041 212.416 224.419 212.385 219.361C212.353 214.304 209.569 197.068 209.569 197.068C209.569 197.068 214.916 195.846 216.983 193.449C219.05 191.053 216.058 188.101 213.358 184.548C210.658 180.995 208.256 177.144 207.933 172.981C207.61 168.819 200.386 155.182 200.386 155.182C200.386 155.182 201.562 153.092 197.669 148.655C193.775 144.217 173.84 143.448 161.089 149.774C148.337 156.1 145.421 165.339 145.484 175.452C145.547 185.566 151.286 199.807 151.286 199.807C151.286 199.807 147.515 215.298 147.223 216.192C146.932 217.086 143.556 223.675 143.556 223.675C143.556 223.675 159.502 234.805 165.336 239.795C171.17 244.785 184.305 253.335 184.387 248.718C184.469 244.102 184.995 233.662 184.995 233.662L185.931 229.423Z" fill="white" stroke="#263238" stroke-linecap="round" stroke-linejoin="round"/>
<path d="M203.52 181.154C203.597 182.877 203.194 184.295 202.62 184.321C202.046 184.346 201.517 182.971 201.44 181.248C201.363 179.524 201.764 178.107 202.339 178.081C202.913 178.055 203.442 179.431 203.52 181.154Z" fill="#263238"/>
<path d="M195.159 175.447C195.159 175.447 197.807 170.968 204.666 173.602" stroke="#263238" stroke-width="2" stroke-linecap="round" stroke-linejoin="round"/>
<path d="M212.384 219.361C212.353 214.305 209.569 197.068 209.569 197.068C209.569 197.068 206.286 195.304 200.049 196.834C193.813 198.364 192.09 208.484 190.908 209.681C189.725 210.879 181.948 203.788 178.944 199.047C175.94 194.306 173.808 185.992 173.479 181.235C173.15 176.477 184.44 174.027 186.202 169.556C187.963 165.084 179.601 160.374 182.556 157.383C185.512 154.391 191.469 155.542 194.447 156.119C196.477 156.395 198.543 156.071 200.39 155.185C200.39 155.185 201.567 153.096 197.673 148.658C193.779 144.22 173.845 143.451 161.093 149.777C148.341 156.104 145.426 165.342 145.489 175.456C145.539 183.651 149.317 194.556 150.749 198.398C151.951 198.923 153.248 199.194 154.559 199.195C155.747 198.891 156.617 195.316 157.19 191.743C157.763 188.17 166.362 183.952 166.362 183.952C166.362 183.952 167.916 194.65 167.929 196.733C167.942 198.815 166.817 209.232 172.499 214.253C176.996 217.983 181.792 221.336 186.839 224.278C186.839 224.278 198.744 225.095 203.501 225.067C208.257 225.039 212.416 224.417 212.384 219.361Z" fill="#263238" stroke="#263238" stroke-linecap="round" stroke-linejoin="round"/>
<path d="M168.19 191.379C168.19 191.379 165.721 177.115 161.562 177.736C157.402 178.357 155.054 183.726 157.18 190.555C159.305 197.383 163.464 196.762 165.84 196.157" fill="white"/>
<path d="M168.19 191.379C168.19 191.379 165.721 177.115 161.562 177.736C157.402 178.357 155.054 183.726 157.18 190.555C159.305 197.383 163.464 196.762 165.84 196.157" stroke="#263238" stroke-linecap="round" stroke-linejoin="round"/>
<path d="M197.407 202.202C197.407 202.202 199.805 205.162 206.052 205.12" stroke="white" stroke-linecap="round" stroke-linejoin="round"/>
<path d="M130.577 505.996H193.6C193.817 502.685 196.258 489.933 196.258 481.582C196.258 471.92 202.904 409.654 202.904 409.654L120.934 408.58L123.618 446.691L130.577 505.996Z" fill="#D7E8E7" stroke="#263238" stroke-linecap="round" stroke-linejoin="round"/>
<path d="M138.829 225.873C138.829 225.873 124.453 244.292 120.41 254.626C116.367 264.959 113.222 266.756 114.12 279.785C115.017 292.813 121.308 344.927 121.308 344.927L108.728 412.766C123.576 418.094 139.229 420.83 155.003 420.853C181.06 420.853 192.292 418.606 194.089 417.708C195.887 416.809 211.61 412.766 211.61 412.766C211.61 412.766 211.61 335.942 206.668 309.436C201.726 282.93 195.436 262.713 193.19 257.77C190.945 252.827 183.756 236.655 183.756 236.655L138.829 225.873Z" fill="#D7E8E7" stroke="#263238" stroke-linecap="round" stroke-linejoin="round"/>
<path d="M193.189 257.77C190.942 252.829 183.755 236.655 183.755 236.655L138.828 225.873C138.828 225.873 135.794 229.769 132.113 234.977C141.905 240.669 166.149 254.714 167.581 255.073C169.378 255.522 178.364 254.623 178.364 254.623L174.32 259.565C174.32 259.565 185.103 268.101 188.697 271.696C190.586 273.586 196.077 278.582 200.861 282.892C197.6 269.987 194.598 260.871 193.189 257.77Z" fill="#D7E8E7" stroke="#263238" stroke-linecap="round" stroke-linejoin="round"/>
<path d="M172.523 246.539L187.798 258.67L200.377 281.133L192.291 248.335L175.674 238.906L172.523 246.539Z" fill="white" stroke="#263238" stroke-linecap="round" stroke-linejoin="round"/>
<path d="M141.976 217.337L189.021 238.535V255.158L135.237 227.672L141.976 217.337Z" fill="white" stroke="#263238" stroke-linecap="round" stroke-linejoin="round"/>
<path d="M204.173 387.366H122.891V453.133H204.173V387.366Z" fill="#DEF7E5" stroke="#263238" stroke-miterlimit="10"/>
<path d="M168.527 418.709C168.527 418.709 174.571 426.593 176.931 427.381C178.947 428.192 180.619 429.677 181.661 431.583C182.711 433.16 184.027 444.985 184.812 445.773C185.598 446.561 185.6 448.401 182.711 447.087C179.822 445.773 177.981 441.306 177.981 441.306L179.031 451.811C179.031 451.811 181.396 452.337 179.556 453.65C177.717 454.963 176.141 456.802 174.564 456.016C173.159 455.183 171.839 454.215 170.623 453.125C168.763 453.749 166.783 453.928 164.841 453.65C161.95 453.125 162.477 454.177 159.848 452.337C157.22 450.498 157.221 452.6 155.906 449.186C153.876 443.07 152.209 436.84 150.914 430.528C150.388 427.113 149.864 422.382 149.864 422.382L168.527 418.709Z" fill="white" stroke="#263238" stroke-linecap="round" stroke-linejoin="round"/>
<path d="M169.577 413.717L171.416 421.863L148.817 425.014L147.767 416.868L169.577 413.717Z" fill="white" stroke="#263238" stroke-linecap="round" stroke-linejoin="round"/>
<path d="M140.628 242.047C140.628 242.047 124.904 246.989 124.454 254.176C124.005 261.364 118.799 348.56 121.046 354.401C123.293 360.242 145.404 419.381 145.404 419.381L171.011 416.23C171.011 416.23 157.885 347.656 157.436 346.308C156.986 344.96 166.236 268.547 166.236 268.547" fill="#D7E8E7"/>
<path d="M140.628 242.047C140.628 242.047 124.904 246.989 124.454 254.176C124.005 261.364 118.799 348.56 121.046 354.401C123.293 360.242 145.404 419.381 145.404 419.381L171.011 416.23C171.011 416.23 157.885 347.656 157.436 346.308C156.986 344.96 166.236 268.547 166.236 268.547" stroke="#263238" stroke-linecap="round" stroke-linejoin="round"/>
<path d="M163.221 290.496L157.434 346.309L162.955 380.989" stroke="#878787" stroke-linecap="round" stroke-linejoin="round"/>
<path d="M164.107 281.955L163.799 284.922" stroke="#878787" stroke-linecap="round" stroke-linejoin="round"/>
<path d="M122.65 273.318L120.922 325.716" stroke="#878787" stroke-linecap="round" stroke-linejoin="round"/>
<path d="M181.383 371.833L198.658 371.205L200.206 377.423L171.595 379.267" stroke="#878787" stroke-linecap="round" stroke-linejoin="round"/>
<path d="M166.986 372.357L176.187 372.022" stroke="#878787" stroke-linecap="round" stroke-linejoin="round"/>
<path d="M135.893 236.467L167.583 255.075L178.365 254.626L174.322 259.565L195.201 276.195" stroke="#181818" stroke-linecap="round" stroke-linejoin="round"/>
<path d="M151.028 24.9862V103.877" stroke="#263238" stroke-miterlimit="10"/>
<path d="M272.211 24.9862V103.877" stroke="#263238" stroke-miterlimit="10"/>
<path d="M393.392 24.9862V103.877" stroke="#263238" stroke-miterlimit="10"/>
</svg>
