<svg width="102" height="108" viewBox="0 0 102 108" fill="none" xmlns="http://www.w3.org/2000/svg">
<path d="M101.001 0.000976562C101.011 0.196241 101.012 0.951502 100.962 1.14062C100.542 2.79063 90.2722 41.5606 57.4022 58.8106C57.1163 58.9638 56.7966 59.0429 56.4722 59.0406C56.0253 59.0404 55.5914 58.8904 55.2396 58.6148C54.8879 58.3391 54.6386 57.9535 54.5316 57.5196C54.4246 57.0857 54.4659 56.6285 54.6491 56.2209C54.8323 55.8132 55.1467 55.4787 55.5422 55.2706C85.5122 39.5406 96.0807 3.30098 97.0007 0.000976562H101.001Z" fill="white"/>
<path d="M32.0002 0.000258505C26.8038 11.8689 22.293 28.9263 22.043 41.8803C22.023 42.9303 22.003 44.0003 22.003 45.0903C22.003 45.3603 22.003 45.6302 22.013 45.9002C21.7146 45.9104 21.4173 45.9405 21.123 45.9902C20.0426 46.1516 18.9936 46.4788 18.013 46.9602C17.983 45.4902 17.983 44.0602 18.013 42.6502C18.443 20.2102 24.9302 6.60026 28.5002 0.000258505C29.0002 0.000161588 29.5002 0 29.5002 0L30.0002 0.000696898C30.0002 0.000696898 30.0002 0.000258505 30.5002 0.000258505C31.2232 0.000258505 31.5002 0.000976562 32.0002 0.000258505Z" fill="white"/>
<path d="M69.6699 49.7926C72.0179 53.0436 70.0969 58.4415 65.3779 61.8495C60.6589 65.2575 54.9309 65.3826 52.5779 62.1316C50.2249 58.8806 52.1509 53.4816 56.8699 50.0746C61.5889 46.6676 67.3219 46.5406 69.6699 49.7926Z" fill="white" stroke="#263238" stroke-linecap="round" stroke-linejoin="round"/>
<path d="M63.8539 47.8644C65.5149 50.1644 64.1539 53.9794 60.8199 56.3894C57.4859 58.7994 53.4329 58.8895 51.7729 56.5895C50.1129 54.2895 51.4729 50.4734 54.8079 48.0644C58.1429 45.6554 62.1939 45.5654 63.8539 47.8644Z" fill="white" stroke="#263238" stroke-linecap="round" stroke-linejoin="round"/>
<path d="M37.423 102.451C36.9971 102.734 36.4788 102.843 35.9748 102.756C35.4708 102.669 35.0193 102.392 34.7133 101.982C34.4072 101.572 34.2698 101.061 34.3292 100.552C34.3887 100.044 34.6406 99.5785 35.033 99.2505C35.203 99.1105 41.913 93.4005 38.973 74.1705C38.723 72.5405 38.403 70.8005 38.003 68.9705C36.733 63.1405 34.773 55.7605 30.763 50.3405C29.8127 48.9072 28.507 47.7448 26.9735 46.9666C25.4399 46.1885 23.7309 45.8211 22.013 45.9005C21.7147 45.9107 21.4173 45.9407 21.123 45.9905C20.0426 46.1519 18.9936 46.4791 18.013 46.9605C15.0253 48.5032 12.7578 51.1511 11.693 54.3405L11.333 55.3805C9.06534 61.5128 7.2112 67.7902 5.783 74.1705C4.183 82.0205 3.643 90.2505 6.483 96.0005C7.24394 97.5782 8.32796 98.9783 9.66479 100.11C11.0016 101.242 12.5614 102.08 14.243 102.57C14.6945 102.719 15.0784 103.023 15.3259 103.429C15.5734 103.835 15.6683 104.315 15.5937 104.785C15.5191 105.254 15.2798 105.681 14.9187 105.99C14.5575 106.299 14.0982 106.469 13.623 106.47C13.4123 106.471 13.2029 106.437 13.003 106.37C10.8161 105.714 8.78921 104.611 7.05068 103.13C5.31216 101.65 3.89981 99.8248 2.90299 97.7705C-0.297006 91.3005 0.12299 82.4905 1.74299 74.1705C3.1792 67.3283 5.12462 60.6028 7.563 54.0505L7.923 53.0205C8.70888 50.6403 10.0256 48.4699 11.7736 46.6734C13.5216 44.8769 15.6552 43.5012 18.013 42.6505C18.829 42.3677 19.6692 42.1602 20.523 42.0305C21.033 41.9605 21.543 41.9105 22.043 41.8805C24.3834 41.8179 26.7023 42.3424 28.7879 43.4062C30.8735 44.47 32.6596 46.0392 33.983 47.9705C38.443 54.0005 40.563 61.9005 41.913 68.1205C42.383 70.2605 42.743 72.2705 43.013 74.1705C46.143 95.7505 37.813 102.171 37.423 102.451Z" fill="white" stroke="#263238" stroke-miterlimit="10"/>
<path d="M12.195 106.088C12.195 106.088 19.445 109.073 21.279 106.088C23.113 103.103 21.638 101.675 19.127 101.436C16.6226 101.309 14.1134 101.309 11.609 101.436L12.195 106.088Z" fill="white" stroke="#263238" stroke-miterlimit="10"/>
<path d="M15.521 105.089C15.3904 105.491 15.1363 105.84 14.7951 106.088C14.4538 106.336 14.0429 106.47 13.621 106.47C13.4102 106.471 13.2008 106.437 13.001 106.37C10.8142 105.713 8.7875 104.61 7.04902 103.13C5.31054 101.649 3.8981 99.8245 2.90098 97.7704C-0.299021 91.3004 0.120976 82.4894 1.74098 74.1704H5.78098C4.18098 82.0214 3.64098 90.2504 6.48098 96.0004C7.24193 97.5781 8.32595 98.9782 9.66277 100.11C10.9996 101.242 12.5594 102.08 14.241 102.57C14.7444 102.735 15.162 103.093 15.4019 103.565C15.6419 104.037 15.6847 104.586 15.521 105.089Z" fill="white" stroke="#263238" stroke-linecap="round" stroke-linejoin="round"/>
<path d="M30.747 100.275C30.4453 100.634 30.2221 101.052 30.0917 101.502C29.9613 101.952 29.9267 102.424 29.99 102.888C30.192 103.573 30.6267 104.164 31.2188 104.562C31.811 104.96 32.5234 105.138 33.233 105.065C34.6584 104.873 35.9579 104.148 36.87 103.036C37.893 101.914 41.339 94.5925 38.139 95.8435C35.808 96.7555 32.299 98.2455 30.747 100.275Z" fill="white" stroke="#263238" stroke-miterlimit="10"/>
<path d="M37.421 102.45C36.9951 102.734 36.4768 102.843 35.9728 102.756C35.4688 102.668 35.0173 102.392 34.7113 101.982C34.4052 101.572 34.2678 101.06 34.3272 100.552C34.3867 100.044 34.6386 99.5784 35.031 99.2504C35.201 99.1114 41.911 93.4004 38.971 74.1704H43.011C46.141 95.7494 37.811 102.169 37.421 102.45Z" fill="white" stroke="#263238" stroke-linecap="round" stroke-linejoin="round"/>
</svg>
