<svg width="32" height="32" viewBox="0 0 32 32" fill="none" xmlns="http://www.w3.org/2000/svg">
<path d="M17.0004 6.69327V26.9766C17.0012 27.1107 16.9759 27.2437 16.926 27.3678C16.876 27.4919 16.8025 27.6048 16.7096 27.6999C16.6166 27.795 16.5062 27.8705 16.3845 27.922C16.2628 27.9735 16.1322 28 16.0004 28C15.8686 28 15.7381 27.9735 15.6164 27.922C15.4947 27.8705 15.3842 27.795 15.2913 27.6999C15.1984 27.6048 15.1248 27.4919 15.0749 27.3678C15.025 27.2437 14.9997 27.1107 15.0005 26.9766V6.69327L7.70858 14.577C7.61864 14.677 7.50925 14.7568 7.38737 14.8114C7.26548 14.866 7.13377 14.8942 7.0006 14.8942C6.86743 14.8942 6.73571 14.866 6.61383 14.8114C6.49194 14.7568 6.38256 14.677 6.29262 14.577C6.10443 14.3686 6 14.0959 6 13.8129C6 13.5299 6.10443 13.2571 6.29262 13.0487L15.2924 3.31714C15.3824 3.2172 15.4918 3.13739 15.6137 3.08279C15.7355 3.0282 15.8673 3 16.0004 3C16.1336 3 16.2653 3.0282 16.3872 3.08279C16.5091 3.13739 16.6185 3.2172 16.7084 3.31714L25.7083 13.0487C25.8959 13.257 26 13.5293 26 13.8119C26 14.0944 25.8959 14.3667 25.7083 14.575C25.6184 14.6749 25.509 14.7548 25.3871 14.8094C25.2652 14.8639 25.1335 14.8921 25.0003 14.8921C24.8671 14.8921 24.7354 14.8639 24.6135 14.8094C24.4916 14.7548 24.3822 14.6749 24.2923 14.575L17.0004 6.69533V6.69327Z" fill="white"/>
</svg>
