<svg width="558" height="480" viewBox="0 0 558 480" fill="none" xmlns="http://www.w3.org/2000/svg">
<path d="M23.5024 296.609C23.5024 296.609 45.5917 386.765 135.111 434.272C224.63 481.779 331.915 468.219 419.243 459.475C506.571 450.732 562.575 391.544 557.213 317.222C551.85 242.901 481.55 232.646 428.4 155.959C375.25 79.272 372.694 51.5568 286.419 13.4044C200.144 -24.748 88.5612 26.3577 44.9877 123.91C1.41418 221.462 23.5024 296.609 23.5024 296.609Z" fill="#92E3A9"/>
<path opacity="0.7" d="M23.5024 296.609C23.5024 296.609 45.5917 386.765 135.111 434.272C224.63 481.779 331.915 468.219 419.243 459.475C506.571 450.732 562.575 391.544 557.213 317.222C551.85 242.901 481.55 232.646 428.4 155.959C375.25 79.272 372.694 51.5568 286.419 13.4044C200.144 -24.748 88.5612 26.3577 44.9877 123.91C1.41418 221.462 23.5024 296.609 23.5024 296.609Z" fill="white"/>
<path d="M66.725 48.1421V450.994" stroke="#263238" stroke-miterlimit="10"/>
<path d="M66.7249 32.6082V40.3233" stroke="#263238" stroke-miterlimit="10"/>
<path d="M213.428 32.6082V450.994" stroke="#263238" stroke-miterlimit="10"/>
<path d="M360.128 32.6082V450.994" stroke="#263238" stroke-miterlimit="10"/>
<path d="M506.831 92.2654V450.994" stroke="#263238" stroke-miterlimit="10"/>
<path d="M506.831 32.6082V82.2125" stroke="#263238" stroke-miterlimit="10"/>
<path d="M429.297 89.7842H93.3628V288.875H429.297V89.7842Z" fill="#263238"/>
<path d="M427.397 95.4456H95.2661V283.213H427.397V95.4456Z" fill="white" stroke="#263238" stroke-linecap="round" stroke-linejoin="round"/>
<path d="M431.181 86.3823H89.5361V97.0588H431.181V86.3823Z" fill="#263238"/>
<path d="M265.1 86.2361C270.404 86.2361 274.704 81.9361 274.704 76.6318C274.704 71.3276 270.404 67.0276 265.1 67.0276C259.796 67.0276 255.496 71.3276 255.496 76.6318C255.496 81.9361 259.796 86.2361 265.1 86.2361Z" fill="white" stroke="#263238" stroke-linecap="round" stroke-linejoin="round"/>
<path d="M270.154 76.6331C270.154 77.6329 269.858 78.6103 269.302 79.4417C268.747 80.273 267.957 80.9209 267.034 81.3035C266.11 81.6862 265.094 81.7863 264.113 81.5912C263.132 81.3962 262.232 80.9147 261.525 80.2077C260.818 79.5007 260.336 78.6 260.141 77.6193C259.946 76.6387 260.046 75.6223 260.429 74.6986C260.811 73.7748 261.459 72.9853 262.291 72.4298C263.122 71.8744 264.099 71.5779 265.099 71.5779C266.44 71.5779 267.726 72.1105 268.674 73.0585C269.622 74.0066 270.154 75.2924 270.154 76.6331Z" fill="#92E3A9" stroke="#263238" stroke-miterlimit="10"/>
<path d="M155.568 217.391H114.523V175.766H184.332V217.395H163.387" stroke="#263238" stroke-miterlimit="10"/>
<path d="M225.32 237.323H169.6V270.55H225.32V237.323Z" stroke="#263238" stroke-miterlimit="10"/>
<path d="M286.818 175.766H293.848V217.395H224.035V175.766H280.112" stroke="#263238" stroke-miterlimit="10"/>
<path d="M229.85 114.92H311.78V156.553H206.106V114.92H222.03" stroke="#263238" stroke-miterlimit="10"/>
<path d="M402.723 175.762H332.915V217.391H402.723V175.762Z" stroke="#263238" stroke-miterlimit="10"/>
<path d="M200.342 135.415C200.342 135.415 163.303 140.567 141.528 171.948" stroke="#263238" stroke-miterlimit="10"/>
<path d="M176.647 221.875L181.55 236.185" stroke="#263238" stroke-miterlimit="10"/>
<path d="M227.242 220.594L222.759 234.044" stroke="#263238" stroke-miterlimit="10"/>
<path d="M176.168 231.475L181.549 236.183L182.894 229.793" stroke="#263238" stroke-miterlimit="10"/>
<path d="M220.561 229.793L222.579 235.174L228.296 231.811" stroke="#263238" stroke-miterlimit="10"/>
<path d="M142.537 165.559L141.528 171.948L148.591 167.577" stroke="#263238" stroke-miterlimit="10"/>
<path d="M295.895 195.491H330.872" stroke="#263238" stroke-miterlimit="10"/>
<path d="M323.473 191.118L331.208 195.49L324.145 199.861" stroke="#263238" stroke-miterlimit="10"/>
<path d="M185.494 195.491H220.471" stroke="#263238" stroke-miterlimit="10"/>
<path d="M213.072 191.118L220.807 195.49L213.744 199.861" stroke="#263238" stroke-miterlimit="10"/>
<path d="M258.682 159.877V170.515" stroke="#263238" stroke-miterlimit="10"/>
<path d="M263.053 163.11L258.681 170.845L254.309 163.782" stroke="#263238" stroke-miterlimit="10"/>
<path d="M330.537 208.064H296.893" stroke="#263238" stroke-miterlimit="10"/>
<path d="M304.01 203.692L296.569 208.064L303.357 212.436" stroke="#263238" stroke-miterlimit="10"/>
<path d="M227.961 127.892H291.188" stroke="#263238" stroke-miterlimit="10"/>
<path d="M227.961 133.944H291.188" stroke="#263238" stroke-miterlimit="10"/>
<path d="M227.961 139.998H291.188" stroke="#263238" stroke-miterlimit="10"/>
<path d="M121.012 191.118H177.85" stroke="#263238" stroke-miterlimit="10"/>
<path d="M121.012 197.171H177.85" stroke="#263238" stroke-miterlimit="10"/>
<path d="M121.012 203.225H177.85" stroke="#263238" stroke-miterlimit="10"/>
<path d="M231.325 191.118H288.163" stroke="#263238" stroke-miterlimit="10"/>
<path d="M231.325 197.171H288.163" stroke="#263238" stroke-miterlimit="10"/>
<path d="M231.325 203.225H288.163" stroke="#263238" stroke-miterlimit="10"/>
<path d="M337.598 191.118H394.435" stroke="#263238" stroke-miterlimit="10"/>
<path d="M337.598 197.171H394.435" stroke="#263238" stroke-miterlimit="10"/>
<path d="M337.598 203.225H394.435" stroke="#263238" stroke-miterlimit="10"/>
<path d="M176.84 248.628H220.224" stroke="#263238" stroke-miterlimit="10"/>
<path d="M176.84 254.681H220.224" stroke="#263238" stroke-miterlimit="10"/>
<path d="M176.84 260.735H220.224" stroke="#263238" stroke-miterlimit="10"/>
<path d="M369.224 133.173C369.102 133.17 368.984 133.128 368.887 133.054C368.79 132.979 368.72 132.876 368.685 132.759C368.651 132.641 368.655 132.516 368.697 132.401C368.739 132.287 368.816 132.188 368.917 132.12L369.355 131.839L369.201 131.929C369.073 131.989 368.927 131.999 368.792 131.958C368.657 131.917 368.541 131.828 368.467 131.707C368.394 131.587 368.367 131.443 368.392 131.304C368.418 131.165 368.494 131.04 368.605 130.953L370.876 129.49L368.864 130.652C368.736 130.711 368.591 130.721 368.456 130.68C368.322 130.64 368.206 130.551 368.133 130.431C368.059 130.311 368.032 130.168 368.056 130.03C368.081 129.891 368.155 129.766 368.266 129.679L372.382 126.989L368.489 129.237C368.362 129.297 368.217 129.308 368.081 129.268C367.946 129.228 367.831 129.14 367.756 129.02C367.682 128.901 367.654 128.758 367.677 128.619C367.701 128.48 367.775 128.355 367.885 128.267L374.304 123.965L368.05 127.577C367.923 127.637 367.779 127.649 367.644 127.611C367.509 127.573 367.393 127.486 367.317 127.368C367.242 127.25 367.212 127.109 367.233 126.97C367.254 126.832 367.325 126.706 367.433 126.616L377.071 119.748L367.448 125.303C367.321 125.364 367.176 125.376 367.041 125.337C366.906 125.298 366.789 125.211 366.714 125.092C366.639 124.973 366.61 124.83 366.632 124.692C366.655 124.553 366.728 124.427 366.837 124.338L373.757 119.551L366.969 123.473C366.842 123.533 366.697 123.544 366.562 123.504C366.427 123.464 366.312 123.376 366.237 123.257C366.163 123.138 366.135 122.995 366.158 122.856C366.181 122.718 366.255 122.592 366.364 122.504L370.268 119.875L366.579 122.005C366.452 122.064 366.307 122.074 366.173 122.034C366.038 121.994 365.923 121.906 365.849 121.787C365.775 121.667 365.747 121.525 365.77 121.387C365.794 121.248 365.867 121.123 365.976 121.035L368.508 119.338L366.227 120.655C366.101 120.717 365.957 120.731 365.822 120.694C365.687 120.657 365.569 120.572 365.492 120.454C365.416 120.337 365.384 120.196 365.404 120.057C365.424 119.918 365.494 119.791 365.601 119.7L372.333 114.718L365.674 118.561C365.549 118.623 365.406 118.637 365.271 118.601C365.136 118.565 365.019 118.481 364.942 118.365C364.864 118.249 364.832 118.109 364.85 117.971C364.868 117.833 364.935 117.706 365.04 117.613L371.004 113.028L365.11 116.431C364.984 116.493 364.84 116.507 364.704 116.47C364.569 116.432 364.451 116.347 364.374 116.229C364.298 116.112 364.266 115.97 364.287 115.831C364.307 115.692 364.378 115.565 364.485 115.475L367.401 113.334L364.702 114.893C364.576 114.954 364.433 114.969 364.298 114.932C364.163 114.896 364.045 114.812 363.968 114.695C363.891 114.579 363.858 114.438 363.877 114.299C363.896 114.161 363.964 114.034 364.07 113.942L366.454 112.128L364.3 113.372C364.175 113.434 364.032 113.448 363.897 113.412C363.763 113.377 363.645 113.293 363.567 113.178C363.49 113.062 363.456 112.922 363.474 112.784C363.491 112.646 363.558 112.518 363.663 112.426L364.86 111.488L363.94 112.019C363.825 112.081 363.693 112.102 363.564 112.078C363.436 112.055 363.319 111.989 363.234 111.89C363.148 111.792 363.098 111.667 363.093 111.537C363.087 111.407 363.126 111.278 363.203 111.173L365.014 108.843L363.353 109.802C363.256 109.856 363.145 109.881 363.034 109.873C362.924 109.866 362.817 109.826 362.728 109.76C362.639 109.693 362.571 109.602 362.533 109.497C362.495 109.393 362.488 109.28 362.512 109.171L362.683 108.471C362.559 108.465 362.441 108.42 362.345 108.342C362.25 108.264 362.182 108.158 362.151 108.038C362.12 107.919 362.129 107.793 362.176 107.678C362.222 107.564 362.304 107.468 362.41 107.404L363.241 106.924C363.338 106.87 363.449 106.845 363.56 106.852C363.671 106.859 363.778 106.899 363.867 106.965C363.956 107.032 364.024 107.123 364.062 107.228C364.101 107.333 364.108 107.446 364.083 107.555L363.939 108.144L366.972 106.393C367.086 106.331 367.219 106.311 367.347 106.334C367.475 106.358 367.591 106.424 367.676 106.522C367.762 106.621 367.812 106.745 367.817 106.875C367.823 107.005 367.784 107.133 367.708 107.238L365.898 109.568L371.34 106.426C371.465 106.364 371.608 106.35 371.743 106.385C371.878 106.421 371.995 106.504 372.073 106.62C372.151 106.736 372.184 106.875 372.166 107.014C372.149 107.152 372.082 107.279 371.977 107.372L370.779 108.311L373.655 106.646C373.78 106.584 373.924 106.57 374.059 106.606C374.194 106.643 374.311 106.727 374.388 106.843C374.466 106.96 374.498 107.1 374.479 107.239C374.461 107.378 374.392 107.505 374.286 107.596L371.905 109.409L375.829 107.144C375.955 107.083 376.099 107.07 376.234 107.107C376.368 107.145 376.485 107.23 376.562 107.347C376.638 107.464 376.669 107.605 376.65 107.743C376.63 107.882 376.56 108.008 376.454 108.099L373.539 110.24L377.92 107.709C378.045 107.647 378.188 107.633 378.323 107.67C378.457 107.706 378.574 107.789 378.652 107.905C378.729 108.021 378.762 108.161 378.744 108.3C378.726 108.438 378.658 108.565 378.554 108.657L372.589 113.243L380.453 108.703C380.579 108.641 380.723 108.627 380.858 108.664C380.994 108.701 381.111 108.787 381.188 108.904C381.265 109.021 381.296 109.163 381.276 109.301C381.256 109.44 381.186 109.567 381.079 109.658L374.347 114.641L382.65 109.847C382.778 109.787 382.923 109.775 383.058 109.815C383.193 109.855 383.309 109.943 383.384 110.063C383.458 110.183 383.486 110.325 383.462 110.464C383.438 110.603 383.365 110.728 383.254 110.816L380.723 112.515L384 110.623C384.127 110.563 384.272 110.552 384.407 110.592C384.542 110.632 384.657 110.72 384.732 110.839C384.806 110.958 384.835 111.101 384.811 111.24C384.788 111.378 384.715 111.504 384.605 111.592L380.705 114.22L385.322 111.554C385.449 111.493 385.594 111.481 385.729 111.52C385.864 111.559 385.98 111.646 386.056 111.765C386.131 111.884 386.16 112.027 386.137 112.166C386.115 112.304 386.042 112.43 385.933 112.519L379.013 117.306L386.858 112.776C386.984 112.714 387.129 112.702 387.264 112.74C387.4 112.778 387.516 112.864 387.592 112.982C387.668 113.1 387.699 113.242 387.677 113.381C387.656 113.52 387.584 113.647 387.476 113.736L377.838 120.604L388.567 114.409C388.695 114.349 388.84 114.338 388.975 114.378C389.11 114.418 389.226 114.506 389.3 114.626C389.375 114.745 389.403 114.888 389.379 115.027C389.355 115.166 389.281 115.291 389.171 115.379L382.747 119.683L389.722 115.656C389.85 115.597 389.995 115.587 390.13 115.628C390.265 115.669 390.38 115.757 390.454 115.877C390.528 115.997 390.555 116.14 390.53 116.279C390.506 116.418 390.431 116.542 390.321 116.63L386.208 119.318L390.613 116.775C390.741 116.715 390.887 116.705 391.022 116.746C391.158 116.786 391.273 116.876 391.347 116.996C391.421 117.117 391.447 117.261 391.422 117.4C391.396 117.539 391.321 117.664 391.209 117.75L388.938 119.213L391.325 117.832C391.453 117.773 391.599 117.763 391.734 117.804C391.869 117.845 391.984 117.935 392.058 118.056C392.131 118.176 392.157 118.32 392.132 118.459C392.106 118.598 392.03 118.722 391.919 118.809L391.485 119.085L391.977 118.801C392.104 118.74 392.249 118.727 392.384 118.766C392.519 118.804 392.636 118.891 392.712 119.01C392.787 119.128 392.817 119.271 392.795 119.41C392.773 119.548 392.7 119.674 392.592 119.764L385.929 124.442L392.858 120.441C392.985 120.381 393.13 120.37 393.265 120.41C393.4 120.45 393.516 120.538 393.591 120.658C393.665 120.777 393.693 120.92 393.669 121.059C393.646 121.198 393.572 121.323 393.462 121.411L393.318 121.508L393.341 121.494C393.467 121.434 393.611 121.422 393.746 121.46C393.88 121.498 393.996 121.584 394.072 121.702C394.148 121.82 394.178 121.961 394.157 122.099C394.136 122.237 394.066 122.364 393.959 122.454L392.675 123.374L393.884 122.676C394.001 122.614 394.136 122.594 394.265 122.62C394.395 122.645 394.512 122.715 394.597 122.817C394.681 122.919 394.728 123.047 394.729 123.18C394.73 123.312 394.685 123.441 394.602 123.544L392.416 126.066L394.535 124.842C394.639 124.784 394.757 124.76 394.875 124.773C394.993 124.786 395.104 124.834 395.193 124.912C395.282 124.99 395.345 125.094 395.373 125.209C395.401 125.324 395.393 125.445 395.35 125.555L395.119 126.098C395.231 126.085 395.344 126.104 395.445 126.154C395.545 126.205 395.629 126.283 395.685 126.38C395.76 126.512 395.78 126.668 395.741 126.814C395.702 126.96 395.607 127.085 395.476 127.161L394.26 127.863C394.156 127.92 394.038 127.944 393.92 127.932C393.802 127.919 393.691 127.87 393.602 127.792C393.513 127.714 393.45 127.61 393.423 127.495C393.395 127.38 393.403 127.259 393.447 127.149L393.643 126.674L390.027 128.762C389.91 128.824 389.775 128.844 389.645 128.819C389.514 128.793 389.397 128.723 389.312 128.621C389.228 128.518 389.181 128.39 389.181 128.257C389.18 128.124 389.226 127.995 389.309 127.892L391.495 125.371L383.061 130.24C382.935 130.301 382.79 130.314 382.655 130.276C382.52 130.238 382.404 130.152 382.327 130.034C382.251 129.916 382.221 129.774 382.242 129.636C382.263 129.497 382.334 129.371 382.442 129.281L383.732 128.36L378.967 131.111C378.839 131.171 378.694 131.182 378.559 131.142C378.424 131.102 378.308 131.014 378.234 130.895C378.159 130.775 378.131 130.632 378.155 130.493C378.179 130.354 378.253 130.229 378.363 130.141L378.505 130.046L375.317 131.886C375.19 131.947 375.046 131.96 374.91 131.921C374.775 131.883 374.659 131.796 374.583 131.677C374.507 131.559 374.478 131.417 374.5 131.278C374.522 131.139 374.594 131.013 374.703 130.923L381.364 126.247L369.505 133.093C369.42 133.144 369.323 133.171 369.224 133.173Z" fill="#92E3A9"/>
<path d="M351.493 149.282C348.887 147.062 346.791 144.307 345.346 141.203C343.902 138.1 343.144 134.721 343.124 131.298C343.124 117.723 354.895 106.722 369.416 106.722C383.936 106.722 395.708 117.725 395.708 131.298C395.708 144.872 383.936 155.876 369.416 155.876C365.611 155.884 361.845 155.11 358.353 153.601" stroke="#263238" stroke-miterlimit="10"/>
<path d="M319.963 126.051H336.567" stroke="#263238" stroke-miterlimit="10"/>
<path d="M319.963 131.777H336.567" stroke="#263238" stroke-miterlimit="10"/>
<path d="M319.963 137.502H336.567" stroke="#263238" stroke-miterlimit="10"/>
<path d="M119.282 223.671H148.483" stroke="#263238" stroke-miterlimit="10"/>
<path d="M119.282 229.397H148.483" stroke="#263238" stroke-miterlimit="10"/>
<path d="M113.218 149.237H142.418" stroke="#263238" stroke-miterlimit="10"/>
<path d="M119.282 235.123H148.483" stroke="#263238" stroke-miterlimit="10"/>
<path d="M119.282 247.145H148.483" stroke="#263238" stroke-miterlimit="10"/>
<path d="M119.282 252.871H148.483" stroke="#263238" stroke-miterlimit="10"/>
<path d="M119.282 258.597H148.483" stroke="#263238" stroke-miterlimit="10"/>
<path d="M362.41 107.404L369.515 133.095L395.482 127.163" stroke="#263238" stroke-miterlimit="10"/>
<path d="M113.53 113.985V142.582H159.46" stroke="#263238" stroke-miterlimit="10"/>
<path d="M127.829 117.882H118.296V142.581H127.829V117.882Z" fill="#92E3A9" stroke="#263238" stroke-miterlimit="10"/>
<path d="M152.095 123.515H142.562V142.58H152.095V123.515Z" fill="#92E3A9" stroke="#263238" stroke-miterlimit="10"/>
<path d="M139.963 110.083H130.43V142.581H139.963V110.083Z" fill="#92E3A9" stroke="#263238" stroke-miterlimit="10"/>
<path d="M58.2421 298.305C58.2421 298.305 58.2421 293.497 51.5106 286.766C44.7791 280.034 40.4522 276.188 40.4522 276.188C40.4522 276.188 37.0824 287.248 43.3376 293.978C47.9349 298.714 52.9205 303.056 58.2421 306.96V298.305Z" fill="#92E3A9"/>
<path d="M48.4713 328.334C48.4713 328.334 48.4713 323.526 41.7399 316.795C35.0084 310.063 30.6802 306.21 30.6802 306.21C30.6802 306.21 27.3151 317.27 33.5657 324.001C38.163 328.739 43.149 333.084 48.4713 336.989V328.334Z" fill="#92E3A9"/>
<path d="M57.8188 306.494C57.8188 306.494 58.3261 301.714 65.7307 295.732C73.1352 289.749 77.8464 286.38 77.8464 286.38C77.8464 286.38 80.0243 297.733 73.0972 303.767C68.0251 307.99 62.6085 311.781 56.9041 315.101L57.8188 306.494Z" fill="#92E3A9"/>
<path d="M46.017 341.958C46.017 341.958 47.0248 337.256 55.0173 332.085C63.0097 326.913 68.0477 324.063 68.0477 324.063C68.0477 324.063 69.021 335.582 61.4991 340.861C56.0108 344.524 50.2256 347.722 44.2039 350.421L46.017 341.958Z" fill="#92E3A9"/>
<path d="M48.2418 380.624C48.2418 380.624 48.2418 375.816 54.9733 369.084C61.7048 362.353 66.0318 358.506 66.0318 358.506C66.0318 358.506 69.3981 369.564 63.1475 376.296C58.5501 381.032 53.5641 385.375 48.2418 389.279V380.624Z" fill="#92E3A9"/>
<path d="M48.1273 390.061C48.1273 390.061 48.8107 385.301 43.1043 377.682C37.3979 370.062 33.6611 365.64 33.6611 365.64C33.6611 365.64 28.7577 376.109 33.9878 383.66C37.8661 389 42.1844 394.007 46.8974 398.628L48.1273 390.061Z" fill="#92E3A9"/>
<path d="M41.4849 418.031C41.4849 418.031 41.4849 413.223 48.2164 406.491C54.9479 399.76 59.2749 395.914 59.2749 395.914C59.2749 395.914 62.6412 406.972 56.3906 413.704C51.7928 418.439 46.8069 422.782 41.4849 426.687V418.031Z" fill="#92E3A9"/>
<path d="M45.9798 443.389C45.9798 443.389 44.7614 438.738 49.5693 430.521C54.3772 422.304 57.5882 417.486 57.5882 417.486C57.5882 417.486 63.6455 427.333 59.3036 435.434C56.0554 441.181 52.3317 446.645 48.1715 451.771L45.9798 443.389Z" fill="#92E3A9"/>
<path d="M58.8519 297.073C58.5113 302.079 57.8968 307.064 57.0111 312.003C54.3501 325.751 47.6922 334.62 45.0369 347.039C42.3815 359.457 50.015 375.456 47.9695 391.404C45.9239 407.352 39.7147 416.223 41.4888 426.867C43.2628 437.512 52.576 466.338 52.576 466.338" stroke="#263238" stroke-linecap="round" stroke-linejoin="round"/>
<path d="M57.7503 309.69L65.0053 304.123" stroke="#263238" stroke-linecap="round" stroke-linejoin="round"/>
<path d="M58.0889 303.279L55.0516 297.881" stroke="#263238" stroke-linecap="round" stroke-linejoin="round"/>
<path d="M45.4343 346.468C45.4343 346.468 51.5077 341.913 57.7502 337.358" stroke="#263238" stroke-linecap="round" stroke-linejoin="round"/>
<path d="M48.4714 336.989C48.4714 336.989 43.4093 327.067 37.6752 320.488" stroke="#263238" stroke-linecap="round" stroke-linejoin="round"/>
<path d="M48.47 387.463C51.9371 381.075 56.3127 375.223 61.4602 370.091" stroke="#263238" stroke-linecap="round" stroke-linejoin="round"/>
<path d="M47.29 394.212C45.4473 389.875 43.2465 385.699 40.7104 381.728C37.168 376.498 36.6618 375.823 36.6618 375.823" stroke="#263238" stroke-linecap="round" stroke-linejoin="round"/>
<path d="M41.484 426.867C43.0223 423.046 44.8508 419.349 46.9534 415.807C49.056 412.524 51.426 409.42 54.0392 406.527" stroke="#263238" stroke-linecap="round" stroke-linejoin="round"/>
<path d="M48.1717 451.761C47.8203 448.113 48.4486 444.436 49.9918 441.111C52.5228 436.219 55.3898 429.809 56.5702 427.278" stroke="#263238" stroke-linecap="round" stroke-linejoin="round"/>
<path d="M14.1589 362.54C14.1589 362.54 13.6365 359.526 17.1271 354.573C20.6177 349.62 22.9129 346.739 22.9129 346.739C22.9129 346.739 26.2252 353.309 23.036 358.208C20.6668 361.677 18.0114 364.942 15.0977 367.968L14.1589 362.54Z" fill="#92E3A9"/>
<path d="M23.5446 380.31C23.5446 380.31 23.0234 377.295 26.5129 372.343C30.0023 367.392 32.2998 364.509 32.2998 364.509C32.2998 364.509 35.6109 371.079 32.4218 375.978C30.0524 379.447 27.3971 382.711 24.4834 385.737L23.5446 380.31Z" fill="#92E3A9"/>
<path d="M15.3129 367.63C15.3129 367.63 14.4754 364.687 9.18198 361.739C3.8886 358.792 0.570594 357.19 0.570594 357.19C0.570594 357.19 0.437138 364.546 5.436 367.578C9.07661 369.676 12.8865 371.465 16.8258 372.928L15.3129 367.63Z" fill="#92E3A9"/>
<path d="M26.5626 388.587C26.5626 388.587 25.4201 385.748 19.8472 383.373C14.2742 380.998 10.8055 379.754 10.8055 379.754C10.8055 379.754 11.4452 387.083 16.734 389.573C20.5734 391.277 24.5488 392.656 28.6185 393.696L26.5626 388.587Z" fill="#92E3A9"/>
<path d="M29.3707 413.074C29.3707 413.074 28.8495 410.059 23.8966 406.568C18.9438 403.078 15.8145 401.135 15.8145 401.135C15.8145 401.135 14.9033 408.435 19.5547 411.979C22.9517 414.449 26.5496 416.631 30.3106 418.501L29.3707 413.074Z" fill="#92E3A9"/>
<path d="M30.4642 418.978C30.4642 418.978 29.5196 416.069 32.2705 410.671C35.0213 405.273 36.885 402.094 36.885 402.094C36.885 402.094 41.0958 408.126 38.6361 413.429C36.784 417.2 34.6197 420.808 32.1658 424.218L30.4642 418.978Z" fill="#92E3A9"/>
<path d="M38.915 443.301C38.915 443.301 39.2602 440.261 44.0094 436.493C48.7586 432.725 51.7683 430.608 51.7683 430.608C51.7683 430.608 53.0936 437.845 48.6527 441.653C45.4025 444.314 41.9351 446.697 38.2869 448.779L38.915 443.301Z" fill="#92E3A9"/>
<path d="M37.6632 435.798C37.6632 435.798 37.142 432.784 32.1892 429.293C27.2363 425.803 24.1059 423.861 24.1059 423.861C24.1059 423.861 23.1958 431.161 27.8472 434.703C31.2444 437.174 34.8422 439.356 38.6031 441.226L37.6632 435.798Z" fill="#92E3A9"/>
<path d="M37.5981 452.188C37.5981 452.188 37.857 449.139 33.9499 444.509C30.0429 439.878 27.5072 437.205 27.5072 437.205C27.5072 437.205 24.7782 444.037 28.3804 448.642C31.0407 451.893 33.9685 454.915 37.1333 457.677L37.5981 452.188Z" fill="#92E3A9"/>
<path d="M13.6417 361.833C14.3993 364.936 15.3264 367.995 16.419 370.996C19.5794 379.328 24.714 384.168 27.7306 391.666C30.7471 399.163 27.6938 410.025 30.708 419.805C33.7223 429.586 38.5785 434.473 38.6222 441.34C38.6659 448.207 35.9542 467.299 35.9542 467.299" stroke="#263238" stroke-linecap="round" stroke-linejoin="round"/>
<path d="M15.7028 369.627L10.5498 366.923" stroke="#263238" stroke-linecap="round" stroke-linejoin="round"/>
<path d="M14.7944 365.643L16.1129 361.928" stroke="#263238" stroke-linecap="round" stroke-linejoin="round"/>
<path d="M27.4158 391.352C27.4158 391.352 23.113 389.155 18.7043 386.98" stroke="#263238" stroke-linecap="round" stroke-linejoin="round"/>
<path d="M24.4859 385.737C25.7492 381.738 27.4172 377.878 29.4641 374.218" stroke="#263238" stroke-linecap="round" stroke-linejoin="round"/>
<path d="M29.9644 417.389C27.0987 413.759 23.7213 410.563 19.9379 407.903" stroke="#263238" stroke-linecap="round" stroke-linejoin="round"/>
<path d="M31.4361 421.493C32.1198 418.573 33.0453 415.716 34.203 412.95C35.8562 409.285 36.1001 408.808 36.1001 408.808" stroke="#263238" stroke-linecap="round" stroke-linejoin="round"/>
<path d="M38.3906 446.548C40.0642 444.471 41.9188 442.546 43.9325 440.796C45.2143 439.851 46.4178 438.805 47.5312 437.667" stroke="#263238" stroke-linecap="round" stroke-linejoin="round"/>
<path d="M38.6236 441.34C37.2443 439.111 35.6962 436.99 33.9929 434.997C32.3179 433.167 30.4947 431.478 28.5419 429.948" stroke="#263238" stroke-linecap="round" stroke-linejoin="round"/>
<path d="M37.1316 457.677C36.9552 455.351 36.1608 453.113 34.8307 451.196C32.7126 448.403 30.2172 444.694 29.2025 443.235" stroke="#263238" stroke-linecap="round" stroke-linejoin="round"/>
<path d="M533.167 159.202C538.375 136.757 524.402 114.34 501.957 109.132C479.512 103.924 457.095 117.897 451.887 140.342C446.679 162.787 460.653 185.204 483.097 190.412C505.542 195.62 527.959 181.646 533.167 159.202Z" fill="#263238" stroke="#263238" stroke-width="0.999876" stroke-miterlimit="10"/>
<path d="M506.371 182.428C524.399 174.794 532.825 153.99 525.191 135.962C517.557 117.934 496.753 109.508 478.725 117.142C460.697 124.776 452.271 145.579 459.905 163.608C467.539 181.636 488.342 190.062 506.371 182.428Z" fill="white" stroke="#263238" stroke-width="1.00017" stroke-miterlimit="10"/>
<path d="M503.488 127.06L492.535 149.78H508.175" stroke="#263238" stroke-miterlimit="10"/>
<path d="M496.51 149.78C496.509 150.565 496.277 151.332 495.84 151.984C495.404 152.637 494.784 153.145 494.059 153.446C493.334 153.746 492.536 153.825 491.766 153.671C490.996 153.518 490.289 153.14 489.734 152.585C489.179 152.03 488.801 151.323 488.648 150.553C488.494 149.783 488.573 148.985 488.873 148.26C489.174 147.535 489.682 146.915 490.335 146.479C490.987 146.043 491.754 145.81 492.539 145.809C493.592 145.809 494.602 146.228 495.347 146.972C496.091 147.717 496.51 148.727 496.51 149.78Z" fill="#92E3A9" stroke="#263238" stroke-miterlimit="10"/>
<path d="M266.905 257.589L261.557 249.787C261.557 249.787 262.609 237.246 261.414 235.291C260.218 233.335 240.82 231.066 239.726 232.519C238.632 233.972 242.65 235.28 242.65 235.28C242.65 235.28 239.889 236.505 240.181 237.896C240.605 239.944 244.128 240.204 244.128 240.204C244.128 240.204 241.33 242.083 241.674 243.311C241.945 244.272 244.755 245.036 244.755 245.036C244.755 245.036 241.913 246.323 244.234 247.961C246.556 249.599 248.525 251.313 248.525 251.313C248.525 251.313 246.921 254.773 251.273 257.771C255.625 260.769 263.18 266.233 263.18 266.233L266.905 257.589Z" fill="white" stroke="#263238" stroke-linecap="round" stroke-linejoin="round"/>
<path d="M240.406 227.299L236.108 226.933L236.147 228.268L239.579 230.205C239.77 229.215 240.047 228.242 240.406 227.299Z" fill="#263238" stroke="#263238" stroke-linecap="round" stroke-linejoin="round"/>
<path d="M257.273 235.983C257.082 235.989 256.892 235.962 256.71 235.905L239.675 230.532C239.244 230.396 238.884 230.094 238.676 229.693C238.467 229.292 238.426 228.824 238.562 228.393C238.698 227.962 239 227.602 239.401 227.393C239.802 227.184 240.27 227.144 240.701 227.28L257.736 232.652C258.12 232.773 258.449 233.027 258.664 233.367C258.88 233.707 258.968 234.113 258.913 234.512C258.858 234.911 258.663 235.278 258.363 235.547C258.063 235.817 257.678 235.971 257.275 235.983H257.273Z" fill="white" stroke="#263238" stroke-linecap="round" stroke-linejoin="round"/>
<path d="M266.08 239.324C265.826 239.331 265.572 239.296 265.329 239.219L256.538 236.447C255.963 236.265 255.484 235.863 255.205 235.328C254.927 234.793 254.873 234.17 255.054 233.595C255.236 233.02 255.638 232.54 256.173 232.262C256.708 231.984 257.331 231.929 257.906 232.11L266.697 234.883C267.21 235.044 267.649 235.382 267.936 235.836C268.223 236.291 268.34 236.832 268.266 237.364C268.192 237.897 267.932 238.386 267.532 238.744C267.132 239.103 266.618 239.308 266.08 239.324Z" fill="#263238" stroke="#263238" stroke-linecap="round" stroke-linejoin="round"/>
<path d="M259.051 241.9C258.263 239.601 257.341 237.35 256.29 235.159C255.086 232.921 252.755 230.999 251.836 228.751C250.917 226.503 248.462 229.988 249.364 231.668C250.266 233.347 252.33 235.844 252.363 236.981C252.396 238.117 252.708 238.961 251.394 242.695C250.08 246.43 249.357 250.715 252.289 253.756" fill="white"/>
<path d="M259.051 241.9C258.263 239.601 257.341 237.35 256.29 235.159C255.086 232.921 252.755 230.999 251.836 228.751C250.917 226.503 248.462 229.988 249.364 231.668C250.266 233.347 252.33 235.844 252.363 236.981C252.396 238.117 252.708 238.961 251.394 242.695C250.08 246.43 249.357 250.715 252.289 253.756" stroke="#263238" stroke-linecap="round" stroke-linejoin="round"/>
<path d="M242.649 235.277L252.365 236.98" stroke="#263238" stroke-linecap="round" stroke-linejoin="round"/>
<path d="M244.128 240.201C245.255 239.883 251.398 242.695 251.398 242.695" stroke="#263238" stroke-linecap="round" stroke-linejoin="round"/>
<path d="M244.755 245.031L249.811 246.722" stroke="#263238" stroke-linecap="round" stroke-linejoin="round"/>
<path d="M334.975 242.598C334.975 242.598 332.082 240.883 330.796 245.474C329.509 250.066 325.768 258.13 324.114 259.885C322.459 261.641 306.166 277.757 306.166 277.757C306.166 277.757 299.183 272.277 297.537 274.316C296.85 275.344 295.89 276.159 294.765 276.672L266.821 254.748L256.478 270.405C256.478 270.405 294.459 305.105 297.617 306.149C300.775 307.192 303.039 306.839 304.158 306.24C305.278 305.64 326.133 289.956 326.133 289.956C326.133 289.956 338.852 248.927 339.948 247.474C341.043 246.021 334.975 242.598 334.975 242.598Z" fill="#D7E8E7" stroke="#263238" stroke-linecap="round" stroke-linejoin="round"/>
<path d="M297.462 277.85C297.462 277.85 303.121 284.38 303.121 292.651L297.462 277.85Z" fill="#92E3A9"/>
<path d="M297.462 277.85C297.462 277.85 303.121 284.38 303.121 292.651" stroke="#263238" stroke-linecap="round" stroke-linejoin="round"/>
<path d="M306.604 280.459C306.604 280.459 308.344 284.813 305.733 294.39L306.604 280.459Z" fill="#92E3A9"/>
<path d="M306.604 280.459C306.604 280.459 308.344 284.813 305.733 294.39" stroke="#263238" stroke-linecap="round" stroke-linejoin="round"/>
<path d="M347.424 191.965C347.424 191.965 335.095 183.894 336.557 176.259C338.02 168.624 365.674 162.466 381.571 167.62C397.469 172.774 400.701 196.579 398.604 211.261C396.507 225.944 395.246 259.441 395.246 259.441L341.308 261.033C341.308 261.033 346.335 221.801 347.375 209.399C348.415 196.996 347.424 191.965 347.424 191.965Z" fill="#263238" stroke="#263238" stroke-linecap="round" stroke-linejoin="round"/>
<path d="M319.81 407.965C320.907 419.687 323.147 471.348 324.373 479H380.501C380.385 470.184 380.234 410.661 381.511 405.79C383.105 399.71 385.346 379.41 382.874 367.77C380.402 356.129 377.395 350.539 377.395 350.539L319.181 350.481L319.348 355.258C319.348 355.258 318.259 391.328 319.81 407.965Z" fill="#263238" stroke="#263238" stroke-linecap="round" stroke-linejoin="round"/>
<path d="M332.261 372.812C334.6 374.382 336.873 375.518 336.873 377.792C338.01 398.252 342.557 455.699 344.155 476.401" stroke="#4C4C4C" stroke-linecap="round" stroke-linejoin="round"/>
<path d="M348.977 241.803L377.437 242.86C377.437 242.86 354.594 278.028 354.785 297.354C354.976 316.679 358.811 356.745 358.811 356.745C358.811 356.745 346.293 366.646 333.349 364.754C331.945 364.549 331.203 352.952 331.203 352.952C331.203 352.952 330.368 364.209 329.415 364.038C322.175 362.74 319.346 355.256 319.346 355.256L320.858 316.548C320.858 316.548 320.867 291.151 323.685 283.866C326.502 276.582 345.636 244.175 345.636 244.175L348.977 241.803Z" fill="white" stroke="#263238" stroke-linecap="round" stroke-linejoin="round"/>
<path d="M347.868 264.214C347.868 264.214 339.072 282.507 335.853 293.233C332.634 303.959 331.204 352.954 331.204 352.954" stroke="#263238" stroke-linecap="round" stroke-linejoin="round"/>
<path d="M374.018 242.583C374.018 242.583 354.049 272.359 350.195 283.086C346.34 293.813 343.761 334.827 344.275 352.249C344.79 369.671 350.282 388.834 350.282 388.834C366.465 391.415 383.024 390.279 398.702 385.512C398.702 385.512 391.727 354.635 388.395 344.498C386.28 337.856 384.685 331.06 383.627 324.17C383.627 324.17 406.488 251.098 406.454 249.964C406.421 248.829 406.009 247.703 403.714 247.011C401.419 246.32 374.018 242.583 374.018 242.583Z" fill="#D7E8E7" stroke="#263238" stroke-linecap="round" stroke-linejoin="round"/>
<path d="M355.724 356.48L385.342 354.111L385.737 358.85L373.1 360.43" fill="#DEF7E5"/>
<path d="M355.724 356.48L385.342 354.111L385.737 358.85L373.1 360.43" stroke="#263238" stroke-linecap="round" stroke-linejoin="round"/>
<path d="M348.711 245.6C348.711 245.6 324.933 287.618 324.399 295.215C323.865 302.811 320.348 337.783 318.4 348.838C316.452 359.893 307.988 381.364 307.988 381.364C307.988 381.364 305.815 371.952 306.449 367.763C307.083 363.574 316.239 339.807 317.218 334.469C318.197 329.132 319.532 310.141 319.288 301.809C319.045 293.478 318.483 287.428 320.2 281.314C321.916 275.199 334.978 242.594 334.978 242.594L353.902 241.656L348.711 245.6Z" fill="#D7E8E7" stroke="#263238" stroke-linecap="round" stroke-linejoin="round"/>
<path d="M343.562 242.128L339.597 260.24L349.767 252.349L343.562 242.128Z" fill="white" stroke="#263238" stroke-linecap="round" stroke-linejoin="round"/>
<path d="M355.673 233.334L343.561 242.128L348.132 254.083L347.868 264.214L361.607 243.85L355.673 233.334Z" fill="white" stroke="#263238" stroke-linecap="round" stroke-linejoin="round"/>
<path d="M354.971 228.573C354.971 228.573 352.658 245.511 351.948 250.03C351.238 254.55 347.867 264.21 347.867 264.21C347.867 264.21 369.464 243.328 370.539 241.61C371.613 239.892 375.338 223.192 375.338 223.192C375.338 223.192 361.432 228.385 354.971 228.573Z" fill="white" stroke="#263238" stroke-linecap="round" stroke-linejoin="round"/>
<path d="M354.316 233.325C357.257 235.166 359.545 235.166 362.959 234.631C366.372 234.096 371.038 230.906 374.142 228.392C374.832 225.454 375.336 223.195 375.336 223.195C375.336 223.195 361.43 228.385 354.972 228.576C354.969 228.573 354.7 230.548 354.316 233.325Z" fill="#263238" stroke="#263238" stroke-linecap="round" stroke-linejoin="round"/>
<path d="M361.889 177.198L345.951 189.759C345.951 189.759 344.341 201.896 343.747 210.352C343.432 213.835 343.955 217.343 345.274 220.581C346.592 223.82 348.667 226.696 351.325 228.968C355.944 233.049 358.481 233.256 362.959 232.561C367.437 231.867 374.03 226.611 376.492 224.289C378.954 221.968 383.532 215.086 383.532 215.086C383.532 215.086 387.214 215.821 388.282 214.102C388.825 213.3 389.271 212.437 389.612 211.532C389.612 211.532 374.458 202.981 368.235 192.204C362.012 181.426 361.889 177.198 361.889 177.198Z" fill="white" stroke="#263238" stroke-linecap="round" stroke-linejoin="round"/>
<path d="M356.926 199.558C356.693 201.332 356.174 203.056 355.389 204.663C354.316 206.382 350.127 207.35 352.432 209.25C354.183 210.453 356.266 211.08 358.39 211.043" stroke="#263238" stroke-linecap="round" stroke-linejoin="round"/>
<path d="M352.298 214.315C352.298 214.315 360.843 217.996 366.32 213.057" stroke="#263238" stroke-linecap="round" stroke-linejoin="round"/>
<path d="M355.15 215.637C355.15 215.637 356.415 220.379 359.198 219.454C361.981 218.529 364.404 214.802 364.404 214.802C361.342 215.293 358.25 215.572 355.15 215.637Z" stroke="#263238" stroke-linecap="round" stroke-linejoin="round"/>
<path d="M367.675 201.767C367.712 203.008 367.175 204.031 366.476 204.051C365.778 204.072 365.183 203.082 365.146 201.841C365.11 200.601 365.646 199.577 366.344 199.556C367.042 199.536 367.638 200.53 367.675 201.767Z" fill="#263238"/>
<path d="M354.269 200.198C354.305 201.44 353.769 202.463 353.071 202.483C352.372 202.504 351.777 201.513 351.741 200.272C351.704 199.031 352.24 198.009 352.938 197.988C353.637 197.968 354.237 198.957 354.269 200.198Z" fill="#263238"/>
<path d="M349.761 194.989C350.181 194.55 350.686 194.202 351.246 193.968C351.806 193.733 352.408 193.616 353.015 193.624C353.623 193.633 354.221 193.766 354.775 194.017C355.328 194.267 355.823 194.628 356.231 195.079" stroke="#263238" stroke-linecap="round" stroke-linejoin="round"/>
<path d="M362.718 195.731C362.718 195.731 369.113 193.293 371.807 198.837" stroke="#263238" stroke-linecap="round" stroke-linejoin="round"/>
<path d="M359.171 247.009L347.868 264.213L364.476 255.288L359.171 247.009Z" fill="white" stroke="#263238" stroke-linecap="round" stroke-linejoin="round"/>
<path d="M378.132 232.11L359.171 247.009L364.693 262.592L382.911 241.529L378.132 232.11Z" fill="white" stroke="#263238" stroke-linecap="round" stroke-linejoin="round"/>
<path d="M355.088 320.469C352.513 319.765 350.055 318.688 347.792 317.272C343.547 314.741 339.025 315.636 335.238 315.747C331.45 315.859 328.821 316.694 329.245 318.198C329.668 319.702 333.455 319.59 334.592 319.557C335.729 319.523 337.678 321.361 337.678 321.361L328.214 323.652C328.214 323.652 325.24 325.636 327.579 327.841C329.918 330.047 330.34 329.537 330.34 329.537C330.34 329.537 333.916 335.118 337.714 335.385C341.513 335.652 356.94 331.785 356.94 331.785L355.088 320.469Z" fill="white" stroke="#263238" stroke-linecap="round" stroke-linejoin="round"/>
<path d="M381.912 276.98C382.357 279.241 384.816 313.147 384.816 313.147L353.572 320.51L355.233 338.277C355.233 338.277 411.139 331.7 412.174 328.258C413.21 324.816 409.563 265.413 409.84 261.99C410.117 258.567 414.707 247.063 401.062 247.086" fill="#D7E8E7"/>
<path d="M381.912 276.98C382.357 279.241 384.816 313.147 384.816 313.147L353.572 320.51L355.233 338.277C355.233 338.277 411.139 331.7 412.174 328.258C413.21 324.816 409.563 265.413 409.84 261.99C410.117 258.567 414.707 247.063 401.062 247.086" stroke="#263238" stroke-linecap="round" stroke-linejoin="round"/>
<path d="M387.136 271.32C387.136 271.32 396.278 259.567 406.29 260.003L387.136 271.32Z" fill="#AACCB4"/>
<path d="M387.136 271.32C387.136 271.32 396.278 259.567 406.29 260.003" stroke="#263238" stroke-linecap="round" stroke-linejoin="round"/>
<path d="M387.136 275.674C387.136 275.674 394.972 271.32 402.808 271.32L387.136 275.674Z" fill="#92E3A9"/>
<path d="M387.136 275.674C387.136 275.674 394.972 271.32 402.808 271.32" stroke="#263238" stroke-linecap="round" stroke-linejoin="round"/>
<path d="M37.9571 479V412.437C37.9568 411.909 37.7471 411.404 37.374 411.031C37.001 410.658 36.4952 410.449 35.9679 410.449H27.8167C27.5556 410.449 27.2971 410.5 27.0559 410.6C26.8147 410.7 26.5955 410.846 26.4109 411.031C26.2263 411.216 26.0799 411.435 25.98 411.676C25.8801 411.917 25.8286 412.176 25.8286 412.437V479H37.9571Z" fill="#4C4C4C" stroke="#263238" stroke-linecap="round" stroke-linejoin="round"/>
<path d="M27.7907 479.001V412.437C27.7907 411.91 27.5812 411.404 27.2084 411.031C26.8355 410.658 26.3299 410.449 25.8026 410.449H17.6503C17.123 410.449 16.6173 410.658 16.2445 411.031C15.8717 411.404 15.6622 411.91 15.6622 412.437V479.001H27.7907Z" fill="#263238" stroke="#263238" stroke-linecap="round" stroke-linejoin="round"/>
<path d="M32.3784 479.001H178.001C176.984 476.428 175.262 474.195 173.032 472.558C166.43 468.387 103.529 458.656 103.529 458.656L38.1964 457.614L35.0694 458.656C35.0694 458.656 31.5937 463.522 31.9412 465.954C32.1161 467.184 32.2035 473.148 32.3784 479.001Z" fill="#263238" stroke="#263238" stroke-linecap="round" stroke-linejoin="round"/>
<path d="M91.7145 332.51C91.7145 332.51 76.4245 341.199 71.2117 346.063C65.9988 350.927 57.3104 366.914 56.6155 376.64C55.9206 386.367 48.2756 423.555 48.2756 423.555C48.2756 423.555 32.6371 454.136 35.0703 458.654C37.5036 463.172 101.799 458.654 103.524 458.654C105.25 458.654 101.787 439.541 101.787 439.541C101.787 439.541 126.113 402.01 127.155 391.932C128.198 381.853 120.9 354.4 119.51 348.145C118.12 341.89 94.8427 331.12 91.7145 332.51Z" fill="#D7E8E7" stroke="#263238" stroke-linecap="round" stroke-linejoin="round"/>
<path d="M79.7093 385.591C79.7093 385.591 91.8676 397.11 96.9873 400.949" stroke="#263238" stroke-linecap="round" stroke-linejoin="round"/>
<path d="M73.9501 394.55C73.9501 394.55 96.3466 402.229 102.106 402.871" stroke="#263238" stroke-linecap="round" stroke-linejoin="round"/>
<path d="M139.325 293.589C139.325 293.589 141.063 306.447 140.715 310.272C140.368 314.096 136.893 327.299 135.85 330.081C134.806 332.862 133.765 335.988 129.942 335.641C127.719 335.464 125.572 334.748 123.687 333.555L119.865 346.413L93.4543 331.121L96.9299 324.171C94.1797 319.003 92.5235 313.324 92.0645 307.488C91.0222 297.063 96.93 285.247 104.575 280.729C112.22 276.211 125.426 277.95 129.248 281.075C133.07 284.199 139.325 293.589 139.325 293.589Z" fill="white" stroke="#263238" stroke-linecap="round" stroke-linejoin="round"/>
<path d="M92.0627 325.904C93.4525 326.249 123.339 339.804 123.686 343.277C124.034 346.749 125.424 357.524 125.424 357.524C119.29 352.256 112.656 347.601 105.615 343.624C100.034 340.684 94.6896 337.314 89.6306 333.546L92.0627 325.904Z" fill="white" stroke="#263238" stroke-linecap="round" stroke-linejoin="round"/>
<path d="M118.474 265.093C118.474 265.093 127.51 261.27 134.811 263.008C142.112 264.747 144.89 273.085 144.89 280.036C144.89 286.986 141.066 295.327 139.677 295.674C138.287 296.022 134.811 279.337 128.209 274.475C124.512 271.854 121.23 268.691 118.474 265.093Z" fill="#DEF7E5" stroke="#263238" stroke-linecap="round" stroke-linejoin="round"/>
<path d="M107.354 267.178C107.354 267.178 121.601 259.533 134.112 270.306C146.622 281.079 142.453 291.851 139.672 295.674C136.891 299.497 136.892 306.795 134.807 308.184C132.721 309.574 132.375 302.624 129.941 301.234C127.508 299.845 127.857 305.056 125.077 312.008C122.297 318.959 109.786 329.035 103.183 328.344C96.5806 327.654 88.5882 320.352 84.0702 305.061C79.5523 289.77 82.6804 273.438 91.0203 268.225C93.4447 266.715 96.2052 265.83 99.0553 265.647C101.905 265.464 104.756 265.99 107.354 267.178Z" fill="#DEF7E5" stroke="#263238" stroke-linecap="round" stroke-linejoin="round"/>
<path d="M135.005 273.733C135.005 273.733 137.766 281.711 130.709 290.61C123.652 299.509 114.142 304.415 107.082 300.123C100.021 295.831 99.7185 290.919 99.7185 290.919" stroke="#263238" stroke-linecap="round" stroke-linejoin="round"/>
<path d="M88.3643 292.452C88.3643 292.452 86.8295 316.382 101.25 318.84C115.67 321.299 123.65 306.26 123.65 306.26" stroke="#263238" stroke-linecap="round" stroke-linejoin="round"/>
<path d="M92.9328 292.893C100.897 292.893 107.354 286.359 107.354 278.298C107.354 270.238 100.897 263.703 92.9328 263.703C84.9681 263.703 78.5114 270.238 78.5114 278.298C78.5114 286.359 84.9681 292.893 92.9328 292.893Z" fill="#DEF7E5" stroke="#263238" stroke-linecap="round" stroke-linejoin="round"/>
<path d="M89.8994 276.188C89.8994 276.188 91.7402 266.675 96.9577 265.447" stroke="#263238" stroke-linecap="round" stroke-linejoin="round"/>
<path d="M89.286 277.415C89.286 277.415 99.7186 273.733 104.629 277.722" stroke="#263238" stroke-linecap="round" stroke-linejoin="round"/>
<path d="M88.6728 279.257C88.6728 279.257 84.0708 282.325 85.6033 289.381" stroke="#263238" stroke-linecap="round" stroke-linejoin="round"/>
<path d="M132.028 309.222C132.028 309.222 130.985 298.797 127.857 299.144C124.729 299.491 126.12 315.136 127.857 317.563C128.009 317.879 128.24 318.151 128.527 318.352C128.815 318.553 129.149 318.677 129.498 318.711C129.847 318.746 130.199 318.69 130.52 318.55C130.842 318.409 131.121 318.188 131.333 317.908" fill="white"/>
<path d="M132.028 309.222C132.028 309.222 130.985 298.797 127.857 299.144C124.729 299.491 126.12 315.136 127.857 317.563C128.009 317.879 128.24 318.151 128.527 318.352C128.815 318.553 129.149 318.677 129.498 318.711C129.847 318.746 130.199 318.69 130.52 318.55C130.842 318.409 131.121 318.188 131.333 317.908" stroke="#263238" stroke-linecap="round" stroke-linejoin="round"/>
<path d="M425.742 464.883H103.03L113.917 437.491H353.138L425.742 464.883Z" fill="#B5B5B5" stroke="#263238" stroke-linecap="round" stroke-linejoin="round"/>
<path d="M421.313 470.358H106.612V479H421.313V470.358Z" fill="#263238" stroke="#263238" stroke-linecap="round" stroke-linejoin="round"/>
<path d="M425.742 464.879H103.03V475.052H425.742V464.879Z" fill="#4C4C4C" stroke="#263238" stroke-linecap="round" stroke-linejoin="round"/>
<path d="M224.607 440.996L233.955 455.755H158.195L165.574 440.996H224.607Z" fill="white"/>
<path d="M210.342 445.425L219.689 460.183H143.929L151.308 445.425H210.342Z" fill="white"/>
<path d="M118.123 364.134L132.719 431.897L189.364 439.89C189.364 439.89 206.391 432.94 207.782 432.94C209.173 432.94 211.605 437.11 212.647 438.5C213.689 439.89 215.428 441.974 216.123 443.018C216.818 444.061 217.165 449.273 216.123 450.663C215.08 452.053 212.995 455.876 210.91 455.528C208.825 455.181 210.91 449.621 210.91 449.621C210.91 449.621 198.747 454.485 194.924 454.485C191.101 454.485 183.456 451.01 183.456 451.01C183.456 451.01 118.819 458.308 114.996 456.918C113.417 456.429 111.955 455.622 110.7 454.546C109.445 453.47 108.424 452.149 107.699 450.663C106.308 447.882 84.0677 373.515 84.0677 373.515" fill="#D7E8E7"/>
<path d="M118.123 364.134L132.719 431.897L189.364 439.89C189.364 439.89 206.391 432.94 207.782 432.94C209.173 432.94 211.605 437.11 212.647 438.5C213.689 439.89 215.428 441.974 216.123 443.018C216.818 444.061 217.165 449.273 216.123 450.663C215.08 452.053 212.995 455.876 210.91 455.528C208.825 455.181 210.91 449.621 210.91 449.621C210.91 449.621 198.747 454.485 194.924 454.485C191.101 454.485 183.456 451.01 183.456 451.01C183.456 451.01 118.819 458.308 114.996 456.918C113.417 456.429 111.955 455.622 110.7 454.546C109.445 453.47 108.424 452.149 107.699 450.663C106.308 447.882 84.0677 373.515 84.0677 373.515" stroke="#263238" stroke-linecap="round" stroke-linejoin="round"/>
<path d="M212.647 438.502C211.604 437.112 209.172 432.942 207.781 432.942C206.39 432.942 189.363 439.892 189.363 439.892L157.088 435.337C159.191 441.213 159.727 447.535 158.642 453.681C172.108 452.3 183.456 451.013 183.456 451.013C183.456 451.013 191.102 454.487 194.924 454.487C198.746 454.487 210.91 449.623 210.91 449.623C210.91 449.623 208.825 455.183 210.91 455.531C212.994 455.878 215.08 452.055 216.122 450.665C217.165 449.275 216.813 444.063 216.122 443.02C215.432 441.978 213.689 439.892 212.647 438.502Z" fill="white" stroke="#263238" stroke-linecap="round" stroke-linejoin="round"/>
<path d="M7.00449 479H557.214" stroke="#263238" stroke-linecap="round" stroke-linejoin="round"/>
<path d="M309.242 456.218H370.399V454.255L279.348 440.637L281.555 442.6L309.242 456.218Z" fill="white" stroke="#263238" stroke-linecap="round" stroke-linejoin="round"/>
<path d="M309.242 454.254H370.399L338.09 440.952L281.554 440.637L309.242 454.254Z" fill="white" stroke="#263238" stroke-linecap="round" stroke-linejoin="round"/>
<path d="M319.202 443.659H324.933L322.009 442.435L316.39 442.483L319.202 443.659Z" fill="white" stroke="#263238" stroke-width="0.75" stroke-linecap="round" stroke-linejoin="round"/>
<path d="M330.829 448.527L333.765 449.756H339.502L336.566 448.527H330.829Z" fill="white" stroke="#263238" stroke-width="0.75" stroke-linecap="round" stroke-linejoin="round"/>
<path d="M341.457 446.683H335.121L336.796 447.383H343.162L341.457 446.683Z" fill="white" stroke="#263238" stroke-width="0.75" stroke-linecap="round" stroke-linejoin="round"/>
<path d="M328.099 447.383H333.835L332.16 446.683H326.427L328.099 447.383Z" fill="white" stroke="#263238" stroke-width="0.75" stroke-linecap="round" stroke-linejoin="round"/>
<path d="M332.39 445.54H338.678L336.885 444.803H330.627L332.39 445.54Z" fill="white" stroke="#263238" stroke-width="0.75" stroke-linecap="round" stroke-linejoin="round"/>
<path d="M310.505 443.659H316.241L313.494 442.509L307.874 442.557L310.505 443.659Z" fill="white" stroke="#263238" stroke-width="0.75" stroke-linecap="round" stroke-linejoin="round"/>
<path d="M321.931 444.802L323.694 445.539H329.43L327.667 444.802H321.931Z" fill="white" stroke="#263238" stroke-width="0.75" stroke-linecap="round" stroke-linejoin="round"/>
<path d="M350.033 452.925H356.632L351.707 450.899H345.192L350.033 452.925Z" fill="white" stroke="#263238" stroke-width="0.75" stroke-linecap="round" stroke-linejoin="round"/>
<path d="M336.496 450.899L341.336 452.925H347.073L342.233 450.899H336.496Z" fill="white" stroke="#263238" stroke-width="0.75" stroke-linecap="round" stroke-linejoin="round"/>
<path d="M327.803 450.899L332.643 452.925H338.379L333.539 450.899H327.803Z" fill="white" stroke="#263238" stroke-width="0.75" stroke-linecap="round" stroke-linejoin="round"/>
<path d="M324.842 450.899H313.635L317.635 452.925H329.682L324.842 450.899Z" fill="white" stroke="#263238" stroke-width="0.75" stroke-linecap="round" stroke-linejoin="round"/>
<path d="M327.897 443.659H334.11L330.946 442.358L324.917 442.411L327.897 443.659Z" fill="white" stroke="#263238" stroke-width="0.75" stroke-linecap="round" stroke-linejoin="round"/>
<path d="M339.525 448.527L342.461 449.756H348.927L345.936 448.527H339.525Z" fill="white" stroke="#263238" stroke-width="0.75" stroke-linecap="round" stroke-linejoin="round"/>
<path d="M330.808 449.757L327.872 448.528H322.136L325.072 449.757H330.808Z" fill="white" stroke="#263238" stroke-width="0.75" stroke-linecap="round" stroke-linejoin="round"/>
<path d="M307.545 443.659L304.975 442.584L297.346 442.65L299.34 443.66L307.545 443.659Z" fill="white" stroke="#263238" stroke-width="0.75" stroke-linecap="round" stroke-linejoin="round"/>
<path d="M323.465 446.683H317.729L319.404 447.383H325.141L323.465 446.683Z" fill="white" stroke="#263238" stroke-width="0.75" stroke-linecap="round" stroke-linejoin="round"/>
<path d="M313.235 444.802L314.998 445.539H320.734L318.971 444.802H313.235Z" fill="white" stroke="#263238" stroke-width="0.75" stroke-linecap="round" stroke-linejoin="round"/>
<path d="M316.444 447.383L314.769 446.683H305.31L306.69 447.383H316.444Z" fill="white" stroke="#263238" stroke-width="0.75" stroke-linecap="round" stroke-linejoin="round"/>
<path d="M303.052 445.54H312.037L310.275 444.803H301.595L303.052 445.54Z" fill="white" stroke="#263238" stroke-width="0.75" stroke-linecap="round" stroke-linejoin="round"/>
<path d="M319.181 448.527H308.957L311.383 449.756H322.116L319.181 448.527Z" fill="white" stroke="#263238" stroke-width="0.75" stroke-linecap="round" stroke-linejoin="round"/>
<path d="M309.243 454.254H307.034L264.728 393.257L266.828 392.624H294.514L309.243 454.254Z" fill="white" stroke="#263238" stroke-linecap="round" stroke-linejoin="round"/>
<path d="M307.033 454.254L279.347 440.636L264.62 392.624H292.305L307.033 454.254Z" fill="white" stroke="#263238" stroke-linecap="round" stroke-linejoin="round"/>
<path d="M549.065 479V405.045C549.065 404.517 548.855 404.011 548.482 403.638C548.109 403.265 547.603 403.056 547.075 403.056H520.137C519.876 403.056 519.617 403.107 519.376 403.207C519.135 403.307 518.915 403.454 518.731 403.638C518.546 403.823 518.4 404.042 518.3 404.284C518.2 404.525 518.149 404.784 518.149 405.045V479H549.065Z" fill="#263238" stroke="#263238" stroke-linecap="round" stroke-linejoin="round"/>
<path d="M539.324 479V405.045C539.324 404.517 539.114 404.012 538.742 403.639C538.369 403.266 537.863 403.056 537.336 403.056H510.396C509.869 403.056 509.363 403.266 508.99 403.639C508.617 404.012 508.408 404.517 508.408 405.045V479H539.324Z" fill="#4C4C4C" stroke="#263238" stroke-linecap="round" stroke-linejoin="round"/>
<path d="M431.376 361.095C431.376 361.095 419.506 369.009 417.984 373.878C416.462 378.747 407.637 406.444 406.723 408.574C405.81 410.705 398.505 421.966 398.505 421.966L359.549 423.792C359.549 423.792 341.895 419.835 340.375 419.835C338.854 419.835 323.635 429.879 322.418 432.618C321.201 435.358 318.461 439.314 319.678 440.227C320.896 441.139 322.721 439.618 322.721 439.618C322.721 439.618 323.33 443.875 330.939 442.357C338.549 440.84 346.157 435.358 346.157 435.358C346.157 435.358 355.591 439.923 359.244 439.009C359.351 438.983 359.445 438.947 359.549 438.918V442.966C359.549 442.966 410.984 445.705 413.114 445.097C415.244 444.488 426.506 430.793 426.506 430.793L439.594 360.183C439.594 360.183 438.985 353.487 431.376 361.095Z" fill="#D7E8E7" stroke="#263238" stroke-linecap="round" stroke-linejoin="round"/>
<path d="M360.391 424.846L359.651 423.788H359.549C359.549 423.788 341.896 419.832 340.375 419.832C338.854 419.832 323.635 429.876 322.418 432.615C321.201 435.354 318.461 439.311 319.679 440.223C320.896 441.135 322.722 439.615 322.722 439.615C322.722 439.615 323.33 443.871 330.94 442.354C338.549 440.836 346.157 435.354 346.157 435.354C346.157 435.354 355.591 439.919 359.244 439.006C359.351 438.979 359.445 438.944 359.549 438.915V442.962L360.391 424.846Z" fill="#4C4C4C" stroke="#263238" stroke-linecap="round" stroke-linejoin="round"/>
<path d="M432.825 479H434.031C433.098 476.795 432.283 474.762 431.953 473.662C430.977 470.413 419.28 428.173 417.981 422.005C416.682 415.837 417.331 407.059 420.58 394.712C423.829 382.365 431.375 361.101 431.375 361.101L420.58 376.18C420.58 376.18 411.482 411.27 411.482 415.82C411.482 420.37 416.031 443.439 420.58 454.811C423.217 461.408 428.688 471.596 432.825 479Z" fill="#D7E8E7" stroke="#263238" stroke-linecap="round" stroke-linejoin="round"/>
<path d="M436.245 352.574C436.245 352.574 424.984 370.227 421.94 382.4C418.896 394.573 416.461 405.227 416.461 416.184C416.461 427.141 428.636 458.184 430.462 462.14C432.288 466.097 452.071 467.317 458.159 448.449C464.246 429.581 466.984 375.1 463.336 362.623C459.688 350.146 443.853 344.357 436.245 352.574Z" fill="white" stroke="#263238" stroke-linecap="round" stroke-linejoin="round"/>
<path d="M433.078 350.016C432.329 351.14 422.217 356.758 422.217 356.758L421.843 367.243L424.834 361.625L429.539 375.531L434.572 349.645L433.078 350.016Z" fill="#D2D2D2" stroke="#263238" stroke-linecap="round" stroke-linejoin="round"/>
<path d="M434.208 479H517.073C514.348 471.7 503.81 443.45 503.484 442.144C503.11 440.649 494.496 373.985 485.507 361.625C476.519 349.266 455.548 344.772 451.053 347.395C451.053 347.395 436.073 377.73 430.459 391.961C424.845 406.193 421.096 434.28 421.096 438.4C421.096 442.52 428.961 468.361 428.961 468.361L434.208 479Z" fill="#D7E8E7" stroke="#263238" stroke-linecap="round" stroke-linejoin="round"/>
<path d="M493.871 456.714L458.053 467.384L460.339 471.956L480.154 465.858" stroke="#263238" stroke-linecap="round" stroke-linejoin="round"/>
<path d="M415.377 297.292C415.377 297.292 412.5 306.176 412.426 308C412.395 309.362 412.436 310.725 412.546 312.082C412.584 312.812 412.409 313.538 412.043 314.17C411.443 315.131 404.722 321.615 405.515 322.914C406.307 324.213 410.954 329.383 410.954 329.383C410.954 329.383 414.211 344.904 418.569 346.691C422.927 348.478 429.085 347.381 429.085 347.381L431.307 353.443L458.507 344.529L458.085 335.586C458.085 335.586 460.819 319.667 457.682 308.228C454.546 296.789 427.342 284.336 415.377 297.292Z" fill="white" stroke="#263238" stroke-linecap="round" stroke-linejoin="round"/>
<path d="M416.239 315.537C415.919 316.864 415.246 317.838 414.736 317.723C414.226 317.608 414.071 316.424 414.391 315.098C414.711 313.771 415.384 312.797 415.895 312.919C416.405 313.04 416.558 314.211 416.239 315.537Z" fill="#263238"/>
<path d="M414.314 309.505C414.864 309.355 415.437 309.315 416.002 309.387C416.567 309.459 417.112 309.641 417.606 309.923C418.1 310.206 418.534 310.583 418.883 311.033C419.231 311.483 419.488 311.998 419.638 312.547" fill="white"/>
<path d="M414.314 309.505C414.864 309.355 415.437 309.315 416.002 309.387C416.567 309.459 417.112 309.641 417.606 309.923C418.1 310.206 418.534 310.583 418.883 311.033C419.231 311.483 419.488 311.998 419.638 312.547" stroke="#263238" stroke-linecap="round" stroke-linejoin="round"/>
<path d="M411.652 331.555C411.652 331.555 414.694 334.596 420.016 332.695L411.652 331.555Z" fill="white"/>
<path d="M411.652 331.555C411.652 331.555 414.694 334.596 420.016 332.695" stroke="#263238" stroke-linecap="round" stroke-linejoin="round"/>
<path d="M432.042 275.524C431.173 273.403 429.791 271.531 428.02 270.075C426.25 268.619 424.145 267.626 421.896 267.183C414.153 265.688 408.597 276.502 410.543 280.654C412.488 284.807 413.365 285.756 409.632 285.96C405.898 286.165 398.77 295.867 405.073 301.808C411.377 307.749 418.951 299.26 419.323 302.297C419.696 305.335 418.676 308.035 422.325 308.179C425.974 308.322 431.965 307.924 431.03 310.277C430.094 312.63 429.879 318.1 433.36 318.944C436.842 319.787 438.977 315.509 441.414 316.097C443.851 316.685 447.131 324.475 444.994 328.753C442.858 333.03 441.382 333.038 441.131 334.083C440.88 335.128 447.626 342.28 454.565 341.007C461.504 339.733 470.518 337.486 471.584 330.007C472.651 322.527 470.466 320.896 473.31 318.272C476.154 315.648 478.927 314.838 478.11 310.588C477.293 306.338 474.674 304.971 475.514 301.489C476.354 298.006 472.832 282.055 457.922 275.142C443.012 268.23 432.042 275.524 432.042 275.524Z" fill="#263238" stroke="#263238" stroke-linecap="round" stroke-linejoin="round"/>
<path d="M461.365 336.119L427.081 356.009L429.538 375.532L466.131 346.456L461.365 336.119Z" fill="white" stroke="#263238" stroke-linecap="round" stroke-linejoin="round"/>
<path d="M371.658 428.663C371.658 428.663 364.785 426.1 360.39 424.845C352.884 422.7 345.855 419.5 343.234 420.249C340.613 420.998 327.84 429.786 327.84 429.786C327.84 429.786 323.346 440.647 323.72 442.145C324.094 443.643 326.844 441.235 326.844 441.235C326.844 441.235 325.219 443.269 326.717 444.767C328.215 446.265 329.709 443.271 329.709 443.271C329.709 443.271 329.334 447.016 331.58 446.642C332.156 446.616 332.707 446.404 333.15 446.036C333.594 445.669 333.906 445.167 334.038 444.607C334.038 444.607 334.202 446.642 336.075 446.642C337.948 446.642 342.073 438.775 342.073 438.775L349.189 439.149C349.189 439.149 354.806 442.14 358.176 442.52C361.546 442.899 365.667 440.647 365.667 440.647L370.161 441.771L373.906 430.91L371.658 428.663Z" fill="white" stroke="#263238" stroke-linecap="round" stroke-linejoin="round"/>
<path d="M326.844 441.235C326.844 441.235 330.673 432.043 331.286 431.431C331.899 430.819 339.557 426.529 339.557 426.529" stroke="#263238" stroke-linecap="round" stroke-linejoin="round"/>
<path d="M329.714 443.269C329.714 443.269 334.349 433.882 334.809 433.422C335.269 432.962 341.09 430.052 341.09 430.052" stroke="#263238" stroke-linecap="round" stroke-linejoin="round"/>
<path d="M334.041 444.604C334.041 444.604 338.483 436.026 339.25 435.566C340.016 435.106 342.011 434.035 342.011 434.035" stroke="#263238" stroke-linecap="round" stroke-linejoin="round"/>
<path d="M470.903 360.879C470.903 360.879 447.309 376.232 447.689 382.224C448.068 388.216 449.936 388.216 449.936 388.216L437.951 433.157C437.951 433.157 434.206 430.166 433.832 433.906L433.457 437.651L370.914 427.165L364.548 442.895C364.548 442.895 390.389 453.005 408.365 459.372C426.341 465.739 445.066 472.855 446.94 469.484C448.814 466.113 485.885 410.687 488.131 406.567C490.376 402.447 490.377 394.957 490.377 394.957" fill="#D7E8E7"/>
<path d="M470.903 360.879C470.903 360.879 447.309 376.232 447.689 382.224C448.068 388.216 449.936 388.216 449.936 388.216L437.951 433.157C437.951 433.157 434.206 430.166 433.832 433.906L433.457 437.651L370.914 427.165L364.548 442.895C364.548 442.895 390.389 453.005 408.365 459.372C426.341 465.739 445.066 472.855 446.94 469.484C448.814 466.113 485.885 410.687 488.131 406.567C490.376 402.447 490.377 394.957 490.377 394.957" stroke="#263238" stroke-linecap="round" stroke-linejoin="round"/>
<path d="M449.931 388.216C449.931 388.216 457.047 373.61 474.274 372.487" stroke="#263238" stroke-linecap="round" stroke-linejoin="round"/>
</svg>
