<svg width="555" height="462" viewBox="0 0 555 462" fill="none" xmlns="http://www.w3.org/2000/svg">
<path d="M526.478 74.4834C526.478 74.4834 492.678 10.9809 418.037 1.57267C343.397 -7.83552 291.288 38.0273 236.363 61.5478C207.605 73.8638 174.747 69.0805 144.212 75.0419C46.5763 94.1042 9.79519 213.531 50.4649 281.455C85.6734 340.254 147.639 370.829 241.996 377.884C336.353 384.938 402.546 393.166 487.044 335.55C571.543 277.933 565.911 157.978 526.478 74.4834Z" fill="#DEF7E5"/>
<path d="M277.302 462C430.222 462 554.188 449.706 554.188 434.541C554.188 419.376 430.222 407.082 277.302 407.082C124.382 407.082 0.416077 419.376 0.416077 434.541C0.416077 449.706 124.382 462 277.302 462Z" fill="#DEF7E5"/>
<path d="M551.634 291.705H34.8225V296.412H551.634V291.705Z" fill="#263238"/>
<path d="M398.187 234.171C399.198 234.437 400.243 234.552 401.288 234.514C401.31 234.514 400.814 233.073 400.772 232.986C400.29 231.976 398.763 230.309 397.521 230.477C397.316 230.511 397.12 230.587 396.946 230.701C396.772 230.816 396.624 230.966 396.512 231.141C396.399 231.316 396.325 231.513 396.294 231.719C396.263 231.925 396.275 232.135 396.331 232.336C396.488 232.758 396.736 233.141 397.056 233.458C397.377 233.775 397.763 234.018 398.187 234.171Z" fill="#263238"/>
<path d="M427.005 226.681C425.754 226.543 424.278 228.256 423.822 229.278C423.783 229.367 423.326 230.819 423.35 230.819H423.376C423.14 231.087 422.89 231.374 422.624 231.698C422.137 232.297 421.591 232.979 421.047 233.76C420.453 234.595 419.907 235.465 419.414 236.363C418.855 237.367 418.388 238.419 418.017 239.506L418.005 239.546C418.012 239.179 417.995 238.157 417.986 238.074C417.847 236.962 416.912 234.903 415.679 234.675C415.474 234.643 415.264 234.654 415.064 234.709C414.863 234.763 414.676 234.858 414.514 234.989C414.353 235.12 414.221 235.284 414.127 235.469C414.033 235.654 413.978 235.857 413.968 236.065C413.986 236.515 414.101 236.956 414.307 237.357C414.513 237.758 414.803 238.109 415.158 238.386C416.025 238.953 416.973 239.386 417.969 239.67C417.619 240.785 417.343 241.923 417.145 243.075C417.024 243.746 416.925 244.425 416.834 245.107C416.834 244.789 416.823 244.506 416.817 244.466C416.678 243.354 415.743 241.295 414.511 241.067C414.305 241.035 414.095 241.047 413.894 241.102C413.693 241.156 413.505 241.252 413.344 241.384C413.183 241.516 413.051 241.68 412.957 241.866C412.863 242.052 412.809 242.256 412.799 242.464C412.818 242.914 412.934 243.355 413.139 243.755C413.345 244.156 413.635 244.508 413.99 244.785C414.829 245.339 415.749 245.761 416.716 246.036C416.684 246.298 416.649 246.559 416.617 246.822C416.467 248.072 416.323 249.335 416.143 250.563C416.081 250.995 416.004 251.419 415.925 251.844C415.925 251.566 415.915 251.325 415.91 251.288C415.771 250.177 414.836 248.118 413.604 247.89C413.398 247.858 413.189 247.869 412.988 247.923C412.787 247.977 412.6 248.073 412.439 248.204C412.277 248.335 412.145 248.498 412.051 248.684C411.957 248.869 411.903 249.072 411.892 249.279C411.91 249.73 412.026 250.171 412.232 250.572C412.438 250.973 412.729 251.324 413.084 251.601C413.895 252.146 414.785 252.561 415.724 252.832C415.632 253.264 415.542 253.697 415.433 254.113C415.353 254.391 415.294 254.668 415.199 254.946C415.103 255.224 415.021 255.502 414.933 255.77C414.744 256.288 414.554 256.823 414.357 257.323C414.218 257.672 414.089 258.003 413.955 258.335C414.023 257.906 414.139 257.061 414.14 256.99C414.126 256.005 413.86 255.041 413.368 254.188C413.371 254.078 413.364 253.968 413.347 253.86C413.321 253.653 413.252 253.454 413.144 253.276C413.036 253.098 412.891 252.945 412.72 252.826C412.549 252.707 412.355 252.626 412.15 252.587C411.946 252.548 411.735 252.553 411.532 252.601C410.322 252.924 409.554 255.051 409.496 256.168C409.496 256.234 409.536 256.954 409.571 257.407C409.51 257.143 409.454 256.887 409.387 256.616C409.261 256.08 409.118 255.549 408.97 254.978C408.888 254.7 408.805 254.423 408.72 254.145C408.643 253.867 408.525 253.589 408.427 253.297C408.188 252.643 407.913 251.99 407.621 251.34C408.601 251.137 409.544 250.784 410.417 250.294C410.791 250.044 411.106 249.715 411.341 249.332C411.576 248.948 411.725 248.518 411.777 248.071C411.782 247.863 411.744 247.656 411.664 247.463C411.585 247.271 411.465 247.098 411.314 246.955C411.163 246.811 410.984 246.701 410.787 246.632C410.591 246.563 410.383 246.536 410.175 246.552C408.925 246.691 407.847 248.672 407.621 249.77C407.606 249.838 407.533 250.642 407.501 251.086C407.323 250.695 407.146 250.306 406.955 249.917C406.399 248.795 405.799 247.678 405.206 246.559C405.025 246.216 404.848 245.874 404.669 245.531C405.683 245.321 406.66 244.96 407.566 244.46C407.94 244.21 408.256 243.882 408.491 243.498C408.726 243.115 408.874 242.684 408.926 242.237C408.932 242.029 408.893 241.822 408.814 241.63C408.734 241.438 408.615 241.264 408.464 241.121C408.313 240.978 408.133 240.868 407.937 240.799C407.74 240.729 407.532 240.702 407.324 240.719C406.074 240.858 404.997 242.84 404.771 243.936C404.754 244.018 404.648 245.177 404.632 245.473C404.239 244.717 403.855 243.96 403.506 243.199C403.031 242.173 402.622 241.118 402.283 240.039C403.303 239.828 404.286 239.465 405.2 238.964C405.574 238.714 405.89 238.386 406.125 238.002C406.36 237.619 406.508 237.188 406.56 236.741C406.566 236.533 406.527 236.326 406.448 236.134C406.368 235.942 406.249 235.768 406.098 235.625C405.947 235.482 405.767 235.372 405.571 235.303C405.374 235.233 405.166 235.206 404.958 235.223C403.708 235.362 402.63 237.343 402.405 238.439C402.387 238.525 402.274 239.771 402.266 239.999C402.248 239.935 402.22 239.873 402.202 239.81C401.892 238.72 401.679 237.604 401.567 236.476C401.498 235.853 401.466 235.255 401.448 234.67C402.46 234.575 403.453 234.325 404.39 233.929C404.79 233.722 405.141 233.43 405.417 233.074C405.692 232.718 405.887 232.306 405.988 231.866C406.016 231.66 406.001 231.45 405.943 231.25C405.885 231.05 405.785 230.865 405.651 230.706C405.516 230.547 405.35 230.418 405.162 230.328C404.975 230.237 404.77 230.187 404.562 230.181C403.312 230.181 402.016 232.033 401.67 233.099C401.652 233.157 401.531 233.767 401.441 234.21C401.441 233.946 401.427 233.674 401.428 233.422C401.428 232.473 401.491 231.606 401.549 230.838C401.586 230.402 401.63 230.005 401.673 229.639C402.523 229.09 403.285 228.414 403.932 227.635C404.191 227.266 404.367 226.846 404.447 226.403C404.528 225.96 404.511 225.504 404.397 225.069C404.327 224.873 404.216 224.694 404.072 224.544C403.928 224.394 403.754 224.276 403.562 224.197C403.369 224.118 403.162 224.081 402.954 224.088C402.746 224.094 402.542 224.144 402.355 224.235C401.243 224.81 400.949 227.051 401.134 228.155C401.149 228.251 401.57 229.714 401.589 229.702L401.61 229.686C401.561 230.041 401.513 230.42 401.471 230.835C401.395 231.604 401.316 232.473 401.293 233.425C401.258 234.45 401.283 235.476 401.367 236.498C401.456 237.643 401.646 238.778 401.937 239.889L401.949 239.928C401.752 239.618 401.171 238.771 401.116 238.711C400.383 237.865 398.476 236.659 397.317 237.15C397.128 237.236 396.959 237.362 396.821 237.518C396.683 237.674 396.58 237.858 396.518 238.057C396.456 238.256 396.437 238.465 396.461 238.672C396.486 238.879 396.553 239.078 396.66 239.257C396.923 239.623 397.263 239.927 397.655 240.148C398.048 240.369 398.484 240.501 398.933 240.537C399.97 240.532 401 240.37 401.989 240.057C402.313 241.181 402.712 242.281 403.181 243.351C403.451 243.978 403.737 244.602 404.043 245.219C403.864 244.956 403.701 244.723 403.675 244.692C402.942 243.846 401.035 242.64 399.876 243.131C399.687 243.217 399.518 243.343 399.38 243.499C399.243 243.655 399.14 243.839 399.078 244.038C399.016 244.237 398.996 244.446 399.021 244.653C399.045 244.86 399.113 245.059 399.219 245.238C399.483 245.604 399.822 245.908 400.215 246.129C400.608 246.35 401.044 246.482 401.493 246.518C402.5 246.519 403.5 246.365 404.459 246.062C404.578 246.299 404.693 246.536 404.811 246.772C405.379 247.904 405.952 249.031 406.478 250.155C406.664 250.551 406.832 250.947 407.003 251.343C406.844 251.109 406.707 250.915 406.684 250.887C405.952 250.041 404.044 248.836 402.885 249.325C402.696 249.412 402.527 249.537 402.389 249.694C402.252 249.85 402.148 250.034 402.086 250.232C402.024 250.431 402.005 250.641 402.029 250.848C402.054 251.055 402.122 251.254 402.228 251.433C402.491 251.798 402.831 252.102 403.224 252.323C403.616 252.544 404.052 252.677 404.501 252.712C405.48 252.718 406.454 252.572 407.388 252.279C407.551 252.696 407.713 253.101 407.852 253.507C407.941 253.785 408.045 254.049 408.119 254.341L408.351 255.174C408.48 255.71 408.615 256.262 408.727 256.787C408.808 257.153 408.879 257.501 408.951 257.853C408.77 257.457 408.395 256.69 408.362 256.629C407.766 255.681 406.059 254.2 404.843 254.51C404.642 254.567 404.456 254.665 404.296 254.798C404.136 254.932 404.006 255.097 403.915 255.284C403.823 255.471 403.771 255.676 403.764 255.884C403.756 256.092 403.793 256.299 403.87 256.493C404.075 256.894 404.365 257.246 404.72 257.524C405.074 257.802 405.485 258 405.924 258.103C406.943 258.254 407.979 258.251 408.997 258.093C409.114 258.675 409.221 259.243 409.315 259.78C409.643 261.641 409.846 263.204 409.972 264.298C409.994 264.492 410.012 264.666 410.031 264.83H406.259L407.635 291.705H414.064L415.442 264.83H411.927L412.005 264.669C412.487 263.663 413.155 262.219 413.877 260.453C414.108 259.898 414.341 259.295 414.572 258.677C415.576 258.91 416.609 258.99 417.637 258.914C418.082 258.844 418.506 258.678 418.88 258.427C419.255 258.176 419.57 257.847 419.804 257.462C419.896 257.276 419.948 257.072 419.957 256.864C419.965 256.655 419.929 256.448 419.852 256.255C419.775 256.061 419.658 255.886 419.509 255.741C419.359 255.596 419.181 255.484 418.986 255.412C417.798 255.013 415.984 256.363 415.319 257.264C415.281 257.316 414.919 257.94 414.699 258.338C414.793 258.085 414.887 257.84 414.976 257.578C415.167 257.061 415.34 256.54 415.532 255.979L415.781 255.145C415.87 254.867 415.928 254.568 416.004 254.277C416.166 253.599 416.296 252.903 416.413 252.2C417.342 252.571 418.323 252.796 419.321 252.868C419.771 252.866 420.216 252.765 420.624 252.573C421.032 252.381 421.393 252.103 421.682 251.757C421.802 251.586 421.884 251.392 421.924 251.188C421.964 250.984 421.96 250.773 421.913 250.57C421.866 250.368 421.777 250.177 421.652 250.011C421.526 249.845 421.367 249.707 421.185 249.606C420.074 249.031 418.073 250.091 417.28 250.88C417.231 250.929 416.724 251.559 416.455 251.912C416.521 251.488 416.593 251.066 416.642 250.635C416.796 249.392 416.92 248.135 417.037 246.87C417.074 246.484 417.116 246.101 417.156 245.716C418.118 246.101 419.132 246.339 420.164 246.422C420.615 246.42 421.06 246.319 421.468 246.127C421.876 245.935 422.237 245.656 422.526 245.31C422.645 245.14 422.728 244.946 422.768 244.742C422.807 244.537 422.804 244.327 422.757 244.124C422.709 243.921 422.62 243.73 422.494 243.564C422.369 243.398 422.209 243.26 422.027 243.16C420.916 242.586 418.916 243.645 418.123 244.434C418.063 244.493 417.337 245.406 417.164 245.642C417.253 244.795 417.351 243.953 417.48 243.125C417.649 242.007 417.89 240.902 418.202 239.816C419.169 240.201 420.188 240.441 421.225 240.527C421.676 240.524 422.121 240.424 422.529 240.232C422.937 240.04 423.298 239.761 423.587 239.416C423.707 239.245 423.789 239.051 423.828 238.847C423.868 238.642 423.864 238.432 423.817 238.229C423.77 238.026 423.681 237.836 423.555 237.669C423.43 237.503 423.271 237.366 423.088 237.265C421.977 236.691 419.978 237.75 419.184 238.539C419.122 238.601 418.341 239.58 418.212 239.767C418.231 239.703 418.244 239.637 418.262 239.574C418.606 238.493 419.045 237.445 419.573 236.441C419.858 235.885 420.163 235.367 420.47 234.87C421.367 235.35 422.332 235.689 423.331 235.877C423.78 235.925 424.233 235.874 424.659 235.729C425.086 235.584 425.476 235.348 425.802 235.037C425.939 234.88 426.042 234.697 426.104 234.498C426.166 234.299 426.186 234.09 426.161 233.883C426.137 233.676 426.069 233.477 425.963 233.298C425.856 233.119 425.713 232.964 425.543 232.844C424.498 232.15 422.398 232.983 421.523 233.678C421.475 233.715 421.034 234.154 420.717 234.479C420.856 234.257 420.995 234.025 421.141 233.815C421.666 233.026 422.194 232.336 422.669 231.731C422.947 231.388 423.194 231.083 423.433 230.799C424.445 230.811 425.454 230.668 426.423 230.374C426.842 230.21 427.221 229.957 427.533 229.631C427.845 229.306 428.082 228.917 428.229 228.49C428.276 228.291 428.281 228.083 428.244 227.881C428.207 227.68 428.128 227.488 428.013 227.318C427.898 227.148 427.749 227.003 427.576 226.894C427.402 226.784 427.208 226.712 427.005 226.681ZM413.206 260.163C412.453 261.895 411.76 263.311 411.261 264.293C411.161 264.491 411.071 264.666 410.984 264.828H410.9C410.875 264.637 410.849 264.427 410.815 264.191C410.664 263.088 410.425 261.513 410.053 259.642C409.936 259.05 409.801 258.421 409.655 257.775C410.242 257.54 410.814 257.271 411.368 256.969C412.124 257.618 412.966 258.161 413.869 258.581C413.648 259.132 413.425 259.664 413.206 260.164V260.163Z" fill="#263238"/>
<path d="M420.44 234.648C420.459 234.66 420.84 233.186 420.857 233.09C421.011 231.979 420.658 229.756 419.529 229.2C419.339 229.115 419.133 229.07 418.925 229.07C418.716 229.069 418.51 229.113 418.32 229.197C418.13 229.281 417.959 229.405 417.82 229.56C417.681 229.715 417.575 229.897 417.511 230.095C417.41 230.534 417.405 230.989 417.497 231.43C417.589 231.871 417.777 232.286 418.046 232.647C418.742 233.428 419.548 234.102 420.44 234.648Z" fill="#263238"/>
<path d="M100.003 237C100.965 237.253 101.959 237.363 102.953 237.326C102.974 237.326 102.503 235.958 102.464 235.874C102.004 234.914 100.552 233.329 99.3713 233.488C99.1759 233.52 98.9894 233.592 98.824 233.701C98.6586 233.81 98.5179 233.953 98.4113 234.12C98.3046 234.286 98.2342 234.474 98.2048 234.67C98.1754 234.865 98.1875 235.065 98.2405 235.256C98.3899 235.657 98.6251 236.021 98.9296 236.322C99.234 236.624 99.6005 236.855 100.003 237Z" fill="#263238"/>
<path d="M127.407 229.879C126.222 229.752 124.813 231.376 124.379 232.348C124.343 232.432 123.908 233.812 123.931 233.812H123.956C123.732 234.067 123.494 234.343 123.24 234.646C122.778 235.216 122.258 235.863 121.741 236.606C121.175 237.4 120.657 238.227 120.188 239.082C119.657 240.037 119.213 241.037 118.86 242.07L118.849 242.108C118.856 241.759 118.84 240.782 118.831 240.707C118.692 239.653 117.809 237.693 116.637 237.476C116.441 237.446 116.241 237.457 116.05 237.508C115.859 237.56 115.681 237.652 115.528 237.777C115.374 237.902 115.249 238.058 115.16 238.235C115.071 238.411 115.02 238.605 115.01 238.803C115.027 239.231 115.137 239.65 115.333 240.031C115.528 240.413 115.805 240.747 116.142 241.01C116.967 241.549 117.868 241.961 118.815 242.232C118.482 243.292 118.219 244.373 118.03 245.469C117.916 246.106 117.822 246.752 117.736 247.401C117.736 247.1 117.725 246.829 117.719 246.791C117.58 245.735 116.698 243.776 115.527 243.561C115.331 243.53 115.131 243.541 114.94 243.592C114.749 243.644 114.571 243.735 114.417 243.86C114.264 243.985 114.139 244.141 114.049 244.318C113.96 244.495 113.909 244.689 113.9 244.886C113.917 245.315 114.027 245.734 114.222 246.115C114.418 246.497 114.694 246.831 115.032 247.094C115.83 247.623 116.703 248.027 117.623 248.29C117.593 248.539 117.559 248.788 117.53 249.036C117.391 250.232 117.252 251.427 117.079 252.594C117.019 253.011 116.94 253.408 116.872 253.811C116.872 253.543 116.862 253.318 116.858 253.283C116.719 252.227 115.835 250.268 114.664 250.052C114.468 250.021 114.269 250.032 114.077 250.084C113.886 250.135 113.708 250.227 113.555 250.352C113.401 250.477 113.276 250.633 113.187 250.81C113.097 250.987 113.047 251.181 113.037 251.378C113.054 251.807 113.164 252.226 113.36 252.607C113.555 252.988 113.832 253.323 114.17 253.586C114.943 254.104 115.791 254.499 116.686 254.757C116.599 255.174 116.513 255.58 116.408 255.974C116.331 256.241 116.269 256.504 116.184 256.769L115.931 257.552C115.753 258.044 115.571 258.553 115.384 259.029C115.257 259.36 115.13 259.674 115.002 259.991C115.067 259.582 115.175 258.779 115.177 258.711C115.164 257.775 114.911 256.858 114.443 256.046C114.446 255.942 114.44 255.838 114.424 255.735C114.399 255.539 114.333 255.35 114.231 255.18C114.128 255.011 113.991 254.865 113.828 254.752C113.665 254.639 113.481 254.562 113.286 254.525C113.091 254.489 112.891 254.493 112.698 254.539C111.547 254.845 110.817 256.868 110.762 257.929C110.762 257.991 110.801 258.676 110.833 259.107C110.776 258.857 110.721 258.612 110.659 258.357C110.538 257.847 110.403 257.343 110.259 256.798C110.181 256.538 110.1 256.276 110.02 256.01C109.939 255.745 109.835 255.475 109.742 255.205C109.514 254.582 109.253 253.961 108.976 253.343C109.908 253.15 110.804 252.814 111.633 252.348C111.989 252.111 112.29 251.798 112.513 251.433C112.737 251.067 112.878 250.657 112.926 250.231C112.932 250.033 112.895 249.835 112.819 249.652C112.743 249.469 112.63 249.303 112.485 249.167C112.341 249.031 112.17 248.926 111.982 248.861C111.795 248.796 111.596 248.771 111.398 248.788C110.213 248.917 109.185 250.803 108.969 251.844C108.956 251.909 108.886 252.677 108.856 253.094C108.686 252.723 108.519 252.352 108.336 251.983C107.807 250.917 107.237 249.853 106.669 248.788C106.495 248.462 106.327 248.136 106.158 247.815C107.121 247.616 108.05 247.273 108.911 246.798C109.268 246.56 109.568 246.248 109.792 245.882C110.015 245.516 110.157 245.106 110.206 244.681C110.211 244.482 110.175 244.285 110.099 244.102C110.023 243.919 109.909 243.754 109.765 243.617C109.62 243.481 109.449 243.377 109.262 243.311C109.074 243.246 108.875 243.221 108.678 243.237C107.493 243.365 106.465 245.253 106.249 246.294C106.234 246.373 106.134 247.473 106.123 247.754C105.749 247.036 105.384 246.317 105.053 245.594C104.601 244.618 104.212 243.614 103.89 242.589C104.859 242.388 105.793 242.043 106.66 241.567C107.017 241.33 107.317 241.017 107.541 240.651C107.764 240.286 107.905 239.876 107.954 239.45C107.96 239.252 107.923 239.054 107.847 238.871C107.771 238.688 107.657 238.522 107.513 238.386C107.369 238.25 107.197 238.146 107.01 238.08C106.823 238.015 106.623 237.99 106.426 238.007C105.241 238.135 104.213 240.023 103.997 241.063C103.981 241.145 103.874 242.33 103.869 242.545C103.851 242.487 103.826 242.427 103.808 242.368C103.513 241.33 103.312 240.268 103.205 239.195C103.139 238.603 103.108 238.035 103.091 237.479C104.054 237.388 104.998 237.151 105.889 236.776C106.27 236.579 106.603 236.301 106.865 235.963C107.128 235.624 107.313 235.232 107.408 234.814C107.435 234.618 107.42 234.418 107.365 234.228C107.31 234.038 107.215 233.862 107.087 233.71C106.959 233.559 106.801 233.436 106.623 233.35C106.444 233.264 106.25 233.217 106.052 233.211C104.86 233.211 103.632 234.973 103.303 235.989C103.285 236.045 103.164 236.626 103.085 237.048C103.085 236.798 103.072 236.54 103.073 236.299C103.073 235.399 103.132 234.572 103.189 233.843C103.223 233.426 103.264 233.053 103.305 232.702C104.114 232.181 104.838 231.538 105.452 230.798C105.699 230.448 105.866 230.048 105.943 229.626C106.02 229.205 106.004 228.772 105.896 228.357C105.83 228.17 105.725 227.999 105.588 227.855C105.451 227.712 105.286 227.598 105.102 227.523C104.919 227.448 104.721 227.412 104.523 227.418C104.325 227.425 104.13 227.473 103.951 227.559C102.893 228.107 102.615 230.238 102.79 231.287C102.805 231.378 103.207 232.769 103.222 232.758L103.243 232.743C103.197 233.079 103.151 233.437 103.104 233.835C103.032 234.565 102.957 235.392 102.936 236.297C102.902 237.27 102.926 238.244 103.005 239.214C103.089 240.303 103.27 241.382 103.546 242.438L103.558 242.476C103.371 242.181 102.819 241.376 102.769 241.317C102.074 240.513 100.255 239.372 99.157 239.834C98.9768 239.916 98.816 240.035 98.685 240.184C98.5541 240.332 98.4559 240.507 98.3969 240.696C98.3379 240.885 98.3194 241.084 98.3427 241.281C98.3659 241.477 98.4304 241.667 98.5318 241.837C98.7822 242.185 99.1053 242.473 99.4786 242.684C99.8519 242.894 100.266 243.02 100.694 243.054C101.678 243.048 102.657 242.895 103.596 242.598C103.903 243.667 104.282 244.713 104.728 245.731C104.985 246.326 105.261 246.916 105.548 247.505C105.377 247.255 105.223 247.034 105.198 247.005C104.503 246.201 102.683 245.06 101.585 245.52C101.405 245.602 101.245 245.722 101.114 245.871C100.983 246.019 100.885 246.194 100.826 246.383C100.767 246.572 100.748 246.771 100.772 246.968C100.795 247.165 100.859 247.354 100.96 247.525C101.211 247.872 101.534 248.161 101.907 248.371C102.28 248.581 102.695 248.707 103.122 248.74C104.079 248.742 105.031 248.596 105.944 248.308C106.055 248.533 106.165 248.758 106.277 248.982C106.817 250.059 107.362 251.131 107.864 252.198C108.04 252.575 108.2 252.951 108.362 253.328C108.211 253.107 108.085 252.922 108.058 252.896C107.363 252.091 105.544 250.951 104.446 251.41C104.266 251.493 104.105 251.612 103.974 251.761C103.844 251.909 103.746 252.084 103.687 252.273C103.628 252.462 103.609 252.661 103.632 252.858C103.655 253.054 103.72 253.244 103.821 253.414C104.071 253.762 104.394 254.05 104.767 254.261C105.141 254.471 105.555 254.597 105.983 254.631C106.914 254.634 107.84 254.494 108.728 254.214C108.882 254.604 109.038 254.995 109.168 255.381C109.253 255.646 109.352 255.895 109.421 256.166C109.49 256.437 109.57 256.698 109.643 256.959C109.764 257.469 109.895 257.993 110 258.487C110.078 258.835 110.139 259.167 110.213 259.5C110.041 259.125 109.689 258.389 109.657 258.337C109.09 257.436 107.466 256.028 106.312 256.322C106.121 256.376 105.944 256.469 105.792 256.597C105.64 256.724 105.517 256.881 105.43 257.059C105.343 257.237 105.295 257.432 105.288 257.63C105.281 257.828 105.316 258.025 105.391 258.208C105.585 258.589 105.859 258.923 106.195 259.186C106.531 259.45 106.92 259.638 107.336 259.736C108.303 259.881 109.287 259.878 110.253 259.728C110.364 260.284 110.467 260.821 110.556 261.331C110.867 263.101 111.06 264.588 111.181 265.627C111.202 265.812 111.22 265.977 111.237 266.133H107.65L108.96 291.687H115.073L116.383 266.133H113.083L113.157 265.98C113.615 265.024 114.252 263.651 114.938 261.972C115.156 261.441 115.378 260.87 115.602 260.282C116.557 260.505 117.541 260.582 118.519 260.509C118.943 260.442 119.346 260.284 119.703 260.046C120.059 259.807 120.358 259.494 120.581 259.128C120.668 258.951 120.717 258.757 120.725 258.56C120.732 258.362 120.698 258.166 120.625 257.982C120.551 257.799 120.44 257.633 120.299 257.495C120.157 257.358 119.988 257.251 119.803 257.183C118.674 256.804 116.948 258.087 116.316 258.943C116.28 258.993 115.937 259.586 115.726 259.964C115.816 259.724 115.906 259.49 115.995 259.242C116.176 258.75 116.341 258.254 116.52 257.722L116.756 256.933C116.841 256.672 116.895 256.377 116.969 256.108C117.123 255.463 117.247 254.802 117.358 254.132C118.241 254.485 119.174 254.699 120.123 254.768C120.551 254.767 120.974 254.671 121.362 254.49C121.75 254.308 122.094 254.043 122.369 253.715C122.483 253.553 122.561 253.369 122.598 253.175C122.636 252.981 122.632 252.781 122.588 252.588C122.543 252.395 122.458 252.214 122.339 252.056C122.22 251.898 122.069 251.767 121.895 251.672C120.835 251.126 118.936 252.133 118.182 252.883C118.136 252.929 117.655 253.529 117.397 253.864C117.461 253.461 117.525 253.06 117.576 252.65C117.723 251.469 117.834 250.268 117.951 249.071C117.987 248.704 118.026 248.339 118.065 247.973C118.979 248.339 119.943 248.564 120.924 248.643C121.353 248.641 121.775 248.547 122.163 248.365C122.551 248.183 122.895 247.919 123.171 247.591C123.284 247.429 123.362 247.245 123.4 247.051C123.438 246.856 123.434 246.656 123.389 246.463C123.345 246.27 123.26 246.089 123.141 245.931C123.021 245.773 122.87 245.642 122.697 245.546C121.637 245 119.738 246.008 118.983 246.758C118.928 246.815 118.237 247.679 118.072 247.907C118.157 247.101 118.25 246.301 118.372 245.513C118.533 244.45 118.762 243.399 119.058 242.366C119.978 242.733 120.947 242.961 121.934 243.043C122.363 243.041 122.786 242.946 123.174 242.764C123.562 242.582 123.905 242.318 124.181 241.99C124.294 241.828 124.372 241.644 124.41 241.449C124.448 241.255 124.444 241.055 124.399 240.862C124.355 240.67 124.27 240.488 124.151 240.331C124.031 240.173 123.88 240.042 123.707 239.946C122.647 239.399 120.749 240.406 119.995 241.158C119.935 241.216 119.193 242.145 119.07 242.323C119.088 242.263 119.099 242.2 119.118 242.14C119.446 241.112 119.864 240.116 120.369 239.163C120.646 238.632 120.924 238.14 121.22 237.668C122.073 238.124 122.991 238.446 123.942 238.625C124.368 238.671 124.799 238.623 125.205 238.485C125.61 238.347 125.981 238.122 126.291 237.826C126.422 237.677 126.52 237.503 126.578 237.314C126.637 237.125 126.655 236.926 126.632 236.729C126.609 236.532 126.544 236.343 126.443 236.173C126.342 236.003 126.206 235.856 126.044 235.742C125.052 235.082 123.054 235.881 122.222 236.538C122.176 236.574 121.756 236.993 121.455 237.301C121.594 237.09 121.733 236.869 121.859 236.669C122.358 235.919 122.859 235.261 123.31 234.684C123.569 234.357 123.808 234.067 124.036 233.797C124.999 233.808 125.957 233.672 126.879 233.393C127.278 233.237 127.638 232.996 127.934 232.687C128.23 232.378 128.456 232.007 128.594 231.602C128.64 231.41 128.644 231.211 128.608 231.017C128.572 230.823 128.495 230.639 128.383 230.477C128.271 230.315 128.126 230.178 127.958 230.075C127.79 229.972 127.602 229.905 127.407 229.879ZM114.286 261.715C113.569 263.362 112.911 264.709 112.437 265.642C112.341 265.831 112.257 265.997 112.176 266.151H112.097C112.075 265.969 112.048 265.769 112.018 265.545C111.879 264.496 111.645 263 111.292 261.22C111.181 260.664 111.052 260.059 110.913 259.445C111.471 259.221 112.015 258.965 112.543 258.678C113.261 259.294 114.06 259.808 114.918 260.206C114.706 260.734 114.493 261.24 114.286 261.715Z" fill="#263238"/>
<path d="M121.162 237.459C121.182 237.472 121.543 236.07 121.556 235.978C121.703 234.924 121.367 232.801 120.294 232.283C120.113 232.202 119.918 232.16 119.72 232.159C119.522 232.159 119.326 232.2 119.145 232.28C118.963 232.36 118.801 232.478 118.669 232.625C118.536 232.772 118.435 232.945 118.374 233.133C118.278 233.551 118.273 233.984 118.361 234.404C118.449 234.823 118.628 235.218 118.884 235.562C119.545 236.303 120.313 236.943 121.162 237.459Z" fill="#263238"/>
<path d="M431.228 294.482V33.5271" stroke="#263238" stroke-linecap="round" stroke-linejoin="round"/>
<path d="M197.829 294.484V35.1516" stroke="#263238" stroke-linecap="round" stroke-linejoin="round"/>
<path d="M48.832 166.381H532.977" stroke="#263238" stroke-linecap="round" stroke-linejoin="round"/>
<path d="M121.918 50.2808H131.428C132.65 50.2808 133.822 50.7663 134.686 51.6305C135.551 52.4947 136.036 53.6668 136.036 54.889V65.4392H117.31V54.889C117.31 53.6668 117.796 52.4947 118.66 51.6305C119.524 50.7663 120.696 50.2808 121.918 50.2808Z" fill="#263238"/>
<path d="M135.158 79.4084C135.158 81.1343 134.647 82.8214 133.688 84.2564C132.729 85.6914 131.366 86.8098 129.772 87.4703C128.177 88.1307 126.423 88.3035 124.73 87.9668C123.037 87.6301 121.482 86.799 120.262 85.5787C119.042 84.3583 118.211 82.8035 117.874 81.1108C117.537 79.4181 117.71 77.6636 118.37 76.0691C119.031 74.4746 120.149 73.1118 121.584 72.153C123.019 71.1941 124.706 70.6824 126.432 70.6824C128.747 70.6824 130.966 71.6017 132.602 73.2382C134.239 74.8746 135.158 77.0941 135.158 79.4084Z" fill="white"/>
<path d="M163.776 79.8195H89.5706L117.402 64.6611H135.879L163.776 79.8195Z" fill="#263238"/>
<path d="M128.241 22.0325H125.103V52.366H128.241V22.0325Z" fill="#263238"/>
<path d="M478.215 50.2808H487.724C488.946 50.2808 490.119 50.7663 490.983 51.6305C491.847 52.4947 492.332 53.6668 492.332 54.889V65.4392H473.606V54.889C473.606 53.6668 474.092 52.4947 474.956 51.6305C475.82 50.7663 476.992 50.2808 478.215 50.2808Z" fill="#263238"/>
<path d="M482.73 88.1317C487.548 88.1317 491.455 84.2255 491.455 79.407C491.455 74.5885 487.548 70.6824 482.73 70.6824C477.911 70.6824 474.005 74.5885 474.005 79.407C474.005 84.2255 477.911 88.1317 482.73 88.1317Z" fill="white"/>
<path d="M520.072 79.8195H445.867L473.698 64.6611H492.176L520.072 79.8195Z" fill="#263238"/>
<path d="M484.538 22.0325H481.399V52.366H484.538V22.0325Z" fill="#263238"/>
<path d="M265.965 118.443L259.927 122.163" stroke="#263238" stroke-width="0.5" stroke-linecap="round" stroke-linejoin="round"/>
<path d="M367.74 55.7212L274.077 113.444" stroke="#263238" stroke-width="0.5" stroke-linecap="round" stroke-linejoin="round"/>
<path d="M380.097 59.6211L305.057 105.867" stroke="#263238" stroke-width="0.5" stroke-linecap="round" stroke-linejoin="round"/>
<path d="M412.87 39.4236L390.207 53.3914" stroke="#263238" stroke-width="0.5" stroke-linecap="round" stroke-linejoin="round"/>
<path d="M295.557 281.945C295.557 281.945 293.131 297.958 294.829 306.451C296.526 314.943 302.836 356.431 304.534 373.414C306.232 390.396 314.481 416.118 314.968 417.33C315.454 418.543 314.24 421.94 314.24 423.396C314.24 424.852 314.724 428.249 314.724 428.249C314.724 428.249 307.688 432.858 304.049 435.042C300.411 437.226 302.104 438.197 305.505 438.682C308.906 439.167 356.942 438.682 356.942 438.682C356.942 438.682 358.155 438.439 356.7 436.255C355.245 434.071 345.295 427.279 345.295 427.279C345.099 425.669 345.018 424.048 345.054 422.426C345.054 419.03 342.136 412.964 342.136 412.964C342.136 412.964 347.474 374.142 346.261 363.952C345.048 353.761 344.562 343.329 346.504 334.108C348.446 324.888 345.532 283.885 346.018 281.944C346.257 280.551 346.088 279.119 345.533 277.819C345.533 277.819 330.251 283.885 317.388 284.854C309.985 285.51 302.529 284.516 295.557 281.945Z" fill="#263238" stroke="#263238" stroke-miterlimit="10" stroke-linecap="round"/>
<path d="M356.699 436.257C355.244 434.073 345.295 427.279 345.295 427.279C345.295 427.279 345.269 427.111 345.235 426.793C339.28 428.781 333.722 431.802 328.815 435.718C328.815 435.718 329.604 434.665 325.132 430.982C322.148 428.756 318.416 427.777 314.724 428.251C314.724 428.251 307.687 432.86 304.049 435.044C300.41 437.228 302.104 438.198 305.505 438.684C308.906 439.17 356.941 438.684 356.941 438.684C356.941 438.684 358.154 438.441 356.699 436.257Z" fill="white" stroke="#263238" stroke-linecap="round" stroke-linejoin="round"/>
<path d="M304.381 436.554C304.381 436.554 313.306 437.207 317.007 436.118" stroke="#263238" stroke-width="0.75" stroke-linecap="round" stroke-linejoin="round"/>
<path d="M292.933 214.957C292.933 214.957 285.933 252.447 284.189 258.115C282.445 263.783 283.098 276.87 288.33 275.342C293.562 273.814 295.307 265.967 295.744 263.787C296.18 261.608 296.615 223.457 296.615 216.917C296.615 210.378 292.933 214.957 292.933 214.957Z" fill="#D7E8E7" stroke="#263238" stroke-linecap="round" stroke-linejoin="round"/>
<path d="M318.231 200.5C318.231 200.5 300.31 205.771 297.45 206.374C294.591 206.977 293.082 211.342 292.932 214.957C292.782 218.572 293.384 255.463 293.234 266.456C293.084 277.45 291.578 281.213 296.546 285.28C301.514 289.346 315.519 290.098 328.32 289.195C341.121 288.292 346.841 284.375 346.841 278.653C346.841 272.931 345.938 245.826 345.938 245.826C345.938 245.826 347.294 230.016 350.456 223.239C353.617 216.462 355.425 214.347 353.015 211.945C350.604 209.543 335.699 200.952 329.825 199.303C325.934 198.403 321.855 198.824 318.231 200.5Z" fill="#D7E8E7" stroke="#263238" stroke-linecap="round" stroke-linejoin="round"/>
<path d="M314.766 211.042L316.422 221.583L328.469 214.498L323.198 205.915C323.198 205.915 315.819 208.18 314.766 211.042Z" fill="#263238" stroke="#263238" stroke-linecap="round" stroke-linejoin="round"/>
<path d="M319.178 195.042C316.798 197.107 314.898 199.668 313.612 202.544C311.928 206.815 308.434 213.546 309.861 213.936C311.288 214.327 315.557 210.701 316.462 210.701C317.366 210.701 319.18 215.102 319.699 215.231C321.558 214.723 323.375 214.073 325.135 213.286C325.135 213.286 325.911 218.852 327.594 218.982C329.276 219.113 334.972 210.438 336.007 203.967C337.042 197.496 333.678 196.465 333.032 196.326C332.386 196.187 324.743 192.842 319.178 195.042Z" fill="#DEF7E5" stroke="#263238" stroke-linecap="round" stroke-linejoin="round"/>
<path d="M318.272 173.936C318.272 173.936 318.012 167.982 318.012 164.357C318.012 160.732 318.531 158.79 320.731 158.014C322.932 157.237 323.579 160.603 323.45 162.415C323.321 164.226 318.272 173.936 318.272 173.936Z" fill="#263238" stroke="#263238" stroke-linecap="round" stroke-linejoin="round"/>
<path d="M318.274 172.519C318.274 172.519 318.145 168.118 316.592 170.447C315.038 172.777 315.555 178.214 316.592 177.697C317.628 177.18 318.274 172.519 318.274 172.519Z" fill="white" stroke="#263238" stroke-linecap="round" stroke-linejoin="round"/>
<path d="M318.533 194.775C318.533 194.775 318.145 205.26 317.885 209.403C317.626 213.546 319.051 215.874 321.51 214.968C323.969 214.062 329.923 206.167 331.736 203.059C332.937 200.914 333.934 198.661 334.714 196.33C334.714 196.33 325.788 199.054 318.533 194.775Z" fill="white" stroke="#263238" stroke-linecap="round" stroke-linejoin="round"/>
<path d="M321.509 161.128C321.509 161.128 316.849 176.531 315.555 182.098C314.26 187.665 314.907 192.323 317.237 195.948C318.332 197.629 319.859 198.985 321.659 199.873C323.458 200.761 325.463 201.149 327.464 200.996C331.606 200.867 336.784 199.831 339.891 193.355C341.538 189.778 342.964 186.104 344.161 182.352C344.809 181.057 347.139 174.326 348.433 170.054C349.728 165.782 347.17 160.647 342.22 157.758C340.694 156.871 330.573 150.479 321.509 161.128Z" fill="white" stroke="#263238" stroke-linecap="round" stroke-linejoin="round"/>
<path d="M345.067 180.932C345.067 180.932 348.303 178.344 349.209 180.285C350.115 182.226 348.432 185.721 346.232 186.887C345.702 187.236 345.097 187.453 344.466 187.52C343.836 187.588 343.198 187.503 342.607 187.274C342.607 187.274 343.643 182.356 345.067 180.932Z" fill="white" stroke="#263238" stroke-linecap="round" stroke-linejoin="round"/>
<path d="M349.341 155.691L347.917 154.137C347.917 154.137 347.788 153.102 343.646 151.549C339.505 149.996 334.715 150.254 333.032 148.183C331.35 146.111 329.408 145.595 324.488 146.377C319.569 147.159 317.499 152.202 317.499 156.343C317.499 160.485 326.43 166.31 332.642 167.217C338.853 168.125 344.938 166.181 343.645 167.347C342.352 168.512 338.596 172.654 339.894 174.078C341.191 175.502 341.964 176.407 341.964 178.09C341.964 179.243 341.722 181.915 341.776 183.525C341.28 184.542 339.949 187.249 339.634 187.669C339.246 188.187 335.622 185.079 333.421 183.918C332.398 183.289 331.25 182.891 330.056 182.752C330.056 182.752 329.926 184.697 329.02 184.953C328.114 185.209 325.008 185.213 324.102 184.306C323.538 183.52 323.305 182.544 323.455 181.588C320.289 181.701 317.284 183.008 315.042 185.246C314.513 188.963 315.29 192.748 317.24 195.956C318.335 197.637 319.862 198.993 321.662 199.882C323.461 200.77 325.466 201.158 327.467 201.005C331.61 200.875 336.787 199.839 339.894 193.364C341.433 190.194 342.714 186.905 343.724 183.529C344.131 182.928 344.454 182.273 344.683 181.584C345.883 178.881 347.451 176.356 349.342 174.082C351.863 170.623 353.223 166.453 353.225 162.173C353.258 160.835 352.91 159.516 352.223 158.369C351.535 157.221 350.536 156.292 349.341 155.691Z" fill="#263238" stroke="#263238" stroke-linecap="round" stroke-linejoin="round"/>
<path d="M337.457 156.431C337.457 156.431 329.122 153.305 327.733 159.21C326.343 165.114 340.236 166.851 351.698 164.767" stroke="white" stroke-width="0.75" stroke-linecap="round" stroke-linejoin="round"/>
<path d="M341.627 171.713C341.627 171.713 344.058 172.407 349.615 170.671" stroke="white" stroke-width="0.75" stroke-linecap="round" stroke-linejoin="round"/>
<path d="M326.432 172.519L325.913 175.497C325.913 175.497 322.549 182.999 323.454 183.91C324.36 184.821 329.15 185.855 329.538 184.298C329.744 183.58 329.874 182.843 329.926 182.098L328.372 181.709" stroke="#263238" stroke-linecap="round" stroke-linejoin="round"/>
<path d="M331.866 173.683C331.866 173.683 336.655 172.519 337.82 176.531" stroke="#263238" stroke-linecap="round" stroke-linejoin="round"/>
<path d="M325.394 171.224C324.833 170.689 324.114 170.35 323.345 170.256C322.575 170.163 321.796 170.321 321.123 170.706" stroke="#263238" stroke-linecap="round" stroke-linejoin="round"/>
<path d="M333.8 178.199C333.693 178.978 333.233 179.559 332.773 179.495C332.313 179.431 332.025 178.75 332.132 177.967C332.239 177.183 332.699 176.606 333.159 176.67C333.619 176.734 333.906 177.421 333.8 178.199Z" fill="#263238"/>
<path d="M322.992 174.963C322.885 175.742 322.425 176.323 321.965 176.259C321.505 176.195 321.218 175.513 321.325 174.731C321.432 173.949 321.892 173.371 322.351 173.433C322.811 173.496 323.099 174.184 322.992 174.963Z" fill="#263238"/>
<path d="M332.515 187.793C327.097 194.218 322.779 188.904 322.418 187.534L332.515 187.793Z" fill="white"/>
<path d="M316.422 221.588C316.422 221.588 310.097 246.734 308.892 258.782C308.179 265.585 307.827 272.421 307.839 279.261L311.001 284.833L315.669 279.261C315.669 279.261 315.518 252.458 315.518 243.874C315.518 235.289 316.422 221.588 316.422 221.588Z" fill="#263238" stroke="#263238" stroke-linecap="round" stroke-linejoin="round"/>
<path d="M346.268 226.383C346.268 226.383 342.387 235.117 343.841 239.485C345.296 243.853 357.671 262.049 358.884 262.777C360.097 263.505 369.561 265.695 370.774 260.109C371.987 254.522 361.796 221.53 358.643 216.677C355.489 211.824 353.062 212.311 351.849 213.28" fill="#D7E8E7"/>
<path d="M346.268 226.383C346.268 226.383 342.387 235.117 343.841 239.485C345.296 243.853 357.671 262.049 358.884 262.777C360.097 263.505 369.561 265.695 370.774 260.109C371.987 254.522 361.796 221.53 358.643 216.677C355.489 211.824 353.062 212.311 351.849 213.28" stroke="#263238" stroke-linecap="round" stroke-linejoin="round"/>
<path d="M312.785 244.579L314.241 283.4L343.843 281.944L343.115 243.851L312.785 244.579Z" fill="white" stroke="#263238" stroke-linecap="round" stroke-linejoin="round"/>
<path d="M364.949 253.315C364.949 253.315 357.427 254.043 353.061 256.469C348.694 258.894 331.709 262.534 331.709 262.534L332.681 271.997C340.334 272.969 348.078 272.969 355.731 271.997C366.649 270.299 372.958 270.784 373.443 267.63C373.928 264.477 369.803 252.587 369.803 252.587" fill="#D7E8E7"/>
<path d="M364.949 253.315C364.949 253.315 357.427 254.043 353.061 256.469C348.694 258.894 331.709 262.534 331.709 262.534L332.681 271.997C340.334 272.969 348.078 272.969 355.731 271.997C366.649 270.299 372.958 270.784 373.443 267.63C373.928 264.477 369.803 252.587 369.803 252.587" stroke="#263238" stroke-linecap="round" stroke-linejoin="round"/>
<path d="M338.018 261.563L338.502 272.482" stroke="#263238" stroke-linecap="round" stroke-linejoin="round"/>
<path d="M332.436 263.505L324.187 256.954C324.187 256.954 318.606 254.036 317.393 254.036C314.866 254.303 312.355 254.707 309.872 255.249C308.899 255.491 309.387 256.705 311.085 257.433C312.164 257.878 313.315 258.124 314.481 258.159C314.481 258.159 306.718 259.859 306.718 261.799C306.718 263.74 310.115 264.717 310.115 264.717C310.115 264.717 309.142 269.326 311.328 271.026C313.513 272.725 315.696 273.451 319.577 272.48C323.459 271.509 332.68 271.995 332.68 271.995L332.436 263.505Z" fill="white" stroke="#263238" stroke-linecap="round" stroke-linejoin="round"/>
<path d="M291.6 259.424C291.6 259.424 285.932 252.665 284.189 247.433C282.445 242.201 278.52 232.173 278.52 232.173L272.198 231.955C272.198 231.955 272.852 251.576 276.341 262.693C279.829 273.81 284.407 279.479 286.805 278.392C289.203 277.304 292.691 272.069 292.691 272.069" fill="#D7E8E7"/>
<path d="M291.6 259.424C291.6 259.424 285.932 252.665 284.189 247.433C282.445 242.201 278.52 232.173 278.52 232.173L272.198 231.955C272.198 231.955 272.852 251.576 276.341 262.693C279.829 273.81 284.407 279.479 286.805 278.392C289.203 277.304 292.691 272.069 292.691 272.069" stroke="#263238" stroke-linecap="round" stroke-linejoin="round"/>
<path d="M285.06 207.539C283.425 208.746 282.328 210.546 282.004 212.552C281.568 214.297 280.695 214.952 277.861 214.734C276.855 214.585 275.832 214.841 275.015 215.446C274.901 214.966 274.838 214.475 274.826 213.982C274.826 212.439 277.465 209.02 278.685 208.028C279.905 207.036 281.662 205.602 281.443 204.277C281.223 202.951 276.259 205.82 274.826 206.813C273.392 207.807 272.621 211.886 272.621 211.886C271.878 214.392 271.807 217.05 272.414 219.593C272.275 219.925 272.129 220.244 271.976 220.617C270.013 225.414 272.193 231.954 272.193 231.954L278.516 232.172C278.516 232.172 277.861 228.902 278.952 227.587C280.031 225.874 281.272 224.268 282.658 222.791C284.402 221.263 285.274 216.687 285.274 215.596C285.473 213.566 285.988 211.58 286.803 209.71C287.676 207.757 287.025 206.231 285.06 207.539Z" fill="white" stroke="#263238" stroke-linecap="round" stroke-linejoin="round"/>
<path d="M270.972 216.077C270.972 216.077 271.744 211.997 273.178 211.005C274.612 210.013 279.569 207.145 279.794 208.468C280.019 209.791 278.25 211.226 277.037 212.219C275.824 213.212 273.178 216.63 273.178 218.174C273.282 219.461 273.579 220.726 274.06 221.925C274.06 221.925 272.736 224.46 271.633 224.791C270.53 225.121 269.759 220.157 270.972 216.077Z" fill="white" stroke="#263238" stroke-linecap="round" stroke-linejoin="round"/>
<path d="M271.187 218.503C271.187 218.503 271.958 214.423 273.392 213.431C274.825 212.439 279.782 209.571 280.009 210.895C280.235 212.219 278.464 213.652 277.251 214.646C276.038 215.641 273.392 219.057 273.392 220.601C273.496 221.888 273.793 223.153 274.274 224.352C274.274 224.352 272.951 226.889 271.848 227.219C270.745 227.55 269.978 222.583 271.187 218.503Z" fill="white" stroke="#263238" stroke-linecap="round" stroke-linejoin="round"/>
<path d="M271.523 229.42C271.523 229.42 269.758 223.356 269.979 220.929C270.2 218.502 271.082 216.408 272.295 216.298C273.508 216.188 278.686 214.313 278.686 215.743C278.686 217.172 273.944 218.72 273.944 218.72C273.944 218.72 276.921 222.579 276.812 224.564C276.696 225.984 276.437 227.387 276.039 228.755" fill="white"/>
<path d="M271.523 229.42C271.523 229.42 269.758 223.356 269.979 220.929C270.2 218.502 271.082 216.408 272.295 216.298C273.508 216.188 278.686 214.313 278.686 215.743C278.686 217.172 273.944 218.72 273.944 218.72C273.944 218.72 276.921 222.579 276.812 224.564C276.696 225.984 276.437 227.387 276.039 228.755" stroke="#263238" stroke-linecap="round" stroke-linejoin="round"/>
<path d="M310.601 304.752L316.061 308.756L328.799 433.952" stroke="white" stroke-width="0.75" stroke-linecap="round" stroke-linejoin="round"/>
<path d="M138.876 243.647C138.876 243.647 143.173 254.495 143.378 258.383C143.584 262.272 142.559 261.658 144.197 266.774C145.835 271.891 150.541 283.968 153.202 293.793C155.32 301.806 156.353 310.067 156.272 318.354H125.986C125.986 318.354 128.238 312.214 122.096 295.014C115.954 277.815 113.499 267.587 113.499 262.675C113.499 257.762 110.839 252.85 109.815 247.323C108.791 241.797 112.067 242.412 112.067 242.412L136.832 242.616C136.832 242.616 138.466 242.419 138.876 243.647Z" fill="#263238" stroke="#263238" stroke-linecap="round" stroke-linejoin="round"/>
<path d="M109.638 244.871C109.883 242.013 112.064 242.419 112.064 242.419L136.829 242.623C136.829 242.623 138.467 242.419 138.877 243.647C138.877 243.647 143.174 254.495 143.38 258.383C143.435 259.411 143.405 260.443 143.291 261.466L142.766 262.272C142.766 262.272 141.946 269.436 132.122 269.845C122.299 270.253 116.771 265.752 114.724 261.453C112.678 257.155 111.858 250.2 110.222 246.103C110.048 245.683 109.853 245.272 109.638 244.871Z" fill="white" stroke="#263238" stroke-linecap="round" stroke-linejoin="round"/>
<path d="M113.496 262.681C113.496 257.769 110.836 252.856 109.812 247.33C109.105 243.511 110.45 242.626 111.348 242.442C111.704 242.559 112.964 243.309 114.52 248.15C116.362 253.88 115.338 261.453 116.362 267.599C117.386 273.746 122.502 287.248 126.186 297.277C129.222 305.538 129.89 313.514 128.66 318.359H125.982C125.982 318.359 128.234 312.219 122.092 295.02C115.95 277.82 113.496 267.594 113.496 262.681Z" fill="white" stroke="#263238" stroke-linecap="round" stroke-linejoin="round"/>
<path d="M265.119 317.985H240.472C240.233 317.991 239.996 317.95 239.774 317.864C239.552 317.777 239.349 317.647 239.178 317.48C239.007 317.314 238.871 317.115 238.779 316.896C238.686 316.676 238.638 316.44 238.638 316.202C238.638 315.963 238.686 315.727 238.779 315.507C238.871 315.288 239.007 315.089 239.178 314.923C239.349 314.756 239.552 314.626 239.774 314.54C239.996 314.453 240.233 314.412 240.472 314.418H265.119C265.769 314.419 266.41 314.269 266.993 313.98C267.575 313.691 268.083 313.271 268.476 312.754C268.869 312.236 269.137 311.634 269.259 310.995C269.381 310.357 269.353 309.699 269.178 309.072L260.434 277.737C260.318 277.285 260.384 276.806 260.617 276.401C260.85 275.997 261.233 275.701 261.682 275.575C262.132 275.45 262.613 275.505 263.022 275.73C263.431 275.955 263.735 276.332 263.87 276.779L272.614 308.114C272.937 309.271 272.987 310.486 272.762 311.666C272.536 312.845 272.041 313.956 271.314 314.912C270.588 315.868 269.649 316.643 268.573 317.176C267.497 317.709 266.313 317.986 265.112 317.985H265.119Z" fill="white" stroke="#263238" stroke-linecap="round" stroke-linejoin="round"/>
<path d="M262.059 236.528L256.478 235.859L247.83 308.011L253.411 308.68L262.059 236.528Z" fill="white" stroke="#263238" stroke-linecap="round" stroke-linejoin="round"/>
<path d="M262.061 236.528C267.526 260.859 264.472 286.329 253.41 308.679L262.061 236.528Z" fill="white" stroke="#263238" stroke-linecap="round" stroke-linejoin="round"/>
<path d="M281.322 317.826H37.5031V424.106H281.322V317.826Z" fill="#263238"/>
<mask id="mask0_1_4220" style="mask-type:luminance" maskUnits="userSpaceOnUse" x="37" y="317" width="245" height="108">
<path d="M281.323 317.826H37.5042V424.106H281.323V317.826Z" fill="white"/>
</mask>
<g mask="url(#mask0_1_4220)">
<path opacity="0.72" d="M281.323 317.826H37.5042V424.106H281.323V317.826Z" fill="white"/>
</g>
<path d="M281.322 317.826H37.5031V424.106H281.322V317.826Z" stroke="#263238" stroke-linecap="round" stroke-linejoin="round"/>
<path d="M281.379 320.841H37.5272V324.367H281.379V320.841Z" fill="#263238"/>
<path d="M283.405 315.742H31.251V321.299H283.405V315.742Z" fill="white" stroke="#263238" stroke-linecap="round" stroke-linejoin="round"/>
<path d="M525.203 234.345L497.803 234.571C497.803 234.571 495.997 234.345 495.539 235.703C495.539 235.703 490.785 247.705 490.558 252.008C490.332 256.311 491.464 255.63 489.652 261.291C487.841 266.952 482.634 280.312 479.688 291.183C475.732 305.791 474.701 321.295 474.449 336.373C474.409 338.793 472.963 359.613 476.729 359.613C479.855 359.613 508.683 363.434 509.03 357.877C510.419 335.726 506.414 314.082 514.108 292.539C517.096 284.173 520.522 275.337 523.058 266.584C525.603 257.796 526.036 248.736 527.694 239.78C528.826 233.665 525.203 234.345 525.203 234.345Z" fill="#263238" stroke="#263238" stroke-linecap="round" stroke-linejoin="round"/>
<path d="M527.886 237.058C527.608 233.896 525.202 234.345 525.202 234.345L497.803 234.571C497.803 234.571 495.997 234.345 495.538 235.704C495.538 235.704 490.784 247.706 490.558 252.008C490.496 253.145 490.528 254.286 490.655 255.418L491.237 256.309C491.237 256.309 492.143 264.228 503.011 264.688C513.879 265.148 519.994 260.159 522.258 255.404C524.523 250.648 525.428 242.95 527.24 238.421C527.432 237.956 527.648 237.501 527.886 237.058Z" fill="white" stroke="#263238" stroke-linecap="round" stroke-linejoin="round"/>
<path d="M521.534 245.901C519.696 252.517 520.799 254.355 518.961 265.747C517.123 277.139 510.509 290.002 507.936 301.762C505.363 313.523 506.466 355.051 506.834 356.887C506.975 357.865 507.029 358.853 506.994 359.84C508.228 359.38 508.975 358.741 509.029 357.875C510.419 335.725 506.413 314.081 514.107 292.538C517.096 284.171 520.521 275.335 523.057 266.583C525.602 257.794 526.036 248.735 527.693 239.778C528.388 236.027 527.29 234.834 526.338 234.473L526.312 234.509C524.245 238.089 522.64 241.917 521.534 245.901Z" fill="white" stroke="#263238" stroke-linecap="round" stroke-linejoin="round"/>
<path d="M446.918 246.573C442.851 248.413 438.917 250.532 435.143 252.914C431.747 255.404 432.426 261.518 432.426 263.103C432.426 264.688 423.368 279.406 424.953 284.615C426.538 289.823 430.388 303.637 430.614 306.806C430.841 309.974 430.161 319.031 430.161 319.031H472.951C472.84 311.015 473.219 302.999 474.083 295.029C475.442 284.838 478.39 281.215 478.39 265.591C478.39 249.967 461.408 247.023 457.105 246.571C453.714 246.32 450.309 246.321 446.918 246.573Z" fill="white" stroke="#263238" stroke-linecap="round" stroke-linejoin="round"/>
<path d="M424.955 284.615C426.39 289.33 429.678 301.074 430.451 305.611C430.458 303.666 430.444 301.792 430.389 300.24C430.163 293.673 430.389 284.388 436.957 269.217C442.002 257.557 444.902 249.93 445.977 247.014C442.228 248.718 438.606 250.69 435.141 252.914C431.744 255.404 432.423 261.518 432.423 263.103C432.423 264.688 423.369 279.406 424.955 284.615Z" fill="#D7E8E7" stroke="#263238" stroke-linecap="round" stroke-linejoin="round"/>
<path d="M390.763 317.222C390.763 317.222 387.803 321.697 385.726 324.554C383.649 327.41 380.273 332.863 382.61 333.123C384.946 333.382 387.543 331.039 390.141 329.747C391.903 328.644 393.267 327.006 394.031 325.073C394.031 325.073 393.253 330.006 395.07 328.963C396.887 327.92 396.887 324.29 396.887 321.953C396.95 319.953 397.123 317.959 397.407 315.979C397.407 315.979 393.982 313.003 390.763 317.222Z" fill="white" stroke="#263238" stroke-linecap="round" stroke-linejoin="round"/>
<path d="M392.153 323.006C392.153 323.006 379.529 323.006 377.474 324.18C375.419 325.354 368.373 358.528 362.502 372.032C362.502 372.032 357.805 383.776 353.988 389.354C352.652 391.307 346.356 393.756 341.952 394.932C337.548 396.107 335.787 396.986 336.374 398.16C336.96 399.334 346.062 401.39 350.172 401.977C354.281 402.563 356.924 401.39 358.091 401.39C359.258 401.39 360.73 402.857 363.082 401.977C365.435 401.096 363.963 394.932 363.963 391.408C363.963 387.885 368.366 375.262 373.358 369.977C378.349 364.693 388.035 344.437 390.091 338.271C392.148 332.106 392.731 330.639 392.731 330.639" fill="white"/>
<path d="M392.153 323.006C392.153 323.006 379.529 323.006 377.474 324.18C375.419 325.354 368.373 358.528 362.502 372.032C362.502 372.032 357.805 383.776 353.988 389.354C352.652 391.307 346.356 393.756 341.952 394.932C337.548 396.107 335.787 396.986 336.374 398.16C336.96 399.334 346.062 401.39 350.172 401.977C354.281 402.563 356.924 401.39 358.091 401.39C359.258 401.39 360.73 402.857 363.082 401.977C365.435 401.096 363.963 394.932 363.963 391.408C363.963 387.885 368.366 375.262 373.358 369.977C378.349 364.693 388.035 344.437 390.091 338.271C392.148 332.106 392.731 330.639 392.731 330.639" stroke="#263238" stroke-linecap="round" stroke-linejoin="round"/>
<path d="M389.109 330.059C386.818 331.028 384.877 332.671 383.542 334.769C382.206 336.867 381.541 339.322 381.633 341.807C381.633 350.886 394.983 408.556 394.983 411.76C395.142 414.578 394.646 417.394 393.535 419.988C392.424 422.582 390.727 424.883 388.577 426.711C387.616 427.592 382.047 431.511 382.684 433.316C383.742 436.282 391.201 433.399 393.023 432.621C396.307 431.21 399.955 425.433 403.527 425.65C407.327 425.879 407.799 424.047 407.799 420.31C407.799 416.572 403.669 411.867 403.134 406.527C402.599 401.186 400.897 382.327 402.489 373.308C403.958 364.993 396.585 343.949 396.585 343.949C396.585 343.949 419.26 357.825 439.258 352.988C459.255 348.15 420.615 339.677 414.741 335.405C408.867 331.133 393.914 326.856 389.109 330.059Z" fill="white" stroke="#263238" stroke-linecap="round" stroke-linejoin="round"/>
<path d="M382.17 329.469C382.17 329.469 392.152 340.33 404.775 345.322L409.179 323.891C409.179 323.891 390.391 320.661 377.473 324.184" fill="white"/>
<path d="M382.17 329.469C382.17 329.469 392.152 340.33 404.775 345.322L409.179 323.891C409.179 323.891 390.391 320.661 377.473 324.184" stroke="#263238" stroke-linecap="round" stroke-linejoin="round"/>
<path d="M472.96 319.034C472.849 311.018 473.227 303.002 474.092 295.032C475.451 284.841 478.399 281.218 478.399 265.594C478.399 251.055 463.699 247.497 458.189 246.708C456.905 248.803 455.86 251.037 455.076 253.366C454.623 255.63 444.887 275.332 442.622 290.043C440.816 301.807 442.328 314.43 443.01 319.027H430.168L430.764 323.645L406.729 322.577L400.67 346.496C400.67 346.496 413.628 352.02 422.982 355.89C432.336 359.761 451.193 363.303 462.482 359.755C471.79 356.838 478.719 351.81 477.463 341.313C476.517 333.785 475.012 326.338 472.96 319.034Z" fill="#D7E8E7" stroke="#263238" stroke-linecap="round" stroke-linejoin="round"/>
<path d="M445.977 247.012L434.239 264.007L435.597 267.857L431.748 272.164L431.068 284.619" stroke="#263238" stroke-linecap="round" stroke-linejoin="round"/>
<path d="M456.884 253.366L456.205 266.951L451.449 269.895L453.255 273.519L443.971 290.954" stroke="#263238" stroke-linecap="round" stroke-linejoin="round"/>
<path d="M437.399 206.386C437.399 206.386 434.721 212.419 434.941 214.217C435.162 216.015 434.739 218.121 432.996 218.792C431.254 219.463 429.37 220.836 430.239 222.326C430.807 223.258 431.609 224.024 432.566 224.549C432.566 224.549 431.429 231.99 432.127 233.957C432.824 235.925 434.195 239.634 436.443 239.357C438.691 239.081 444.337 238.613 444.337 238.613C445.534 242.281 445.722 246.204 444.882 249.97C443.523 256.536 438.541 262.65 443.976 264.002C449.411 265.354 452.58 258.341 455.071 253.359C457.562 248.377 458.88 241.828 460.01 238.045C461.139 234.262 462.72 230.404 462.72 230.404C460.277 229.65 458.053 228.314 456.241 226.51C454.429 224.707 453.083 222.489 452.318 220.049C449.188 211.309 449.366 205.355 444.651 204.111C443.353 203.732 441.971 203.745 440.68 204.15C439.39 204.554 438.248 205.332 437.399 206.386Z" fill="white" stroke="#263238" stroke-linecap="round" stroke-linejoin="round"/>
<path d="M441.514 232.344C441.514 232.344 441.985 236.165 446.285 234.039" stroke="#263238" stroke-linecap="round" stroke-linejoin="round"/>
<path d="M446.654 199.998C446.654 199.998 441.824 199.681 438.596 199.395C435.369 199.109 434.095 203.599 434.845 206.016C435.595 208.434 436.329 208.795 436.329 208.795C436.329 208.795 440.798 206.191 441.246 207.961C441.693 209.731 437.556 213.207 439.742 216.132C441.929 219.056 445.407 221.366 443.605 223.413C441.803 225.459 442.727 227.4 444.299 227.205C445.872 227.011 448.011 224.01 448.877 227.326C449.742 230.643 445.721 233.191 446.589 234.681C447.457 236.172 455.683 238.124 457.989 236.471C460.295 234.817 466.028 233.199 468.741 223.738C471.454 214.277 468.798 207.532 463.045 201.625C457.292 195.718 447.599 200.333 447.599 200.333L446.654 199.998Z" fill="#263238" stroke="#263238" stroke-linecap="round" stroke-linejoin="round"/>
<path d="M455.465 207.593C456.362 208.038 457.205 208.585 457.976 209.224" stroke="white" stroke-width="0.75" stroke-linecap="round" stroke-linejoin="round"/>
<path d="M441.306 206.097C445.283 205.4 449.366 205.605 453.254 206.697" stroke="white" stroke-width="0.75" stroke-linecap="round" stroke-linejoin="round"/>
<path d="M390.762 317.222L391.442 315.637C392.121 314.052 399.385 312.709 406.574 311.683C418.207 310.016 423.884 308.164 430.608 306.806C439.01 305.111 447.817 302.957 447.817 302.957C447.817 302.957 462.763 306.353 460.272 311.335C457.781 316.317 450.987 317.222 450.987 317.222H394.265C394.372 317.885 394.238 318.563 393.887 319.135C393.536 319.707 392.992 320.134 392.353 320.339" fill="white"/>
<path d="M390.762 317.222L391.442 315.637C392.121 314.052 399.385 312.709 406.574 311.683C418.207 310.016 423.884 308.164 430.608 306.806C439.01 305.111 447.817 302.957 447.817 302.957C447.817 302.957 462.763 306.353 460.272 311.335C457.781 316.317 450.987 317.222 450.987 317.222H394.265C394.372 317.885 394.238 318.563 393.887 319.135C393.536 319.707 392.992 320.134 392.353 320.339" stroke="#263238" stroke-linecap="round" stroke-linejoin="round"/>
<path d="M457.109 276.011C457.109 276.011 454.165 289.144 452.353 292.543C450.542 295.943 446.692 294.808 446.919 296.85C447.113 298.253 447.494 299.624 448.051 300.926C448.051 300.926 445.335 300.926 445.335 302.059C445.335 303.191 448.504 307.266 452.58 309.304C456.656 311.342 459.6 313.61 461.412 311.342C463.223 309.073 465.035 304.775 464.808 303.87C464.582 302.966 466.393 304.55 467.979 302.511C468.549 301.782 468.964 300.944 469.198 300.048C469.431 299.152 469.479 298.218 469.337 297.303C469.337 295.497 475.224 280.771 475.903 279.413" fill="#D7E8E7"/>
<path d="M457.109 276.011C457.109 276.011 454.165 289.144 452.353 292.543C450.542 295.943 446.692 294.808 446.919 296.85C447.113 298.253 447.494 299.624 448.051 300.926C448.051 300.926 445.335 300.926 445.335 302.059C445.335 303.191 448.504 307.266 452.58 309.304C456.656 311.342 459.6 313.61 461.412 311.342C463.223 309.073 465.035 304.775 464.808 303.87C464.582 302.966 466.393 304.55 467.979 302.511C468.549 301.782 468.964 300.944 469.198 300.048C469.431 299.152 469.479 298.218 469.337 297.303C469.337 295.497 475.224 280.771 475.903 279.413" stroke="#263238" stroke-linecap="round" stroke-linejoin="round"/>
<path d="M452.786 299.319C456.685 299.931 460.51 300.95 464.196 302.361" stroke="#263238" stroke-width="0.75" stroke-linecap="round" stroke-linejoin="round"/>
<path d="M449.364 298.554C449.364 298.554 453.547 305.399 460.013 306.541" stroke="#263238" stroke-width="0.75" stroke-linecap="round" stroke-linejoin="round"/>
<path d="M465.795 215.72C465.795 215.72 466.248 222.514 460.36 233.155C454.473 243.797 446.322 264.178 452.209 275.273C458.097 286.368 474.174 284.104 478.703 274.142C483.232 264.179 480.288 238.817 475.533 228.174C470.777 217.53 468.743 213.682 468.743 213.682C468.743 213.682 466.022 212.323 465.795 215.72Z" fill="#263238" stroke="#263238" stroke-linecap="round" stroke-linejoin="round"/>
<path d="M467.967 276.727C470.159 276.712 472.277 275.931 473.954 274.52" stroke="white" stroke-width="0.75" stroke-linecap="round" stroke-linejoin="round"/>
<path d="M467.007 219.989C468.24 233.333 466.824 246.789 462.839 259.584C460.298 267.339 460.676 272.643 463.824 275.205" stroke="white" stroke-width="0.75" stroke-linecap="round" stroke-linejoin="round"/>
<path d="M466.311 228.325C466.311 228.325 459.365 246.038 453.808 258.194C448.251 270.351 453.113 277.992 461.449 279.728" stroke="white" stroke-width="0.75" stroke-linecap="round" stroke-linejoin="round"/>
<path d="M443.003 319.034C443.003 319.034 441.97 330.594 444.106 332.196C446.243 333.798 461.728 338.603 471.874 335.4" stroke="#263238" stroke-linecap="round" stroke-linejoin="round"/>
<path d="M430.757 323.652L440.37 325.254" stroke="#263238" stroke-linecap="round" stroke-linejoin="round"/>
<path d="M393.019 432.62C396.302 431.208 399.951 425.432 403.523 425.648C407.323 425.878 407.795 424.045 407.795 420.308C407.68 418.755 407.249 417.242 406.528 415.862C406.432 416.029 406.338 416.183 406.242 416.367C404.026 420.716 400.252 424.07 395.674 425.761C393.779 426.465 391.695 426.465 389.801 425.761L389.361 425.942C389.104 426.199 388.852 426.454 388.573 426.71C387.612 427.592 382.043 431.511 382.68 433.316C383.738 436.282 391.197 433.399 393.019 432.62Z" fill="#C6FF00" stroke="#263238" stroke-linecap="round" stroke-linejoin="round"/>
<path d="M345.952 393.683C344.569 394.174 343.186 394.606 341.949 394.933C337.545 396.107 335.785 396.988 336.371 398.162C336.958 399.336 346.06 401.392 350.17 401.978C354.279 402.564 356.922 401.392 358.089 401.392C359.256 401.392 360.728 402.859 363.08 401.978C365.049 401.24 364.331 396.79 364.053 393.295C360.971 394.287 357.788 394.934 354.564 395.226C348.616 395.705 346.527 394.248 345.952 393.683Z" fill="#C6FF00" stroke="#263238" stroke-linecap="round" stroke-linejoin="round"/>
<path d="M468.618 413.117L468.433 412.97V387.392H472.109V371.222H458.511V387.392H462.186V413.41L429.661 423.774V426.347C429.678 427.116 429.995 427.848 430.545 428.386C431.094 428.923 431.833 429.225 432.602 429.225C433.37 429.225 434.109 428.923 434.658 428.386C435.208 427.848 435.525 427.116 435.542 426.347V425.981L462.737 422.819V426.709C462.768 427.37 463.052 427.993 463.531 428.45C464.009 428.907 464.646 429.162 465.307 429.162C465.969 429.162 466.605 428.907 467.084 428.45C467.562 427.993 467.847 427.37 467.877 426.709V422.68L496.174 425.971V426.338C496.191 427.106 496.508 427.838 497.058 428.376C497.607 428.914 498.346 429.215 499.115 429.215C499.884 429.215 500.622 428.914 501.172 428.376C501.721 427.838 502.038 427.106 502.055 426.338V423.765L468.618 413.117Z" fill="#263238" stroke="#263238" stroke-linecap="round" stroke-linejoin="round"/>
<path d="M505.559 355.446H428.454C425.385 355.446 422.897 357.934 422.897 361.003V368.644C422.897 371.713 425.385 374.201 428.454 374.201H505.559C508.628 374.201 511.116 371.713 511.116 368.644V361.003C511.116 357.934 508.628 355.446 505.559 355.446Z" fill="#263238" stroke="#263238" stroke-linecap="round" stroke-linejoin="round"/>
<path d="M350.302 313.798H388.455V269.726H350.302V313.798Z" fill="white" stroke="#263238" stroke-linecap="round" stroke-linejoin="round"/>
<path d="M391.416 315.772H348.328V275.975H368.72L391.416 315.772Z" fill="white" stroke="#263238" stroke-linecap="round" stroke-linejoin="round"/>
<path d="M339.089 317.985H363.737C364.202 317.972 364.642 317.779 364.966 317.446C365.29 317.113 365.471 316.667 365.471 316.202C365.471 315.738 365.29 315.291 364.966 314.958C364.642 314.625 364.202 314.432 363.737 314.419H339.089C338.439 314.419 337.797 314.269 337.215 313.98C336.632 313.692 336.124 313.272 335.731 312.754C335.338 312.236 335.07 311.635 334.948 310.996C334.827 310.357 334.854 309.699 335.029 309.073L343.773 277.738C343.889 277.286 343.824 276.806 343.59 276.402C343.357 275.998 342.975 275.701 342.525 275.576C342.075 275.45 341.595 275.506 341.186 275.731C340.777 275.956 340.472 276.332 340.338 276.779L331.593 308.114C331.271 309.271 331.22 310.487 331.446 311.666C331.671 312.846 332.167 313.957 332.893 314.913C333.62 315.869 334.558 316.644 335.634 317.177C336.71 317.71 337.895 317.986 339.096 317.985H339.089Z" fill="white" stroke="#263238" stroke-linecap="round" stroke-linejoin="round"/>
<path d="M350.795 308.681L356.377 308.012L347.729 235.851L342.148 236.52L350.795 308.681Z" fill="white" stroke="#263238" stroke-width="1.00011" stroke-linecap="round" stroke-linejoin="round"/>
<path d="M342.146 236.529C336.681 260.86 339.735 286.33 350.797 308.68L342.146 236.529Z" fill="white" stroke="#263238" stroke-linecap="round" stroke-linejoin="round"/>
<path d="M543.508 317.827H318.101V444.946H543.508V317.827Z" fill="#263238"/>
<mask id="mask1_1_4220" style="mask-type:luminance" maskUnits="userSpaceOnUse" x="318" y="317" width="226" height="128">
<path d="M543.509 317.827H318.103V444.946H543.509V317.827Z" fill="white"/>
</mask>
<g mask="url(#mask1_1_4220)">
<path opacity="0.72" d="M543.509 317.827H318.103V444.946H543.509V317.827Z" fill="white"/>
</g>
<path d="M543.508 317.827H318.101V444.946H543.508V317.827Z" stroke="#263238" stroke-linecap="round" stroke-linejoin="round"/>
<path d="M543.335 320.877H318.206V324.394H543.335V320.877Z" fill="#263238"/>
<path d="M545.149 315.743H313.176V321.3H545.149V315.743Z" fill="white" stroke="#263238" stroke-linecap="round" stroke-linejoin="round"/>
<path d="M174.62 305.149L171.147 307.928C171.147 307.928 161.248 313.138 159.338 314.7C157.428 316.263 158.817 317.826 159.859 319.737C160.901 321.647 165.937 323.731 167.674 323.731C169.41 323.731 177.399 319.91 178.614 317.653C179.83 315.395 181.045 307.407 181.045 307.407L174.62 305.149Z" fill="white" stroke="#263238" stroke-linecap="round" stroke-linejoin="round"/>
<path d="M172.884 312.964L172.363 317.132C172.363 317.132 165.243 321.3 165.938 322.515C166.633 323.731 167.327 323.383 171.495 322.168C175.663 320.952 178.442 318.695 178.615 317.653" stroke="#263238" stroke-linecap="round" stroke-linejoin="round"/>
<path d="M165.242 312.095L166.978 320.257" stroke="#263238" stroke-linecap="round" stroke-linejoin="round"/>
<path d="M161.421 314.006L165.068 322.862" stroke="#263238" stroke-linecap="round" stroke-linejoin="round"/>
<path d="M159.858 315.395C159.858 315.395 160.727 320.257 162.811 321.82" stroke="#263238" stroke-linecap="round" stroke-linejoin="round"/>
<path d="M175.838 299.592L174.448 305.844L181.048 307.407L184 300.46L175.838 299.592Z" fill="#C6FF00" stroke="#263238" stroke-linecap="round" stroke-linejoin="round"/>
<path d="M165.916 229.172C165.353 233.253 165.537 237.401 166.459 241.416C168.022 246.799 174.621 273.543 175.489 275.453C176.358 277.364 176.184 280.316 175.663 283.442C175.142 286.568 177.226 294.035 177.226 294.556C177.226 295.077 174.274 297.161 174.1 299.245C173.927 301.329 177.4 302.718 180.526 303.065C183.652 303.412 185.735 303.065 187.646 294.382C189.556 285.699 183.999 274.064 180.526 260.345C177.052 246.626 172.364 236.553 171.669 233.775C170.974 230.996 166.936 225.959 165.916 229.172Z" fill="#D7E8E7" stroke="#263238" stroke-linecap="round" stroke-linejoin="round"/>
<path d="M202.232 418.78C202.232 418.78 205.705 423.411 205.011 424.801C204.316 426.19 197.137 428.274 195.748 429.431C193.707 431.473 191.144 432.915 188.339 433.599C183.939 434.756 173.288 436.61 174.446 434.756C175.605 432.903 188.802 423.411 188.802 423.411C193.195 421.636 197.678 420.09 202.232 418.78Z" fill="white" stroke="#263238" stroke-linecap="round" stroke-linejoin="round"/>
<path d="M204.135 423.757C204.135 423.757 196.355 426.536 193.846 428.481C192.365 429.637 190.785 430.66 189.123 431.537" stroke="#263238" stroke-width="0.75" stroke-linecap="round" stroke-linejoin="round"/>
<path d="M195.518 404.192L202.234 418.78C202.234 418.78 202.002 419.706 197.834 421.558C194.962 422.721 191.902 423.349 188.804 423.411L185.793 412.528L195.518 404.192Z" fill="#263238" stroke="#263238" stroke-linecap="round" stroke-linejoin="round"/>
<path d="M184.171 296.06C184.171 296.06 178.844 299.301 178.614 300.691C178.698 302.726 179.008 304.745 179.539 306.712C179.539 306.712 168.657 329.403 165.416 335.192C162.175 340.981 157.543 352.326 162.173 359.504C166.804 366.683 180.698 400.488 180.698 400.488L176.066 426.42L187.875 429.431C187.875 429.431 195.053 409.981 197.6 402.803C200.146 395.624 206.167 377.101 207.094 370.619C208.021 364.136 208.714 354.873 208.946 354.178C209.178 353.483 229.323 324.078 232.101 317.362C234.88 310.646 234.648 296.523 233.258 293.514C231.869 290.505 184.171 296.06 184.171 296.06Z" fill="#263238" stroke="#263238" stroke-linecap="round" stroke-linejoin="round"/>
<path d="M198.064 303.933L191.812 306.944L198.527 311.344L188.107 309.955L198.989 314.122" stroke="white" stroke-width="0.75" stroke-linecap="round" stroke-linejoin="round"/>
<path d="M215.197 306.943L202.461 312.037C202.461 312.037 218.438 309.027 225.616 309.259" stroke="#263238" stroke-linecap="round" stroke-linejoin="round"/>
<path d="M200.61 315.278C200.61 315.278 184.633 350.242 184.633 356.726C184.633 363.21 182.317 398.867 182.317 398.867" stroke="white" stroke-width="0.75" stroke-linecap="round" stroke-linejoin="round"/>
<path d="M187.749 216.448C187.749 216.448 166.387 226.971 165.917 229.171C165.446 231.37 167.959 237.645 167.959 237.645C167.959 237.645 181.157 280.525 182.252 283.982C183.346 287.438 183.823 288.222 182.723 289.956C181.622 291.69 180.209 294.825 181.781 296.552C183.352 298.279 193.867 301.422 200.629 301.422C207.391 301.422 219.477 299.379 227.331 297.495C235.185 295.612 234.871 292.155 234.555 288.542C234.24 284.928 229.686 223.043 229.686 220.686C229.686 218.33 213.037 214.875 207.382 214.561C201.728 214.247 189.637 214.564 187.749 216.448Z" fill="#D7E8E7" stroke="#263238" stroke-linecap="round" stroke-linejoin="round"/>
<path d="M190.053 227.145L195.451 242.396L204.132 226.911C204.132 226.911 201.786 219.409 195.451 219.871C189.116 220.334 190.053 227.145 190.053 227.145Z" fill="#263238" stroke="#263238" stroke-linecap="round" stroke-linejoin="round"/>
<path d="M195.456 242.4C195.456 242.4 192.64 284.868 192.64 286.98C192.64 289.092 190.528 295.895 190.528 295.895L195.221 301.293C195.221 301.293 202.723 295.895 203.903 291.907C205.082 287.918 195.456 242.4 195.456 242.4Z" fill="#263238" stroke="#263238" stroke-linecap="round" stroke-linejoin="round"/>
<path d="M187.748 215.035C187.748 215.035 186.65 221.633 187.277 224.46C187.905 227.287 185.235 233.726 186.493 234.513C187.75 235.299 191.99 226.816 191.99 226.816L196.702 234.827L199.844 226.352C199.844 226.352 204.241 234.991 205.498 234.206C206.755 233.421 204.713 228.079 206.597 225.409C207.599 223.752 208.242 221.903 208.486 219.983C208.729 218.062 208.568 216.111 208.011 214.257C206.911 210.015 202.357 210.015 198.586 210.488C194.816 210.96 190.419 210.952 187.748 215.035Z" fill="#DEF7E5" stroke="#263238" stroke-linecap="round" stroke-linejoin="round"/>
<path d="M187.75 216.448C187.75 216.448 192.776 223.358 193.724 226.658C194.671 229.957 196.085 236.867 196.709 234.825C197.333 232.783 197.023 224.929 200.792 220.531C204.561 216.132 203.619 212.993 203.619 212.993C203.619 212.993 198.744 218.962 187.75 216.448Z" fill="white" stroke="#263238" stroke-linecap="round" stroke-linejoin="round"/>
<path d="M177.696 203.883C177.696 203.883 183.823 215.978 190.105 219.12C196.388 222.261 202.985 218.963 204.714 214.093C206.442 209.224 204.871 202.941 204.871 202.941C204.871 202.941 208.326 200.899 208.797 198.229C209.268 195.559 209.739 194.617 206.127 192.575C204.743 191.687 203.269 190.949 201.728 190.375C201.728 190.375 201.571 185.035 198.43 183.307C195.289 181.578 188.691 182.522 184.765 186.763C180.839 191.005 177.696 203.883 177.696 203.883Z" fill="white" stroke="#263238" stroke-linecap="round" stroke-linejoin="round"/>
<path d="M188.062 202.627C189.16 204.183 190.057 205.871 190.732 207.652C191.046 209.223 189.79 211.108 191.676 211.108C192.231 211.108 192.781 210.997 193.293 210.783C193.805 210.568 194.27 210.254 194.66 209.858" stroke="#263238" stroke-linecap="round" stroke-linejoin="round"/>
<path d="M191.66 197.853C191.66 197.853 192.449 195.093 196.129 195.62" stroke="#263238" stroke-linecap="round" stroke-linejoin="round"/>
<path d="M185.615 200.351C185.615 200.351 182.854 199.562 180.226 202.852" stroke="#263238" stroke-linecap="round" stroke-linejoin="round"/>
<path d="M192.971 211.131L194.027 214.25C195.534 213.954 196.925 213.236 198.038 212.178C199.151 211.119 199.938 209.766 200.309 208.276" stroke="#263238" stroke-linecap="round" stroke-linejoin="round"/>
<path d="M188.848 205.846C188.848 206.7 188.595 207.536 188.121 208.247C187.646 208.957 186.971 209.511 186.182 209.839C185.392 210.166 184.524 210.252 183.685 210.085C182.847 209.919 182.077 209.507 181.473 208.903C180.868 208.299 180.457 207.529 180.29 206.691C180.123 205.853 180.209 204.984 180.535 204.194C180.862 203.405 181.416 202.73 182.127 202.255C182.837 201.78 183.673 201.527 184.527 201.527C185.095 201.526 185.657 201.638 186.181 201.855C186.705 202.072 187.181 202.39 187.582 202.791C187.984 203.192 188.302 203.669 188.519 204.193C188.736 204.717 188.848 205.279 188.848 205.846Z" stroke="#263238" stroke-width="0.5" stroke-linecap="round" stroke-linejoin="round"/>
<path d="M199.686 199.957L204.399 195.716" stroke="#263238" stroke-width="0.5" stroke-linecap="round" stroke-linejoin="round"/>
<path d="M199.843 201.292C199.843 202.146 199.589 202.982 199.115 203.692C198.64 204.403 197.965 204.957 197.175 205.284C196.386 205.611 195.517 205.696 194.679 205.529C193.841 205.363 193.071 204.951 192.467 204.347C191.862 203.742 191.451 202.972 191.284 202.134C191.118 201.296 191.204 200.427 191.531 199.637C191.858 198.848 192.412 198.173 193.123 197.699C193.834 197.224 194.669 196.971 195.524 196.971C196.091 196.971 196.653 197.083 197.177 197.3C197.701 197.517 198.177 197.836 198.578 198.237C198.979 198.638 199.298 199.114 199.515 199.639C199.731 200.163 199.843 200.725 199.843 201.292Z" stroke="#263238" stroke-width="0.5" stroke-linecap="round" stroke-linejoin="round"/>
<path d="M196.804 200.797C197.028 201.295 196.943 201.817 196.61 201.967C196.276 202.117 195.829 201.828 195.605 201.338C195.382 200.847 195.466 200.318 195.801 200.168C196.136 200.018 196.583 200.301 196.804 200.797Z" fill="#263238"/>
<path d="M187.136 204.683C187.36 205.179 187.275 205.703 186.942 205.851C186.608 206 186.161 205.712 185.937 205.222C185.714 204.732 185.798 204.202 186.133 204.054C186.468 203.905 186.911 204.186 187.136 204.683Z" fill="#263238"/>
<path d="M188.062 204.197C188.062 204.197 189.79 201.998 191.362 202.947" stroke="#263238" stroke-width="0.5" stroke-linecap="round" stroke-linejoin="round"/>
<path d="M190.733 189.747C190.733 189.747 185.392 195.559 181.309 200.899C179.831 203.005 178.204 205.001 176.44 206.873C175.47 205.104 174.63 203.267 173.926 201.376C173.142 199.014 172.198 196.977 172.198 196.977L170.785 200.12C170.785 200.12 166.701 184.883 171.099 177.815C175.498 170.746 185.455 168.954 192.994 171.624C200.534 174.294 201.57 181.271 202.985 184.883C204.399 188.496 205.655 193.051 205.655 193.051L203.613 197.449C203.613 197.449 199.843 194.15 197.958 192.423C196.785 191.299 195.92 189.892 195.445 188.339C195.445 188.339 192.304 192.109 191.362 193.208C190.861 193.829 190.213 194.315 189.477 194.622L190.733 189.747Z" fill="#263238" stroke="#263238" stroke-linecap="round" stroke-linejoin="round"/>
<path d="M192.192 174.95C190.483 181.963 186.94 188.395 181.924 193.586" stroke="white" stroke-width="0.75" stroke-linecap="round" stroke-linejoin="round"/>
<path d="M194.094 176.091C194.457 180.118 193.803 184.172 192.192 187.881" stroke="white" stroke-width="0.75" stroke-linecap="round" stroke-linejoin="round"/>
<path d="M228.45 219.161C228.45 219.161 234.511 220.742 236.62 223.642C238.729 226.541 252.958 266.595 253.485 273.447C254.011 280.299 251.904 294.529 252.431 296.11C252.959 297.691 254.539 299.8 252.958 300.59C251.521 301.486 250.195 302.548 249.006 303.753C245.562 303.585 242.131 303.233 238.725 302.698C237.144 302.172 235.035 298.746 236.617 296.637C237.764 295.218 238.412 293.46 238.461 291.636C238.461 290.583 235.168 277.618 235.168 274.982C235.18 272.569 235.053 270.157 234.788 267.758C233.857 263.895 232.715 260.085 231.364 256.348C227.135 248.673 225.034 240.006 225.279 231.246" fill="#D7E8E7"/>
<path d="M228.45 219.161C228.45 219.161 234.511 220.742 236.62 223.642C238.729 226.541 252.958 266.595 253.485 273.447C254.011 280.299 251.904 294.529 252.431 296.11C252.959 297.691 254.539 299.8 252.958 300.59C251.521 301.486 250.195 302.548 249.006 303.753C245.562 303.585 242.131 303.233 238.725 302.698C237.144 302.172 235.035 298.746 236.617 296.637C237.764 295.218 238.412 293.46 238.461 291.636C238.461 290.583 235.168 277.618 235.168 274.982C235.18 272.569 235.053 270.157 234.788 267.758C233.857 263.895 232.715 260.085 231.364 256.348C227.135 248.673 225.034 240.006 225.279 231.246" stroke="#263238" stroke-linecap="round" stroke-linejoin="round"/>
<path d="M238.727 302.698L238.201 307.7L246.897 309.017L249.006 303.746L238.727 302.698Z" fill="#DEF7E5" stroke="#263238" stroke-linecap="round" stroke-linejoin="round"/>
<path d="M238.202 307.705C238.202 307.705 228.188 312.186 227.397 313.503C226.607 314.82 225.024 321.144 223.971 321.936C222.918 322.728 221.862 323.781 224.762 323.517C225.481 323.537 226.194 323.379 226.838 323.057C227.481 322.735 228.035 322.259 228.45 321.672C228.45 321.672 228.224 324.367 228.513 324.599C230.683 324.866 232.868 325.001 235.055 325.003C235.71 325.074 236.372 325.055 237.022 324.946C237.022 324.946 236.501 326.219 237.486 326.625C238.471 327.03 238.412 326.104 239.049 325.294C239.819 323.861 240.477 322.37 241.016 320.835C241.334 320.052 241.567 319.237 241.711 318.404C243.296 317.549 244.741 316.456 245.996 315.163C247.385 313.485 246.632 308.622 246.632 308.622L238.202 307.705Z" fill="white" stroke="#263238" stroke-linecap="round" stroke-linejoin="round"/>
<path d="M228.451 321.672L228.976 315.048" stroke="#263238" stroke-linecap="round" stroke-linejoin="round"/>
<path d="M231.061 324.946L231.929 315.569" stroke="#263238" stroke-linecap="round" stroke-linejoin="round"/>
<path d="M234.361 324.773L235.75 316.09" stroke="#263238" stroke-linecap="round" stroke-linejoin="round"/>
<path d="M237.023 324.951C237.023 324.951 238.181 317.483 238.355 316.615" stroke="#263238" stroke-linecap="round" stroke-linejoin="round"/>
<path d="M176.067 426.421C176.067 426.421 172.132 429.894 171.437 430.358C170.742 430.822 158.007 437.767 158.239 439.619C158.471 441.471 171.669 440.545 179.078 438.694C186.487 436.842 186.951 436.146 187.182 434.988C187.412 433.831 187.876 429.431 187.876 429.431L176.067 426.421Z" fill="white" stroke="#263238" stroke-linecap="round" stroke-linejoin="round"/>
<path d="M160.754 438.774C160.754 438.774 178.273 438.496 185.224 434.051" stroke="#263238" stroke-width="0.75" stroke-linecap="round" stroke-linejoin="round"/>
<path d="M81.775 428.645C81.775 428.645 96.5569 432.633 100.076 435.684C103.595 438.735 93.0379 439.673 86.468 439.435C79.8981 439.198 79.1951 437.324 74.5021 437.324C69.8091 437.324 65.5857 439.435 64.8828 435.212C64.1798 430.988 70.0439 429.346 74.0325 428.404C76.5955 427.865 79.2504 427.947 81.775 428.645Z" fill="white" stroke="#263238" stroke-linecap="round" stroke-linejoin="round"/>
<path d="M77.5129 435.437C77.5129 435.437 84.7372 440.161 97.5352 437.382" stroke="#263238" stroke-width="0.75" stroke-linecap="round" stroke-linejoin="round"/>
<path d="M66.9956 430.991C70.5836 433.317 74.349 435.357 78.2571 437.092C83.4183 439.203 87.1735 439.908 84.827 441.785C82.4805 443.662 81.7706 443.895 75.9106 445.069C70.0507 446.243 58.314 443.192 57.1401 443.192C55.9662 443.192 54.795 444.599 51.5094 443.427C48.2237 442.254 47.7583 440.611 48.9281 436.857C50.0978 433.103 65.1173 429.817 66.9956 430.991Z" fill="white" stroke="#263238" stroke-linecap="round" stroke-linejoin="round"/>
<path d="M54.9887 440.72C63.8543 443.86 73.4794 444.152 82.5187 441.554" stroke="#263238" stroke-width="0.75" stroke-linecap="round" stroke-linejoin="round"/>
<path d="M99.6107 268.394L102.425 297.957C102.425 297.957 98.4368 340.424 93.5104 354.268C88.584 368.113 84.1245 383.361 82.4823 388.992C80.8402 394.623 79.1981 416.679 80.6054 421.137C81.3988 423.236 81.7964 425.463 81.778 427.707V428.645C81.778 428.645 82.7171 429.349 79.4315 431.226C77.0762 432.462 74.5465 433.332 71.9294 433.807L67.003 430.991C67.003 430.991 59.9635 436.152 57.3822 437.561C54.6717 438.681 51.8354 439.469 48.9354 439.908C47.844 438.219 47.1983 436.281 47.0585 434.276V425.126C47.0585 421.84 44.712 405.651 44.9468 395.797C45.1816 385.943 47.0585 375.149 48.9354 370.223C50.8123 365.296 57.1475 350.28 57.1475 350.28C56.8379 343.928 55.815 337.632 54.098 331.509C51.0416 319.543 50.3469 313.449 46.3555 300.538C42.3641 287.627 50.3442 268.629 50.3442 268.629C50.3442 268.629 68.8799 271.913 78.9633 271.444C85.9187 271.004 92.8252 269.984 99.6107 268.394Z" fill="#263238" stroke="#263238" stroke-linecap="round" stroke-linejoin="round"/>
<path d="M64.4146 293.733C65.4426 295.549 66.6197 297.276 67.9336 298.896" stroke="white" stroke-width="0.75" stroke-linecap="round" stroke-linejoin="round"/>
<path d="M77.0836 275.667L84.826 275.902L84.5912 274.025" stroke="white" stroke-width="0.75" stroke-linecap="round" stroke-linejoin="round"/>
<path d="M87.6415 274.495V276.372C87.6415 276.372 94.2114 278.014 99.374 275.198" stroke="white" stroke-width="0.75" stroke-linecap="round" stroke-linejoin="round"/>
<path d="M95.152 278.718L93.2751 285.991L96.3246 290.214C96.3246 290.214 91.8664 297.957 91.8664 298.661" stroke="white" stroke-width="0.75" stroke-linecap="round" stroke-linejoin="round"/>
<path d="M96.5544 300.069L88.812 306.404C88.812 306.404 84.119 346.29 81.5377 356.614C78.9564 366.937 69.3371 400.49 68.1645 407.997C67.5046 411.647 67.0349 415.328 66.7572 419.026C66.7572 419.729 68.1645 422.31 68.1645 423.717V429.114" stroke="white" stroke-width="0.75" stroke-linecap="round" stroke-linejoin="round"/>
<path d="M73.5647 272.618C73.5647 272.618 87.6423 274.495 93.9774 274.025C100.313 273.556 101.252 270.969 101.955 268.629C102.658 266.29 93.5092 210.441 93.0396 207.156C92.5701 203.872 93.2744 198.475 88.8162 196.598C84.358 194.721 74.9735 198.005 73.33 204.34C71.6864 210.675 76.8504 247.512 75.4375 255.487C74.513 261.16 73.8878 266.879 73.5647 272.618Z" fill="white" stroke="#263238" stroke-linecap="round" stroke-linejoin="round"/>
<path d="M85.7645 207.626L89.2835 213.961L90.4561 266.517L94.6795 276.606L98.1985 264.171L91.3911 213.491L92.3288 205.989L89.5128 199.889L85.7645 207.626Z" fill="#263238" stroke="#263238" stroke-linecap="round" stroke-linejoin="round"/>
<path d="M90.4567 205.045L94.6801 212.319L92.5684 198.946L88.345 201.527L90.4567 205.045Z" fill="white" stroke="#263238" stroke-linecap="round" stroke-linejoin="round"/>
<path d="M80.1345 184.397L78.9619 189.793L88.5813 206.922C89.7765 204.197 91.1077 201.535 92.5699 198.944C93.8355 197.149 98.0548 190.399 98.0548 190.399C98.0548 190.399 90.9278 190.967 89.7538 186.744C88.5799 182.52 89.7538 176.655 85.297 176.185C80.8402 175.716 80.1345 184.397 80.1345 184.397Z" fill="white" stroke="#263238" stroke-linecap="round" stroke-linejoin="round"/>
<path d="M84.8 181.078L85.2598 182.655C85.0076 183.436 84.9341 184.265 85.0447 185.078C85.1553 185.892 85.4472 186.67 85.8989 187.356C87.4577 189.346 96.1879 194.13 100.017 193.012C103.846 191.894 105.006 180.8 105.006 180.8C105.006 180.8 108.647 180.715 108.28 178.623C107.913 176.531 105.779 174.222 105.567 171.838C105.354 169.454 106.645 168.834 106.081 166.066C105.724 163.328 104.296 160.845 102.11 159.159C99.5847 157.214 85.7627 163.443 81.6616 167.817C77.5604 172.192 76.7185 176.838 77.7327 179.475C78.7469 182.112 84.8 181.078 84.8 181.078Z" fill="white" stroke="#263238" stroke-linecap="round" stroke-linejoin="round"/>
<path d="M102.473 172.9C102.419 173.753 102.097 174.428 101.754 174.403C101.41 174.378 101.178 173.672 101.234 172.819C101.29 171.966 101.612 171.291 101.954 171.317C102.295 171.344 102.527 172.048 102.473 172.9Z" fill="#263238"/>
<path d="M103.438 168.98C103.438 168.98 101.693 167.366 99.9152 170.008" stroke="#263238" stroke-linecap="round" stroke-linejoin="round"/>
<path d="M100.239 184.216C99.3725 183.984 98.6158 183.452 98.1026 182.716" stroke="#263238" stroke-linecap="round" stroke-linejoin="round"/>
<path d="M86.5135 171.045L86.055 175.334L88.7586 174.545C88.7586 174.545 87.2943 177.905 89.2837 176.351C91.2732 174.796 93.9184 169.621 94.7533 169.126C95.5883 168.632 100.365 164.065 103.602 160.921C106.839 157.777 108.264 153.448 107.157 151.335C106.05 149.222 92.5874 139.943 80.3132 146.462C68.0389 152.98 64.7102 162.501 65.9966 167.747C67.2831 172.993 77.1609 186.73 78.935 186.945C80.7091 187.161 84.7991 181.078 84.7991 181.078C84.7991 181.078 79.506 179.689 80.5563 177.429C81.6066 175.168 86.5135 171.045 86.5135 171.045Z" fill="#263238" stroke="#263238" stroke-linecap="round" stroke-linejoin="round"/>
<path d="M78.4921 172.212C76.8839 173.354 75.1931 174.376 73.4337 175.268" stroke="white" stroke-width="0.75" stroke-linecap="round" stroke-linejoin="round"/>
<path d="M100.406 149.558C95.4612 156.334 89.8277 162.58 83.5955 168.195" stroke="white" stroke-width="0.75" stroke-linecap="round" stroke-linejoin="round"/>
<path d="M74.784 168.708C74.2524 169.203 73.7064 169.698 73.1461 170.195" stroke="white" stroke-width="0.75" stroke-linecap="round" stroke-linejoin="round"/>
<path d="M90.2734 150.139C86.6481 155.947 82.3531 161.309 77.4767 166.116" stroke="white" stroke-width="0.75" stroke-linecap="round" stroke-linejoin="round"/>
<path d="M78.492 187.916L90.4579 205.043L81.7763 213.725L75.676 190.261L78.492 187.916Z" fill="white" stroke="#263238" stroke-linecap="round" stroke-linejoin="round"/>
<path d="M72.3912 191.67L55.9671 197.067C55.9671 197.067 43.0663 258.543 42.1244 260.182C41.1824 261.822 24.293 292.091 26.4033 295.377C28.5136 298.662 48.6943 309.454 50.3364 308.75C51.9785 308.046 63.9444 285.288 71.2186 278.718C78.4929 272.148 85.7644 263.936 86.7035 254.786L80.3684 227.804L79.6641 210.91L72.3912 191.67Z" fill="#D7E8E7" stroke="#263238" stroke-linecap="round" stroke-linejoin="round"/>
<path d="M77.0834 190.263L72.3904 191.67L71.2179 214.664L79.1951 219.122L74.5021 226.162L86.7028 254.781L81.775 210.436L77.0834 190.263Z" fill="#DEF7E5" stroke="#263238" stroke-linecap="round" stroke-linejoin="round"/>
<path d="M61.9024 289.481L43.1583 305.785C43.1583 305.785 45.0088 308.008 50.3353 308.75C50.3353 308.75 58.6612 297.352 61.9024 289.481Z" fill="#DEF7E5" stroke="#263238" stroke-linecap="round" stroke-linejoin="round"/>
<path d="M64.8769 275.902C68.0158 275.961 71.1489 276.197 74.2614 276.606C75.9036 277.076 82.2387 283.645 82.2387 283.645C82.2387 283.645 82.2387 284.349 79.8922 285.053C77.5457 285.758 73.3223 282.707 73.3223 282.707L64.1822 291.387L58.5515 284.349L64.8769 275.902Z" fill="white" stroke="#263238" stroke-linecap="round" stroke-linejoin="round"/>
<path d="M64.1839 273.321L66.2956 276.137L58.5531 284.349L57.6154 281.292L64.1839 273.321Z" fill="white" stroke="#263238" stroke-linecap="round" stroke-linejoin="round"/>
<path d="M70.0438 193.548C70.0438 193.548 47.989 193.548 46.3469 195.425C44.7048 197.302 27.3416 249.859 27.3416 252.908C27.3416 255.958 57.1388 283.879 57.1388 283.879L65.5856 273.556L48.6934 247.042L62.0666 218.183" fill="#D7E8E7"/>
<path d="M70.0438 193.548C70.0438 193.548 47.989 193.548 46.3469 195.425C44.7048 197.302 27.3416 249.859 27.3416 252.908C27.3416 255.958 57.1388 283.879 57.1388 283.879L65.5856 273.556L48.6934 247.042L62.0666 218.183" stroke="#263238" stroke-linecap="round" stroke-linejoin="round"/>
</svg>
